<svg xmlns="http://www.w3.org/2000/svg" width="632.421" height="103.961" viewBox="0 0 632.421 103.961">
  <g id="Group_2" data-name="Group 2" transform="translate(0 0.166)">
    <path id="Rectangle_1" data-name="Rectangle 1" d="M0,0,29.607.118l.118,29.607L.118,29.607Z" transform="translate(0 20.853) rotate(-45)" fill="#203346"/>
    <path id="Rectangle_4" data-name="Rectangle 4" d="M0,0,29.607.118l.118,29.607L.118,29.607Z" transform="translate(83.226 20.853) rotate(-45)" fill="#203346"/>
    <path id="Rectangle_2" data-name="Rectangle 2" d="M0,0,29.607.118l.118,29.607L.118,29.607Z" transform="translate(20.805 41.493) rotate(-45)" fill="#203346"/>
    <path id="Rectangle_5" data-name="Rectangle 5" d="M0,0,29.607.118l.118,29.607L.118,29.607Z" transform="translate(62.421 41.493) rotate(-45)" fill="#203346"/>
    <path id="Rectangle_3" data-name="Rectangle 3" d="M0,0,29.607.118l.118,29.607L.118,29.607Z" transform="translate(0 62.135) rotate(-45)" fill="#203346"/>
    <path id="Path_3" data-name="Path 3" d="M0,0,29.725,29.725.118,29.607Z" transform="translate(20.805 82.777) rotate(-45)" fill="#203346"/>
    <path id="Path_1" data-name="Path 1" d="M29.607.118l.118,29.607Z" transform="translate(41.613 103.419) rotate(-45)" fill="#203346"/>
    <path id="Path_4" data-name="Path 4" d="M0,0,29.607.118l.118,29.607Z" transform="translate(20.805 82.777) rotate(-45)" fill="#203346" opacity="0.5"/>
    <path id="Path_5" data-name="Path 5" d="M0,0,29.607.118l.118,29.607Z" transform="translate(62.421 82.777) rotate(-45)" fill="#203346" opacity="0.5"/>
    <path id="Path_2" data-name="Path 2" d="M0,0,29.725,29.725.118,29.607Z" transform="translate(62.421 82.777) rotate(-45)" fill="#203346"/>
    <path id="Rectangle_6" data-name="Rectangle 6" d="M0,0,29.607.118l.118,29.607L.118,29.607Z" transform="translate(83.226 62.135) rotate(-45)" fill="#203346"/>
    <g id="Group_9282" data-name="Group 9282" transform="translate(164 32.208)">
      <path id="Path_345" data-name="Path 345" d="M56.549-59.81a20.543,20.543,0,0,1-8.435,11.661A26,26,0,0,1,33.62-44.212a27.671,27.671,0,0,1-13.839-3.33,22.256,22.256,0,0,1-9.048-9.545A32.222,32.222,0,0,1,7.579-71.834a32.222,32.222,0,0,1,3.153-14.745,22.325,22.325,0,0,1,9.008-9.545,27.259,27.259,0,0,1,13.716-3.332,27.427,27.427,0,0,1,14.289,3.493,18.037,18.037,0,0,1,8.066,10.4L45.576-81.257q-1.31-4.793-4.094-6.906a12.178,12.178,0,0,0-7.534-2.112q-6.879,0-10.766,4.793T19.289-71.834q0,8.855,3.767,13.648T33.7-53.392q9.907,0,12.447-9.5ZM103.308-65.5a28.6,28.6,0,0,1-.328,4.387H73.992Q75.71-52.5,84.228-52.5a11.677,11.677,0,0,0,5.814-1.3,6.945,6.945,0,0,0,3.194-3.737l9.172,3.33a14.433,14.433,0,0,1-6.592,7.433,23.729,23.729,0,0,1-11.587,2.557q-10.154,0-15.723-5.567T62.937-65.334q0-9.992,5.4-15.557T83.57-86.459q9.5,0,14.617,5.443T103.308-65.5ZM83.491-78.251a8.924,8.924,0,0,0-6.51,2.356,11.754,11.754,0,0,0-3.071,6.988H92.99a11.719,11.719,0,0,0-3.112-6.944,8.76,8.76,0,0,0-6.387-2.4ZM135.9-86.457a8.975,8.975,0,0,1,4.422.893l-1.392,9.747a9.427,9.427,0,0,0-5.159-1.218,9.486,9.486,0,0,0-6.919,2.884q-2.907,2.884-2.907,8.083v21.043H112.726v-40.62h9.745l.74,7.961Q126.565-86.457,135.9-86.457Zm37.915,38.915a14.809,14.809,0,0,1-4.954,2.437,21.754,21.754,0,0,1-6.265.893q-13.674,0-13.674-12.267v-20.88h-7.454v-8.287h7.454v-9.342l11.219-3.087v12.429h13.266v8.287H160.14v19.089q0,5.605,5.65,5.605a9.495,9.495,0,0,0,6.3-2.273ZM186.508-91.5q-6.961,0-6.961-5.93,0-6.012,6.961-6.012t6.961,6.012q0,5.93-6.961,5.93Zm5.569,46.471H180.858v-40.62h11.219Zm25.55-40.62h12.939v8.287H218.118v32.333H206.9V-77.357h-7.124v-8.287H206.9v-4.874q0-6.662,4.176-10.2t11.3-3.534a20.223,20.223,0,0,1,4.954.568,10.1,10.1,0,0,1,3.562,1.544l-1.556,7.393a8.422,8.422,0,0,0-4.668-1.218q-7.044,0-7.044,6.256Zm55.521,33.877a9.787,9.787,0,0,0,2.784-.325l-.819,6.746a11.834,11.834,0,0,1-5.326,1.136q-7.858,0-9.414-6.094a11.161,11.161,0,0,1-5.566,4.553,23.467,23.467,0,0,1-8.928,1.544q-5.978,0-9.334-2.679a9.3,9.3,0,0,1-3.357-7.718q0-9.912,15.969-12.836l9.827-1.868v-1.954a7.113,7.113,0,0,0-1.842-5.159,6.782,6.782,0,0,0-5.118-1.91,10.665,10.665,0,0,0-6.142,1.625,8.554,8.554,0,0,0-3.276,5.281l-8.929-3.737a13.467,13.467,0,0,1,5.9-8.287q4.586-3.006,11.956-3.006,8.762,0,13.676,3.778t4.913,11.171v16.656a3.214,3.214,0,0,0,.737,2.356,3.144,3.144,0,0,0,2.292.729Zm-23.748,0a12.829,12.829,0,0,0,6.592-1.747,5.316,5.316,0,0,0,2.989-4.752v-4.224l-8.762,1.949a10.35,10.35,0,0,0-4.135,1.747,3.706,3.706,0,0,0-1.351,3.047,3.625,3.625,0,0,0,1.228,2.965,5.253,5.253,0,0,0,3.439,1.015Zm51.918-34.689q8.107,0,12.611,3.25a16.155,16.155,0,0,1,6.142,8.692l-10.48,3.737q-1.474-7.393-7.943-7.393a8.86,8.86,0,0,0-7.411,3.29q-2.579,3.29-2.577,9.623t2.62,9.545a8.9,8.9,0,0,0,7.288,3.209q7.206,0,8.517-7.23l10.154,3.251a14.6,14.6,0,0,1-6.106,8.938q-4.791,3.33-12.407,3.33-10.154,0-15.723-5.567t-5.569-15.554q0-9.992,5.527-15.557t15.357-5.563Zm55.931,38.915A14.809,14.809,0,0,1,352.3-45.1a21.755,21.755,0,0,1-6.264.893q-13.676,0-13.676-12.267v-20.88H324.9v-8.287h7.452v-9.342l11.219-3.087v12.429h13.266v8.287H343.573v19.089q0,5.605,5.65,5.605a9.495,9.495,0,0,0,6.3-2.273ZM369.942-91.5q-6.96,0-6.96-5.928,0-6.012,6.961-6.012t6.961,6.012q0,5.929-6.963,5.929Zm5.568,46.471H364.291v-40.62H375.51Zm30.707-41.432q9.907,0,15.437,5.605t5.528,15.517q0,9.912-5.528,15.517t-15.437,5.605q-9.907,0-15.436-5.605t-5.523-15.517q0-9.912,5.528-15.517t15.431-5.605Zm0,8.287a8.629,8.629,0,0,0-7.247,3.208q-2.5,3.208-2.5,9.623t2.5,9.623a8.639,8.639,0,0,0,7.245,3.209,8.63,8.63,0,0,0,7.248-3.209q2.5-3.209,2.5-9.623t-2.5-9.623A8.642,8.642,0,0,0,406.217-78.17Zm55.032-8.287q6.633,0,10.686,3.818t4.054,10.964v26.649H464.77v-23.4q0-9.26-7.288-9.26a9.053,9.053,0,0,0-6.674,2.762q-2.743,2.762-2.743,8.449v21.445h-11.22v-40.62h10.072l.328,7.23a14.086,14.086,0,0,1,5.65-6.012,16.722,16.722,0,0,1,8.353-2.031Z" transform="translate(-7.568 104.248)" fill="#203346"/>
    </g>
    <path id="Path_1-2" data-name="Path 1" d="M20.975,0,41.95,20.8H0Z" transform="translate(41.65 82.57)" fill="#203346"/>
  </g>
</svg>
