<svg width="1025" height="173" viewBox="0 0 1025 173" fill="none" xmlns="http://www.w3.org/2000/svg">
<path opacity="0.5" fill-rule="evenodd" clip-rule="evenodd" d="M70.398 102.87L35.3813 137.51H104.712H105.415H174.746L139.729 102.87L105.064 137.162L70.398 102.87Z" fill="#64748B"/>
<path fill-rule="evenodd" clip-rule="evenodd" d="M35.7378 0L0.721191 34.6398L35.3815 68.9271L35.3842 68.9298L0.721191 103.22L35.3841 137.51H35.3815L70.3981 172.15L70.7489 171.802H139.378L139.729 172.15L140.08 171.802H140.081L140.08 171.802L174.746 137.51H174.742L209.406 103.219L174.744 68.9293L209.406 34.6398L174.39 1.52676e-05L139.729 34.2875L139.729 34.2873L105.064 68.5798L70.7544 34.6398L70.3981 34.2873L35.7378 0ZM105.064 69.2744L70.7517 103.217L70.7544 103.22L36.0915 137.51H104.713H104.713L105.064 137.163L105.415 137.51H174.037L139.373 103.219L139.375 103.217L105.064 69.2744Z" fill="#1E293B"/>
<path d="M351.726 112.721C349.968 117.81 347.331 122.206 343.814 125.907C340.391 129.608 336.227 132.431 331.323 134.374C326.511 136.317 321.098 137.288 315.083 137.288C306.755 137.288 299.445 135.392 293.153 131.598C286.953 127.711 282.095 122.252 278.579 115.219C275.155 108.187 273.443 99.8127 273.443 90.0968C273.443 80.3809 275.155 72.0067 278.579 64.9742C282.003 57.9417 286.814 52.5285 293.014 48.7347C299.306 44.8483 306.616 42.9051 314.944 42.9051C321.144 42.9051 326.557 43.7842 331.184 45.5423C335.903 47.2079 339.882 49.7526 343.12 53.1763C346.359 56.5075 348.811 60.6252 350.477 65.5294L343.676 68.7218C341.547 62.337 338.17 57.5253 333.543 54.2867C328.917 50.9555 322.856 49.2899 315.361 49.2899C308.513 49.2899 302.452 50.9555 297.178 54.2867C291.996 57.5253 287.925 62.1982 284.964 68.3054C282.095 74.32 280.661 81.5838 280.661 90.0968C280.661 98.5173 282.095 105.781 284.964 111.888C287.832 117.995 291.857 122.715 297.039 126.046C302.221 129.284 308.236 130.904 315.083 130.904C322.486 130.904 328.778 129.146 333.96 125.629C339.142 122.021 342.75 116.839 344.786 110.084L351.726 112.721Z" fill="#1E293B"/>
<path d="M397.677 137.288C391.292 137.288 385.602 135.854 380.605 132.986C375.608 130.117 371.675 125.999 368.807 120.633C366.031 115.173 364.643 108.696 364.643 101.201C364.643 93.7056 366.031 87.2746 368.807 81.9077C371.675 76.4482 375.516 72.2843 380.327 69.4158C385.139 66.5472 390.645 65.113 396.844 65.113C403.137 65.113 408.504 66.501 412.945 69.277C417.387 72.0529 420.81 75.9393 423.216 80.9361C425.622 85.8403 426.825 91.5311 426.825 98.0084C426.825 98.8411 426.779 99.6739 426.686 100.507C426.686 101.247 426.64 101.941 426.547 102.589H368.946V96.3428H423.494L420.024 97.3144C419.931 89.3565 417.803 83.0181 413.639 78.2989C409.568 73.5797 403.923 71.2201 396.706 71.2201C391.709 71.2201 387.314 72.4231 383.52 74.8289C379.726 77.1422 376.765 80.5659 374.637 85.1C372.508 89.5416 371.444 94.9085 371.444 101.201C371.444 107.4 372.508 112.767 374.637 117.301C376.857 121.836 379.911 125.305 383.797 127.711C387.776 130.025 392.357 131.181 397.538 131.181C402.905 131.181 407.486 130.025 411.279 127.711C415.166 125.398 418.173 122.206 420.301 118.134L425.853 121.327C424.188 124.658 421.967 127.526 419.191 129.932C416.415 132.245 413.223 134.05 409.614 135.345C406.005 136.641 402.026 137.288 397.677 137.288Z" fill="#1E293B"/>
<path d="M442.764 135.9V66.501H448.593L449.426 81.0749C451.184 76.1706 454.006 72.2843 457.893 69.4158C461.779 66.5472 466.452 65.113 471.911 65.113C473.762 65.113 475.428 65.298 476.908 65.6682C478.389 66.0383 479.591 66.6398 480.517 67.4726L478.99 73.5797C477.972 72.932 476.862 72.4231 475.659 72.0529C474.456 71.6828 472.652 71.4977 470.246 71.4977C466.729 71.4977 463.398 72.6081 460.252 74.8289C457.106 76.9572 454.561 79.9645 452.618 83.8509C450.675 87.6447 449.703 92.04 449.703 97.0368V135.9H442.764Z" fill="#1E293B"/>
<path d="M504.436 47.2079V117.579C504.436 121.928 505.454 125.259 507.489 127.573C509.618 129.793 512.671 130.904 516.65 130.904C519.241 130.904 521.508 130.487 523.451 129.655C525.487 128.729 527.291 127.434 528.864 125.768L531.502 131.459C529.743 133.217 527.523 134.651 524.839 135.762C522.156 136.78 519.148 137.288 515.817 137.288C512.209 137.288 509.016 136.641 506.24 135.345C503.464 133.957 501.29 131.875 499.717 129.099C498.236 126.323 497.496 122.807 497.496 118.551V49.1511L504.436 47.2079ZM530.391 66.501V72.4693H483.616V66.501H530.391Z" fill="#1E293B"/>
<path d="M548.706 53.0375C546.948 53.0375 545.514 52.5285 544.403 51.5107C543.386 50.4003 542.877 48.966 542.877 47.2079C542.877 45.4498 543.386 44.0618 544.403 43.0439C545.514 41.9335 546.948 41.3784 548.706 41.3784C550.464 41.3784 551.852 41.9335 552.87 43.0439C553.981 44.0618 554.536 45.4498 554.536 47.2079C554.536 48.966 553.981 50.4003 552.87 51.5107C551.852 52.5285 550.464 53.0375 548.706 53.0375ZM552.176 66.501V135.9H545.236V66.501H552.176Z" fill="#1E293B"/>
<path d="M607.282 34.716C610.52 34.716 613.435 35.0861 616.026 35.8264C618.709 36.4741 620.699 37.3069 621.994 38.3248L619.357 50.9555C618.339 50.3078 617.183 49.7988 615.887 49.4287C614.592 49.0586 613.065 48.8735 611.307 48.8735C607.698 48.8735 604.829 49.7063 602.701 51.3719C600.573 52.9449 599.509 55.6747 599.509 59.561V69.1382L600.342 72.8857V135.9H581.326V58.173C581.326 54.2867 581.974 50.863 583.269 47.9019C584.565 44.9409 586.369 42.4887 588.682 40.5456C590.996 38.6024 593.725 37.1681 596.872 36.2428C600.11 35.2249 603.58 34.716 607.282 34.716ZM621.439 66.501V80.6585H569.251V66.501H621.439Z" fill="#1E293B"/>
<path d="M669.834 91.6236C669.834 87.6447 668.678 84.5449 666.364 82.3241C664.144 80.1033 661.183 78.9929 657.481 78.9929C654.058 78.9929 651.05 79.8719 648.459 81.6301C645.868 83.3882 643.971 86.303 642.769 90.3744L626.529 85.3776C628.102 79.2705 631.526 74.3663 636.8 70.665C642.167 66.9636 649.338 65.113 658.314 65.113C664.421 65.113 669.742 66.0846 674.276 68.0278C678.81 69.8784 682.326 72.7007 684.825 76.4945C687.416 80.2883 688.711 85.0538 688.711 90.7908V118.967C688.711 122.483 690.377 124.241 693.708 124.241C695.281 124.241 696.761 124.01 698.149 123.547L697.039 135.345C694.633 136.548 691.626 137.15 688.017 137.15C684.778 137.15 681.864 136.594 679.273 135.484C676.682 134.374 674.646 132.708 673.166 130.487C671.685 128.174 670.945 125.305 670.945 121.882V121.327L674.276 120.771C673.721 124.288 672.194 127.295 669.696 129.793C667.197 132.199 664.144 134.05 660.535 135.345C657.019 136.641 653.364 137.288 649.57 137.288C644.851 137.288 640.779 136.594 637.355 135.206C633.932 133.726 631.294 131.598 629.444 128.822C627.593 126.046 626.668 122.622 626.668 118.551C626.668 113.369 628.333 109.159 631.665 105.92C634.996 102.589 639.761 100.322 645.961 99.1187L672.055 93.8444L671.916 105.642L655.26 108.973C652.114 109.621 649.708 110.5 648.043 111.611C646.47 112.629 645.683 114.34 645.683 116.746C645.683 119.06 646.516 120.818 648.182 122.021C649.94 123.224 652.022 123.825 654.428 123.825C656.371 123.825 658.268 123.594 660.118 123.131C661.969 122.668 663.635 121.928 665.115 120.91C666.596 119.892 667.752 118.504 668.585 116.746C669.418 114.988 669.834 112.86 669.834 110.361V91.6236Z" fill="#1E293B"/>
<path d="M737.354 65.113C743.554 65.113 748.782 66.0383 753.038 67.889C757.387 69.6471 760.857 72.0992 763.448 75.2453C766.132 78.2989 768.029 81.7226 769.139 85.5164L751.373 91.9012C750.447 87.7372 748.874 84.5911 746.654 82.4629C744.433 80.3346 741.426 79.2705 737.632 79.2705C734.115 79.2705 731.108 80.1033 728.61 81.7689C726.111 83.3419 724.214 85.794 722.919 89.1252C721.624 92.3639 720.976 96.4353 720.976 101.34C720.976 106.244 721.624 110.315 722.919 113.554C724.307 116.792 726.25 119.198 728.749 120.771C731.339 122.344 734.347 123.131 737.77 123.131C740.546 123.131 742.906 122.668 744.849 121.743C746.792 120.725 748.365 119.291 749.568 117.44C750.864 115.59 751.743 113.369 752.206 110.778L769.417 116.33C768.399 120.494 766.502 124.149 763.726 127.295C760.95 130.441 757.387 132.893 753.038 134.651C748.689 136.409 743.646 137.288 737.909 137.288C730.784 137.288 724.492 135.854 719.033 132.986C713.573 130.117 709.363 125.999 706.402 120.633C703.441 115.266 701.96 108.788 701.96 101.201C701.96 93.613 703.441 87.1358 706.402 81.7689C709.363 76.402 713.527 72.2843 718.894 69.4158C724.261 66.5472 730.414 65.113 737.354 65.113Z" fill="#1E293B"/>
<path d="M808.76 45.2647V113.276C808.76 116.607 809.593 119.06 811.258 120.633C813.016 122.113 815.376 122.853 818.337 122.853C820.65 122.853 822.686 122.53 824.444 121.882C826.202 121.142 827.775 120.17 829.163 118.967L832.217 131.598C829.996 133.356 827.22 134.744 823.889 135.762C820.558 136.78 817.041 137.288 813.34 137.288C808.713 137.288 804.596 136.594 800.987 135.206C797.471 133.818 794.695 131.598 792.659 128.544C790.716 125.491 789.744 121.419 789.744 116.33V50.5391L808.76 45.2647ZM830.967 66.501V80.6585H776.975V66.501H830.967Z" fill="#1E293B"/>
<path d="M853.41 56.5074C849.431 56.5074 846.47 55.6747 844.526 54.0091C842.583 52.2509 841.612 49.7063 841.612 46.3751C841.612 42.9514 842.583 40.4068 844.526 38.7412C846.47 36.9831 849.431 36.104 853.41 36.104C857.389 36.104 860.35 36.9831 862.293 38.7412C864.236 40.4068 865.208 42.9514 865.208 46.3751C865.208 49.7063 864.236 52.2509 862.293 54.0091C860.35 55.6747 857.389 56.5074 853.41 56.5074ZM862.848 66.501V135.9H843.832V66.501H862.848Z" fill="#1E293B"/>
<path d="M910.792 65.113C917.824 65.113 923.977 66.5472 929.252 69.4158C934.619 72.2843 938.783 76.402 941.744 81.7689C944.797 87.1358 946.324 93.613 946.324 101.201C946.324 108.696 944.797 115.173 941.744 120.633C938.783 125.999 934.619 130.117 929.252 132.986C923.977 135.854 917.824 137.288 910.792 137.288C903.852 137.288 897.698 135.854 892.331 132.986C886.964 130.117 882.754 125.999 879.701 120.633C876.74 115.173 875.259 108.696 875.259 101.201C875.259 93.613 876.74 87.1358 879.701 81.7689C882.754 76.402 886.964 72.2843 892.331 69.4158C897.698 66.5472 903.852 65.113 910.792 65.113ZM910.792 79.2705C907.275 79.2705 904.268 80.1033 901.77 81.7689C899.364 83.3419 897.513 85.7478 896.218 88.9864C894.922 92.2251 894.274 96.2965 894.274 101.201C894.274 106.105 894.922 110.176 896.218 113.415C897.513 116.654 899.364 119.106 901.77 120.771C904.268 122.344 907.275 123.131 910.792 123.131C914.215 123.131 917.13 122.344 919.536 120.771C922.034 119.106 923.931 116.654 925.227 113.415C926.522 110.176 927.17 106.105 927.17 101.201C927.17 96.2965 926.522 92.2251 925.227 88.9864C923.931 85.7478 922.034 83.3419 919.536 81.7689C917.13 80.1033 914.215 79.2705 910.792 79.2705Z" fill="#1E293B"/>
<path d="M958.375 135.9V66.501H975.448L976.558 87.3208L974.198 85.1C975.309 80.5659 977.067 76.8184 979.473 73.8573C981.878 70.8963 984.793 68.7218 988.217 67.3338C991.733 65.8532 995.573 65.113 999.737 65.113C1004.55 65.113 1008.81 66.0383 1012.51 67.889C1016.3 69.7396 1019.26 72.5619 1021.39 76.3557C1023.61 80.057 1024.72 84.7299 1024.72 90.3744V135.9H1005.71V95.7876C1005.71 89.8655 1004.55 85.794 1002.24 83.5733C999.922 81.2599 996.915 80.1033 993.214 80.1033C990.623 80.1033 988.078 80.751 985.58 82.0465C983.174 83.2494 981.185 85.2388 979.611 88.0148C978.131 90.7908 977.391 94.4921 977.391 99.1187V135.9H958.375Z" fill="#1E293B"/>
</svg>
