<svg version="1.1" viewBox="0.0 0.0 1150.8057742782153 431.73228346456693" fill="none" stroke="none" stroke-linecap="square" stroke-miterlimit="10" xmlns:xlink="http://www.w3.org/1999/xlink" xmlns="http://www.w3.org/2000/svg"><clipPath id="p.0"><path d="m0 0l1150.8058 0l0 431.73227l-1150.8058 0l0 -431.73227z" clip-rule="nonzero"/></clipPath><g clip-path="url(#p.0)"><path fill="#000000" fill-opacity="0.0" d="m0 0l1150.8058 0l0 431.73227l-1150.8058 0z" fill-rule="evenodd"/><path fill="#cccccc" d="m258.45145 84.66192l0 0c0 -12.23172 9.9157715 -22.147484 22.147491 -22.147484l448.39795 0c5.8738403 0 11.507141 2.3333893 15.660645 6.486847c4.1534424 4.1534576 6.4868164 9.786758 6.4868164 15.660637l0 300.6814c0 12.23172 -9.9157715 22.147491 -22.14746 22.147491l-448.39795 0c-12.23172 0 -22.147491 -9.9157715 -22.147491 -22.147491z" fill-rule="evenodd"/><path stroke="#000000" stroke-width="1.0" stroke-linejoin="round" stroke-linecap="butt" d="m258.45145 84.66192l0 0c0 -12.23172 9.9157715 -22.147484 22.147491 -22.147484l448.39795 0c5.8738403 0 11.507141 2.3333893 15.660645 6.486847c4.1534424 4.1534576 6.4868164 9.786758 6.4868164 15.660637l0 300.6814c0 12.23172 -9.9157715 22.147491 -22.14746 22.147491l-448.39795 0c-12.23172 0 -22.147491 -9.9157715 -22.147491 -22.147491z" fill-rule="evenodd"/><path fill="#000000" d="m458.2426 81.59684l1.390625 0l0 6.046875q0 1.59375 -0.359375 2.53125q-0.359375 0.921875 -1.296875 1.5q-0.9375 0.578125 -2.453125 0.578125q-1.46875 0 -2.40625 -0.5q-0.9375 -0.515625 -1.34375 -1.46875q-0.390625 -0.96875 -0.390625 -2.640625l0 -6.046875l1.390625 0l0 6.046875q0 1.375 0.25 2.015625q0.25 0.640625 0.859375 1.0q0.625 0.34375 1.53125 0.34375q1.53125 0 2.171875 -0.6875q0.65625 -0.703125 0.65625 -2.671875l0 -6.046875zm3.021759 8.21875l1.265625 -0.203125q0.109375 0.765625 0.59375 1.171875q0.5 0.40625 1.375 0.40625q0.890625 0 1.3125 -0.359375q0.4375 -0.359375 0.4375 -0.84375q0 -0.4375 -0.375 -0.6875q-0.265625 -0.171875 -1.3125 -0.4375q-1.421875 -0.359375 -1.96875 -0.609375q-0.546875 -0.265625 -0.828125 -0.734375q-0.28125 -0.46875 -0.28125 -1.015625q0 -0.515625 0.21875 -0.9375q0.234375 -0.4375 0.640625 -0.734375q0.296875 -0.21875 0.8125 -0.359375q0.53125 -0.15625 1.125 -0.15625q0.890625 0 1.5625 0.265625q0.671875 0.25 1.0 0.6875q0.328125 0.4375 0.4375 1.171875l-1.25 0.171875q-0.09375 -0.578125 -0.5 -0.90625q-0.40625 -0.34375 -1.15625 -0.34375q-0.890625 0 -1.28125 0.296875q-0.375 0.296875 -0.375 0.6875q0 0.25 0.15625 0.453125q0.15625 0.203125 0.5 0.34375q0.1875 0.078125 1.140625 0.328125q1.359375 0.359375 1.890625 0.59375q0.546875 0.234375 0.859375 0.6875q0.3125 0.4375 0.3125 1.09375q0 0.640625 -0.375 1.21875q-0.375 0.5625 -1.09375 0.875q-0.703125 0.3125 -1.59375 0.3125q-1.484375 0 -2.265625 -0.609375q-0.765625 -0.625 -0.984375 -1.828125zm13.046875 -0.1875l1.328125 0.171875q-0.3125 1.171875 -1.171875 1.8125q-0.84375 0.640625 -2.171875 0.640625q-1.671875 0 -2.65625 -1.015625q-0.96875 -1.03125 -0.96875 -2.890625q0 -1.921875 0.984375 -2.96875q1.0 -1.0625 2.578125 -1.0625q1.515625 0 2.484375 1.03125q0.96875 1.03125 0.96875 2.921875q0 0.109375 -0.015625 0.34375l-5.65625 0q0.0625 1.25 0.703125 1.921875q0.640625 0.65625 1.59375 0.65625q0.703125 0 1.203125 -0.359375q0.5 -0.375 0.796875 -1.203125zm-4.234375 -2.078125l4.25 0q-0.09375 -0.953125 -0.484375 -1.4375q-0.625 -0.75 -1.609375 -0.75q-0.875 0 -1.484375 0.59375q-0.609375 0.59375 -0.671875 1.59375zm7.166748 4.53125l0 -7.59375l1.15625 0l0 1.140625q0.453125 -0.796875 0.828125 -1.046875q0.375 -0.265625 0.8125 -0.265625q0.65625 0 1.328125 0.40625l-0.4375 1.203125q-0.46875 -0.28125 -0.953125 -0.28125q-0.421875 0 -0.765625 0.25q-0.328125 0.25 -0.46875 0.703125q-0.21875 0.6875 -0.21875 1.5l0 3.984375l-1.28125 0zm10.374481 0l-2.328125 -7.59375l1.328125 0l1.203125 4.375l0.453125 1.640625q0.03125 -0.125 0.390625 -1.578125l1.21875 -4.4375l1.328125 0l1.125 4.40625l0.390625 1.453125l0.4375 -1.46875l1.296875 -4.390625l1.25 0l-2.375 7.59375l-1.34375 0l-1.203125 -4.546875l-0.296875 -1.296875l-1.53125 5.84375l-1.34375 0zm8.693665 -3.796875q0 -2.109375 1.171875 -3.125q0.984375 -0.84375 2.390625 -0.84375q1.578125 0 2.5625 1.03125q1.0 1.015625 1.0 2.828125q0 1.46875 -0.4375 2.3125q-0.4375 0.828125 -1.28125 1.296875q-0.84375 0.46875 -1.84375 0.46875q-1.59375 0 -2.578125 -1.015625q-0.984375 -1.03125 -0.984375 -2.953125zm1.328125 0q0 1.453125 0.625 2.1875q0.640625 0.71875 1.609375 0.71875q0.96875 0 1.59375 -0.71875q0.640625 -0.734375 0.640625 -2.234375q0 -1.40625 -0.640625 -2.125q-0.640625 -0.734375 -1.59375 -0.734375q-0.96875 0 -1.609375 0.71875q-0.625 0.71875 -0.625 2.1875zm7.2917175 3.796875l0 -7.59375l1.15625 0l0 1.140625q0.453125 -0.796875 0.828125 -1.046875q0.375 -0.265625 0.8125 -0.265625q0.65625 0 1.328125 0.40625l-0.4375 1.203125q-0.46875 -0.28125 -0.953125 -0.28125q-0.421875 0 -0.765625 0.25q-0.328125 0.25 -0.46875 0.703125q-0.21875 0.6875 -0.21875 1.5l0 3.984375l-1.28125 0zm4.8962708 0l0 -10.484375l1.296875 0l0 5.96875l3.046875 -3.078125l1.671875 0l-2.90625 2.8125l3.1875 4.78125l-1.578125 0l-2.515625 -3.890625l-0.90625 0.875l0 3.015625l-1.296875 0zm6.8125 -2.265625l1.265625 -0.203125q0.109375 0.765625 0.59375 1.171875q0.5 0.40625 1.375 0.40625q0.890625 0 1.3125 -0.359375q0.4375 -0.359375 0.4375 -0.84375q0 -0.4375 -0.375 -0.6875q-0.265625 -0.171875 -1.3125 -0.4375q-1.421875 -0.359375 -1.96875 -0.609375q-0.546875 -0.265625 -0.828125 -0.734375q-0.28125 -0.46875 -0.28125 -1.015625q0 -0.515625 0.21875 -0.9375q0.234375 -0.4375 0.640625 -0.734375q0.296875 -0.21875 0.8125 -0.359375q0.53125 -0.15625 1.125 -0.15625q0.890625 0 1.5625 0.265625q0.671875 0.25 1.0 0.6875q0.328125 0.4375 0.4375 1.171875l-1.25 0.171875q-0.09375 -0.578125 -0.5 -0.90625q-0.40625 -0.34375 -1.15625 -0.34375q-0.890625 0 -1.28125 0.296875q-0.375 0.296875 -0.375 0.6875q0 0.25 0.15625 0.453125q0.15625 0.203125 0.5 0.34375q0.1875 0.078125 1.140625 0.328125q1.359375 0.359375 1.890625 0.59375q0.546875 0.234375 0.859375 0.6875q0.3125 0.4375 0.3125 1.09375q0 0.640625 -0.375 1.21875q-0.375 0.5625 -1.09375 0.875q-0.703125 0.3125 -1.59375 0.3125q-1.484375 0 -2.265625 -0.609375q-0.765625 -0.625 -0.984375 -1.828125zm10.65625 1.109375l0.1875 1.140625q-0.546875 0.109375 -0.984375 0.109375q-0.6875 0 -1.078125 -0.21875q-0.390625 -0.21875 -0.546875 -0.578125q-0.15625 -0.359375 -0.15625 -1.515625l0 -4.375l-0.953125 0l0 -1.0l0.953125 0l0 -1.890625l1.28125 -0.765625l0 2.65625l1.296875 0l0 1.0l-1.296875 0l0 4.4375q0 0.546875 0.0625 0.71875q0.078125 0.15625 0.21875 0.25q0.15625 0.078125 0.453125 0.078125q0.203125 0 0.5625 -0.046875zm6.2125854 0.21875q-0.71875 0.609375 -1.375 0.859375q-0.65625 0.25 -1.421875 0.25q-1.25 0 -1.921875 -0.609375q-0.671875 -0.609375 -0.671875 -1.5625q0 -0.5625 0.25 -1.015625q0.25 -0.46875 0.65625 -0.75q0.421875 -0.28125 0.9375 -0.421875q0.375 -0.09375 1.140625 -0.1875q1.5625 -0.1875 2.296875 -0.453125q0.015625 -0.265625 0.015625 -0.328125q0 -0.796875 -0.375 -1.109375q-0.484375 -0.4375 -1.453125 -0.4375q-0.921875 0 -1.359375 0.328125q-0.421875 0.3125 -0.625 1.109375l-1.265625 -0.171875q0.171875 -0.796875 0.5625 -1.296875q0.390625 -0.5 1.140625 -0.765625q0.75 -0.265625 1.71875 -0.265625q0.984375 0 1.59375 0.234375q0.609375 0.21875 0.890625 0.5625q0.28125 0.34375 0.40625 0.875q0.0625 0.328125 0.0625 1.1875l0 1.71875q0 1.796875 0.078125 2.28125q0.078125 0.46875 0.328125 0.90625l-1.34375 0q-0.203125 -0.40625 -0.265625 -0.9375zm-0.109375 -2.875q-0.703125 0.28125 -2.09375 0.484375q-0.796875 0.109375 -1.125 0.265625q-0.328125 0.140625 -0.515625 0.421875q-0.171875 0.265625 -0.171875 0.59375q0 0.515625 0.390625 0.859375q0.390625 0.34375 1.140625 0.34375q0.734375 0 1.3125 -0.3125q0.59375 -0.328125 0.859375 -0.890625q0.203125 -0.4375 0.203125 -1.296875l0 -0.46875zm6.119873 2.65625l0.1875 1.140625q-0.546875 0.109375 -0.984375 0.109375q-0.6875 0 -1.078125 -0.21875q-0.390625 -0.21875 -0.546875 -0.578125q-0.15625 -0.359375 -0.15625 -1.515625l0 -4.375l-0.953125 0l0 -1.0l0.953125 0l0 -1.890625l1.28125 -0.765625l0 2.65625l1.296875 0l0 1.0l-1.296875 0l0 4.4375q0 0.546875 0.0625 0.71875q0.078125 0.15625 0.21875 0.25q0.15625 0.078125 0.453125 0.078125q0.203125 0 0.5625 -0.046875zm1.2594604 -7.859375l0 -1.46875l1.296875 0l0 1.46875l-1.296875 0zm0 9.015625l0 -7.59375l1.296875 0l0 7.59375l-1.296875 0zm2.7717896 -3.796875q0 -2.109375 1.171875 -3.125q0.984375 -0.84375 2.390625 -0.84375q1.578125 0 2.5625 1.03125q1.0 1.015625 1.0 2.828125q0 1.46875 -0.4375 2.3125q-0.4375 0.828125 -1.28125 1.296875q-0.84375 0.46875 -1.84375 0.46875q-1.59375 0 -2.578125 -1.015625q-0.984375 -1.03125 -0.984375 -2.953125zm1.328125 0q0 1.453125 0.625 2.1875q0.640625 0.71875 1.609375 0.71875q0.96875 0 1.59375 -0.71875q0.640625 -0.734375 0.640625 -2.234375q0 -1.40625 -0.640625 -2.125q-0.640625 -0.734375 -1.59375 -0.734375q-0.96875 0 -1.609375 0.71875q-0.625 0.71875 -0.625 2.1875zm7.307373 3.796875l0 -7.59375l1.15625 0l0 1.078125q0.84375 -1.25 2.421875 -1.25q0.6875 0 1.265625 0.25q0.578125 0.234375 0.859375 0.640625q0.28125 0.40625 0.40625 0.953125q0.0625 0.359375 0.0625 1.25l0 4.671875l-1.28125 0l0 -4.625q0 -0.78125 -0.15625 -1.171875q-0.15625 -0.390625 -0.546875 -0.625q-0.375 -0.234375 -0.890625 -0.234375q-0.8125 0 -1.421875 0.53125q-0.59375 0.515625 -0.59375 1.96875l0 4.15625l-1.28125 0z" fill-rule="nonzero"/><g filter="url(#shadowFilter-p.1)"><use xlink:href="#p.1" transform="matrix(1.0 0.0 0.0 1.0 0.0 2.0)"/></g><defs><filter id="shadowFilter-p.1" filterUnits="userSpaceOnUse"><feGaussianBlur in="SourceAlpha" stdDeviation="2.0" result="blur"/><feComponentTransfer in="blur" color-interpolation-filters="sRGB"><feFuncR type="linear" slope="0" intercept="0.0"/><feFuncG type="linear" slope="0" intercept="0.0"/><feFuncB type="linear" slope="0" intercept="0.0"/><feFuncA type="linear" slope="0.5" intercept="0"/></feComponentTransfer></filter></defs><g id="p.1"><path fill="#ffffff" d="m611.8819 121.71916l106.48816 0l0 204.62993l-106.48816 0z" fill-rule="evenodd"/><path stroke="#44546a" stroke-width="1.0" stroke-linejoin="round" stroke-linecap="butt" d="m611.8819 121.71916l106.48816 0l0 204.62993l-106.48816 0z" fill-rule="evenodd"/><path fill="#000000" d="m636.6725 216.44225l1.390625 0.34375q-0.4375 1.703125 -1.578125 2.609375q-1.125 0.890625 -2.765625 0.890625q-1.6875 0 -2.75 -0.6875q-1.0625 -0.6875 -1.625 -2.0q-0.546875 -1.3125 -0.546875 -2.8125q0 -1.640625 0.625 -2.859375q0.625 -1.21875 1.78125 -1.84375q1.15625 -0.640625 2.546875 -0.640625q1.5625 0 2.640625 0.8125q1.078125 0.796875 1.5 2.25l-1.375 0.3125q-0.359375 -1.140625 -1.0625 -1.65625q-0.6875 -0.53125 -1.734375 -0.53125q-1.21875 0 -2.03125 0.578125q-0.8125 0.578125 -1.140625 1.5625q-0.328125 0.96875 -0.328125 2.015625q0 1.328125 0.390625 2.328125q0.390625 1.0 1.21875 1.5q0.828125 0.484375 1.78125 0.484375q1.171875 0 1.96875 -0.671875q0.8125 -0.671875 1.09375 -1.984375zm8.14679 1.21875l1.328125 0.171875q-0.3125 1.171875 -1.171875 1.8125q-0.84375 0.640625 -2.171875 0.640625q-1.671875 0 -2.65625 -1.015625q-0.96875 -1.03125 -0.96875 -2.890625q0 -1.921875 0.984375 -2.96875q1.0 -1.0625 2.578125 -1.0625q1.515625 0 2.484375 1.03125q0.96875 1.03125 0.96875 2.921875q0 0.109375 -0.015625 0.34375l-5.65625 0q0.0625 1.25 0.703125 1.921875q0.640625 0.65625 1.59375 0.65625q0.703125 0 1.203125 -0.359375q0.5 -0.375 0.796875 -1.203125zm-4.234375 -2.078125l4.25 0q-0.09375 -0.953125 -0.484375 -1.4375q-0.625 -0.75 -1.609375 -0.75q-0.875 0 -1.484375 0.59375q-0.609375 0.59375 -0.671875 1.59375zm7.166748 4.53125l0 -7.59375l1.15625 0l0 1.140625q0.453125 -0.796875 0.828125 -1.046875q0.375 -0.265625 0.8125 -0.265625q0.65625 0 1.328125 0.40625l-0.4375 1.203125q-0.46875 -0.28125 -0.953125 -0.28125q-0.421875 0 -0.765625 0.25q-0.328125 0.25 -0.46875 0.703125q-0.21875 0.6875 -0.21875 1.5l0 3.984375l-1.28125 0zm7.70874 -1.15625l0.1875 1.140625q-0.546875 0.109375 -0.984375 0.109375q-0.6875 0 -1.078125 -0.21875q-0.390625 -0.21875 -0.546875 -0.578125q-0.15625 -0.359375 -0.15625 -1.515625l0 -4.375l-0.953125 0l0 -1.0l0.953125 0l0 -1.890625l1.28125 -0.765625l0 2.65625l1.296875 0l0 1.0l-1.296875 0l0 4.4375q0 0.546875 0.0625 0.71875q0.078125 0.15625 0.21875 0.25q0.15625 0.078125 0.453125 0.078125q0.203125 0 0.5625 -0.046875zm1.2595215 -7.859375l0 -1.46875l1.296875 0l0 1.46875l-1.296875 0zm0 9.015625l0 -7.59375l1.296875 0l0 7.59375l-1.296875 0zm3.5686035 0l0 -6.59375l-1.140625 0l0 -1.0l1.140625 0l0 -0.8125q0 -0.765625 0.125 -1.140625q0.1875 -0.5 0.65625 -0.8125q0.46875 -0.3125 1.3125 -0.3125q0.546875 0 1.203125 0.125l-0.1875 1.125q-0.40625 -0.0625 -0.765625 -0.0625q-0.578125 0 -0.828125 0.25q-0.234375 0.25 -0.234375 0.9375l0 0.703125l1.46875 0l0 1.0l-1.46875 0l0 6.59375l-1.28125 0zm8.7126465 -0.9375q-0.71875 0.609375 -1.375 0.859375q-0.65625 0.25 -1.421875 0.25q-1.25 0 -1.921875 -0.609375q-0.671875 -0.609375 -0.671875 -1.5625q0 -0.5625 0.25 -1.015625q0.25 -0.46875 0.65625 -0.75q0.421875 -0.28125 0.9375 -0.421875q0.375 -0.09375 1.140625 -0.1875q1.5625 -0.1875 2.296875 -0.453125q0.015625 -0.265625 0.015625 -0.328125q0 -0.796875 -0.375 -1.109375q-0.484375 -0.4375 -1.453125 -0.4375q-0.921875 0 -1.359375 0.328125q-0.421875 0.3125 -0.625 1.109375l-1.265625 -0.171875q0.171875 -0.796875 0.5625 -1.296875q0.390625 -0.5 1.140625 -0.765625q0.75 -0.265625 1.71875 -0.265625q0.984375 0 1.59375 0.234375q0.609375 0.21875 0.890625 0.5625q0.28125 0.34375 0.40625 0.875q0.0625 0.328125 0.0625 1.1875l0 1.71875q0 1.796875 0.078125 2.28125q0.078125 0.46875 0.328125 0.90625l-1.34375 0q-0.203125 -0.40625 -0.265625 -0.9375zm-0.109375 -2.875q-0.703125 0.28125 -2.09375 0.484375q-0.796875 0.109375 -1.125 0.265625q-0.328125 0.140625 -0.515625 0.421875q-0.171875 0.265625 -0.171875 0.59375q0 0.515625 0.390625 0.859375q0.390625 0.34375 1.140625 0.34375q0.734375 0 1.3125 -0.3125q0.59375 -0.328125 0.859375 -0.890625q0.203125 -0.4375 0.203125 -1.296875l0 -0.46875zm8.260437 1.03125l1.265625 0.15625q-0.203125 1.3125 -1.0625 2.0625q-0.84375 0.734375 -2.09375 0.734375q-1.5625 0 -2.515625 -1.015625q-0.9375 -1.03125 -0.9375 -2.921875q0 -1.234375 0.40625 -2.15625q0.40625 -0.921875 1.234375 -1.375q0.84375 -0.46875 1.8125 -0.46875q1.25 0 2.03125 0.625q0.78125 0.625 1.015625 1.765625l-1.265625 0.203125q-0.171875 -0.765625 -0.625 -1.15625q-0.453125 -0.390625 -1.09375 -0.390625q-0.984375 0 -1.59375 0.703125q-0.609375 0.703125 -0.609375 2.203125q0 1.53125 0.578125 2.234375q0.59375 0.6875 1.546875 0.6875q0.75 0 1.265625 -0.453125q0.515625 -0.46875 0.640625 -1.4375zm5.1875 1.625l0.1875 1.140625q-0.546875 0.109375 -0.984375 0.109375q-0.6875 0 -1.078125 -0.21875q-0.390625 -0.21875 -0.546875 -0.578125q-0.15625 -0.359375 -0.15625 -1.515625l0 -4.375l-0.953125 0l0 -1.0l0.953125 0l0 -1.890625l1.28125 -0.765625l0 2.65625l1.296875 0l0 1.0l-1.296875 0l0 4.4375q0 0.546875 0.0625 0.71875q0.078125 0.15625 0.21875 0.25q0.15625 0.078125 0.453125 0.078125q0.203125 0 0.5625 -0.046875zm1.2595215 -7.859375l0 -1.46875l1.296875 0l0 1.46875l-1.296875 0zm0 9.015625l0 -7.59375l1.296875 0l0 7.59375l-1.296875 0zm2.7717285 -3.796875q0 -2.109375 1.171875 -3.125q0.984375 -0.84375 2.390625 -0.84375q1.578125 0 2.5625 1.03125q1.0 1.015625 1.0 2.828125q0 1.46875 -0.4375 2.3125q-0.4375 0.828125 -1.28125 1.296875q-0.84375 0.46875 -1.84375 0.46875q-1.59375 0 -2.578125 -1.015625q-0.984375 -1.03125 -0.984375 -2.953125zm1.328125 0q0 1.453125 0.625 2.1875q0.640625 0.71875 1.609375 0.71875q0.96875 0 1.59375 -0.71875q0.640625 -0.734375 0.640625 -2.234375q0 -1.40625 -0.640625 -2.125q-0.640625 -0.734375 -1.59375 -0.734375q-0.96875 0 -1.609375 0.71875q-0.625 0.71875 -0.625 2.1875zm7.307373 3.796875l0 -7.59375l1.15625 0l0 1.078125q0.84375 -1.25 2.421875 -1.25q0.6875 0 1.265625 0.25q0.578125 0.234375 0.859375 0.640625q0.28125 0.40625 0.40625 0.953125q0.0625 0.359375 0.0625 1.25l0 4.671875l-1.28125 0l0 -4.625q0 -0.78125 -0.15625 -1.171875q-0.15625 -0.390625 -0.546875 -0.625q-0.375 -0.234375 -0.890625 -0.234375q-0.8125 0 -1.421875 0.53125q-0.59375 0.515625 -0.59375 1.96875l0 4.15625l-1.28125 0z" fill-rule="nonzero"/><path fill="#000000" d="m662.33167 234.44225l1.390625 0.34375q-0.4375 1.703125 -1.578125 2.609375q-1.125 0.890625 -2.765625 0.890625q-1.6875 0 -2.75 -0.6875q-1.0625 -0.6875 -1.625 -2.0q-0.546875 -1.3125 -0.546875 -2.8125q0 -1.640625 0.625 -2.859375q0.625 -1.21875 1.78125 -1.84375q1.15625 -0.640625 2.546875 -0.640625q1.5625 0 2.640625 0.8125q1.078125 0.796875 1.5 2.25l-1.375 0.3125q-0.359375 -1.140625 -1.0625 -1.65625q-0.6875 -0.53125 -1.734375 -0.53125q-1.21875 0 -2.03125 0.578125q-0.8125 0.578125 -1.140625 1.5625q-0.328125 0.96875 -0.328125 2.015625q0 1.328125 0.390625 2.328125q0.390625 1.0 1.21875 1.5q0.828125 0.484375 1.78125 0.484375q1.171875 0 1.96875 -0.671875q0.8125 -0.671875 1.09375 -1.984375zm3.0530396 3.671875l0 -10.484375l1.390625 0l0 9.25l5.15625 0l0 1.234375l-6.546875 0zm8.432373 0l0 -10.484375l1.390625 0l0 10.484375l-1.390625 0z" fill-rule="nonzero"/></g><g filter="url(#shadowFilter-p.2)"><use xlink:href="#p.2" transform="matrix(1.0 0.0 0.0 1.0 0.0 2.0)"/></g><defs><filter id="shadowFilter-p.2" filterUnits="userSpaceOnUse"><feGaussianBlur in="SourceAlpha" stdDeviation="2.0" result="blur"/><feComponentTransfer in="blur" color-interpolation-filters="sRGB"><feFuncR type="linear" slope="0" intercept="0.0"/><feFuncG type="linear" slope="0" intercept="0.0"/><feFuncB type="linear" slope="0" intercept="0.0"/><feFuncA type="linear" slope="0.5" intercept="0"/></feComponentTransfer></filter></defs><g id="p.2"><path fill="#ffffff" d="m811.8819 121.71916l106.48816 0l0 204.62993l-106.48816 0z" fill-rule="evenodd"/><path stroke="#44546a" stroke-width="1.0" stroke-linejoin="round" stroke-linecap="butt" d="m811.8819 121.71916l106.48816 0l0 204.62993l-106.48816 0z" fill-rule="evenodd"/><path fill="#000000" d="m836.6725 216.44225l1.390625 0.34375q-0.4375 1.703125 -1.578125 2.609375q-1.125 0.890625 -2.765625 0.890625q-1.6875 0 -2.75 -0.6875q-1.0625 -0.6875 -1.625 -2.0q-0.546875 -1.3125 -0.546875 -2.8125q0 -1.640625 0.625 -2.859375q0.625 -1.21875 1.78125 -1.84375q1.15625 -0.640625 2.546875 -0.640625q1.5625 0 2.640625 0.8125q1.078125 0.796875 1.5 2.25l-1.375 0.3125q-0.359375 -1.140625 -1.0625 -1.65625q-0.6875 -0.53125 -1.734375 -0.53125q-1.21875 0 -2.03125 0.578125q-0.8125 0.578125 -1.140625 1.5625q-0.328125 0.96875 -0.328125 2.015625q0 1.328125 0.390625 2.328125q0.390625 1.0 1.21875 1.5q0.828125 0.484375 1.78125 0.484375q1.171875 0 1.96875 -0.671875q0.8125 -0.671875 1.09375 -1.984375zm8.14679 1.21875l1.328125 0.171875q-0.3125 1.171875 -1.171875 1.8125q-0.84375 0.640625 -2.171875 0.640625q-1.671875 0 -2.65625 -1.015625q-0.96875 -1.03125 -0.96875 -2.890625q0 -1.921875 0.984375 -2.96875q1.0 -1.0625 2.578125 -1.0625q1.515625 0 2.484375 1.03125q0.96875 1.03125 0.96875 2.921875q0 0.109375 -0.015625 0.34375l-5.65625 0q0.0625 1.25 0.703125 1.921875q0.640625 0.65625 1.59375 0.65625q0.703125 0 1.203125 -0.359375q0.5 -0.375 0.796875 -1.203125zm-4.234375 -2.078125l4.25 0q-0.09375 -0.953125 -0.484375 -1.4375q-0.625 -0.75 -1.609375 -0.75q-0.875 0 -1.484375 0.59375q-0.609375 0.59375 -0.671875 1.59375zm7.166748 4.53125l0 -7.59375l1.15625 0l0 1.140625q0.453125 -0.796875 0.828125 -1.046875q0.375 -0.265625 0.8125 -0.265625q0.65625 0 1.328125 0.40625l-0.4375 1.203125q-0.46875 -0.28125 -0.953125 -0.28125q-0.421875 0 -0.765625 0.25q-0.328125 0.25 -0.46875 0.703125q-0.21875 0.6875 -0.21875 1.5l0 3.984375l-1.28125 0zm7.70874 -1.15625l0.1875 1.140625q-0.546875 0.109375 -0.984375 0.109375q-0.6875 0 -1.078125 -0.21875q-0.390625 -0.21875 -0.546875 -0.578125q-0.15625 -0.359375 -0.15625 -1.515625l0 -4.375l-0.953125 0l0 -1.0l0.953125 0l0 -1.890625l1.28125 -0.765625l0 2.65625l1.296875 0l0 1.0l-1.296875 0l0 4.4375q0 0.546875 0.0625 0.71875q0.078125 0.15625 0.21875 0.25q0.15625 0.078125 0.453125 0.078125q0.203125 0 0.5625 -0.046875zm1.2595215 -7.859375l0 -1.46875l1.296875 0l0 1.46875l-1.296875 0zm0 9.015625l0 -7.59375l1.296875 0l0 7.59375l-1.296875 0zm3.5686035 0l0 -6.59375l-1.140625 0l0 -1.0l1.140625 0l0 -0.8125q0 -0.765625 0.125 -1.140625q0.1875 -0.5 0.65625 -0.8125q0.46875 -0.3125 1.3125 -0.3125q0.546875 0 1.203125 0.125l-0.1875 1.125q-0.40625 -0.0625 -0.765625 -0.0625q-0.578125 0 -0.828125 0.25q-0.234375 0.25 -0.234375 0.9375l0 0.703125l1.46875 0l0 1.0l-1.46875 0l0 6.59375l-1.28125 0zm8.7126465 -0.9375q-0.71875 0.609375 -1.375 0.859375q-0.65625 0.25 -1.421875 0.25q-1.25 0 -1.921875 -0.609375q-0.671875 -0.609375 -0.671875 -1.5625q0 -0.5625 0.25 -1.015625q0.25 -0.46875 0.65625 -0.75q0.421875 -0.28125 0.9375 -0.421875q0.375 -0.09375 1.140625 -0.1875q1.5625 -0.1875 2.296875 -0.453125q0.015625 -0.265625 0.015625 -0.328125q0 -0.796875 -0.375 -1.109375q-0.484375 -0.4375 -1.453125 -0.4375q-0.921875 0 -1.359375 0.328125q-0.421875 0.3125 -0.625 1.109375l-1.265625 -0.171875q0.171875 -0.796875 0.5625 -1.296875q0.390625 -0.5 1.140625 -0.765625q0.75 -0.265625 1.71875 -0.265625q0.984375 0 1.59375 0.234375q0.609375 0.21875 0.890625 0.5625q0.28125 0.34375 0.40625 0.875q0.0625 0.328125 0.0625 1.1875l0 1.71875q0 1.796875 0.078125 2.28125q0.078125 0.46875 0.328125 0.90625l-1.34375 0q-0.203125 -0.40625 -0.265625 -0.9375zm-0.109375 -2.875q-0.703125 0.28125 -2.09375 0.484375q-0.796875 0.109375 -1.125 0.265625q-0.328125 0.140625 -0.515625 0.421875q-0.171875 0.265625 -0.171875 0.59375q0 0.515625 0.390625 0.859375q0.390625 0.34375 1.140625 0.34375q0.734375 0 1.3125 -0.3125q0.59375 -0.328125 0.859375 -0.890625q0.203125 -0.4375 0.203125 -1.296875l0 -0.46875zm8.260437 1.03125l1.265625 0.15625q-0.203125 1.3125 -1.0625 2.0625q-0.84375 0.734375 -2.09375 0.734375q-1.5625 0 -2.515625 -1.015625q-0.9375 -1.03125 -0.9375 -2.921875q0 -1.234375 0.40625 -2.15625q0.40625 -0.921875 1.234375 -1.375q0.84375 -0.46875 1.8125 -0.46875q1.25 0 2.03125 0.625q0.78125 0.625 1.015625 1.765625l-1.265625 0.203125q-0.171875 -0.765625 -0.625 -1.15625q-0.453125 -0.390625 -1.09375 -0.390625q-0.984375 0 -1.59375 0.703125q-0.609375 0.703125 -0.609375 2.203125q0 1.53125 0.578125 2.234375q0.59375 0.6875 1.546875 0.6875q0.75 0 1.265625 -0.453125q0.515625 -0.46875 0.640625 -1.4375zm5.1875 1.625l0.1875 1.140625q-0.546875 0.109375 -0.984375 0.109375q-0.6875 0 -1.078125 -0.21875q-0.390625 -0.21875 -0.546875 -0.578125q-0.15625 -0.359375 -0.15625 -1.515625l0 -4.375l-0.953125 0l0 -1.0l0.953125 0l0 -1.890625l1.28125 -0.765625l0 2.65625l1.296875 0l0 1.0l-1.296875 0l0 4.4375q0 0.546875 0.0625 0.71875q0.078125 0.15625 0.21875 0.25q0.15625 0.078125 0.453125 0.078125q0.203125 0 0.5625 -0.046875zm1.2595215 -7.859375l0 -1.46875l1.296875 0l0 1.46875l-1.296875 0zm0 9.015625l0 -7.59375l1.296875 0l0 7.59375l-1.296875 0zm2.7717285 -3.796875q0 -2.109375 1.171875 -3.125q0.984375 -0.84375 2.390625 -0.84375q1.578125 0 2.5625 1.03125q1.0 1.015625 1.0 2.828125q0 1.46875 -0.4375 2.3125q-0.4375 0.828125 -1.28125 1.296875q-0.84375 0.46875 -1.84375 0.46875q-1.59375 0 -2.578125 -1.015625q-0.984375 -1.03125 -0.984375 -2.953125zm1.328125 0q0 1.453125 0.625 2.1875q0.640625 0.71875 1.609375 0.71875q0.96875 0 1.59375 -0.71875q0.640625 -0.734375 0.640625 -2.234375q0 -1.40625 -0.640625 -2.125q-0.640625 -0.734375 -1.59375 -0.734375q-0.96875 0 -1.609375 0.71875q-0.625 0.71875 -0.625 2.1875zm7.307373 3.796875l0 -7.59375l1.15625 0l0 1.078125q0.84375 -1.25 2.421875 -1.25q0.6875 0 1.265625 0.25q0.578125 0.234375 0.859375 0.640625q0.28125 0.40625 0.40625 0.953125q0.0625 0.359375 0.0625 1.25l0 4.671875l-1.28125 0l0 -4.625q0 -0.78125 -0.15625 -1.171875q-0.15625 -0.390625 -0.546875 -0.625q-0.375 -0.234375 -0.890625 -0.234375q-0.8125 0 -1.421875 0.53125q-0.59375 0.515625 -0.59375 1.96875l0 4.15625l-1.28125 0z" fill-rule="nonzero"/><path fill="#000000" d="m853.29877 238.11412l4.015625 -10.484375l1.5 0l4.296875 10.484375l-1.578125 0l-1.234375 -3.171875l-4.375 0l-1.15625 3.171875l-1.46875 0zm3.015625 -4.3125l3.5625 0l-1.09375 -2.90625q-0.5 -1.3125 -0.75 -2.171875q-0.203125 1.015625 -0.5625 2.0l-1.15625 3.078125zm7.900635 4.3125l0 -10.484375l3.96875 0q1.046875 0 1.59375 0.09375q0.765625 0.125 1.28125 0.484375q0.53125 0.359375 0.84375 1.015625q0.328125 0.65625 0.328125 1.4375q0 1.328125 -0.859375 2.265625q-0.84375 0.921875 -3.078125 0.921875l-2.6875 0l0 4.265625l-1.390625 0zm1.390625 -5.5l2.71875 0q1.34375 0 1.90625 -0.5q0.5625 -0.5 0.5625 -1.40625q0 -0.671875 -0.328125 -1.140625q-0.328125 -0.46875 -0.875 -0.609375q-0.359375 -0.09375 -1.296875 -0.09375l-2.6875 0l0 3.75zm8.619324 5.5l0 -10.484375l1.390625 0l0 10.484375l-1.390625 0z" fill-rule="nonzero"/></g><path fill="#000000" fill-opacity="0.0" d="m730.74805 220.46982l72.06299 0" fill-rule="evenodd"/><path stroke="#44546a" stroke-width="2.0" stroke-linejoin="round" stroke-linecap="butt" d="m730.74805 220.46982l60.06299 0" fill-rule="evenodd"/><path fill="#44546a" stroke="#44546a" stroke-width="2.0" stroke-linecap="butt" d="m790.81104 223.77328l9.076172 -3.3034668l-9.076172 -3.3034668z" fill-rule="evenodd"/><path fill="#000000" fill-opacity="0.0" d="m780.4632 25.409449l0 385.13385" fill-rule="evenodd"/><path stroke="#000000" stroke-width="1.0" stroke-linejoin="round" stroke-linecap="butt" stroke-dasharray="4.0,3.0" d="m780.4632 25.409449l0 385.13385" fill-rule="evenodd"/><path fill="#000000" fill-opacity="0.0" d="m688.49207 15.228347l83.02362 0l0 37.16535l-83.02362 0z" fill-rule="evenodd"/><path fill="#000000" d="m733.6543 34.63647l1.390625 0.34375q-0.4375 1.703125 -1.578125 2.609375q-1.125 0.890625 -2.765625 0.890625q-1.6875 0 -2.75 -0.6875q-1.0625 -0.6875 -1.625 -2.0q-0.546875 -1.3125 -0.546875 -2.8125q0 -1.640625 0.625 -2.859375q0.625 -1.21875 1.78125 -1.84375q1.15625 -0.640625 2.546875 -0.640625q1.5625 0 2.640625 0.8125q1.078125 0.796875 1.5 2.25l-1.375 0.3125q-0.359375 -1.140625 -1.0625 -1.65625q-0.6875 -0.53125 -1.734375 -0.53125q-1.21875 0 -2.03125 0.578125q-0.8125 0.578125 -1.140625 1.5625q-0.328125 0.96875 -0.328125 2.015625q0 1.328125 0.390625 2.328125q0.390625 1.0 1.21875 1.5q0.828125 0.484375 1.78125 0.484375q1.171875 0 1.96875 -0.671875q0.8125 -0.671875 1.09375 -1.984375zm2.9124146 3.671875l0 -10.484375l1.28125 0l0 10.484375l-1.28125 0zm3.2873535 -9.015625l0 -1.46875l1.296875 0l0 1.46875l-1.296875 0zm0 9.015625l0 -7.59375l1.296875 0l0 7.59375l-1.296875 0zm8.45929 -2.453125l1.328125 0.171875q-0.3125 1.171875 -1.171875 1.8125q-0.84375 0.640625 -2.171875 0.640625q-1.671875 0 -2.65625 -1.015625q-0.96875 -1.03125 -0.96875 -2.890625q0 -1.921875 0.984375 -2.96875q1.0 -1.0625 2.578125 -1.0625q1.515625 0 2.484375 1.03125q0.96875 1.03125 0.96875 2.921875q0 0.109375 -0.015625 0.34375l-5.65625 0q0.0625 1.25 0.703125 1.921875q0.640625 0.65625 1.59375 0.65625q0.703125 0 1.203125 -0.359375q0.5 -0.375 0.796875 -1.203125zm-4.234375 -2.078125l4.25 0q-0.09375 -0.953125 -0.484375 -1.4375q-0.625 -0.75 -1.609375 -0.75q-0.875 0 -1.484375 0.59375q-0.609375 0.59375 -0.671875 1.59375zm7.182373 4.53125l0 -7.59375l1.15625 0l0 1.078125q0.84375 -1.25 2.421875 -1.25q0.6875 0 1.265625 0.25q0.578125 0.234375 0.859375 0.640625q0.28125 0.40625 0.40625 0.953125q0.0625 0.359375 0.0625 1.25l0 4.671875l-1.28125 0l0 -4.625q0 -0.78125 -0.15625 -1.171875q-0.15625 -0.390625 -0.546875 -0.625q-0.375 -0.234375 -0.890625 -0.234375q-0.8125 0 -1.421875 0.53125q-0.59375 0.515625 -0.59375 1.96875l0 4.15625l-1.28125 0zm10.963623 -1.15625l0.1875 1.140625q-0.546875 0.109375 -0.984375 0.109375q-0.6875 0 -1.078125 -0.21875q-0.390625 -0.21875 -0.546875 -0.578125q-0.15625 -0.359375 -0.15625 -1.515625l0 -4.375l-0.953125 0l0 -1.0l0.953125 0l0 -1.890625l1.28125 -0.765625l0 2.65625l1.296875 0l0 1.0l-1.296875 0l0 4.4375q0 0.546875 0.0625 0.71875q0.078125 0.15625 0.21875 0.25q0.15625 0.078125 0.453125 0.078125q0.203125 0 0.5625 -0.046875z" fill-rule="nonzero"/><path fill="#000000" fill-opacity="0.0" d="m787.1456 15.228347l147.71649 0l0 37.16535l-147.71649 0z" fill-rule="evenodd"/><path fill="#000000" d="m804.755 34.63647l1.390625 0.34375q-0.4375 1.703125 -1.578125 2.609375q-1.125 0.890625 -2.765625 0.890625q-1.6875 0 -2.75 -0.6875q-1.0625 -0.6875 -1.625 -2.0q-0.546875 -1.3125 -0.546875 -2.8125q0 -1.640625 0.625 -2.859375q0.625 -1.21875 1.78125 -1.84375q1.15625 -0.640625 2.546875 -0.640625q1.5625 0 2.640625 0.8125q1.078125 0.796875 1.5 2.25l-1.375 0.3125q-0.359375 -1.140625 -1.0625 -1.65625q-0.6875 -0.53125 -1.734375 -0.53125q-1.21875 0 -2.03125 0.578125q-0.8125 0.578125 -1.140625 1.5625q-0.328125 0.96875 -0.328125 2.015625q0 1.328125 0.390625 2.328125q0.390625 1.0 1.21875 1.5q0.828125 0.484375 1.78125 0.484375q1.171875 0 1.96875 -0.671875q0.8125 -0.671875 1.09375 -1.984375zm8.1467285 1.21875l1.328125 0.171875q-0.3125 1.171875 -1.171875 1.8125q-0.84375 0.640625 -2.171875 0.640625q-1.671875 0 -2.65625 -1.015625q-0.96875 -1.03125 -0.96875 -2.890625q0 -1.921875 0.984375 -2.96875q1.0 -1.0625 2.578125 -1.0625q1.515625 0 2.484375 1.03125q0.96875 1.03125 0.96875 2.921875q0 0.109375 -0.015625 0.34375l-5.65625 0q0.0625 1.25 0.703125 1.921875q0.640625 0.65625 1.59375 0.65625q0.703125 0 1.203125 -0.359375q0.5 -0.375 0.796875 -1.203125zm-4.234375 -2.078125l4.25 0q-0.09375 -0.953125 -0.484375 -1.4375q-0.625 -0.75 -1.609375 -0.75q-0.875 0 -1.484375 0.59375q-0.609375 0.59375 -0.671875 1.59375zm7.166748 4.53125l0 -7.59375l1.15625 0l0 1.140625q0.453125 -0.796875 0.828125 -1.046875q0.375 -0.265625 0.8125 -0.265625q0.65625 0 1.328125 0.40625l-0.4375 1.203125q-0.46875 -0.28125 -0.953125 -0.28125q-0.421875 0 -0.765625 0.25q-0.328125 0.25 -0.46875 0.703125q-0.21875 0.6875 -0.21875 1.5l0 3.984375l-1.28125 0zm7.7088013 -1.15625l0.1875 1.140625q-0.546875 0.109375 -0.984375 0.109375q-0.6875 0 -1.078125 -0.21875q-0.390625 -0.21875 -0.546875 -0.578125q-0.15625 -0.359375 -0.15625 -1.515625l0 -4.375l-0.953125 0l0 -1.0l0.953125 0l0 -1.890625l1.28125 -0.765625l0 2.65625l1.296875 0l0 1.0l-1.296875 0l0 4.4375q0 0.546875 0.0625 0.71875q0.078125 0.15625 0.21875 0.25q0.15625 0.078125 0.453125 0.078125q0.203125 0 0.5625 -0.046875zm1.2594604 -7.859375l0 -1.46875l1.296875 0l0 1.46875l-1.296875 0zm0 9.015625l0 -7.59375l1.296875 0l0 7.59375l-1.296875 0zm3.5686646 0l0 -6.59375l-1.140625 0l0 -1.0l1.140625 0l0 -0.8125q0 -0.765625 0.125 -1.140625q0.1875 -0.5 0.65625 -0.8125q0.46875 -0.3125 1.3125 -0.3125q0.546875 0 1.203125 0.125l-0.1875 1.125q-0.40625 -0.0625 -0.765625 -0.0625q-0.578125 0 -0.828125 0.25q-0.234375 0.25 -0.234375 0.9375l0 0.703125l1.46875 0l0 1.0l-1.46875 0l0 6.59375l-1.28125 0zm8.712585 -0.9375q-0.71875 0.609375 -1.375 0.859375q-0.65625 0.25 -1.421875 0.25q-1.25 0 -1.921875 -0.609375q-0.671875 -0.609375 -0.671875 -1.5625q0 -0.5625 0.25 -1.015625q0.25 -0.46875 0.65625 -0.75q0.421875 -0.28125 0.9375 -0.421875q0.375 -0.09375 1.140625 -0.1875q1.5625 -0.1875 2.296875 -0.453125q0.015625 -0.265625 0.015625 -0.328125q0 -0.796875 -0.375 -1.109375q-0.484375 -0.4375 -1.453125 -0.4375q-0.921875 0 -1.359375 0.328125q-0.421875 0.3125 -0.625 1.109375l-1.265625 -0.171875q0.171875 -0.796875 0.5625 -1.296875q0.390625 -0.5 1.140625 -0.765625q0.75 -0.265625 1.71875 -0.265625q0.984375 0 1.59375 0.234375q0.609375 0.21875 0.890625 0.5625q0.28125 0.34375 0.40625 0.875q0.0625 0.328125 0.0625 1.1875l0 1.71875q0 1.796875 0.078125 2.28125q0.078125 0.46875 0.328125 0.90625l-1.34375 0q-0.203125 -0.40625 -0.265625 -0.9375zm-0.109375 -2.875q-0.703125 0.28125 -2.09375 0.484375q-0.796875 0.109375 -1.125 0.265625q-0.328125 0.140625 -0.515625 0.421875q-0.171875 0.265625 -0.171875 0.59375q0 0.515625 0.390625 0.859375q0.390625 0.34375 1.140625 0.34375q0.734375 0 1.3125 -0.3125q0.59375 -0.328125 0.859375 -0.890625q0.203125 -0.4375 0.203125 -1.296875l0 -0.46875zm8.260498 1.03125l1.265625 0.15625q-0.203125 1.3125 -1.0625 2.0625q-0.84375 0.734375 -2.09375 0.734375q-1.5625 0 -2.515625 -1.015625q-0.9375 -1.03125 -0.9375 -2.921875q0 -1.234375 0.40625 -2.15625q0.40625 -0.921875 1.234375 -1.375q0.84375 -0.46875 1.8125 -0.46875q1.25 0 2.03125 0.625q0.78125 0.625 1.015625 1.765625l-1.265625 0.203125q-0.171875 -0.765625 -0.625 -1.15625q-0.453125 -0.390625 -1.09375 -0.390625q-0.984375 0 -1.59375 0.703125q-0.609375 0.703125 -0.609375 2.203125q0 1.53125 0.578125 2.234375q0.59375 0.6875 1.546875 0.6875q0.75 0 1.265625 -0.453125q0.515625 -0.46875 0.640625 -1.4375zm5.1875 1.625l0.1875 1.140625q-0.546875 0.109375 -0.984375 0.109375q-0.6875 0 -1.078125 -0.21875q-0.390625 -0.21875 -0.546875 -0.578125q-0.15625 -0.359375 -0.15625 -1.515625l0 -4.375l-0.953125 0l0 -1.0l0.953125 0l0 -1.890625l1.28125 -0.765625l0 2.65625l1.296875 0l0 1.0l-1.296875 0l0 4.4375q0 0.546875 0.0625 0.71875q0.078125 0.15625 0.21875 0.25q0.15625 0.078125 0.453125 0.078125q0.203125 0 0.5625 -0.046875zm1.2594604 -7.859375l0 -1.46875l1.296875 0l0 1.46875l-1.296875 0zm0 9.015625l0 -7.59375l1.296875 0l0 7.59375l-1.296875 0zm2.7717896 -3.796875q0 -2.109375 1.171875 -3.125q0.984375 -0.84375 2.390625 -0.84375q1.578125 0 2.5625 1.03125q1.0 1.015625 1.0 2.828125q0 1.46875 -0.4375 2.3125q-0.4375 0.828125 -1.28125 1.296875q-0.84375 0.46875 -1.84375 0.46875q-1.59375 0 -2.578125 -1.015625q-0.984375 -1.03125 -0.984375 -2.953125zm1.328125 0q0 1.453125 0.625 2.1875q0.640625 0.71875 1.609375 0.71875q0.96875 0 1.59375 -0.71875q0.640625 -0.734375 0.640625 -2.234375q0 -1.40625 -0.640625 -2.125q-0.640625 -0.734375 -1.59375 -0.734375q-0.96875 0 -1.609375 0.71875q-0.625 0.71875 -0.625 2.1875zm7.307312 3.796875l0 -7.59375l1.15625 0l0 1.078125q0.84375 -1.25 2.421875 -1.25q0.6875 0 1.265625 0.25q0.578125 0.234375 0.859375 0.640625q0.28125 0.40625 0.40625 0.953125q0.0625 0.359375 0.0625 1.25l0 4.671875l-1.28125 0l0 -4.625q0 -0.78125 -0.15625 -1.171875q-0.15625 -0.390625 -0.546875 -0.625q-0.375 -0.234375 -0.890625 -0.234375q-0.8125 0 -1.421875 0.53125q-0.59375 0.515625 -0.59375 1.96875l0 4.15625l-1.28125 0zm10.429504 0l4.015625 -10.484375l1.5 0l4.296875 10.484375l-1.578125 0l-1.234375 -3.171875l-4.375 0l-1.15625 3.171875l-1.46875 0zm3.015625 -4.3125l3.5625 0l-1.09375 -2.90625q-0.5 -1.3125 -0.75 -2.171875q-0.203125 1.015625 -0.5625 2.0l-1.15625 3.078125zm7.9005737 4.3125l0 -10.484375l3.96875 0q1.046875 0 1.59375 0.09375q0.765625 0.125 1.28125 0.484375q0.53125 0.359375 0.84375 1.015625q0.328125 0.65625 0.328125 1.4375q0 1.328125 -0.859375 2.265625q-0.84375 0.921875 -3.078125 0.921875l-2.6875 0l0 4.265625l-1.390625 0zm1.390625 -5.5l2.71875 0q1.34375 0 1.90625 -0.5q0.5625 -0.5 0.5625 -1.40625q0 -0.671875 -0.328125 -1.140625q-0.328125 -0.46875 -0.875 -0.609375q-0.359375 -0.09375 -1.296875 -0.09375l-2.6875 0l0 3.75zm8.619385 5.5l0 -10.484375l1.390625 0l0 10.484375l-1.390625 0z" fill-rule="nonzero"/><g filter="url(#shadowFilter-p.3)"><use xlink:href="#p.3" transform="matrix(1.0 0.0 0.0 1.0 0.0 2.0)"/></g><defs><filter id="shadowFilter-p.3" filterUnits="userSpaceOnUse"><feGaussianBlur in="SourceAlpha" stdDeviation="2.0" result="blur"/><feComponentTransfer in="blur" color-interpolation-filters="sRGB"><feFuncR type="linear" slope="0" intercept="0.0"/><feFuncG type="linear" slope="0" intercept="0.0"/><feFuncB type="linear" slope="0" intercept="0.0"/><feFuncA type="linear" slope="0.5" intercept="0"/></feComponentTransfer></filter></defs><g id="p.3"><path fill="#ffffff" d="m291.8819 121.71916l106.48819 0l0 204.62993l-106.48819 0z" fill-rule="evenodd"/><path stroke="#44546a" stroke-width="1.0" stroke-linejoin="round" stroke-linecap="butt" d="m291.8819 121.71916l106.48819 0l0 204.62993l-106.48819 0z" fill-rule="evenodd"/><path fill="#000000" d="m308.7015 216.73912l1.3125 -0.109375q0.09375 0.78125 0.421875 1.296875q0.34375 0.5 1.0625 0.8125q0.71875 0.3125 1.609375 0.3125q0.796875 0 1.40625 -0.234375q0.609375 -0.234375 0.90625 -0.640625q0.296875 -0.421875 0.296875 -0.90625q0 -0.5 -0.296875 -0.859375q-0.28125 -0.375 -0.9375 -0.625q-0.421875 -0.171875 -1.875 -0.515625q-1.4375 -0.34375 -2.015625 -0.65625q-0.75 -0.390625 -1.125 -0.96875q-0.359375 -0.59375 -0.359375 -1.3125q0 -0.796875 0.4375 -1.484375q0.453125 -0.6875 1.3125 -1.046875q0.875 -0.359375 1.9375 -0.359375q1.171875 0 2.0625 0.375q0.890625 0.375 1.359375 1.109375q0.484375 0.734375 0.515625 1.65625l-1.328125 0.09375q-0.109375 -1.0 -0.734375 -1.5q-0.609375 -0.515625 -1.8125 -0.515625q-1.265625 0 -1.84375 0.46875q-0.578125 0.46875 -0.578125 1.109375q0 0.5625 0.421875 0.9375q0.390625 0.359375 2.078125 0.75q1.703125 0.375 2.328125 0.65625q0.921875 0.421875 1.359375 1.078125q0.4375 0.640625 0.4375 1.484375q0 0.84375 -0.484375 1.59375q-0.484375 0.734375 -1.390625 1.140625q-0.890625 0.40625 -2.015625 0.40625q-1.421875 0 -2.390625 -0.40625q-0.953125 -0.421875 -1.5 -1.25q-0.546875 -0.828125 -0.578125 -1.890625zm12.900604 2.21875l0.1875 1.140625q-0.546875 0.109375 -0.984375 0.109375q-0.6875 0 -1.078125 -0.21875q-0.390625 -0.21875 -0.546875 -0.578125q-0.15625 -0.359375 -0.15625 -1.515625l0 -4.375l-0.953125 0l0 -1.0l0.953125 0l0 -1.890625l1.28125 -0.765625l0 2.65625l1.296875 0l0 1.0l-1.296875 0l0 4.4375q0 0.546875 0.0625 0.71875q0.078125 0.15625 0.21875 0.25q0.15625 0.078125 0.453125 0.078125q0.203125 0 0.5625 -0.046875zm6.2125854 0.21875q-0.71875 0.609375 -1.375 0.859375q-0.65625 0.25 -1.421875 0.25q-1.25 0 -1.921875 -0.609375q-0.671875 -0.609375 -0.671875 -1.5625q0 -0.5625 0.25 -1.015625q0.25 -0.46875 0.65625 -0.75q0.421875 -0.28125 0.9375 -0.421875q0.375 -0.09375 1.140625 -0.1875q1.5625 -0.1875 2.296875 -0.453125q0.015625 -0.265625 0.015625 -0.328125q0 -0.796875 -0.375 -1.109375q-0.484375 -0.4375 -1.453125 -0.4375q-0.921875 0 -1.359375 0.328125q-0.421875 0.3125 -0.625 1.109375l-1.265625 -0.171875q0.171875 -0.796875 0.5625 -1.296875q0.390625 -0.5 1.140625 -0.765625q0.75 -0.265625 1.71875 -0.265625q0.984375 0 1.59375 0.234375q0.609375 0.21875 0.890625 0.5625q0.28125 0.34375 0.40625 0.875q0.0625 0.328125 0.0625 1.1875l0 1.71875q0 1.796875 0.078125 2.28125q0.078125 0.46875 0.328125 0.90625l-1.34375 0q-0.203125 -0.40625 -0.265625 -0.9375zm-0.109375 -2.875q-0.703125 0.28125 -2.09375 0.484375q-0.796875 0.109375 -1.125 0.265625q-0.328125 0.140625 -0.515625 0.421875q-0.171875 0.265625 -0.171875 0.59375q0 0.515625 0.390625 0.859375q0.390625 0.34375 1.140625 0.34375q0.734375 0 1.3125 -0.3125q0.59375 -0.328125 0.859375 -0.890625q0.203125 -0.4375 0.203125 -1.296875l0 -0.46875zm3.307373 3.8125l0 -7.59375l1.15625 0l0 1.078125q0.84375 -1.25 2.421875 -1.25q0.6875 0 1.265625 0.25q0.578125 0.234375 0.859375 0.640625q0.28125 0.40625 0.40625 0.953125q0.0625 0.359375 0.0625 1.25l0 4.671875l-1.28125 0l0 -4.625q0 -0.78125 -0.15625 -1.171875q-0.15625 -0.390625 -0.546875 -0.625q-0.375 -0.234375 -0.890625 -0.234375q-0.8125 0 -1.421875 0.53125q-0.59375 0.515625 -0.59375 1.96875l0 4.15625l-1.28125 0zm13.072968 0l0 -0.953125q-0.71875 1.125 -2.125 1.125q-0.90625 0 -1.671875 -0.5q-0.75 -0.5 -1.171875 -1.390625q-0.421875 -0.90625 -0.421875 -2.078125q0 -1.140625 0.375 -2.0625q0.390625 -0.921875 1.140625 -1.40625q0.765625 -0.5 1.703125 -0.5q0.6875 0 1.21875 0.296875q0.53125 0.28125 0.875 0.734375l0 -3.75l1.28125 0l0 10.484375l-1.203125 0zm-4.0625 -3.796875q0 1.46875 0.609375 2.1875q0.625 0.71875 1.453125 0.71875q0.84375 0 1.4375 -0.6875q0.59375 -0.6875 0.59375 -2.109375q0 -1.5625 -0.609375 -2.28125q-0.59375 -0.734375 -1.484375 -0.734375q-0.84375 0 -1.421875 0.703125q-0.578125 0.703125 -0.578125 2.203125zm12.244873 2.859375q-0.71875 0.609375 -1.375 0.859375q-0.65625 0.25 -1.421875 0.25q-1.25 0 -1.921875 -0.609375q-0.671875 -0.609375 -0.671875 -1.5625q0 -0.5625 0.25 -1.015625q0.25 -0.46875 0.65625 -0.75q0.421875 -0.28125 0.9375 -0.421875q0.375 -0.09375 1.140625 -0.1875q1.5625 -0.1875 2.296875 -0.453125q0.015625 -0.265625 0.015625 -0.328125q0 -0.796875 -0.375 -1.109375q-0.484375 -0.4375 -1.453125 -0.4375q-0.921875 0 -1.359375 0.328125q-0.421875 0.3125 -0.625 1.109375l-1.265625 -0.171875q0.171875 -0.796875 0.5625 -1.296875q0.390625 -0.5 1.140625 -0.765625q0.75 -0.265625 1.71875 -0.265625q0.984375 0 1.59375 0.234375q0.609375 0.21875 0.890625 0.5625q0.28125 0.34375 0.40625 0.875q0.0625 0.328125 0.0625 1.1875l0 1.71875q0 1.796875 0.078125 2.28125q0.078125 0.46875 0.328125 0.90625l-1.34375 0q-0.203125 -0.40625 -0.265625 -0.9375zm-0.109375 -2.875q-0.703125 0.28125 -2.09375 0.484375q-0.796875 0.109375 -1.125 0.265625q-0.328125 0.140625 -0.515625 0.421875q-0.171875 0.265625 -0.171875 0.59375q0 0.515625 0.390625 0.859375q0.390625 0.34375 1.140625 0.34375q0.734375 0 1.3125 -0.3125q0.59375 -0.328125 0.859375 -0.890625q0.203125 -0.4375 0.203125 -1.296875l0 -0.46875zm3.2760925 3.8125l0 -10.484375l1.28125 0l0 10.484375l-1.28125 0zm2.8030396 -3.796875q0 -2.109375 1.171875 -3.125q0.984375 -0.84375 2.390625 -0.84375q1.578125 0 2.5625 1.03125q1.0 1.015625 1.0 2.828125q0 1.46875 -0.4375 2.3125q-0.4375 0.828125 -1.28125 1.296875q-0.84375 0.46875 -1.84375 0.46875q-1.59375 0 -2.578125 -1.015625q-0.984375 -1.03125 -0.984375 -2.953125zm1.328125 0q0 1.453125 0.625 2.1875q0.640625 0.71875 1.609375 0.71875q0.96875 0 1.59375 -0.71875q0.640625 -0.734375 0.640625 -2.234375q0 -1.40625 -0.640625 -2.125q-0.640625 -0.734375 -1.59375 -0.734375q-0.96875 0 -1.609375 0.71875q-0.625 0.71875 -0.625 2.1875zm7.3073425 3.796875l0 -7.59375l1.15625 0l0 1.078125q0.84375 -1.25 2.421875 -1.25q0.6875 0 1.265625 0.25q0.578125 0.234375 0.859375 0.640625q0.28125 0.40625 0.40625 0.953125q0.0625 0.359375 0.0625 1.25l0 4.671875l-1.28125 0l0 -4.625q0 -0.78125 -0.15625 -1.171875q-0.15625 -0.390625 -0.546875 -0.625q-0.375 -0.234375 -0.890625 -0.234375q-0.8125 0 -1.421875 0.53125q-0.59375 0.515625 -0.59375 1.96875l0 4.15625l-1.28125 0zm13.354248 -2.453125l1.328125 0.171875q-0.3125 1.171875 -1.171875 1.8125q-0.84375 0.640625 -2.171875 0.640625q-1.671875 0 -2.65625 -1.015625q-0.96875 -1.03125 -0.96875 -2.890625q0 -1.921875 0.984375 -2.96875q1.0 -1.0625 2.578125 -1.0625q1.515625 0 2.484375 1.03125q0.96875 1.03125 0.96875 2.921875q0 0.109375 -0.015625 0.34375l-5.65625 0q0.0625 1.25 0.703125 1.921875q0.640625 0.65625 1.59375 0.65625q0.703125 0 1.203125 -0.359375q0.5 -0.375 0.796875 -1.203125zm-4.234375 -2.078125l4.25 0q-0.09375 -0.953125 -0.484375 -1.4375q-0.625 -0.75 -1.609375 -0.75q-0.875 0 -1.484375 0.59375q-0.609375 0.59375 -0.671875 1.59375z" fill-rule="nonzero"/><path fill="#000000" d="m309.26053 238.11412l4.015625 -10.484375l1.5 0l4.296875 10.484375l-1.578125 0l-1.234375 -3.171875l-4.375 0l-1.15625 3.171875l-1.46875 0zm3.015625 -4.3125l3.5625 0l-1.09375 -2.90625q-0.5 -1.3125 -0.75 -2.171875q-0.203125 1.015625 -0.5625 2.0l-1.15625 3.078125zm7.7443542 7.21875l0 -10.5l1.171875 0l0 0.984375q0.421875 -0.578125 0.9375 -0.859375q0.515625 -0.296875 1.265625 -0.296875q0.96875 0 1.71875 0.5q0.75 0.5 1.125 1.421875q0.375 0.90625 0.375 1.984375q0 1.171875 -0.421875 2.109375q-0.40625 0.921875 -1.21875 1.421875q-0.796875 0.5 -1.671875 0.5q-0.640625 0 -1.15625 -0.265625q-0.515625 -0.28125 -0.84375 -0.6875l0 3.6875l-1.28125 0zm1.15625 -6.65625q0 1.453125 0.59375 2.15625q0.609375 0.703125 1.453125 0.703125q0.859375 0 1.46875 -0.71875q0.609375 -0.734375 0.609375 -2.25q0 -1.453125 -0.609375 -2.171875q-0.59375 -0.734375 -1.421875 -0.734375q-0.8125 0 -1.453125 0.78125q-0.640625 0.765625 -0.640625 2.234375zm6.9948425 6.65625l0 -10.5l1.171875 0l0 0.984375q0.421875 -0.578125 0.9375 -0.859375q0.515625 -0.296875 1.265625 -0.296875q0.96875 0 1.71875 0.5q0.75 0.5 1.125 1.421875q0.375 0.90625 0.375 1.984375q0 1.171875 -0.421875 2.109375q-0.40625 0.921875 -1.21875 1.421875q-0.796875 0.5 -1.671875 0.5q-0.640625 0 -1.15625 -0.265625q-0.515625 -0.28125 -0.84375 -0.6875l0 3.6875l-1.28125 0zm1.15625 -6.65625q0 1.453125 0.59375 2.15625q0.609375 0.703125 1.453125 0.703125q0.859375 0 1.46875 -0.71875q0.609375 -0.734375 0.609375 -2.25q0 -1.453125 -0.609375 -2.171875q-0.59375 -0.734375 -1.421875 -0.734375q-0.8125 0 -1.453125 0.78125q-0.640625 0.765625 -0.640625 2.234375zm6.963623 3.75l0 -10.484375l1.28125 0l0 10.484375l-1.28125 0zm3.287384 -9.015625l0 -1.46875l1.296875 0l0 1.46875l-1.296875 0zm0 9.015625l0 -7.59375l1.296875 0l0 7.59375l-1.296875 0zm8.20929 -2.78125l1.265625 0.15625q-0.203125 1.3125 -1.0625 2.0625q-0.84375 0.734375 -2.09375 0.734375q-1.5625 0 -2.515625 -1.015625q-0.9375 -1.03125 -0.9375 -2.921875q0 -1.234375 0.40625 -2.15625q0.40625 -0.921875 1.234375 -1.375q0.84375 -0.46875 1.8125 -0.46875q1.25 0 2.03125 0.625q0.78125 0.625 1.015625 1.765625l-1.265625 0.203125q-0.171875 -0.765625 -0.625 -1.15625q-0.453125 -0.390625 -1.09375 -0.390625q-0.984375 0 -1.59375 0.703125q-0.609375 0.703125 -0.609375 2.203125q0 1.53125 0.578125 2.234375q0.59375 0.6875 1.546875 0.6875q0.75 0 1.265625 -0.453125q0.515625 -0.46875 0.640625 -1.4375zm7.328125 1.84375q-0.71875 0.609375 -1.375 0.859375q-0.65625 0.25 -1.421875 0.25q-1.25 0 -1.921875 -0.609375q-0.671875 -0.609375 -0.671875 -1.5625q0 -0.5625 0.25 -1.015625q0.25 -0.46875 0.65625 -0.75q0.421875 -0.28125 0.9375 -0.421875q0.375 -0.09375 1.140625 -0.1875q1.5625 -0.1875 2.296875 -0.453125q0.015625 -0.265625 0.015625 -0.328125q0 -0.796875 -0.375 -1.109375q-0.484375 -0.4375 -1.453125 -0.4375q-0.921875 0 -1.359375 0.328125q-0.421875 0.3125 -0.625 1.109375l-1.265625 -0.171875q0.171875 -0.796875 0.5625 -1.296875q0.390625 -0.5 1.140625 -0.765625q0.75 -0.265625 1.71875 -0.265625q0.984375 0 1.59375 0.234375q0.609375 0.21875 0.890625 0.5625q0.28125 0.34375 0.40625 0.875q0.0625 0.328125 0.0625 1.1875l0 1.71875q0 1.796875 0.078125 2.28125q0.078125 0.46875 0.328125 0.90625l-1.34375 0q-0.203125 -0.40625 -0.265625 -0.9375zm-0.109375 -2.875q-0.703125 0.28125 -2.09375 0.484375q-0.796875 0.109375 -1.125 0.265625q-0.328125 0.140625 -0.515625 0.421875q-0.171875 0.265625 -0.171875 0.59375q0 0.515625 0.390625 0.859375q0.390625 0.34375 1.140625 0.34375q0.734375 0 1.3125 -0.3125q0.59375 -0.328125 0.859375 -0.890625q0.203125 -0.4375 0.203125 -1.296875l0 -0.46875zm6.1198425 2.65625l0.1875 1.140625q-0.546875 0.109375 -0.984375 0.109375q-0.6875 0 -1.078125 -0.21875q-0.390625 -0.21875 -0.546875 -0.578125q-0.15625 -0.359375 -0.15625 -1.515625l0 -4.375l-0.953125 0l0 -1.0l0.953125 0l0 -1.890625l1.28125 -0.765625l0 2.65625l1.296875 0l0 1.0l-1.296875 0l0 4.4375q0 0.546875 0.0625 0.71875q0.078125 0.15625 0.21875 0.25q0.15625 0.078125 0.453125 0.078125q0.203125 0 0.5625 -0.046875zm1.259491 -7.859375l0 -1.46875l1.296875 0l0 1.46875l-1.296875 0zm0 9.015625l0 -7.59375l1.296875 0l0 7.59375l-1.296875 0zm2.771759 -3.796875q0 -2.109375 1.171875 -3.125q0.984375 -0.84375 2.390625 -0.84375q1.578125 0 2.5625 1.03125q1.0 1.015625 1.0 2.828125q0 1.46875 -0.4375 2.3125q-0.4375 0.828125 -1.28125 1.296875q-0.84375 0.46875 -1.84375 0.46875q-1.59375 0 -2.578125 -1.015625q-0.984375 -1.03125 -0.984375 -2.953125zm1.328125 0q0 1.453125 0.625 2.1875q0.640625 0.71875 1.609375 0.71875q0.96875 0 1.59375 -0.71875q0.640625 -0.734375 0.640625 -2.234375q0 -1.40625 -0.640625 -2.125q-0.640625 -0.734375 -1.59375 -0.734375q-0.96875 0 -1.609375 0.71875q-0.625 0.71875 -0.625 2.1875zm7.307373 3.796875l0 -7.59375l1.15625 0l0 1.078125q0.84375 -1.25 2.421875 -1.25q0.6875 0 1.265625 0.25q0.578125 0.234375 0.859375 0.640625q0.28125 0.40625 0.40625 0.953125q0.0625 0.359375 0.0625 1.25l0 4.671875l-1.28125 0l0 -4.625q0 -0.78125 -0.15625 -1.171875q-0.15625 -0.390625 -0.546875 -0.625q-0.375 -0.234375 -0.890625 -0.234375q-0.8125 0 -1.421875 0.53125q-0.59375 0.515625 -0.59375 1.96875l0 4.15625l-1.28125 0z" fill-rule="nonzero"/></g><path fill="#000000" fill-opacity="0.0" d="m802.8268 252.46982l-72.06299 0" fill-rule="evenodd"/><path stroke="#44546a" stroke-width="2.0" stroke-linejoin="round" stroke-linecap="butt" d="m802.8268 252.46982l-60.06299 0" fill-rule="evenodd"/><path fill="#44546a" stroke="#44546a" stroke-width="2.0" stroke-linecap="butt" d="m742.7638 249.16635l-9.076233 3.3034668l9.076233 3.3034668z" fill-rule="evenodd"/><path fill="#000000" fill-opacity="0.0" d="m421.33597 252.46982l170.86612 0" fill-rule="evenodd"/><path stroke="#44546a" stroke-width="2.0" stroke-linejoin="round" stroke-linecap="butt" d="m421.33597 252.46982l158.86612 0" fill-rule="evenodd"/><path fill="#44546a" stroke="#44546a" stroke-width="2.0" stroke-linecap="butt" d="m580.2021 255.77328l9.076233 -3.3034668l-9.076233 -3.3034668z" fill-rule="evenodd"/><g filter="url(#shadowFilter-p.4)"><use xlink:href="#p.4" transform="matrix(1.0 0.0 0.0 1.0 0.0 2.0)"/></g><defs><filter id="shadowFilter-p.4" filterUnits="userSpaceOnUse"><feGaussianBlur in="SourceAlpha" stdDeviation="2.0" result="blur"/><feComponentTransfer in="blur" color-interpolation-filters="sRGB"><feFuncR type="linear" slope="0" intercept="0.0"/><feFuncG type="linear" slope="0" intercept="0.0"/><feFuncB type="linear" slope="0" intercept="0.0"/><feFuncA type="linear" slope="0.5" intercept="0"/></feComponentTransfer></filter></defs><g id="p.4"><path fill="#ffffff" d="m477.01575 342.44794l0 0c0 -5.5107727 14.376251 -9.978119 32.11023 -9.978119c17.734009 0 32.11023 4.467346 32.11023 9.978119l0 39.912506c0 5.5107727 -14.376221 9.978149 -32.11023 9.978149c-17.733978 0 -32.11023 -4.4673767 -32.11023 -9.978149z" fill-rule="evenodd"/><path fill="#000000" fill-opacity="0.0" d="m541.2362 342.44794l0 0c0 5.5107727 -14.376221 9.978149 -32.11023 9.978149c-17.733978 0 -32.11023 -4.4673767 -32.11023 -9.978149" fill-rule="evenodd"/><path fill="#000000" fill-opacity="0.0" d="m477.01575 342.44794l0 0c0 -5.5107727 14.376251 -9.978119 32.11023 -9.978119c17.734009 0 32.11023 4.467346 32.11023 9.978119l0 39.912506c0 5.5107727 -14.376221 9.978149 -32.11023 9.978149c-17.733978 0 -32.11023 -4.4673767 -32.11023 -9.978149z" fill-rule="evenodd"/><path stroke="#44546a" stroke-width="1.0" stroke-linejoin="round" stroke-linecap="butt" d="m541.2362 342.44794l0 0c0 5.5107727 -14.376221 9.978149 -32.11023 9.978149c-17.733978 0 -32.11023 -4.4673767 -32.11023 -9.978149" fill-rule="evenodd"/><path stroke="#44546a" stroke-width="1.0" stroke-linejoin="round" stroke-linecap="butt" d="m477.01575 342.44794l0 0c0 -5.5107727 14.376251 -9.978119 32.11023 -9.978119c17.734009 0 32.11023 4.467346 32.11023 9.978119l0 39.912506c0 5.5107727 -14.376221 9.978149 -32.11023 9.978149c-17.733978 0 -32.11023 -4.4673767 -32.11023 -9.978149z" fill-rule="evenodd"/><path fill="#000000" d="m494.85703 372.47327l0 -10.484375l7.078125 0l0 1.234375l-5.6875 0l0 3.25l4.921875 0l0 1.234375l-4.921875 0l0 4.765625l-1.390625 0zm8.718262 -9.015625l0 -1.46875l1.296875 0l0 1.46875l-1.296875 0zm0 9.015625l0 -7.59375l1.296875 0l0 7.59375l-1.296875 0zm3.224884 0l0 -10.484375l1.28125 0l0 10.484375l-1.28125 0zm8.49054 -2.453125l1.328125 0.171875q-0.3125 1.171875 -1.171875 1.8125q-0.84375 0.640625 -2.171875 0.640625q-1.671875 0 -2.65625 -1.015625q-0.96875 -1.03125 -0.96875 -2.890625q0 -1.921875 0.984375 -2.96875q1.0 -1.0625 2.578125 -1.0625q1.515625 0 2.484375 1.03125q0.96875 1.03125 0.96875 2.921875q0 0.109375 -0.015625 0.34375l-5.65625 0q0.0625 1.25 0.703125 1.921875q0.640625 0.65625 1.59375 0.65625q0.703125 0 1.203125 -0.359375q0.5 -0.375 0.796875 -1.203125zm-4.234375 -2.078125l4.25 0q-0.09375 -0.953125 -0.484375 -1.4375q-0.625 -0.75 -1.609375 -0.75q-0.875 0 -1.484375 0.59375q-0.609375 0.59375 -0.671875 1.59375zm6.666748 2.265625l1.265625 -0.203125q0.109375 0.765625 0.59375 1.171875q0.5 0.40625 1.375 0.40625q0.890625 0 1.3125 -0.359375q0.4375 -0.359375 0.4375 -0.84375q0 -0.4375 -0.375 -0.6875q-0.265625 -0.171875 -1.3125 -0.4375q-1.421875 -0.359375 -1.96875 -0.609375q-0.546875 -0.265625 -0.828125 -0.734375q-0.28125 -0.46875 -0.28125 -1.015625q0 -0.515625 0.21875 -0.9375q0.234375 -0.4375 0.640625 -0.734375q0.296875 -0.21875 0.8125 -0.359375q0.53125 -0.15625 1.125 -0.15625q0.890625 0 1.5625 0.265625q0.671875 0.25 1.0 0.6875q0.328125 0.4375 0.4375 1.171875l-1.25 0.171875q-0.09375 -0.578125 -0.5 -0.90625q-0.40625 -0.34375 -1.15625 -0.34375q-0.890625 0 -1.28125 0.296875q-0.375 0.296875 -0.375 0.6875q0 0.25 0.15625 0.453125q0.15625 0.203125 0.5 0.34375q0.1875 0.078125 1.140625 0.328125q1.359375 0.359375 1.890625 0.59375q0.546875 0.234375 0.859375 0.6875q0.3125 0.4375 0.3125 1.09375q0 0.640625 -0.375 1.21875q-0.375 0.5625 -1.09375 0.875q-0.703125 0.3125 -1.59375 0.3125q-1.484375 0 -2.265625 -0.609375q-0.765625 -0.625 -0.984375 -1.828125z" fill-rule="nonzero"/></g><path fill="#000000" fill-opacity="0.0" d="m345.12598 326.3491l0 36.06299l131.90552 0" fill-rule="evenodd"/><path stroke="#000000" stroke-width="1.0" stroke-linejoin="round" stroke-linecap="butt" d="m345.12598 332.3491l0 30.062988l125.90552 0" fill-rule="evenodd"/><path fill="#000000" stroke="#000000" stroke-width="1.0" stroke-linecap="butt" d="m346.7777 332.3491l-1.6517334 -4.5381165l-1.6517334 4.5381165z" fill-rule="evenodd"/><path fill="#000000" stroke="#000000" stroke-width="1.0" stroke-linecap="butt" d="m471.0315 364.0638l4.538086 -1.6517334l-4.538086 -1.6517334z" fill-rule="evenodd"/><path fill="#000000" fill-opacity="0.0" d="m665.126 326.3491l0 36.06299l-123.90552 0" fill-rule="evenodd"/><path stroke="#000000" stroke-width="1.0" stroke-linejoin="round" stroke-linecap="butt" d="m665.126 332.3491l0 30.062988l-117.90552 0" fill-rule="evenodd"/><path fill="#000000" stroke="#000000" stroke-width="1.0" stroke-linecap="butt" d="m666.7777 332.3491l-1.6517334 -4.5381165l-1.6517334 4.5381165z" fill-rule="evenodd"/><path fill="#000000" stroke="#000000" stroke-width="1.0" stroke-linecap="butt" d="m547.22046 360.76035l-4.538086 1.6517334l4.538086 1.6517334z" fill-rule="evenodd"/><path fill="#000000" fill-opacity="0.0" d="m414.3701 135.30446l174.48819 0l0 37.16536l-174.48819 0z" fill-rule="evenodd"/><path fill="#000000" d="m430.4326 152.66571l0 -0.203125q0 -0.234375 0.09375 -0.328125q0.09375 -0.09375 0.21875 -0.09375q0.140625 0 0.21875 0.09375q0.09375 0.09375 0.09375 0.328125l0 1.390625q0 0.21875 -0.09375 0.328125q-0.078125 0.09375 -0.21875 0.09375q-0.125 0 -0.21875 -0.078125q-0.078125 -0.09375 -0.09375 -0.296875q-0.03125 -0.515625 -0.671875 -0.984375q-0.640625 -0.46875 -1.734375 -0.46875q-1.375 0 -2.078125 0.859375q-0.703125 0.859375 -0.703125 1.953125q0 1.203125 0.78125 1.984375q0.78125 0.765625 2.03125 0.765625q0.703125 0 1.453125 -0.265625q0.75 -0.265625 1.34375 -0.84375q0.15625 -0.15625 0.265625 -0.15625q0.125 0 0.203125 0.09375q0.09375 0.078125 0.09375 0.203125q0 0.3125 -0.734375 0.796875q-1.203125 0.78125 -2.65625 0.78125q-1.484375 0 -2.453125 -0.9375q-0.953125 -0.953125 -0.953125 -2.40625q0 -1.484375 0.96875 -2.46875q0.984375 -0.984375 2.46875 -0.984375q1.421875 0 2.375 0.84375zm9.76709 2.6875l-6.265625 0q0.15625 1.203125 1.0 1.9375q0.84375 0.71875 2.078125 0.71875q0.6875 0 1.4375 -0.21875q0.75 -0.234375 1.234375 -0.609375q0.140625 -0.109375 0.234375 -0.109375q0.125 0 0.203125 0.09375q0.09375 0.09375 0.09375 0.21875q0 0.125 -0.109375 0.234375q-0.359375 0.375 -1.265625 0.6875q-0.890625 0.3125 -1.828125 0.3125q-1.59375 0 -2.65625 -1.03125q-1.046875 -1.03125 -1.046875 -2.5q0 -1.34375 0.984375 -2.296875q1.0 -0.96875 2.46875 -0.96875q1.5 0 2.46875 0.984375q0.984375 0.984375 0.96875 2.546875zm-0.625 -0.609375q-0.171875 -1.03125 -0.953125 -1.65625q-0.78125 -0.640625 -1.859375 -0.640625q-1.078125 0 -1.859375 0.625q-0.765625 0.625 -0.96875 1.671875l5.640625 0zm5.563965 -2.703125l0 1.546875q1.203125 -1.078125 1.796875 -1.390625q0.59375 -0.3125 1.109375 -0.3125q0.546875 0 1.015625 0.375q0.46875 0.375 0.46875 0.5625q0 0.140625 -0.09375 0.234375q-0.09375 0.078125 -0.21875 0.078125q-0.078125 0 -0.140625 -0.015625q-0.046875 -0.03125 -0.1875 -0.171875q-0.25 -0.25 -0.4375 -0.34375q-0.1875 -0.09375 -0.375 -0.09375q-0.40625 0 -0.984375 0.328125q-0.5625 0.3125 -1.953125 1.5625l0 3.375l2.71875 0q0.234375 0 0.328125 0.078125q0.09375 0.078125 0.09375 0.21875q0 0.140625 -0.09375 0.234375q-0.09375 0.078125 -0.328125 0.078125l-4.828125 0q-0.21875 0 -0.3125 -0.078125q-0.09375 -0.09375 -0.09375 -0.21875q0 -0.125 0.09375 -0.203125q0.09375 -0.09375 0.3125 -0.09375l1.5 0l0 -5.125l-1.140625 0q-0.21875 0 -0.3125 -0.078125q-0.09375 -0.09375 -0.09375 -0.234375q0 -0.140625 0.078125 -0.21875q0.09375 -0.09375 0.328125 -0.09375l1.75 0zm8.470215 0l3.34375 0q0.21875 0 0.3125 0.09375q0.09375 0.078125 0.09375 0.21875q0 0.140625 -0.09375 0.234375q-0.09375 0.078125 -0.3125 0.078125l-3.34375 0l0 4.09375q0 0.53125 0.421875 0.890625q0.4375 0.359375 1.265625 0.359375q0.625 0 1.34375 -0.1875q0.734375 -0.1875 1.125 -0.421875q0.15625 -0.09375 0.25 -0.09375q0.109375 0 0.203125 0.09375q0.09375 0.09375 0.09375 0.21875q0 0.109375 -0.09375 0.203125q-0.234375 0.234375 -1.140625 0.515625q-0.90625 0.28125 -1.734375 0.28125q-1.078125 0 -1.71875 -0.5q-0.640625 -0.5 -0.640625 -1.359375l0 -4.09375l-1.125 0q-0.21875 0 -0.328125 -0.078125q-0.09375 -0.09375 -0.09375 -0.234375q0 -0.140625 0.09375 -0.21875q0.109375 -0.09375 0.328125 -0.09375l1.125 0l0 -1.8125q0 -0.21875 0.09375 -0.3125q0.09375 -0.09375 0.21875 -0.09375q0.140625 0 0.21875 0.09375q0.09375 0.09375 0.09375 0.3125l0 1.8125zm10.57959 -3.15625l0 1.59375l-0.921875 0l0 -1.59375l0.921875 0zm0.015625 3.15625l0 5.734375l2.421875 0q0.21875 0 0.3125 0.078125q0.09375 0.078125 0.09375 0.21875q0 0.140625 -0.09375 0.234375q-0.09375 0.078125 -0.3125 0.078125l-5.453125 0q-0.21875 0 -0.3125 -0.078125q-0.09375 -0.09375 -0.09375 -0.234375q0 -0.140625 0.09375 -0.21875q0.09375 -0.078125 0.3125 -0.078125l2.421875 0l0 -5.109375l-1.796875 0q-0.21875 0 -0.328125 -0.078125q-0.09375 -0.09375 -0.09375 -0.234375q0 -0.140625 0.09375 -0.21875q0.09375 -0.09375 0.328125 -0.09375l2.40625 0zm8.26709 0.625l0 5.109375l2.703125 0q0.21875 0 0.3125 0.078125q0.09375 0.078125 0.09375 0.21875q0 0.140625 -0.09375 0.234375q-0.09375 0.078125 -0.3125 0.078125l-4.8125 0q-0.21875 0 -0.3125 -0.078125q-0.09375 -0.09375 -0.09375 -0.234375q0 -0.140625 0.09375 -0.21875q0.09375 -0.078125 0.3125 -0.078125l1.484375 0l0 -5.109375l-1.328125 0q-0.21875 0 -0.3125 -0.078125q-0.09375 -0.09375 -0.09375 -0.234375q0 -0.140625 0.09375 -0.21875q0.09375 -0.09375 0.3125 -0.09375l1.328125 0l0 -0.921875q0 -0.78125 0.625 -1.34375q0.640625 -0.578125 1.671875 -0.578125q0.875 0 1.859375 0.15625q0.375 0.0625 0.453125 0.140625q0.078125 0.078125 0.078125 0.21875q0 0.125 -0.09375 0.21875q-0.078125 0.078125 -0.21875 0.078125q-0.0625 0 -0.203125 -0.03125q-1.109375 -0.15625 -1.875 -0.15625q-0.796875 0 -1.234375 0.390625q-0.4375 0.390625 -0.4375 0.90625l0 0.921875l2.875 0q0.21875 0 0.3125 0.09375q0.109375 0.078125 0.109375 0.21875q0 0.140625 -0.109375 0.234375q-0.09375 0.078125 -0.3125 0.078125l-2.875 0zm11.17334 5.71875l0 -0.890625q-1.34375 1.125 -2.859375 1.125q-1.109375 0 -1.734375 -0.546875q-0.609375 -0.5625 -0.609375 -1.375q0 -0.890625 0.8125 -1.5625q0.828125 -0.671875 2.390625 -0.671875q0.421875 0 0.921875 0.0625q0.5 0.046875 1.078125 0.171875l0 -1.0q0 -0.5 -0.46875 -0.875q-0.46875 -0.375 -1.40625 -0.375q-0.71875 0 -2.015625 0.421875q-0.234375 0.0625 -0.296875 0.0625q-0.109375 0 -0.203125 -0.078125q-0.078125 -0.09375 -0.078125 -0.21875q0 -0.125 0.078125 -0.203125q0.09375 -0.109375 0.828125 -0.296875q1.140625 -0.3125 1.71875 -0.3125q1.171875 0 1.8125 0.578125q0.65625 0.578125 0.65625 1.296875l0 4.078125l0.828125 0q0.21875 0 0.3125 0.078125q0.09375 0.078125 0.09375 0.21875q0 0.140625 -0.09375 0.234375q-0.09375 0.078125 -0.3125 0.078125l-1.453125 0zm0 -3.0625q-0.421875 -0.125 -0.90625 -0.171875q-0.484375 -0.0625 -1.015625 -0.0625q-1.34375 0 -2.109375 0.578125q-0.5625 0.421875 -0.5625 1.03125q0 0.546875 0.4375 0.9375q0.4375 0.375 1.265625 0.375q0.796875 0 1.484375 -0.3125q0.6875 -0.328125 1.40625 -1.015625l0 -1.359375zm9.79834 -2.65625l0 -0.203125q0 -0.234375 0.09375 -0.328125q0.09375 -0.09375 0.21875 -0.09375q0.140625 0 0.21875 0.09375q0.09375 0.09375 0.09375 0.328125l0 1.390625q0 0.21875 -0.09375 0.328125q-0.078125 0.09375 -0.21875 0.09375q-0.125 0 -0.21875 -0.078125q-0.078125 -0.09375 -0.09375 -0.296875q-0.03125 -0.515625 -0.671875 -0.984375q-0.640625 -0.46875 -1.734375 -0.46875q-1.375 0 -2.078125 0.859375q-0.703125 0.859375 -0.703125 1.953125q0 1.203125 0.78125 1.984375q0.78125 0.765625 2.03125 0.765625q0.703125 0 1.453125 -0.265625q0.75 -0.265625 1.34375 -0.84375q0.15625 -0.15625 0.265625 -0.15625q0.125 0 0.203125 0.09375q0.09375 0.078125 0.09375 0.203125q0 0.3125 -0.734375 0.796875q-1.203125 0.78125 -2.65625 0.78125q-1.484375 0 -2.453125 -0.9375q-0.953125 -0.953125 -0.953125 -2.40625q0 -1.484375 0.96875 -2.46875q0.984375 -0.984375 2.46875 -0.984375q1.421875 0 2.375 0.84375zm5.17334 -0.625l3.34375 0q0.21875 0 0.3125 0.09375q0.09375 0.078125 0.09375 0.21875q0 0.140625 -0.09375 0.234375q-0.09375 0.078125 -0.3125 0.078125l-3.34375 0l0 4.09375q0 0.53125 0.421875 0.890625q0.4375 0.359375 1.265625 0.359375q0.625 0 1.34375 -0.1875q0.734375 -0.1875 1.125 -0.421875q0.15625 -0.09375 0.25 -0.09375q0.109375 0 0.203125 0.09375q0.09375 0.09375 0.09375 0.21875q0 0.109375 -0.09375 0.203125q-0.234375 0.234375 -1.140625 0.515625q-0.90625 0.28125 -1.734375 0.28125q-1.078125 0 -1.71875 -0.5q-0.640625 -0.5 -0.640625 -1.359375l0 -4.09375l-1.125 0q-0.21875 0 -0.328125 -0.078125q-0.09375 -0.09375 -0.09375 -0.234375q0 -0.140625 0.09375 -0.21875q0.109375 -0.09375 0.328125 -0.09375l1.125 0l0 -1.8125q0 -0.21875 0.09375 -0.3125q0.09375 -0.09375 0.21875 -0.09375q0.140625 0 0.21875 0.09375q0.09375 0.09375 0.09375 0.3125l0 1.8125zm10.57959 -3.15625l0 1.59375l-0.921875 0l0 -1.59375l0.921875 0zm0.015625 3.15625l0 5.734375l2.421875 0q0.21875 0 0.3125 0.078125q0.09371948 0.078125 0.09371948 0.21875q0 0.140625 -0.09371948 0.234375q-0.09375 0.078125 -0.3125 0.078125l-5.453125 0q-0.21875 0 -0.3125 -0.078125q-0.09375 -0.09375 -0.09375 -0.234375q0 -0.140625 0.09375 -0.21875q0.09375 -0.078125 0.3125 -0.078125l2.421875 0l0 -5.109375l-1.796875 0q-0.21875 0 -0.328125 -0.078125q-0.09375 -0.09375 -0.09375 -0.234375q0 -0.140625 0.09375 -0.21875q0.09375 -0.09375 0.328125 -0.09375l2.40625 0zm12.110809 3.1875q0 1.40625 -1.015625 2.40625q-1.0 0.984375 -2.421875 0.984375q-1.4375 0 -2.4375 -1.0q-1.0 -1.0 -1.0 -2.390625q0 -1.40625 1.0 -2.40625q1.0 -1.0 2.4375 -1.0q1.421875 0 2.421875 1.0q1.015625 0.984375 1.015625 2.40625zm-0.625 0q0 -1.15625 -0.828125 -1.96875q-0.8125 -0.8125 -1.984375 -0.8125q-1.171875 0 -2.0 0.8125q-0.828125 0.8125 -0.828125 1.96875q0 1.140625 0.828125 1.96875q0.828125 0.8125 2.0 0.8125q1.171875 0 1.984375 -0.8125q0.828125 -0.8125 0.828125 -1.96875zm4.20459 -3.1875l0 0.9375q0.640625 -0.65625 1.15625 -0.90625q0.53125 -0.25 1.171875 -0.25q0.703125 0 1.28125 0.296875q0.421875 0.21875 0.75 0.734375q0.328125 0.5 0.328125 1.046875l0 3.875l0.53125 0q0.21875 0 0.3125 0.078125q0.09375 0.078125 0.09375 0.21875q0 0.140625 -0.09375 0.234375q-0.09375 0.078125 -0.3125 0.078125l-1.65625 0q-0.21875 0 -0.328125 -0.078125q-0.09375 -0.09375 -0.09375 -0.234375q0 -0.140625 0.09375 -0.21875q0.109375 -0.078125 0.328125 -0.078125l0.515625 0l0 -3.78125q0 -0.65625 -0.484375 -1.09375q-0.46875 -0.453125 -1.265625 -0.453125q-0.609375 0 -1.0625 0.25q-0.4375 0.234375 -1.265625 1.21875l0 3.859375l0.6875 0q0.21875 0 0.3125 0.078125q0.109375 0.078125 0.109375 0.21875q0 0.140625 -0.109375 0.234375q-0.09375 0.078125 -0.3125 0.078125l-2.0 0q-0.21875 0 -0.3125 -0.078125q-0.09375 -0.09375 -0.09375 -0.234375q0 -0.140625 0.09375 -0.21875q0.09375 -0.078125 0.3125 -0.078125l0.6875 0l0 -5.109375l-0.515625 0q-0.21875 0 -0.3125 -0.078125q-0.09375 -0.09375 -0.09375 -0.234375q0 -0.140625 0.09375 -0.21875q0.09375 -0.09375 0.3125 -0.09375l1.140625 0zm22.018555 0.40625q0 -0.21875 0.078125 -0.3125q0.09375 -0.09375 0.234375 -0.09375q0.140625 0 0.21875 0.09375q0.09375 0.09375 0.09375 0.328125l0 1.046875q0 0.21875 -0.09375 0.328125q-0.078125 0.09375 -0.21875 0.09375q-0.125 0 -0.21875 -0.078125q-0.078125 -0.09375 -0.09375 -0.28125q-0.046875 -0.4375 -0.453125 -0.71875q-0.59375 -0.40625 -1.59375 -0.40625q-1.03125 0 -1.59375 0.421875q-0.4375 0.3125 -0.4375 0.703125q0 0.4375 0.515625 0.71875q0.34375 0.21875 1.328125 0.328125q1.28125 0.125 1.78125 0.3125q0.71875 0.25 1.0625 0.703125q0.34375 0.453125 0.34375 0.984375q0 0.78125 -0.75 1.390625q-0.75 0.609375 -2.21875 0.609375q-1.453125 0 -2.390625 -0.734375q0 0.25 -0.03125 0.328125q-0.015625 0.0625 -0.09375 0.125q-0.078125 0.046875 -0.171875 0.046875q-0.140625 0 -0.234375 -0.09375q-0.078125 -0.09375 -0.078125 -0.3125l0 -1.265625q0 -0.21875 0.078125 -0.3125q0.09375 -0.109375 0.234375 -0.109375q0.125 0 0.21875 0.09375q0.09375 0.09375 0.09375 0.25q0 0.34375 0.171875 0.5625q0.25 0.359375 0.8125 0.59375q0.5625 0.21875 1.375 0.21875q1.203125 0 1.78125 -0.4375q0.59375 -0.453125 0.59375 -0.953125q0 -0.578125 -0.59375 -0.921875q-0.609375 -0.34375 -1.75 -0.453125q-1.140625 -0.125 -1.640625 -0.3125q-0.5 -0.1875 -0.78125 -0.5625q-0.28125 -0.390625 -0.28125 -0.828125q0 -0.78125 0.78125 -1.25q0.78125 -0.46875 1.84375 -0.46875q1.28125 0 2.078125 0.625zm7.282715 -3.5625l0 1.59375l-0.921875 0l0 -1.59375l0.921875 0zm0.015625 3.15625l0 5.734375l2.421875 0q0.21875 0 0.3125 0.078125q0.09375 0.078125 0.09375 0.21875q0 0.140625 -0.09375 0.234375q-0.09375 0.078125 -0.3125 0.078125l-5.453125 0q-0.21875 0 -0.3125 -0.078125q-0.09375 -0.09375 -0.09375 -0.234375q0 -0.140625 0.09375 -0.21875q0.09375 -0.078125 0.3125 -0.078125l2.421875 0l0 -5.109375l-1.796875 0q-0.21875 0 -0.328125 -0.078125q-0.09375 -0.09375 -0.09375 -0.234375q0 -0.140625 0.09375 -0.21875q0.09375 -0.09375 0.328125 -0.09375l2.40625 0zm10.73584 1.125l0 -1.125l1.453125 0q0.21875 0 0.3125 0.09375q0.09375 0.078125 0.09375 0.21875q0 0.140625 -0.09375 0.234375q-0.09375 0.078125 -0.3125 0.078125l-0.828125 0l0 6.140625q0 0.625 -0.265625 1.109375q-0.171875 0.3125 -0.59375 0.65625q-0.40625 0.34375 -0.75 0.484375q-0.328125 0.15625 -0.890625 0.15625l-1.75 0q-0.21875 0 -0.3125 -0.09375q-0.09375 -0.078125 -0.09375 -0.21875q0 -0.140625 0.09375 -0.234375q0.09375 -0.078125 0.3125 -0.078125l1.765625 0.015625q0.546875 0 0.984375 -0.28125q0.4375 -0.28125 0.71875 -0.8125q0.15625 -0.3125 0.15625 -0.78125l0 -1.859375q-0.984375 1.359375 -2.546875 1.359375q-1.265625 0 -2.1875 -0.9375q-0.90625 -0.9375 -0.90625 -2.265625q0 -1.328125 0.90625 -2.265625q0.921875 -0.9375 2.1875 -0.9375q1.5625 0 2.546875 1.34375zm0 1.859375q0 -1.09375 -0.75 -1.828125q-0.734375 -0.75 -1.765625 -0.75q-1.03125 0 -1.78125 0.75q-0.734375 0.75 -0.734375 1.828125q0 1.078125 0.734375 1.828125q0.75 0.75 1.78125 0.75q1.03125 0 1.765625 -0.75q0.75 -0.75 0.75 -1.828125zm4.95459 -2.984375l0 0.9375q0.640625 -0.65625 1.15625 -0.90625q0.53125 -0.25 1.171875 -0.25q0.703125 0 1.28125 0.296875q0.421875 0.21875 0.75 0.734375q0.328125 0.5 0.328125 1.046875l0 3.875l0.53125 0q0.21875 0 0.3125 0.078125q0.09375 0.078125 0.09375 0.21875q0 0.140625 -0.09375 0.234375q-0.09375 0.078125 -0.3125 0.078125l-1.65625 0q-0.21875 0 -0.328125 -0.078125q-0.09375 -0.09375 -0.09375 -0.234375q0 -0.140625 0.09375 -0.21875q0.109375 -0.078125 0.328125 -0.078125l0.515625 0l0 -3.78125q0 -0.65625 -0.484375 -1.09375q-0.46875 -0.453125 -1.265625 -0.453125q-0.609375 0 -1.0625 0.25q-0.4375 0.234375 -1.265625 1.21875l0 3.859375l0.6875 0q0.21875 0 0.3125 0.078125q0.109375 0.078125 0.109375 0.21875q0 0.140625 -0.109375 0.234375q-0.09375 0.078125 -0.3125 0.078125l-2.0 0q-0.21875 0 -0.3125 -0.078125q-0.09375 -0.09375 -0.09375 -0.234375q0 -0.140625 0.09375 -0.21875q0.09375 -0.078125 0.3125 -0.078125l0.6875 0l0 -5.109375l-0.515625 0q-0.21875 0 -0.3125 -0.078125q-0.09375 -0.09375 -0.09375 -0.234375q0 -0.140625 0.09375 -0.21875q0.09375 -0.09375 0.3125 -0.09375l1.140625 0z" fill-rule="nonzero"/><path fill="#000000" fill-opacity="0.0" d="m420.3176 172.46982l171.874 0" fill-rule="evenodd"/><path stroke="#44546a" stroke-width="2.0" stroke-linejoin="round" stroke-linecap="butt" d="m420.3176 172.46982l159.874 0" fill-rule="evenodd"/><path fill="#44546a" stroke="#44546a" stroke-width="2.0" stroke-linecap="butt" d="m580.1916 175.77328l9.076233 -3.3034668l-9.076233 -3.3034668z" fill-rule="evenodd"/><path fill="#000000" fill-opacity="0.0" d="m408.54855 215.30446l190.67715 0l0 37.16536l-190.67715 0z" fill-rule="evenodd"/><path fill="#000000" d="m424.61105 232.66571l0 -0.203125q0 -0.234375 0.09375 -0.328125q0.09375 -0.09375 0.21875 -0.09375q0.140625 0 0.21875 0.09375q0.09375 0.09375 0.09375 0.328125l0 1.390625q0 0.21875 -0.09375 0.328125q-0.078125 0.09375 -0.21875 0.09375q-0.125 0 -0.21875 -0.078125q-0.078125 -0.09375 -0.09375 -0.296875q-0.03125 -0.515625 -0.671875 -0.984375q-0.640625 -0.46875 -1.734375 -0.46875q-1.375 0 -2.078125 0.859375q-0.703125 0.859375 -0.703125 1.953125q0 1.203125 0.78125 1.984375q0.78125 0.765625 2.03125 0.765625q0.703125 0 1.453125 -0.265625q0.75 -0.265625 1.34375 -0.84375q0.15625 -0.15625 0.265625 -0.15625q0.125 0 0.203125 0.09375q0.09375 0.078125 0.09375 0.203125q0 0.3125 -0.734375 0.796875q-1.203125 0.78125 -2.65625 0.78125q-1.484375 0 -2.453125 -0.9375q-0.953125 -0.953125 -0.953125 -2.40625q0 -1.484375 0.96875 -2.46875q0.984375 -0.984375 2.46875 -0.984375q1.421875 0 2.375 0.84375zm9.76709 2.6875l-6.265625 0q0.15625 1.203125 1.0 1.9375q0.84375 0.71875 2.078125 0.71875q0.6875 0 1.4375 -0.21875q0.75 -0.234375 1.234375 -0.609375q0.140625 -0.109375 0.234375 -0.109375q0.125 0 0.203125 0.09375q0.09375 0.09375 0.09375 0.21875q0 0.125 -0.109375 0.234375q-0.359375 0.375 -1.265625 0.6875q-0.890625 0.3125 -1.828125 0.3125q-1.59375 0 -2.65625 -1.03125q-1.046875 -1.03125 -1.046875 -2.5q0 -1.34375 0.984375 -2.296875q1.0 -0.96875 2.46875 -0.96875q1.5 0 2.46875 0.984375q0.984375 0.984375 0.96875 2.546875zm-0.625 -0.609375q-0.171875 -1.03125 -0.953125 -1.65625q-0.78125 -0.640625 -1.859375 -0.640625q-1.078125 0 -1.859375 0.625q-0.765625 0.625 -0.96875 1.671875l5.640625 0zm5.563965 -2.703125l0 1.546875q1.203125 -1.078125 1.796875 -1.390625q0.59375 -0.3125 1.109375 -0.3125q0.546875 0 1.015625 0.375q0.46875 0.375 0.46875 0.5625q0 0.140625 -0.09375 0.234375q-0.09375 0.078125 -0.21875 0.078125q-0.078125 0 -0.140625 -0.015625q-0.046875 -0.03125 -0.1875 -0.171875q-0.25 -0.25 -0.4375 -0.34375q-0.1875 -0.09375 -0.375 -0.09375q-0.40625 0 -0.984375 0.328125q-0.5625 0.3125 -1.953125 1.5625l0 3.375l2.71875 0q0.234375 0 0.328125 0.078125q0.09375 0.078125 0.09375 0.21875q0 0.140625 -0.09375 0.234375q-0.09375 0.078125 -0.328125 0.078125l-4.828125 0q-0.21875 0 -0.3125 -0.078125q-0.09375 -0.09375 -0.09375 -0.21875q0 -0.125 0.09375 -0.203125q0.09375 -0.09375 0.3125 -0.09375l1.5 0l0 -5.125l-1.140625 0q-0.21875 0 -0.3125 -0.078125q-0.09375 -0.09375 -0.09375 -0.234375q0 -0.140625 0.078125 -0.21875q0.09375 -0.09375 0.328125 -0.09375l1.75 0zm8.470215 0l3.34375 0q0.21875 0 0.3125 0.09375q0.09375 0.078125 0.09375 0.21875q0 0.140625 -0.09375 0.234375q-0.09375 0.078125 -0.3125 0.078125l-3.34375 0l0 4.09375q0 0.53125 0.421875 0.890625q0.4375 0.359375 1.265625 0.359375q0.625 0 1.34375 -0.1875q0.734375 -0.1875 1.125 -0.421875q0.15625 -0.09375 0.25 -0.09375q0.109375 0 0.203125 0.09375q0.09375 0.09375 0.09375 0.21875q0 0.109375 -0.09375 0.203125q-0.234375 0.234375 -1.140625 0.515625q-0.90625 0.28125 -1.734375 0.28125q-1.078125 0 -1.71875 -0.5q-0.640625 -0.5 -0.640625 -1.359375l0 -4.09375l-1.125 0q-0.21875 0 -0.328125 -0.078125q-0.09375 -0.09375 -0.09375 -0.234375q0 -0.140625 0.09375 -0.21875q0.109375 -0.09375 0.328125 -0.09375l1.125 0l0 -1.8125q0 -0.21875 0.09375 -0.3125q0.09375 -0.09375 0.21875 -0.09375q0.140625 0 0.21875 0.09375q0.09375 0.09375 0.09375 0.3125l0 1.8125zm10.57959 -3.15625l0 1.59375l-0.921875 0l0 -1.59375l0.921875 0zm0.015625 3.15625l0 5.734375l2.421875 0q0.21875 0 0.3125 0.078125q0.09375 0.078125 0.09375 0.21875q0 0.140625 -0.09375 0.234375q-0.09375 0.078125 -0.3125 0.078125l-5.453125 0q-0.21875 0 -0.3125 -0.078125q-0.09375 -0.09375 -0.09375 -0.234375q0 -0.140625 0.09375 -0.21875q0.09375 -0.078125 0.3125 -0.078125l2.421875 0l0 -5.109375l-1.796875 0q-0.21875 0 -0.328125 -0.078125q-0.09375 -0.09375 -0.09375 -0.234375q0 -0.140625 0.09375 -0.21875q0.09375 -0.09375 0.328125 -0.09375l2.40625 0zm8.26709 0.625l0 5.109375l2.703125 0q0.21875 0 0.3125 0.078125q0.09375 0.078125 0.09375 0.21875q0 0.140625 -0.09375 0.234375q-0.09375 0.078125 -0.3125 0.078125l-4.8125 0q-0.21875 0 -0.3125 -0.078125q-0.09375 -0.09375 -0.09375 -0.234375q0 -0.140625 0.09375 -0.21875q0.09375 -0.078125 0.3125 -0.078125l1.484375 0l0 -5.109375l-1.328125 0q-0.21875 0 -0.3125 -0.078125q-0.09375 -0.09375 -0.09375 -0.234375q0 -0.140625 0.09375 -0.21875q0.09375 -0.09375 0.3125 -0.09375l1.328125 0l0 -0.921875q0 -0.78125 0.625 -1.34375q0.640625 -0.578125 1.671875 -0.578125q0.875 0 1.859375 0.15625q0.375 0.0625 0.453125 0.140625q0.078125 0.078125 0.078125 0.21875q0 0.125 -0.09375 0.21875q-0.078125 0.078125 -0.21875 0.078125q-0.0625 0 -0.203125 -0.03125q-1.109375 -0.15625 -1.875 -0.15625q-0.796875 0 -1.234375 0.390625q-0.4375 0.390625 -0.4375 0.90625l0 0.921875l2.875 0q0.21875 0 0.3125 0.09375q0.109375 0.078125 0.109375 0.21875q0 0.140625 -0.109375 0.234375q-0.09375 0.078125 -0.3125 0.078125l-2.875 0zm11.17334 5.71875l0 -0.890625q-1.34375 1.125 -2.859375 1.125q-1.109375 0 -1.734375 -0.546875q-0.609375 -0.5625 -0.609375 -1.375q0 -0.890625 0.8125 -1.5625q0.828125 -0.671875 2.390625 -0.671875q0.421875 0 0.921875 0.0625q0.5 0.046875 1.078125 0.171875l0 -1.0q0 -0.5 -0.46875 -0.875q-0.46875 -0.375 -1.40625 -0.375q-0.71875 0 -2.015625 0.421875q-0.234375 0.0625 -0.296875 0.0625q-0.109375 0 -0.203125 -0.078125q-0.078125 -0.09375 -0.078125 -0.21875q0 -0.125 0.078125 -0.203125q0.09375 -0.109375 0.828125 -0.296875q1.140625 -0.3125 1.71875 -0.3125q1.171875 0 1.8125 0.578125q0.65625 0.578125 0.65625 1.296875l0 4.078125l0.828125 0q0.21875 0 0.3125 0.078125q0.09375 0.078125 0.09375 0.21875q0 0.140625 -0.09375 0.234375q-0.09375 0.078125 -0.3125 0.078125l-1.453125 0zm0 -3.0625q-0.421875 -0.125 -0.90625 -0.171875q-0.484375 -0.0625 -1.015625 -0.0625q-1.34375 0 -2.109375 0.578125q-0.5625 0.421875 -0.5625 1.03125q0 0.546875 0.4375 0.9375q0.4375 0.375 1.265625 0.375q0.796875 0 1.484375 -0.3125q0.6875 -0.328125 1.40625 -1.015625l0 -1.359375zm9.79834 -2.65625l0 -0.203125q0 -0.234375 0.09375 -0.328125q0.09375 -0.09375 0.21875 -0.09375q0.140625 0 0.21875 0.09375q0.09375 0.09375 0.09375 0.328125l0 1.390625q0 0.21875 -0.09375 0.328125q-0.078125 0.09375 -0.21875 0.09375q-0.125 0 -0.21875 -0.078125q-0.078125 -0.09375 -0.09375 -0.296875q-0.03125 -0.515625 -0.671875 -0.984375q-0.640625 -0.46875 -1.734375 -0.46875q-1.375 0 -2.078125 0.859375q-0.703125 0.859375 -0.703125 1.953125q0 1.203125 0.78125 1.984375q0.78125 0.765625 2.03125 0.765625q0.703125 0 1.453125 -0.265625q0.75 -0.265625 1.34375 -0.84375q0.15625 -0.15625 0.265625 -0.15625q0.125 0 0.203125 0.09375q0.09375 0.078125 0.09375 0.203125q0 0.3125 -0.734375 0.796875q-1.203125 0.78125 -2.65625 0.78125q-1.484375 0 -2.453125 -0.9375q-0.953125 -0.953125 -0.953125 -2.40625q0 -1.484375 0.96875 -2.46875q0.984375 -0.984375 2.46875 -0.984375q1.421875 0 2.375 0.84375zm5.17334 -0.625l3.34375 0q0.21875 0 0.3125 0.09375q0.09375 0.078125 0.09375 0.21875q0 0.140625 -0.09375 0.234375q-0.09375 0.078125 -0.3125 0.078125l-3.34375 0l0 4.09375q0 0.53125 0.421875 0.890625q0.4375 0.359375 1.265625 0.359375q0.625 0 1.34375 -0.1875q0.734375 -0.1875 1.125 -0.421875q0.15625 -0.09375 0.25 -0.09375q0.109375 0 0.203125 0.09375q0.09375 0.09375 0.09375 0.21875q0 0.109375 -0.09375 0.203125q-0.234375 0.234375 -1.140625 0.515625q-0.90625 0.28125 -1.734375 0.28125q-1.078125 0 -1.71875 -0.5q-0.640625 -0.5 -0.640625 -1.359375l0 -4.09375l-1.125 0q-0.21875 0 -0.328125 -0.078125q-0.09375 -0.09375 -0.09375 -0.234375q0 -0.140625 0.09375 -0.21875q0.109375 -0.09375 0.328125 -0.09375l1.125 0l0 -1.8125q0 -0.21875 0.09375 -0.3125q0.09375 -0.09375 0.21875 -0.09375q0.140625 0 0.21875 0.09375q0.09375 0.09375 0.09375 0.3125l0 1.8125zm10.57959 -3.15625l0 1.59375l-0.921875 0l0 -1.59375l0.921875 0zm0.015625 3.15625l0 5.734375l2.421875 0q0.21875 0 0.3125 0.078125q0.09375 0.078125 0.09375 0.21875q0 0.140625 -0.09375 0.234375q-0.09375 0.078125 -0.3125 0.078125l-5.453125 0q-0.21875 0 -0.3125 -0.078125q-0.09375 -0.09375 -0.09375 -0.234375q0 -0.140625 0.09375 -0.21875q0.09375 -0.078125 0.3125 -0.078125l2.421875 0l0 -5.109375l-1.796875 0q-0.21875 0 -0.328125 -0.078125q-0.09375 -0.09375 -0.09375 -0.234375q0 -0.140625 0.09375 -0.21875q0.09375 -0.09375 0.328125 -0.09375l2.40625 0zm12.11087 3.1875q0 1.40625 -1.015625 2.40625q-1.0 0.984375 -2.421875 0.984375q-1.4375305 0 -2.4375305 -1.0q-1.0 -1.0 -1.0 -2.390625q0 -1.40625 1.0 -2.40625q1.0 -1.0 2.4375305 -1.0q1.421875 0 2.421875 1.0q1.015625 0.984375 1.015625 2.40625zm-0.625 0q0 -1.15625 -0.828125 -1.96875q-0.8125 -0.8125 -1.984375 -0.8125q-1.1719055 0 -2.0000305 0.8125q-0.828125 0.8125 -0.828125 1.96875q0 1.140625 0.828125 1.96875q0.828125 0.8125 2.0000305 0.8125q1.171875 0 1.984375 -0.8125q0.828125 -0.8125 0.828125 -1.96875zm4.20459 -3.1875l0 0.9375q0.640625 -0.65625 1.15625 -0.90625q0.53125 -0.25 1.171875 -0.25q0.703125 0 1.28125 0.296875q0.421875 0.21875 0.75 0.734375q0.328125 0.5 0.328125 1.046875l0 3.875l0.53125 0q0.21875 0 0.3125 0.078125q0.09375 0.078125 0.09375 0.21875q0 0.140625 -0.09375 0.234375q-0.09375 0.078125 -0.3125 0.078125l-1.65625 0q-0.21875 0 -0.328125 -0.078125q-0.09375 -0.09375 -0.09375 -0.234375q0 -0.140625 0.09375 -0.21875q0.109375 -0.078125 0.328125 -0.078125l0.515625 0l0 -3.78125q0 -0.65625 -0.484375 -1.09375q-0.46875 -0.453125 -1.265625 -0.453125q-0.609375 0 -1.0625 0.25q-0.4375 0.234375 -1.265625 1.21875l0 3.859375l0.6875 0q0.21875 0 0.3125 0.078125q0.109375 0.078125 0.109375 0.21875q0 0.140625 -0.109375 0.234375q-0.09375 0.078125 -0.3125 0.078125l-2.0 0q-0.21875 0 -0.3125 -0.078125q-0.09375 -0.09375 -0.09375 -0.234375q0 -0.140625 0.09375 -0.21875q0.09375 -0.078125 0.3125 -0.078125l0.6875 0l0 -5.109375l-0.515625 0q-0.21875 0 -0.3125 -0.078125q-0.09375 -0.09375 -0.09375 -0.234375q0 -0.140625 0.09375 -0.21875q0.09375 -0.09375 0.3125 -0.09375l1.140625 0zm20.53418 6.34375l-1.046875 0l-2.53125 -5.71875l-0.625 0q-0.21875 0 -0.3125 -0.078125q-0.09375 -0.09375 -0.09375 -0.234375q0 -0.140625 0.09375 -0.21875q0.09375 -0.09375 0.3125 -0.09375l2.3125 0q0.21875 0 0.3125 0.09375q0.09375 0.078125 0.09375 0.21875q0 0.140625 -0.09375 0.234375q-0.09375 0.078125 -0.3125 0.078125l-1.03125 0l2.265625 5.109375l0.265625 0l2.21875 -5.109375l-1.03125 0q-0.21875 0 -0.3125 -0.078125q-0.09375 -0.09375 -0.09375 -0.234375q0 -0.140625 0.09375 -0.21875q0.09375 -0.09375 0.3125 -0.09375l2.3125 0q0.234375 0 0.3125 0.09375q0.09375 0.078125 0.09375 0.21875q0 0.140625 -0.09375 0.234375q-0.078125 0.078125 -0.3125 0.078125l-0.625 0l-2.484375 5.71875zm11.782715 -3.03125l-6.265625 0q0.15625 1.203125 1.0 1.9375q0.84375 0.71875 2.078125 0.71875q0.6875 0 1.4375 -0.21875q0.75 -0.234375 1.234375 -0.609375q0.140625 -0.109375 0.234375 -0.109375q0.125 0 0.203125 0.09375q0.09375 0.09375 0.09375 0.21875q0 0.125 -0.109375 0.234375q-0.359375 0.375 -1.265625 0.6875q-0.890625 0.3125 -1.828125 0.3125q-1.59375 0 -2.65625 -1.03125q-1.046875 -1.03125 -1.046875 -2.5q0 -1.34375 0.984375 -2.296875q1.0 -0.96875 2.46875 -0.96875q1.5 0 2.46875 0.984375q0.984375 0.984375 0.96875 2.546875zm-0.625 -0.609375q-0.171875 -1.03125 -0.953125 -1.65625q-0.78125 -0.640625 -1.859375 -0.640625q-1.078125 0 -1.859375 0.625q-0.765625 0.625 -0.96875 1.671875l5.640625 0zm5.563965 -2.703125l0 1.546875q1.203125 -1.078125 1.796875 -1.390625q0.59375 -0.3125 1.109375 -0.3125q0.546875 0 1.015625 0.375q0.46875 0.375 0.46875 0.5625q0 0.140625 -0.09375 0.234375q-0.09375 0.078125 -0.21875 0.078125q-0.078125 0 -0.140625 -0.015625q-0.046875 -0.03125 -0.1875 -0.171875q-0.25 -0.25 -0.4375 -0.34375q-0.1875 -0.09375 -0.375 -0.09375q-0.40625 0 -0.984375 0.328125q-0.5625 0.3125 -1.953125 1.5625l0 3.375l2.71875 0q0.234375 0 0.328125 0.078125q0.09375 0.078125 0.09375 0.21875q0 0.140625 -0.09375 0.234375q-0.09375 0.078125 -0.328125 0.078125l-4.828125 0q-0.21875 0 -0.3125 -0.078125q-0.09375 -0.09375 -0.09375 -0.21875q0 -0.125 0.09375 -0.203125q0.09375 -0.09375 0.3125 -0.09375l1.5 0l0 -5.125l-1.140625 0q-0.21875 0 -0.3125 -0.078125q-0.09375 -0.09375 -0.09375 -0.234375q0 -0.140625 0.078125 -0.21875q0.09375 -0.09375 0.328125 -0.09375l1.75 0zm10.04834 -3.15625l0 1.59375l-0.921875 0l0 -1.59375l0.921875 0zm0.015625 3.15625l0 5.734375l2.421875 0q0.21875 0 0.3125 0.078125q0.09375 0.078125 0.09375 0.21875q0 0.140625 -0.09375 0.234375q-0.09375 0.078125 -0.3125 0.078125l-5.453125 0q-0.21875 0 -0.3125 -0.078125q-0.09375 -0.09375 -0.09375 -0.234375q0 -0.140625 0.09375 -0.21875q0.09375 -0.078125 0.3125 -0.078125l2.421875 0l0 -5.109375l-1.796875 0q-0.21875 0 -0.328125 -0.078125q-0.09375 -0.09375 -0.09375 -0.234375q0 -0.140625 0.09375 -0.21875q0.09375 -0.09375 0.328125 -0.09375l2.40625 0zm8.26709 0.625l0 5.109375l2.703125 0q0.21875 0 0.3125 0.078125q0.09375 0.078125 0.09375 0.21875q0 0.140625 -0.09375 0.234375q-0.09375 0.078125 -0.3125 0.078125l-4.8125 0q-0.21875 0 -0.3125 -0.078125q-0.09375 -0.09375 -0.09375 -0.234375q0 -0.140625 0.09375 -0.21875q0.09375 -0.078125 0.3125 -0.078125l1.484375 0l0 -5.109375l-1.328125 0q-0.21875 0 -0.3125 -0.078125q-0.09375 -0.09375 -0.09375 -0.234375q0 -0.140625 0.09375 -0.21875q0.09375 -0.09375 0.3125 -0.09375l1.328125 0l0 -0.921875q0 -0.78125 0.625 -1.34375q0.640625 -0.578125 1.671875 -0.578125q0.875 0 1.859375 0.15625q0.375 0.0625 0.453125 0.140625q0.078125 0.078125 0.078125 0.21875q0 0.125 -0.09375 0.21875q-0.078125 0.078125 -0.21875 0.078125q-0.0625 0 -0.203125 -0.03125q-1.109375 -0.15625 -1.875 -0.15625q-0.796875 0 -1.234375 0.390625q-0.4375 0.390625 -0.4375 0.90625l0 0.921875l2.875 0q0.21875 0 0.3125 0.09375q0.109375 0.078125 0.109375 0.21875q0 0.140625 -0.109375 0.234375q-0.09375 0.078125 -0.3125 0.078125l-2.875 0zm9.45459 5.71875l-2.859375 -5.71875l-0.1875 0q-0.21875 0 -0.3125 -0.078125q-0.09375 -0.09375 -0.09375 -0.234375q0 -0.09375 0.046875 -0.171875q0.046875 -0.078125 0.125 -0.109375q0.078125 -0.03125 0.234375 -0.03125l1.6875 0q0.21875 0 0.3125 0.09375q0.09375 0.078125 0.09375 0.21875q0 0.140625 -0.09375 0.234375q-0.09375 0.078125 -0.3125 0.078125l-0.828125 0l2.515625 5.046875l2.46875 -5.046875l-0.828125 0q-0.21875 0 -0.3125 -0.078125q-0.09375 -0.09375 -0.09375 -0.234375q0 -0.140625 0.09375 -0.21875q0.09375 -0.09375 0.3125 -0.09375l1.6875 0q0.21875 0 0.3125 0.09375q0.09375 0.078125 0.09375 0.21875q0 0.09375 -0.0625 0.1875q-0.046875 0.078125 -0.125 0.109375q-0.078125 0.015625 -0.40625 0.015625l-3.90625 7.9375l0.96875 0q0.21875 0 0.3125 0.078125q0.09375 0.078125 0.09375 0.21875q0 0.140625 -0.09375 0.21875q-0.09375 0.09375 -0.3125 0.09375l-3.546875 0q-0.21875 0 -0.3125 -0.09375q-0.09375 -0.078125 -0.09375 -0.21875q0 -0.140625 0.09375 -0.21875q0.09375 -0.078125 0.3125 -0.078125l1.921875 0l1.09375 -2.21875z" fill-rule="nonzero"/></g></svg>