<svg width="642" height="385" viewBox="0 0 642 385" fill="none" xmlns="http://www.w3.org/2000/svg">
<g clip-path="url(#clip0_1_711)">
<rect width="642" height="385" fill="white"/>
<path fill-rule="evenodd" clip-rule="evenodd" d="M31 83.8594C31 73.1755 39.661 64.5144 50.3449 64.5144H385.261C390.392 64.5144 395.312 66.5526 398.94 70.1804C402.568 73.8083 404.606 78.7288 404.606 83.8594V346.492C404.606 357.176 395.945 365.837 385.261 365.837H50.3449C39.661 365.837 31 357.176 31 346.492V83.8594Z" fill="#CCCCCC"/>
<path fill-rule="evenodd" clip-rule="evenodd" d="M31 83.8594C31 73.1755 39.661 64.5144 50.3449 64.5144H385.261C390.392 64.5144 395.312 66.5526 398.94 70.1804C402.568 73.8083 404.606 78.7288 404.606 83.8594V346.492C404.606 357.176 395.945 365.837 385.261 365.837H50.3449C39.661 365.837 31 357.176 31 346.492V83.8594Z" stroke="black" stroke-miterlimit="10" stroke-linejoin="round"/>
<path d="M154.163 93.2604V82.776H157.788C158.601 82.776 159.22 82.8229 159.647 82.9166C160.252 83.052 160.767 83.302 161.194 83.6666C161.746 84.1354 162.158 84.7343 162.429 85.4635C162.7 86.1927 162.835 87.026 162.835 87.9635C162.835 88.7552 162.741 89.4583 162.554 90.0729C162.377 90.6875 162.142 91.1979 161.851 91.6041C161.559 92.0104 161.236 92.3281 160.882 92.5573C160.538 92.7864 160.121 92.9635 159.632 93.0885C159.153 93.2031 158.595 93.2604 157.96 93.2604H154.163ZM155.554 92.026H157.804C158.491 92.026 159.033 91.9635 159.429 91.8385C159.825 91.7031 160.137 91.5208 160.366 91.2916C160.7 90.9583 160.955 90.5156 161.132 89.9635C161.319 89.401 161.413 88.7239 161.413 87.9323C161.413 86.8385 161.231 86 160.866 85.4166C160.512 84.8229 160.075 84.427 159.554 84.2291C159.189 84.0833 158.59 84.0104 157.757 84.0104H155.554V92.026ZM169.544 92.3229C169.065 92.7291 168.607 93.0156 168.169 93.1823C167.732 93.3489 167.258 93.4323 166.747 93.4323C165.914 93.4323 165.273 93.2291 164.826 92.8229C164.378 92.4166 164.154 91.8958 164.154 91.2604C164.154 90.8854 164.237 90.5468 164.404 90.2448C164.57 89.9323 164.789 89.6823 165.06 89.4948C165.341 89.3073 165.654 89.1666 165.997 89.0729C166.247 89.0104 166.628 88.9479 167.138 88.8854C168.18 88.7604 168.945 88.6093 169.435 88.4323C169.445 88.2552 169.451 88.1458 169.451 88.1041C169.451 87.5729 169.326 87.2031 169.076 86.9948C168.753 86.7031 168.268 86.5573 167.622 86.5573C167.008 86.5573 166.555 86.6666 166.263 86.8854C165.982 87.0937 165.773 87.4635 165.638 87.9948L164.372 87.8229C164.487 87.2916 164.674 86.8593 164.935 86.526C165.195 86.1927 165.576 85.9375 166.076 85.7604C166.576 85.5833 167.148 85.4948 167.794 85.4948C168.451 85.4948 168.982 85.5729 169.388 85.7291C169.794 85.875 170.091 86.0625 170.279 86.2916C170.466 86.5208 170.602 86.8125 170.685 87.1666C170.727 87.3854 170.747 87.7812 170.747 88.3541V90.0729C170.747 91.2708 170.773 92.0312 170.826 92.3541C170.878 92.6666 170.987 92.9687 171.154 93.2604H169.81C169.674 92.9895 169.586 92.677 169.544 92.3229ZM169.435 89.4479C168.966 89.6354 168.268 89.7968 167.341 89.9323C166.81 90.0052 166.435 90.0937 166.216 90.1979C165.997 90.2916 165.826 90.4323 165.701 90.6198C165.586 90.7968 165.529 90.9948 165.529 91.2135C165.529 91.5573 165.659 91.8437 165.919 92.0729C166.18 92.302 166.56 92.4166 167.06 92.4166C167.549 92.4166 167.987 92.3125 168.372 92.1041C168.768 91.8854 169.055 91.5885 169.232 91.2135C169.367 90.9218 169.435 90.4895 169.435 89.9166V89.4479ZM175.555 92.1041L175.742 93.2448C175.378 93.3177 175.05 93.3541 174.758 93.3541C174.3 93.3541 173.94 93.2812 173.68 93.1354C173.419 92.9895 173.237 92.7968 173.133 92.5573C173.029 92.3177 172.977 91.8125 172.977 91.0416V86.6666H172.023V85.6666H172.977V83.776L174.258 83.0104V85.6666H175.555V86.6666H174.258V91.1041C174.258 91.4687 174.279 91.7083 174.32 91.8229C174.372 91.927 174.445 92.0104 174.539 92.0729C174.643 92.125 174.794 92.151 174.992 92.151C175.128 92.151 175.315 92.1354 175.555 92.1041ZM181.767 92.3229C181.288 92.7291 180.83 93.0156 180.392 93.1823C179.955 93.3489 179.481 93.4323 178.97 93.4323C178.137 93.4323 177.497 93.2291 177.049 92.8229C176.601 92.4166 176.377 91.8958 176.377 91.2604C176.377 90.8854 176.46 90.5468 176.627 90.2448C176.793 89.9323 177.012 89.6823 177.283 89.4948C177.564 89.3073 177.877 89.1666 178.22 89.0729C178.47 89.0104 178.851 88.9479 179.361 88.8854C180.403 88.7604 181.168 88.6093 181.658 88.4323C181.668 88.2552 181.674 88.1458 181.674 88.1041C181.674 87.5729 181.549 87.2031 181.299 86.9948C180.976 86.7031 180.491 86.5573 179.845 86.5573C179.231 86.5573 178.778 86.6666 178.486 86.8854C178.205 87.0937 177.997 87.4635 177.861 87.9948L176.595 87.8229C176.71 87.2916 176.898 86.8593 177.158 86.526C177.418 86.1927 177.799 85.9375 178.299 85.7604C178.799 85.5833 179.372 85.4948 180.017 85.4948C180.674 85.4948 181.205 85.5729 181.611 85.7291C182.017 85.875 182.314 86.0625 182.502 86.2916C182.689 86.5208 182.825 86.8125 182.908 87.1666C182.95 87.3854 182.97 87.7812 182.97 88.3541V90.0729C182.97 91.2708 182.997 92.0312 183.049 92.3541C183.101 92.6666 183.21 92.9687 183.377 93.2604H182.033C181.898 92.9895 181.809 92.677 181.767 92.3229ZM181.658 89.4479C181.189 89.6354 180.491 89.7968 179.564 89.9323C179.033 90.0052 178.658 90.0937 178.439 90.1979C178.22 90.2916 178.049 90.4323 177.924 90.6198C177.809 90.7968 177.752 90.9948 177.752 91.2135C177.752 91.5573 177.882 91.8437 178.142 92.0729C178.403 92.302 178.783 92.4166 179.283 92.4166C179.773 92.4166 180.21 92.3125 180.595 92.1041C180.991 91.8854 181.278 91.5885 181.455 91.2135C181.59 90.9218 181.658 90.4895 181.658 89.9166V89.4479ZM196.678 89.5885L198.069 89.9323C197.777 91.0677 197.251 91.9375 196.49 92.5416C195.74 93.1354 194.819 93.4323 193.725 93.4323C192.6 93.4323 191.683 93.2031 190.975 92.7448C190.266 92.2864 189.725 91.6198 189.35 90.7448C188.985 89.8698 188.803 88.9323 188.803 87.9323C188.803 86.8385 189.011 85.8854 189.428 85.0729C189.845 84.2604 190.438 83.6458 191.209 83.2291C191.98 82.802 192.829 82.5885 193.756 82.5885C194.798 82.5885 195.678 82.8593 196.397 83.401C197.115 83.9323 197.615 84.6823 197.897 85.651L196.522 85.9635C196.282 85.2031 195.928 84.651 195.459 84.3073C195.001 83.9531 194.423 83.776 193.725 83.776C192.912 83.776 192.235 83.9687 191.694 84.3541C191.152 84.7395 190.772 85.2604 190.553 85.9166C190.334 86.5625 190.225 87.2343 190.225 87.9323C190.225 88.8177 190.355 89.5937 190.615 90.2604C190.876 90.927 191.282 91.427 191.834 91.7604C192.386 92.0833 192.98 92.2448 193.615 92.2448C194.397 92.2448 195.053 92.0208 195.584 91.5729C196.126 91.125 196.49 90.4635 196.678 89.5885ZM204.825 90.8073L206.153 90.9791C205.944 91.7604 205.554 92.3645 204.981 92.7916C204.418 93.2187 203.694 93.4323 202.809 93.4323C201.694 93.4323 200.809 93.0937 200.153 92.4166C199.507 91.7291 199.184 90.7656 199.184 89.526C199.184 88.2448 199.512 87.2552 200.168 86.5573C200.835 85.8489 201.694 85.4948 202.747 85.4948C203.757 85.4948 204.585 85.8385 205.231 86.526C205.877 87.2135 206.2 88.1875 206.2 89.4479C206.2 89.5208 206.194 89.6354 206.184 89.7916H200.528C200.569 90.625 200.804 91.2656 201.231 91.7135C201.658 92.151 202.189 92.3698 202.825 92.3698C203.293 92.3698 203.694 92.25 204.028 92.0104C204.361 91.7604 204.627 91.3593 204.825 90.8073ZM200.59 88.7291H204.84C204.778 88.0937 204.616 87.6145 204.356 87.2916C203.939 86.7916 203.403 86.5416 202.747 86.5416C202.163 86.5416 201.668 86.7395 201.262 87.1354C200.856 87.5312 200.632 88.0625 200.59 88.7291ZM207.773 93.2604V85.6666H208.929V86.7448C209.491 85.9114 210.299 85.4948 211.351 85.4948C211.809 85.4948 212.231 85.5781 212.616 85.7448C213.002 85.901 213.288 86.1145 213.476 86.3854C213.663 86.6562 213.799 86.9739 213.882 87.3385C213.924 87.5781 213.945 87.9948 213.945 88.5885V93.2604H212.663V88.6354C212.663 88.1145 212.611 87.7239 212.507 87.4635C212.403 87.2031 212.221 86.9948 211.96 86.8385C211.71 86.6823 211.413 86.6041 211.07 86.6041C210.528 86.6041 210.054 86.7812 209.648 87.1354C209.252 87.4791 209.054 88.1354 209.054 89.1041V93.2604H207.773ZM218.736 92.1041L218.924 93.2448C218.559 93.3177 218.231 93.3541 217.939 93.3541C217.481 93.3541 217.122 93.2812 216.861 93.1354C216.601 92.9895 216.419 92.7968 216.314 92.5573C216.21 92.3177 216.158 91.8125 216.158 91.0416V86.6666H215.205V85.6666H216.158V83.776L217.439 83.0104V85.6666H218.736V86.6666H217.439V91.1041C217.439 91.4687 217.46 91.7083 217.502 91.8229C217.554 91.927 217.627 92.0104 217.721 92.0729C217.825 92.125 217.976 92.151 218.174 92.151C218.309 92.151 218.497 92.1354 218.736 92.1041ZM225.199 90.8073L226.527 90.9791C226.319 91.7604 225.928 92.3645 225.355 92.7916C224.793 93.2187 224.069 93.4323 223.183 93.4323C222.069 93.4323 221.183 93.0937 220.527 92.4166C219.881 91.7291 219.558 90.7656 219.558 89.526C219.558 88.2448 219.886 87.2552 220.543 86.5573C221.209 85.8489 222.069 85.4948 223.121 85.4948C224.131 85.4948 224.959 85.8385 225.605 86.526C226.251 87.2135 226.574 88.1875 226.574 89.4479C226.574 89.5208 226.569 89.6354 226.558 89.7916H220.902C220.944 90.625 221.178 91.2656 221.605 91.7135C222.032 92.151 222.563 92.3698 223.199 92.3698C223.668 92.3698 224.069 92.25 224.402 92.0104C224.735 91.7604 225.001 91.3593 225.199 90.8073ZM220.965 88.7291H225.215C225.152 88.0937 224.991 87.6145 224.73 87.2916C224.313 86.7916 223.777 86.5416 223.121 86.5416C222.537 86.5416 222.043 86.7395 221.636 87.1354C221.23 87.5312 221.006 88.0625 220.965 88.7291ZM228.131 93.2604V85.6666H229.287V86.8073C229.59 86.276 229.866 85.927 230.116 85.7604C230.366 85.5833 230.636 85.4948 230.928 85.4948C231.366 85.4948 231.808 85.6302 232.256 85.901L231.819 87.1041C231.506 86.9166 231.189 86.8229 230.866 86.8229C230.584 86.8229 230.329 86.9062 230.1 87.0729C229.881 87.2395 229.725 87.4739 229.631 87.776C229.485 88.2343 229.412 88.7343 229.412 89.276V93.2604H228.131ZM236.131 93.4323L239.178 82.5885H240.209L237.162 93.4323H236.131ZM252.884 89.5885L254.275 89.9323C253.983 91.0677 253.457 91.9375 252.697 92.5416C251.947 93.1354 251.025 93.4323 249.931 93.4323C248.806 93.4323 247.889 93.2031 247.181 92.7448C246.473 92.2864 245.931 91.6198 245.556 90.7448C245.191 89.8698 245.009 88.9323 245.009 87.9323C245.009 86.8385 245.217 85.8854 245.634 85.0729C246.051 84.2604 246.644 83.6458 247.415 83.2291C248.186 82.802 249.035 82.5885 249.962 82.5885C251.004 82.5885 251.884 82.8593 252.603 83.401C253.322 83.9323 253.822 84.6823 254.103 85.651L252.728 85.9635C252.488 85.2031 252.134 84.651 251.665 84.3073C251.207 83.9531 250.629 83.776 249.931 83.776C249.118 83.776 248.441 83.9687 247.9 84.3541C247.358 84.7395 246.978 85.2604 246.759 85.9166C246.54 86.5625 246.431 87.2343 246.431 87.9323C246.431 88.8177 246.561 89.5937 246.822 90.2604C247.082 90.927 247.488 91.427 248.04 91.7604C248.592 92.0833 249.186 92.2448 249.822 92.2448C250.603 92.2448 251.259 92.0208 251.79 91.5729C252.332 91.125 252.697 90.4635 252.884 89.5885ZM255.796 93.2604V82.776H257.078V93.2604H255.796ZM258.599 89.4635C258.599 88.0573 258.99 87.0156 259.771 86.3385C260.428 85.776 261.224 85.4948 262.162 85.4948C263.214 85.4948 264.068 85.8385 264.724 86.526C265.391 87.2031 265.724 88.1458 265.724 89.3541C265.724 90.3333 265.579 91.1041 265.287 91.6666C264.995 92.2187 264.568 92.651 264.006 92.9635C263.443 93.276 262.829 93.4323 262.162 93.4323C261.099 93.4323 260.24 93.0937 259.584 92.4166C258.928 91.7291 258.599 90.7448 258.599 89.4635ZM259.928 89.4635C259.928 90.4323 260.136 91.1614 260.553 91.651C260.98 92.1302 261.516 92.3698 262.162 92.3698C262.808 92.3698 263.339 92.1302 263.756 91.651C264.183 91.1614 264.396 90.4166 264.396 89.4166C264.396 88.4791 264.183 87.7708 263.756 87.2916C263.329 86.802 262.797 86.5573 262.162 86.5573C261.516 86.5573 260.98 86.7968 260.553 87.276C260.136 87.7552 259.928 88.4843 259.928 89.4635ZM272.219 93.2604V92.151C271.626 93.0052 270.818 93.4323 269.797 93.4323C269.35 93.4323 268.933 93.3489 268.547 93.1823C268.162 93.0052 267.87 92.7864 267.672 92.526C267.485 92.2656 267.355 91.9479 267.282 91.5729C267.23 91.3229 267.204 90.9218 267.204 90.3698V85.6666H268.485V89.8698C268.485 90.5468 268.511 91 268.563 91.2291C268.646 91.5729 268.818 91.8437 269.079 92.0416C269.35 92.2291 269.678 92.3229 270.063 92.3229C270.448 92.3229 270.808 92.2239 271.141 92.026C271.485 91.8281 271.725 91.5573 271.86 91.2135C272.006 90.8698 272.079 90.375 272.079 89.7291V85.6666H273.36V93.2604H272.219ZM280.308 93.2604V92.3073C279.829 93.0573 279.12 93.4323 278.183 93.4323C277.579 93.4323 277.021 93.2656 276.511 92.9323C276.011 92.5989 275.62 92.1354 275.339 91.5416C275.058 90.9375 274.917 90.2448 274.917 89.4635C274.917 88.7031 275.042 88.0156 275.292 87.401C275.553 86.7864 275.933 86.3177 276.433 85.9948C276.943 85.6614 277.511 85.4948 278.136 85.4948C278.594 85.4948 279.001 85.5937 279.355 85.7916C279.709 85.9791 280.001 86.2239 280.23 86.526V82.776H281.511V93.2604H280.308ZM276.245 89.4635C276.245 90.4427 276.449 91.1718 276.855 91.651C277.271 92.1302 277.756 92.3698 278.308 92.3698C278.87 92.3698 279.35 92.1406 279.745 91.6823C280.141 91.2239 280.339 90.5208 280.339 89.5729C280.339 88.5312 280.136 87.7708 279.73 87.2916C279.334 86.802 278.839 86.5573 278.245 86.5573C277.683 86.5573 277.209 86.7916 276.824 87.2604C276.438 87.7291 276.245 88.4635 276.245 89.4635Z" fill="black"/>
<g filter="url(#filter0_f_1_711)">
<path fill-rule="evenodd" clip-rule="evenodd" d="M259.557 125.719H366.045V330.349H259.557V125.719Z" fill="white"/>
<path fill-rule="evenodd" clip-rule="evenodd" d="M259.557 125.719H366.045V330.349H259.557V125.719Z" stroke="#44546A" stroke-miterlimit="10" stroke-linejoin="round"/>
<path d="M284.347 220.442L285.738 220.786C285.446 221.921 284.92 222.791 284.16 223.395C283.41 223.989 282.488 224.286 281.394 224.286C280.269 224.286 279.352 224.057 278.644 223.599C277.936 223.14 277.394 222.474 277.019 221.599C276.654 220.724 276.472 219.786 276.472 218.786C276.472 217.692 276.681 216.739 277.097 215.927C277.514 215.114 278.108 214.5 278.878 214.083C279.649 213.656 280.498 213.442 281.425 213.442C282.467 213.442 283.347 213.713 284.066 214.255C284.785 214.786 285.285 215.536 285.566 216.505L284.191 216.817C283.951 216.057 283.597 215.505 283.128 215.161C282.67 214.807 282.092 214.63 281.394 214.63C280.582 214.63 279.904 214.822 279.363 215.208C278.821 215.593 278.441 216.114 278.222 216.77C278.003 217.416 277.894 218.088 277.894 218.786C277.894 219.671 278.024 220.447 278.285 221.114C278.545 221.781 278.951 222.281 279.503 222.614C280.056 222.937 280.649 223.099 281.285 223.099C282.066 223.099 282.722 222.875 283.253 222.427C283.795 221.979 284.16 221.317 284.347 220.442ZM292.494 221.661L293.822 221.833C293.614 222.614 293.223 223.218 292.65 223.645C292.088 224.072 291.364 224.286 290.478 224.286C289.364 224.286 288.478 223.947 287.822 223.27C287.176 222.583 286.853 221.619 286.853 220.38C286.853 219.099 287.181 218.109 287.838 217.411C288.504 216.703 289.364 216.349 290.416 216.349C291.426 216.349 292.254 216.692 292.9 217.38C293.546 218.067 293.869 219.041 293.869 220.302C293.869 220.375 293.864 220.489 293.853 220.645H288.197C288.239 221.479 288.473 222.119 288.9 222.567C289.327 223.005 289.859 223.224 290.494 223.224C290.963 223.224 291.364 223.104 291.697 222.864C292.03 222.614 292.296 222.213 292.494 221.661ZM288.26 219.583H292.51C292.447 218.947 292.286 218.468 292.025 218.145C291.609 217.645 291.072 217.395 290.416 217.395C289.832 217.395 289.338 217.593 288.931 217.989C288.525 218.385 288.301 218.916 288.26 219.583ZM295.426 224.114V216.52H296.583V217.661C296.885 217.13 297.161 216.781 297.411 216.614C297.661 216.437 297.932 216.349 298.223 216.349C298.661 216.349 299.103 216.484 299.551 216.755L299.114 217.958C298.801 217.77 298.484 217.677 298.161 217.677C297.879 217.677 297.624 217.76 297.395 217.927C297.176 218.093 297.02 218.328 296.926 218.63C296.78 219.088 296.708 219.588 296.708 220.13V224.114H295.426ZM303.135 222.958L303.323 224.099C302.958 224.171 302.63 224.208 302.338 224.208C301.88 224.208 301.52 224.135 301.26 223.989C301 223.843 300.817 223.651 300.713 223.411C300.609 223.171 300.557 222.666 300.557 221.895V217.52H299.604V216.52H300.557V214.63L301.838 213.864V216.52H303.135V217.52H301.838V221.958C301.838 222.322 301.859 222.562 301.901 222.677C301.953 222.781 302.026 222.864 302.119 222.927C302.224 222.979 302.375 223.005 302.573 223.005C302.708 223.005 302.895 222.989 303.135 222.958ZM304.395 215.099V213.63H305.691V215.099H304.395ZM304.395 224.114V216.52H305.691V224.114H304.395ZM307.963 224.114V217.52H306.823V216.52H307.963V215.708C307.963 215.197 308.005 214.817 308.088 214.567C308.213 214.234 308.432 213.963 308.744 213.755C309.057 213.546 309.494 213.442 310.057 213.442C310.422 213.442 310.823 213.484 311.26 213.567L311.073 214.692C310.802 214.651 310.547 214.63 310.307 214.63C309.922 214.63 309.645 214.713 309.479 214.88C309.323 215.046 309.244 215.359 309.244 215.817V216.52H310.713V217.52H309.244V224.114H307.963ZM316.676 223.177C316.197 223.583 315.738 223.869 315.301 224.036C314.863 224.203 314.389 224.286 313.879 224.286C313.046 224.286 312.405 224.083 311.957 223.677C311.509 223.27 311.285 222.75 311.285 222.114C311.285 221.739 311.369 221.401 311.535 221.099C311.702 220.786 311.921 220.536 312.191 220.349C312.473 220.161 312.785 220.02 313.129 219.927C313.379 219.864 313.759 219.802 314.27 219.739C315.311 219.614 316.077 219.463 316.566 219.286C316.577 219.109 316.582 219 316.582 218.958C316.582 218.427 316.457 218.057 316.207 217.849C315.884 217.557 315.4 217.411 314.754 217.411C314.139 217.411 313.686 217.52 313.395 217.739C313.113 217.947 312.905 218.317 312.77 218.849L311.504 218.677C311.619 218.145 311.806 217.713 312.066 217.38C312.327 217.046 312.707 216.791 313.207 216.614C313.707 216.437 314.28 216.349 314.926 216.349C315.582 216.349 316.113 216.427 316.52 216.583C316.926 216.729 317.223 216.916 317.41 217.145C317.598 217.375 317.733 217.666 317.816 218.02C317.858 218.239 317.879 218.635 317.879 219.208V220.927C317.879 222.125 317.905 222.885 317.957 223.208C318.009 223.52 318.119 223.822 318.285 224.114H316.941C316.806 223.843 316.718 223.531 316.676 223.177ZM316.566 220.302C316.098 220.489 315.4 220.651 314.473 220.786C313.941 220.859 313.566 220.947 313.348 221.052C313.129 221.145 312.957 221.286 312.832 221.474C312.718 221.651 312.66 221.849 312.66 222.067C312.66 222.411 312.79 222.697 313.051 222.927C313.311 223.156 313.691 223.27 314.191 223.27C314.681 223.27 315.119 223.166 315.504 222.958C315.9 222.739 316.186 222.442 316.363 222.067C316.499 221.776 316.566 221.343 316.566 220.77V220.302ZM324.827 221.333L326.093 221.489C325.957 222.364 325.603 223.052 325.03 223.552C324.468 224.041 323.77 224.286 322.936 224.286C321.895 224.286 321.056 223.947 320.421 223.27C319.796 222.583 319.483 221.609 319.483 220.349C319.483 219.526 319.619 218.807 319.889 218.192C320.16 217.578 320.572 217.119 321.124 216.817C321.686 216.505 322.29 216.349 322.936 216.349C323.77 216.349 324.447 216.557 324.968 216.974C325.488 217.39 325.827 217.979 325.983 218.739L324.718 218.942C324.603 218.432 324.395 218.046 324.093 217.786C323.79 217.526 323.426 217.395 322.999 217.395C322.343 217.395 321.811 217.63 321.405 218.099C320.999 218.567 320.796 219.302 320.796 220.302C320.796 221.322 320.988 222.067 321.374 222.536C321.77 222.994 322.285 223.224 322.921 223.224C323.421 223.224 323.843 223.072 324.186 222.77C324.53 222.458 324.744 221.979 324.827 221.333ZM330.014 222.958L330.202 224.099C329.837 224.171 329.509 224.208 329.218 224.208C328.759 224.208 328.4 224.135 328.139 223.989C327.879 223.843 327.697 223.651 327.593 223.411C327.488 223.171 327.436 222.666 327.436 221.895V217.52H326.483V216.52H327.436V214.63L328.718 213.864V216.52H330.014V217.52H328.718V221.958C328.718 222.322 328.738 222.562 328.78 222.677C328.832 222.781 328.905 222.864 328.999 222.927C329.103 222.979 329.254 223.005 329.452 223.005C329.587 223.005 329.775 222.989 330.014 222.958ZM331.274 215.099V213.63H332.571V215.099H331.274ZM331.274 224.114V216.52H332.571V224.114H331.274ZM334.046 220.317C334.046 218.911 334.436 217.869 335.218 217.192C335.874 216.63 336.671 216.349 337.608 216.349C338.66 216.349 339.514 216.692 340.171 217.38C340.837 218.057 341.171 219 341.171 220.208C341.171 221.187 341.025 221.958 340.733 222.52C340.441 223.072 340.014 223.505 339.452 223.817C338.889 224.13 338.275 224.286 337.608 224.286C336.546 224.286 335.686 223.947 335.03 223.27C334.374 222.583 334.046 221.599 334.046 220.317ZM335.374 220.317C335.374 221.286 335.582 222.015 335.999 222.505C336.426 222.984 336.962 223.224 337.608 223.224C338.254 223.224 338.785 222.984 339.202 222.505C339.629 222.015 339.843 221.27 339.843 220.27C339.843 219.333 339.629 218.625 339.202 218.145C338.775 217.656 338.244 217.411 337.608 217.411C336.962 217.411 336.426 217.651 335.999 218.13C335.582 218.609 335.374 219.338 335.374 220.317ZM342.681 224.114V216.52H343.837V217.599C344.4 216.765 345.207 216.349 346.259 216.349C346.718 216.349 347.139 216.432 347.525 216.599C347.91 216.755 348.197 216.968 348.384 217.239C348.572 217.51 348.707 217.828 348.791 218.192C348.832 218.432 348.853 218.849 348.853 219.442V224.114H347.572V219.489C347.572 218.968 347.52 218.578 347.416 218.317C347.311 218.057 347.129 217.849 346.869 217.692C346.619 217.536 346.322 217.458 345.978 217.458C345.436 217.458 344.962 217.635 344.556 217.989C344.16 218.333 343.962 218.989 343.962 219.958V224.114H342.681Z" fill="black"/>
<path d="M291.874 238.739L293.186 238.63C293.249 239.151 293.389 239.583 293.608 239.927C293.837 240.26 294.191 240.531 294.67 240.739C295.15 240.947 295.686 241.052 296.28 241.052C296.811 241.052 297.28 240.974 297.686 240.817C298.092 240.661 298.394 240.447 298.592 240.177C298.79 239.895 298.889 239.593 298.889 239.27C298.889 238.937 298.79 238.651 298.592 238.411C298.405 238.161 298.092 237.953 297.655 237.786C297.374 237.671 296.749 237.5 295.78 237.27C294.821 237.041 294.15 236.822 293.764 236.614C293.264 236.354 292.889 236.031 292.639 235.645C292.4 235.25 292.28 234.812 292.28 234.333C292.28 233.802 292.426 233.307 292.717 232.849C293.019 232.39 293.457 232.041 294.03 231.802C294.613 231.562 295.259 231.442 295.967 231.442C296.749 231.442 297.436 231.567 298.03 231.817C298.624 232.067 299.077 232.437 299.389 232.927C299.712 233.416 299.884 233.968 299.905 234.583L298.577 234.677C298.504 234.01 298.259 233.51 297.842 233.177C297.436 232.833 296.832 232.661 296.03 232.661C295.186 232.661 294.571 232.817 294.186 233.13C293.801 233.442 293.608 233.812 293.608 234.239C293.608 234.614 293.749 234.927 294.03 235.177C294.29 235.416 294.983 235.666 296.108 235.927C297.243 236.177 298.019 236.395 298.436 236.583C299.051 236.864 299.504 237.224 299.795 237.661C300.087 238.088 300.233 238.583 300.233 239.145C300.233 239.708 300.071 240.239 299.749 240.739C299.426 241.229 298.962 241.609 298.358 241.88C297.764 242.151 297.092 242.286 296.342 242.286C295.394 242.286 294.597 242.151 293.952 241.88C293.316 241.599 292.816 241.182 292.452 240.63C292.087 240.078 291.894 239.447 291.874 238.739ZM307.165 239.661L308.493 239.833C308.285 240.614 307.894 241.218 307.321 241.645C306.759 242.072 306.035 242.286 305.149 242.286C304.035 242.286 303.149 241.947 302.493 241.27C301.847 240.583 301.524 239.619 301.524 238.38C301.524 237.099 301.852 236.109 302.509 235.411C303.175 234.703 304.035 234.349 305.087 234.349C306.097 234.349 306.925 234.692 307.571 235.38C308.217 236.067 308.54 237.041 308.54 238.302C308.54 238.375 308.535 238.489 308.524 238.645H302.868C302.91 239.479 303.144 240.119 303.571 240.567C303.998 241.005 304.529 241.224 305.165 241.224C305.634 241.224 306.035 241.104 306.368 240.864C306.701 240.614 306.967 240.213 307.165 239.661ZM302.93 237.583H307.18C307.118 236.947 306.956 236.468 306.696 236.145C306.279 235.645 305.743 235.395 305.087 235.395C304.503 235.395 304.009 235.593 303.602 235.989C303.196 236.385 302.972 236.916 302.93 237.583ZM310.097 242.114V234.52H311.253V235.661C311.555 235.13 311.831 234.781 312.081 234.614C312.331 234.437 312.602 234.349 312.894 234.349C313.331 234.349 313.774 234.484 314.222 234.755L313.785 235.958C313.472 235.77 313.154 235.677 312.831 235.677C312.55 235.677 312.295 235.76 312.066 235.927C311.847 236.093 311.691 236.328 311.597 236.63C311.451 237.088 311.378 237.588 311.378 238.13V242.114H310.097ZM317.103 242.114L314.212 234.52H315.572L317.197 239.067C317.374 239.557 317.54 240.067 317.697 240.599C317.801 240.192 317.957 239.708 318.165 239.145L319.853 234.52H321.181L318.306 242.114H317.103ZM327.525 239.661L328.853 239.833C328.644 240.614 328.254 241.218 327.681 241.645C327.118 242.072 326.394 242.286 325.509 242.286C324.394 242.286 323.509 241.947 322.853 241.27C322.207 240.583 321.884 239.619 321.884 238.38C321.884 237.099 322.212 236.109 322.868 235.411C323.535 234.703 324.394 234.349 325.447 234.349C326.457 234.349 327.285 234.692 327.931 235.38C328.577 236.067 328.9 237.041 328.9 238.302C328.9 238.375 328.894 238.489 328.884 238.645H323.228C323.269 239.479 323.504 240.119 323.931 240.567C324.358 241.005 324.889 241.224 325.525 241.224C325.993 241.224 326.394 241.104 326.728 240.864C327.061 240.614 327.327 240.213 327.525 239.661ZM323.29 237.583H327.54C327.478 236.947 327.316 236.468 327.056 236.145C326.639 235.645 326.103 235.395 325.447 235.395C324.863 235.395 324.368 235.593 323.962 235.989C323.556 236.385 323.332 236.916 323.29 237.583ZM330.457 242.114V234.52H331.613V235.661C331.915 235.13 332.191 234.781 332.441 234.614C332.691 234.437 332.962 234.349 333.254 234.349C333.691 234.349 334.134 234.484 334.582 234.755L334.145 235.958C333.832 235.77 333.514 235.677 333.191 235.677C332.91 235.677 332.655 235.76 332.426 235.927C332.207 236.093 332.051 236.328 331.957 236.63C331.811 237.088 331.738 237.588 331.738 238.13V242.114H330.457Z" fill="black"/>
</g>
<path fill-rule="evenodd" clip-rule="evenodd" d="M259.557 123.719H366.045V328.349H259.557V123.719Z" fill="white"/>
<path fill-rule="evenodd" clip-rule="evenodd" d="M259.557 123.719H366.045V328.349H259.557V123.719Z" stroke="#44546A" stroke-miterlimit="10" stroke-linejoin="round"/>
<path d="M284.347 218.442L285.738 218.786C285.446 219.921 284.92 220.791 284.16 221.395C283.41 221.989 282.488 222.286 281.394 222.286C280.269 222.286 279.352 222.057 278.644 221.599C277.936 221.14 277.394 220.474 277.019 219.599C276.654 218.724 276.472 217.786 276.472 216.786C276.472 215.692 276.681 214.739 277.097 213.927C277.514 213.114 278.108 212.5 278.878 212.083C279.649 211.656 280.498 211.442 281.425 211.442C282.467 211.442 283.347 211.713 284.066 212.255C284.785 212.786 285.285 213.536 285.566 214.505L284.191 214.817C283.951 214.057 283.597 213.505 283.128 213.161C282.67 212.807 282.092 212.63 281.394 212.63C280.582 212.63 279.904 212.822 279.363 213.208C278.821 213.593 278.441 214.114 278.222 214.77C278.003 215.416 277.894 216.088 277.894 216.786C277.894 217.671 278.024 218.447 278.285 219.114C278.545 219.781 278.951 220.281 279.503 220.614C280.056 220.937 280.649 221.099 281.285 221.099C282.066 221.099 282.722 220.875 283.253 220.427C283.795 219.979 284.16 219.317 284.347 218.442ZM292.494 219.661L293.822 219.833C293.614 220.614 293.223 221.218 292.65 221.645C292.088 222.072 291.364 222.286 290.478 222.286C289.364 222.286 288.478 221.947 287.822 221.27C287.176 220.583 286.853 219.619 286.853 218.38C286.853 217.099 287.181 216.109 287.838 215.411C288.504 214.703 289.364 214.349 290.416 214.349C291.426 214.349 292.254 214.692 292.9 215.38C293.546 216.067 293.869 217.041 293.869 218.302C293.869 218.375 293.864 218.489 293.853 218.645H288.197C288.239 219.479 288.473 220.119 288.9 220.567C289.327 221.005 289.859 221.224 290.494 221.224C290.963 221.224 291.364 221.104 291.697 220.864C292.03 220.614 292.296 220.213 292.494 219.661ZM288.26 217.583H292.51C292.447 216.947 292.286 216.468 292.025 216.145C291.609 215.645 291.072 215.395 290.416 215.395C289.832 215.395 289.338 215.593 288.931 215.989C288.525 216.385 288.301 216.916 288.26 217.583ZM295.426 222.114V214.52H296.583V215.661C296.885 215.13 297.161 214.781 297.411 214.614C297.661 214.437 297.932 214.349 298.223 214.349C298.661 214.349 299.103 214.484 299.551 214.755L299.114 215.958C298.801 215.77 298.484 215.677 298.161 215.677C297.879 215.677 297.624 215.76 297.395 215.927C297.176 216.093 297.02 216.328 296.926 216.63C296.78 217.088 296.708 217.588 296.708 218.13V222.114H295.426ZM303.135 220.958L303.323 222.099C302.958 222.171 302.63 222.208 302.338 222.208C301.88 222.208 301.52 222.135 301.26 221.989C301 221.843 300.817 221.651 300.713 221.411C300.609 221.171 300.557 220.666 300.557 219.895V215.52H299.604V214.52H300.557V212.63L301.838 211.864V214.52H303.135V215.52H301.838V219.958C301.838 220.322 301.859 220.562 301.901 220.677C301.953 220.781 302.026 220.864 302.119 220.927C302.224 220.979 302.375 221.005 302.573 221.005C302.708 221.005 302.895 220.989 303.135 220.958ZM304.395 213.099V211.63H305.691V213.099H304.395ZM304.395 222.114V214.52H305.691V222.114H304.395ZM307.963 222.114V215.52H306.823V214.52H307.963V213.708C307.963 213.197 308.005 212.817 308.088 212.567C308.213 212.234 308.432 211.963 308.744 211.755C309.057 211.546 309.494 211.442 310.057 211.442C310.422 211.442 310.823 211.484 311.26 211.567L311.073 212.692C310.802 212.651 310.547 212.63 310.307 212.63C309.922 212.63 309.645 212.713 309.479 212.88C309.323 213.046 309.244 213.359 309.244 213.817V214.52H310.713V215.52H309.244V222.114H307.963ZM316.676 221.177C316.197 221.583 315.738 221.869 315.301 222.036C314.863 222.203 314.389 222.286 313.879 222.286C313.046 222.286 312.405 222.083 311.957 221.677C311.509 221.27 311.285 220.75 311.285 220.114C311.285 219.739 311.369 219.401 311.535 219.099C311.702 218.786 311.921 218.536 312.191 218.349C312.473 218.161 312.785 218.02 313.129 217.927C313.379 217.864 313.759 217.802 314.27 217.739C315.311 217.614 316.077 217.463 316.566 217.286C316.577 217.109 316.582 217 316.582 216.958C316.582 216.427 316.457 216.057 316.207 215.849C315.884 215.557 315.4 215.411 314.754 215.411C314.139 215.411 313.686 215.52 313.395 215.739C313.113 215.947 312.905 216.317 312.77 216.849L311.504 216.677C311.619 216.145 311.806 215.713 312.066 215.38C312.327 215.046 312.707 214.791 313.207 214.614C313.707 214.437 314.28 214.349 314.926 214.349C315.582 214.349 316.113 214.427 316.52 214.583C316.926 214.729 317.223 214.916 317.41 215.145C317.598 215.375 317.733 215.666 317.816 216.02C317.858 216.239 317.879 216.635 317.879 217.208V218.927C317.879 220.125 317.905 220.885 317.957 221.208C318.009 221.52 318.119 221.822 318.285 222.114H316.941C316.806 221.843 316.718 221.531 316.676 221.177ZM316.566 218.302C316.098 218.489 315.4 218.651 314.473 218.786C313.941 218.859 313.566 218.947 313.348 219.052C313.129 219.145 312.957 219.286 312.832 219.474C312.718 219.651 312.66 219.849 312.66 220.067C312.66 220.411 312.79 220.697 313.051 220.927C313.311 221.156 313.691 221.27 314.191 221.27C314.681 221.27 315.119 221.166 315.504 220.958C315.9 220.739 316.186 220.442 316.363 220.067C316.499 219.776 316.566 219.343 316.566 218.77V218.302ZM324.827 219.333L326.093 219.489C325.957 220.364 325.603 221.052 325.03 221.552C324.468 222.041 323.77 222.286 322.936 222.286C321.895 222.286 321.056 221.947 320.421 221.27C319.796 220.583 319.483 219.609 319.483 218.349C319.483 217.526 319.619 216.807 319.889 216.192C320.16 215.578 320.572 215.119 321.124 214.817C321.686 214.505 322.29 214.349 322.936 214.349C323.77 214.349 324.447 214.557 324.968 214.974C325.488 215.39 325.827 215.979 325.983 216.739L324.718 216.942C324.603 216.432 324.395 216.046 324.093 215.786C323.79 215.526 323.426 215.395 322.999 215.395C322.343 215.395 321.811 215.63 321.405 216.099C320.999 216.567 320.796 217.302 320.796 218.302C320.796 219.322 320.988 220.067 321.374 220.536C321.77 220.994 322.285 221.224 322.921 221.224C323.421 221.224 323.843 221.072 324.186 220.77C324.53 220.458 324.744 219.979 324.827 219.333ZM330.014 220.958L330.202 222.099C329.837 222.171 329.509 222.208 329.218 222.208C328.759 222.208 328.4 222.135 328.139 221.989C327.879 221.843 327.697 221.651 327.593 221.411C327.488 221.171 327.436 220.666 327.436 219.895V215.52H326.483V214.52H327.436V212.63L328.718 211.864V214.52H330.014V215.52H328.718V219.958C328.718 220.322 328.738 220.562 328.78 220.677C328.832 220.781 328.905 220.864 328.999 220.927C329.103 220.979 329.254 221.005 329.452 221.005C329.587 221.005 329.775 220.989 330.014 220.958ZM331.274 213.099V211.63H332.571V213.099H331.274ZM331.274 222.114V214.52H332.571V222.114H331.274ZM334.046 218.317C334.046 216.911 334.436 215.869 335.218 215.192C335.874 214.63 336.671 214.349 337.608 214.349C338.66 214.349 339.514 214.692 340.171 215.38C340.837 216.057 341.171 217 341.171 218.208C341.171 219.187 341.025 219.958 340.733 220.52C340.441 221.072 340.014 221.505 339.452 221.817C338.889 222.13 338.275 222.286 337.608 222.286C336.546 222.286 335.686 221.947 335.03 221.27C334.374 220.583 334.046 219.599 334.046 218.317ZM335.374 218.317C335.374 219.286 335.582 220.015 335.999 220.505C336.426 220.984 336.962 221.224 337.608 221.224C338.254 221.224 338.785 220.984 339.202 220.505C339.629 220.015 339.843 219.27 339.843 218.27C339.843 217.333 339.629 216.625 339.202 216.145C338.775 215.656 338.244 215.411 337.608 215.411C336.962 215.411 336.426 215.651 335.999 216.13C335.582 216.609 335.374 217.338 335.374 218.317ZM342.681 222.114V214.52H343.837V215.599C344.4 214.765 345.207 214.349 346.259 214.349C346.718 214.349 347.139 214.432 347.525 214.599C347.91 214.755 348.197 214.968 348.384 215.239C348.572 215.51 348.707 215.828 348.791 216.192C348.832 216.432 348.853 216.849 348.853 217.442V222.114H347.572V217.489C347.572 216.968 347.52 216.578 347.416 216.317C347.311 216.057 347.129 215.849 346.869 215.692C346.619 215.536 346.322 215.458 345.978 215.458C345.436 215.458 344.962 215.635 344.556 215.989C344.16 216.333 343.962 216.989 343.962 217.958V222.114H342.681Z" fill="black"/>
<path d="M291.874 236.739L293.186 236.63C293.249 237.151 293.389 237.583 293.608 237.927C293.837 238.26 294.191 238.531 294.67 238.739C295.15 238.947 295.686 239.052 296.28 239.052C296.811 239.052 297.28 238.974 297.686 238.817C298.092 238.661 298.394 238.447 298.592 238.177C298.79 237.895 298.889 237.593 298.889 237.27C298.889 236.937 298.79 236.651 298.592 236.411C298.405 236.161 298.092 235.953 297.655 235.786C297.374 235.671 296.749 235.5 295.78 235.27C294.821 235.041 294.15 234.822 293.764 234.614C293.264 234.354 292.889 234.031 292.639 233.645C292.4 233.25 292.28 232.812 292.28 232.333C292.28 231.802 292.426 231.307 292.717 230.849C293.019 230.39 293.457 230.041 294.03 229.802C294.613 229.562 295.259 229.442 295.967 229.442C296.749 229.442 297.436 229.567 298.03 229.817C298.624 230.067 299.077 230.437 299.389 230.927C299.712 231.416 299.884 231.968 299.905 232.583L298.577 232.677C298.504 232.01 298.259 231.51 297.842 231.177C297.436 230.833 296.832 230.661 296.03 230.661C295.186 230.661 294.571 230.817 294.186 231.13C293.801 231.442 293.608 231.812 293.608 232.239C293.608 232.614 293.749 232.927 294.03 233.177C294.29 233.416 294.983 233.666 296.108 233.927C297.243 234.177 298.019 234.395 298.436 234.583C299.051 234.864 299.504 235.224 299.795 235.661C300.087 236.088 300.233 236.583 300.233 237.145C300.233 237.708 300.071 238.239 299.749 238.739C299.426 239.229 298.962 239.609 298.358 239.88C297.764 240.151 297.092 240.286 296.342 240.286C295.394 240.286 294.597 240.151 293.952 239.88C293.316 239.599 292.816 239.182 292.452 238.63C292.087 238.078 291.894 237.447 291.874 236.739ZM307.165 237.661L308.493 237.833C308.285 238.614 307.894 239.218 307.321 239.645C306.759 240.072 306.035 240.286 305.149 240.286C304.035 240.286 303.149 239.947 302.493 239.27C301.847 238.583 301.524 237.619 301.524 236.38C301.524 235.099 301.852 234.109 302.509 233.411C303.175 232.703 304.035 232.349 305.087 232.349C306.097 232.349 306.925 232.692 307.571 233.38C308.217 234.067 308.54 235.041 308.54 236.302C308.54 236.375 308.535 236.489 308.524 236.645H302.868C302.91 237.479 303.144 238.119 303.571 238.567C303.998 239.005 304.529 239.224 305.165 239.224C305.634 239.224 306.035 239.104 306.368 238.864C306.701 238.614 306.967 238.213 307.165 237.661ZM302.93 235.583H307.18C307.118 234.947 306.956 234.468 306.696 234.145C306.279 233.645 305.743 233.395 305.087 233.395C304.503 233.395 304.009 233.593 303.602 233.989C303.196 234.385 302.972 234.916 302.93 235.583ZM310.097 240.114V232.52H311.253V233.661C311.555 233.13 311.831 232.781 312.081 232.614C312.331 232.437 312.602 232.349 312.894 232.349C313.331 232.349 313.774 232.484 314.222 232.755L313.785 233.958C313.472 233.77 313.154 233.677 312.831 233.677C312.55 233.677 312.295 233.76 312.066 233.927C311.847 234.093 311.691 234.328 311.597 234.63C311.451 235.088 311.378 235.588 311.378 236.13V240.114H310.097ZM317.103 240.114L314.212 232.52H315.572L317.197 237.067C317.374 237.557 317.54 238.067 317.697 238.599C317.801 238.192 317.957 237.708 318.165 237.145L319.853 232.52H321.181L318.306 240.114H317.103ZM327.525 237.661L328.853 237.833C328.644 238.614 328.254 239.218 327.681 239.645C327.118 240.072 326.394 240.286 325.509 240.286C324.394 240.286 323.509 239.947 322.853 239.27C322.207 238.583 321.884 237.619 321.884 236.38C321.884 235.099 322.212 234.109 322.868 233.411C323.535 232.703 324.394 232.349 325.447 232.349C326.457 232.349 327.285 232.692 327.931 233.38C328.577 234.067 328.9 235.041 328.9 236.302C328.9 236.375 328.894 236.489 328.884 236.645H323.228C323.269 237.479 323.504 238.119 323.931 238.567C324.358 239.005 324.889 239.224 325.525 239.224C325.993 239.224 326.394 239.104 326.728 238.864C327.061 238.614 327.327 238.213 327.525 237.661ZM323.29 235.583H327.54C327.478 234.947 327.316 234.468 327.056 234.145C326.639 233.645 326.103 233.395 325.447 233.395C324.863 233.395 324.368 233.593 323.962 233.989C323.556 234.385 323.332 234.916 323.29 235.583ZM330.457 240.114V232.52H331.613V233.661C331.915 233.13 332.191 232.781 332.441 232.614C332.691 232.437 332.962 232.349 333.254 232.349C333.691 232.349 334.134 232.484 334.582 232.755L334.145 233.958C333.832 233.77 333.514 233.677 333.191 233.677C332.91 233.677 332.655 233.76 332.426 233.927C332.207 234.093 332.051 234.328 331.957 234.63C331.811 235.088 331.738 235.588 331.738 236.13V240.114H330.457Z" fill="black"/>
<g filter="url(#filter1_f_1_711)">
<path fill-rule="evenodd" clip-rule="evenodd" d="M503.557 125.719H610.045V330.349H503.557V125.719Z" fill="white"/>
<path fill-rule="evenodd" clip-rule="evenodd" d="M503.557 125.719H610.045V330.349H503.557V125.719Z" stroke="#44546A" stroke-miterlimit="10" stroke-linejoin="round"/>
<path d="M528.347 220.442L529.738 220.786C529.446 221.921 528.92 222.791 528.16 223.395C527.41 223.989 526.488 224.286 525.394 224.286C524.269 224.286 523.352 224.057 522.644 223.599C521.936 223.14 521.394 222.474 521.019 221.599C520.654 220.724 520.472 219.786 520.472 218.786C520.472 217.692 520.681 216.739 521.097 215.927C521.514 215.114 522.108 214.5 522.878 214.083C523.649 213.656 524.498 213.442 525.425 213.442C526.467 213.442 527.347 213.713 528.066 214.255C528.785 214.786 529.285 215.536 529.566 216.505L528.191 216.817C527.951 216.057 527.597 215.505 527.128 215.161C526.67 214.807 526.092 214.63 525.394 214.63C524.582 214.63 523.904 214.822 523.363 215.208C522.821 215.593 522.441 216.114 522.222 216.77C522.003 217.416 521.894 218.088 521.894 218.786C521.894 219.671 522.024 220.447 522.285 221.114C522.545 221.781 522.951 222.281 523.503 222.614C524.056 222.937 524.649 223.099 525.285 223.099C526.066 223.099 526.722 222.875 527.253 222.427C527.795 221.979 528.16 221.317 528.347 220.442ZM536.494 221.661L537.822 221.833C537.614 222.614 537.223 223.218 536.65 223.645C536.088 224.072 535.364 224.286 534.478 224.286C533.364 224.286 532.478 223.947 531.822 223.27C531.176 222.583 530.853 221.619 530.853 220.38C530.853 219.099 531.181 218.109 531.838 217.411C532.504 216.703 533.364 216.349 534.416 216.349C535.426 216.349 536.254 216.692 536.9 217.38C537.546 218.067 537.869 219.041 537.869 220.302C537.869 220.375 537.864 220.489 537.853 220.645H532.197C532.239 221.479 532.473 222.119 532.9 222.567C533.327 223.005 533.859 223.224 534.494 223.224C534.963 223.224 535.364 223.104 535.697 222.864C536.03 222.614 536.296 222.213 536.494 221.661ZM532.26 219.583H536.51C536.447 218.947 536.286 218.468 536.025 218.145C535.609 217.645 535.072 217.395 534.416 217.395C533.832 217.395 533.338 217.593 532.931 217.989C532.525 218.385 532.301 218.916 532.26 219.583ZM539.426 224.114V216.52H540.583V217.661C540.885 217.13 541.161 216.781 541.411 216.614C541.661 216.437 541.932 216.349 542.223 216.349C542.661 216.349 543.103 216.484 543.551 216.755L543.114 217.958C542.801 217.77 542.484 217.677 542.161 217.677C541.879 217.677 541.624 217.76 541.395 217.927C541.176 218.093 541.02 218.328 540.926 218.63C540.78 219.088 540.708 219.588 540.708 220.13V224.114H539.426ZM547.135 222.958L547.323 224.099C546.958 224.171 546.63 224.208 546.338 224.208C545.88 224.208 545.52 224.135 545.26 223.989C545 223.843 544.817 223.651 544.713 223.411C544.609 223.171 544.557 222.666 544.557 221.895V217.52H543.604V216.52H544.557V214.63L545.838 213.864V216.52H547.135V217.52H545.838V221.958C545.838 222.322 545.859 222.562 545.901 222.677C545.953 222.781 546.026 222.864 546.119 222.927C546.224 222.979 546.375 223.005 546.573 223.005C546.708 223.005 546.895 222.989 547.135 222.958ZM548.395 215.099V213.63H549.691V215.099H548.395ZM548.395 224.114V216.52H549.691V224.114H548.395ZM551.963 224.114V217.52H550.823V216.52H551.963V215.708C551.963 215.197 552.005 214.817 552.088 214.567C552.213 214.234 552.432 213.963 552.744 213.755C553.057 213.546 553.494 213.442 554.057 213.442C554.422 213.442 554.823 213.484 555.26 213.567L555.073 214.692C554.802 214.651 554.547 214.63 554.307 214.63C553.922 214.63 553.645 214.713 553.479 214.88C553.323 215.046 553.244 215.359 553.244 215.817V216.52H554.713V217.52H553.244V224.114H551.963ZM560.676 223.177C560.197 223.583 559.738 223.869 559.301 224.036C558.863 224.203 558.389 224.286 557.879 224.286C557.046 224.286 556.405 224.083 555.957 223.677C555.509 223.27 555.285 222.75 555.285 222.114C555.285 221.739 555.369 221.401 555.535 221.099C555.702 220.786 555.921 220.536 556.191 220.349C556.473 220.161 556.785 220.02 557.129 219.927C557.379 219.864 557.759 219.802 558.27 219.739C559.311 219.614 560.077 219.463 560.566 219.286C560.577 219.109 560.582 219 560.582 218.958C560.582 218.427 560.457 218.057 560.207 217.849C559.884 217.557 559.4 217.411 558.754 217.411C558.139 217.411 557.686 217.52 557.395 217.739C557.113 217.947 556.905 218.317 556.77 218.849L555.504 218.677C555.619 218.145 555.806 217.713 556.066 217.38C556.327 217.046 556.707 216.791 557.207 216.614C557.707 216.437 558.28 216.349 558.926 216.349C559.582 216.349 560.113 216.427 560.52 216.583C560.926 216.729 561.223 216.916 561.41 217.145C561.598 217.375 561.733 217.666 561.816 218.02C561.858 218.239 561.879 218.635 561.879 219.208V220.927C561.879 222.125 561.905 222.885 561.957 223.208C562.009 223.52 562.119 223.822 562.285 224.114H560.941C560.806 223.843 560.718 223.531 560.676 223.177ZM560.566 220.302C560.098 220.489 559.4 220.651 558.473 220.786C557.941 220.859 557.566 220.947 557.348 221.052C557.129 221.145 556.957 221.286 556.832 221.474C556.718 221.651 556.66 221.849 556.66 222.067C556.66 222.411 556.79 222.697 557.051 222.927C557.311 223.156 557.691 223.27 558.191 223.27C558.681 223.27 559.119 223.166 559.504 222.958C559.9 222.739 560.186 222.442 560.363 222.067C560.499 221.776 560.566 221.343 560.566 220.77V220.302ZM568.827 221.333L570.093 221.489C569.957 222.364 569.603 223.052 569.03 223.552C568.468 224.041 567.77 224.286 566.936 224.286C565.895 224.286 565.056 223.947 564.421 223.27C563.796 222.583 563.483 221.609 563.483 220.349C563.483 219.526 563.619 218.807 563.889 218.192C564.16 217.578 564.572 217.119 565.124 216.817C565.686 216.505 566.29 216.349 566.936 216.349C567.77 216.349 568.447 216.557 568.968 216.974C569.488 217.39 569.827 217.979 569.983 218.739L568.718 218.942C568.603 218.432 568.395 218.046 568.093 217.786C567.79 217.526 567.426 217.395 566.999 217.395C566.343 217.395 565.811 217.63 565.405 218.099C564.999 218.567 564.796 219.302 564.796 220.302C564.796 221.322 564.988 222.067 565.374 222.536C565.77 222.994 566.285 223.224 566.921 223.224C567.421 223.224 567.843 223.072 568.186 222.77C568.53 222.458 568.744 221.979 568.827 221.333ZM574.014 222.958L574.202 224.099C573.837 224.171 573.509 224.208 573.218 224.208C572.759 224.208 572.4 224.135 572.139 223.989C571.879 223.843 571.697 223.651 571.593 223.411C571.488 223.171 571.436 222.666 571.436 221.895V217.52H570.483V216.52H571.436V214.63L572.718 213.864V216.52H574.014V217.52H572.718V221.958C572.718 222.322 572.738 222.562 572.78 222.677C572.832 222.781 572.905 222.864 572.999 222.927C573.103 222.979 573.254 223.005 573.452 223.005C573.587 223.005 573.775 222.989 574.014 222.958ZM575.274 215.099V213.63H576.571V215.099H575.274ZM575.274 224.114V216.52H576.571V224.114H575.274ZM578.046 220.317C578.046 218.911 578.436 217.869 579.218 217.192C579.874 216.63 580.671 216.349 581.608 216.349C582.66 216.349 583.514 216.692 584.171 217.38C584.837 218.057 585.171 219 585.171 220.208C585.171 221.187 585.025 221.958 584.733 222.52C584.441 223.072 584.014 223.505 583.452 223.817C582.889 224.13 582.275 224.286 581.608 224.286C580.546 224.286 579.686 223.947 579.03 223.27C578.374 222.583 578.046 221.599 578.046 220.317ZM579.374 220.317C579.374 221.286 579.582 222.015 579.999 222.505C580.426 222.984 580.962 223.224 581.608 223.224C582.254 223.224 582.785 222.984 583.202 222.505C583.629 222.015 583.843 221.27 583.843 220.27C583.843 219.333 583.629 218.625 583.202 218.145C582.775 217.656 582.244 217.411 581.608 217.411C580.962 217.411 580.426 217.651 579.999 218.13C579.582 218.609 579.374 219.338 579.374 220.317ZM586.681 224.114V216.52H587.837V217.599C588.4 216.765 589.207 216.349 590.259 216.349C590.718 216.349 591.139 216.432 591.525 216.599C591.91 216.755 592.197 216.968 592.384 217.239C592.572 217.51 592.707 217.828 592.791 218.192C592.832 218.432 592.853 218.849 592.853 219.442V224.114H591.572V219.489C591.572 218.968 591.52 218.578 591.416 218.317C591.311 218.057 591.129 217.849 590.869 217.692C590.619 217.536 590.322 217.458 589.978 217.458C589.436 217.458 588.962 217.635 588.556 217.989C588.16 218.333 587.962 218.989 587.962 219.958V224.114H586.681Z" fill="black"/>
<path d="M544.974 242.114L548.989 231.63H550.489L554.786 242.114H553.208L551.974 238.942H547.599L546.442 242.114H544.974ZM547.989 237.802H551.552L550.458 234.895C550.125 234.02 549.875 233.296 549.708 232.724C549.573 233.401 549.385 234.067 549.146 234.724L547.989 237.802ZM555.89 242.114V231.63H559.859C560.557 231.63 561.088 231.661 561.452 231.724C561.963 231.807 562.39 231.968 562.734 232.208C563.088 232.447 563.369 232.786 563.577 233.224C563.796 233.661 563.906 234.14 563.906 234.661C563.906 235.546 563.619 236.302 563.046 236.927C562.484 237.541 561.458 237.849 559.968 237.849H557.281V242.114H555.89ZM557.281 236.614H559.999C560.895 236.614 561.531 236.447 561.906 236.114C562.281 235.781 562.468 235.312 562.468 234.708C562.468 234.26 562.359 233.88 562.14 233.567C561.921 233.255 561.629 233.052 561.265 232.958C561.025 232.895 560.593 232.864 559.968 232.864H557.281V236.614ZM565.9 242.114V231.63H567.29V242.114H565.9Z" fill="black"/>
</g>
<path fill-rule="evenodd" clip-rule="evenodd" d="M503.557 123.719H610.045V328.349H503.557V123.719Z" fill="white"/>
<path fill-rule="evenodd" clip-rule="evenodd" d="M503.557 123.719H610.045V328.349H503.557V123.719Z" stroke="#44546A" stroke-miterlimit="10" stroke-linejoin="round"/>
<path d="M528.347 218.442L529.738 218.786C529.446 219.921 528.92 220.791 528.16 221.395C527.41 221.989 526.488 222.286 525.394 222.286C524.269 222.286 523.352 222.057 522.644 221.599C521.936 221.14 521.394 220.474 521.019 219.599C520.654 218.724 520.472 217.786 520.472 216.786C520.472 215.692 520.681 214.739 521.097 213.927C521.514 213.114 522.108 212.5 522.878 212.083C523.649 211.656 524.498 211.442 525.425 211.442C526.467 211.442 527.347 211.713 528.066 212.255C528.785 212.786 529.285 213.536 529.566 214.505L528.191 214.817C527.951 214.057 527.597 213.505 527.128 213.161C526.67 212.807 526.092 212.63 525.394 212.63C524.582 212.63 523.904 212.822 523.363 213.208C522.821 213.593 522.441 214.114 522.222 214.77C522.003 215.416 521.894 216.088 521.894 216.786C521.894 217.671 522.024 218.447 522.285 219.114C522.545 219.781 522.951 220.281 523.503 220.614C524.056 220.937 524.649 221.099 525.285 221.099C526.066 221.099 526.722 220.875 527.253 220.427C527.795 219.979 528.16 219.317 528.347 218.442ZM536.494 219.661L537.822 219.833C537.614 220.614 537.223 221.218 536.65 221.645C536.088 222.072 535.364 222.286 534.478 222.286C533.364 222.286 532.478 221.947 531.822 221.27C531.176 220.583 530.853 219.619 530.853 218.38C530.853 217.099 531.181 216.109 531.838 215.411C532.504 214.703 533.364 214.349 534.416 214.349C535.426 214.349 536.254 214.692 536.9 215.38C537.546 216.067 537.869 217.041 537.869 218.302C537.869 218.375 537.864 218.489 537.853 218.645H532.197C532.239 219.479 532.473 220.119 532.9 220.567C533.327 221.005 533.859 221.224 534.494 221.224C534.963 221.224 535.364 221.104 535.697 220.864C536.03 220.614 536.296 220.213 536.494 219.661ZM532.26 217.583H536.51C536.447 216.947 536.286 216.468 536.025 216.145C535.609 215.645 535.072 215.395 534.416 215.395C533.832 215.395 533.338 215.593 532.931 215.989C532.525 216.385 532.301 216.916 532.26 217.583ZM539.426 222.114V214.52H540.583V215.661C540.885 215.13 541.161 214.781 541.411 214.614C541.661 214.437 541.932 214.349 542.223 214.349C542.661 214.349 543.103 214.484 543.551 214.755L543.114 215.958C542.801 215.77 542.484 215.677 542.161 215.677C541.879 215.677 541.624 215.76 541.395 215.927C541.176 216.093 541.02 216.328 540.926 216.63C540.78 217.088 540.708 217.588 540.708 218.13V222.114H539.426ZM547.135 220.958L547.323 222.099C546.958 222.171 546.63 222.208 546.338 222.208C545.88 222.208 545.52 222.135 545.26 221.989C545 221.843 544.817 221.651 544.713 221.411C544.609 221.171 544.557 220.666 544.557 219.895V215.52H543.604V214.52H544.557V212.63L545.838 211.864V214.52H547.135V215.52H545.838V219.958C545.838 220.322 545.859 220.562 545.901 220.677C545.953 220.781 546.026 220.864 546.119 220.927C546.224 220.979 546.375 221.005 546.573 221.005C546.708 221.005 546.895 220.989 547.135 220.958ZM548.395 213.099V211.63H549.691V213.099H548.395ZM548.395 222.114V214.52H549.691V222.114H548.395ZM551.963 222.114V215.52H550.823V214.52H551.963V213.708C551.963 213.197 552.005 212.817 552.088 212.567C552.213 212.234 552.432 211.963 552.744 211.755C553.057 211.546 553.494 211.442 554.057 211.442C554.422 211.442 554.823 211.484 555.26 211.567L555.073 212.692C554.802 212.651 554.547 212.63 554.307 212.63C553.922 212.63 553.645 212.713 553.479 212.88C553.323 213.046 553.244 213.359 553.244 213.817V214.52H554.713V215.52H553.244V222.114H551.963ZM560.676 221.177C560.197 221.583 559.738 221.869 559.301 222.036C558.863 222.203 558.389 222.286 557.879 222.286C557.046 222.286 556.405 222.083 555.957 221.677C555.509 221.27 555.285 220.75 555.285 220.114C555.285 219.739 555.369 219.401 555.535 219.099C555.702 218.786 555.921 218.536 556.191 218.349C556.473 218.161 556.785 218.02 557.129 217.927C557.379 217.864 557.759 217.802 558.27 217.739C559.311 217.614 560.077 217.463 560.566 217.286C560.577 217.109 560.582 217 560.582 216.958C560.582 216.427 560.457 216.057 560.207 215.849C559.884 215.557 559.4 215.411 558.754 215.411C558.139 215.411 557.686 215.52 557.395 215.739C557.113 215.947 556.905 216.317 556.77 216.849L555.504 216.677C555.619 216.145 555.806 215.713 556.066 215.38C556.327 215.046 556.707 214.791 557.207 214.614C557.707 214.437 558.28 214.349 558.926 214.349C559.582 214.349 560.113 214.427 560.52 214.583C560.926 214.729 561.223 214.916 561.41 215.145C561.598 215.375 561.733 215.666 561.816 216.02C561.858 216.239 561.879 216.635 561.879 217.208V218.927C561.879 220.125 561.905 220.885 561.957 221.208C562.009 221.52 562.119 221.822 562.285 222.114H560.941C560.806 221.843 560.718 221.531 560.676 221.177ZM560.566 218.302C560.098 218.489 559.4 218.651 558.473 218.786C557.941 218.859 557.566 218.947 557.348 219.052C557.129 219.145 556.957 219.286 556.832 219.474C556.718 219.651 556.66 219.849 556.66 220.067C556.66 220.411 556.79 220.697 557.051 220.927C557.311 221.156 557.691 221.27 558.191 221.27C558.681 221.27 559.119 221.166 559.504 220.958C559.9 220.739 560.186 220.442 560.363 220.067C560.499 219.776 560.566 219.343 560.566 218.77V218.302ZM568.827 219.333L570.093 219.489C569.957 220.364 569.603 221.052 569.03 221.552C568.468 222.041 567.77 222.286 566.936 222.286C565.895 222.286 565.056 221.947 564.421 221.27C563.796 220.583 563.483 219.609 563.483 218.349C563.483 217.526 563.619 216.807 563.889 216.192C564.16 215.578 564.572 215.119 565.124 214.817C565.686 214.505 566.29 214.349 566.936 214.349C567.77 214.349 568.447 214.557 568.968 214.974C569.488 215.39 569.827 215.979 569.983 216.739L568.718 216.942C568.603 216.432 568.395 216.046 568.093 215.786C567.79 215.526 567.426 215.395 566.999 215.395C566.343 215.395 565.811 215.63 565.405 216.099C564.999 216.567 564.796 217.302 564.796 218.302C564.796 219.322 564.988 220.067 565.374 220.536C565.77 220.994 566.285 221.224 566.921 221.224C567.421 221.224 567.843 221.072 568.186 220.77C568.53 220.458 568.744 219.979 568.827 219.333ZM574.014 220.958L574.202 222.099C573.837 222.171 573.509 222.208 573.218 222.208C572.759 222.208 572.4 222.135 572.139 221.989C571.879 221.843 571.697 221.651 571.593 221.411C571.488 221.171 571.436 220.666 571.436 219.895V215.52H570.483V214.52H571.436V212.63L572.718 211.864V214.52H574.014V215.52H572.718V219.958C572.718 220.322 572.738 220.562 572.78 220.677C572.832 220.781 572.905 220.864 572.999 220.927C573.103 220.979 573.254 221.005 573.452 221.005C573.587 221.005 573.775 220.989 574.014 220.958ZM575.274 213.099V211.63H576.571V213.099H575.274ZM575.274 222.114V214.52H576.571V222.114H575.274ZM578.046 218.317C578.046 216.911 578.436 215.869 579.218 215.192C579.874 214.63 580.671 214.349 581.608 214.349C582.66 214.349 583.514 214.692 584.171 215.38C584.837 216.057 585.171 217 585.171 218.208C585.171 219.187 585.025 219.958 584.733 220.52C584.441 221.072 584.014 221.505 583.452 221.817C582.889 222.13 582.275 222.286 581.608 222.286C580.546 222.286 579.686 221.947 579.03 221.27C578.374 220.583 578.046 219.599 578.046 218.317ZM579.374 218.317C579.374 219.286 579.582 220.015 579.999 220.505C580.426 220.984 580.962 221.224 581.608 221.224C582.254 221.224 582.785 220.984 583.202 220.505C583.629 220.015 583.843 219.27 583.843 218.27C583.843 217.333 583.629 216.625 583.202 216.145C582.775 215.656 582.244 215.411 581.608 215.411C580.962 215.411 580.426 215.651 579.999 216.13C579.582 216.609 579.374 217.338 579.374 218.317ZM586.681 222.114V214.52H587.837V215.599C588.4 214.765 589.207 214.349 590.259 214.349C590.718 214.349 591.139 214.432 591.525 214.599C591.91 214.755 592.197 214.968 592.384 215.239C592.572 215.51 592.707 215.828 592.791 216.192C592.832 216.432 592.853 216.849 592.853 217.442V222.114H591.572V217.489C591.572 216.968 591.52 216.578 591.416 216.317C591.311 216.057 591.129 215.849 590.869 215.692C590.619 215.536 590.322 215.458 589.978 215.458C589.436 215.458 588.962 215.635 588.556 215.989C588.16 216.333 587.962 216.989 587.962 217.958V222.114H586.681Z" fill="black"/>
<path d="M544.974 240.114L548.989 229.63H550.489L554.786 240.114H553.208L551.974 236.942H547.599L546.442 240.114H544.974ZM547.989 235.802H551.552L550.458 232.895C550.125 232.02 549.875 231.296 549.708 230.724C549.573 231.401 549.385 232.067 549.146 232.724L547.989 235.802ZM555.89 240.114V229.63H559.859C560.557 229.63 561.088 229.661 561.452 229.724C561.963 229.807 562.39 229.968 562.734 230.208C563.088 230.447 563.369 230.786 563.577 231.224C563.796 231.661 563.906 232.14 563.906 232.661C563.906 233.546 563.619 234.302 563.046 234.927C562.484 235.541 561.458 235.849 559.968 235.849H557.281V240.114H555.89ZM557.281 234.614H559.999C560.895 234.614 561.531 234.447 561.906 234.114C562.281 233.781 562.468 233.312 562.468 232.708C562.468 232.26 562.359 231.88 562.14 231.567C561.921 231.255 561.629 231.052 561.265 230.958C561.025 230.895 560.593 230.864 559.968 230.864H557.281V234.614ZM565.9 240.114V229.63H567.29V240.114H565.9Z" fill="black"/>
<path d="M422.422 222.47H468.564" stroke="#44546A" stroke-width="2" stroke-miterlimit="10" stroke-linejoin="round"/>
<path fill-rule="evenodd" clip-rule="evenodd" d="M468.564 225.773L477.641 222.47L468.564 219.166V225.773Z" fill="#44546A" stroke="#44546A" stroke-width="2" stroke-miterlimit="10"/>
<path d="M452.065 27.4094L454.05 368.764" stroke="black" stroke-miterlimit="10" stroke-linejoin="round" stroke-dasharray="4 3"/>
<path d="M371.859 36.6365L373.25 36.9802C372.958 38.1156 372.432 38.9854 371.671 39.5896C370.921 40.1833 370 40.4802 368.906 40.4802C367.781 40.4802 366.864 40.2511 366.156 39.7927C365.447 39.3344 364.906 38.6677 364.531 37.7927C364.166 36.9177 363.984 35.9802 363.984 34.9802C363.984 33.8865 364.192 32.9333 364.609 32.1208C365.026 31.3083 365.619 30.6938 366.39 30.2771C367.161 29.85 368.01 29.6365 368.937 29.6365C369.979 29.6365 370.859 29.9073 371.578 30.449C372.296 30.9802 372.796 31.7302 373.078 32.699L371.703 33.0115C371.463 32.2511 371.109 31.699 370.64 31.3552C370.182 31.0011 369.604 30.824 368.906 30.824C368.093 30.824 367.416 31.0167 366.875 31.4021C366.333 31.7875 365.953 32.3083 365.734 32.9646C365.515 33.6104 365.406 34.2823 365.406 34.9802C365.406 35.8656 365.536 36.6417 365.796 37.3083C366.057 37.975 366.463 38.475 367.015 38.8083C367.567 39.1313 368.161 39.2927 368.796 39.2927C369.578 39.2927 370.234 39.0688 370.765 38.6208C371.307 38.1729 371.671 37.5115 371.859 36.6365ZM374.771 40.3083V29.824H376.052V40.3083H374.771ZM378.059 31.2927V29.824H379.356V31.2927H378.059ZM378.059 40.3083V32.7146H379.356V40.3083H378.059ZM386.518 37.8552L387.846 38.0271C387.638 38.8083 387.247 39.4125 386.674 39.8396C386.112 40.2667 385.388 40.4802 384.502 40.4802C383.388 40.4802 382.502 40.1417 381.846 39.4646C381.2 38.7771 380.877 37.8136 380.877 36.574C380.877 35.2927 381.205 34.3031 381.862 33.6052C382.528 32.8969 383.388 32.5427 384.44 32.5427C385.45 32.5427 386.278 32.8865 386.924 33.574C387.57 34.2615 387.893 35.2354 387.893 36.4958C387.893 36.5688 387.888 36.6833 387.877 36.8396H382.221C382.263 37.6729 382.497 38.3136 382.924 38.7615C383.351 39.199 383.883 39.4177 384.518 39.4177C384.987 39.4177 385.388 39.2979 385.721 39.0583C386.054 38.8083 386.32 38.4073 386.518 37.8552ZM382.284 35.7771H386.534C386.471 35.1417 386.31 34.6625 386.049 34.3396C385.633 33.8396 385.096 33.5896 384.44 33.5896C383.856 33.5896 383.362 33.7875 382.955 34.1833C382.549 34.5792 382.325 35.1104 382.284 35.7771ZM389.466 40.3083V32.7146H390.622V33.7927C391.185 32.9594 391.992 32.5427 393.044 32.5427C393.502 32.5427 393.924 32.6261 394.31 32.7927C394.695 32.949 394.982 33.1625 395.169 33.4333C395.357 33.7042 395.492 34.0219 395.575 34.3865C395.617 34.6261 395.638 35.0427 395.638 35.6365V40.3083H394.357V35.6833C394.357 35.1625 394.304 34.7719 394.2 34.5115C394.096 34.2511 393.914 34.0427 393.653 33.8865C393.403 33.7302 393.107 33.6521 392.763 33.6521C392.221 33.6521 391.747 33.8292 391.341 34.1833C390.945 34.5271 390.747 35.1833 390.747 36.1521V40.3083H389.466ZM400.43 39.1521L400.617 40.2927C400.252 40.3656 399.924 40.4021 399.633 40.4021C399.174 40.4021 398.815 40.3292 398.555 40.1833C398.294 40.0375 398.112 39.8448 398.008 39.6052C397.903 39.3656 397.851 38.8604 397.851 38.0896V33.7146H396.898V32.7146H397.851V30.824L399.133 30.0583V32.7146H400.43V33.7146H399.133V38.1521C399.133 38.5167 399.153 38.7563 399.195 38.8708C399.247 38.975 399.32 39.0583 399.414 39.1208C399.518 39.1729 399.669 39.199 399.867 39.199C400.002 39.199 400.19 39.1833 400.43 39.1521ZM405.448 36.9333L406.761 36.824C406.823 37.3448 406.964 37.7771 407.183 38.1208C407.412 38.4542 407.766 38.725 408.245 38.9333C408.725 39.1417 409.261 39.2458 409.855 39.2458C410.386 39.2458 410.855 39.1677 411.261 39.0115C411.667 38.8552 411.969 38.6417 412.167 38.3708C412.365 38.0896 412.464 37.7875 412.464 37.4646C412.464 37.1313 412.365 36.8448 412.167 36.6052C411.98 36.3552 411.667 36.1469 411.23 35.9802C410.948 35.8656 410.323 35.6938 409.355 35.4646C408.396 35.2354 407.725 35.0167 407.339 34.8083C406.839 34.5479 406.464 34.225 406.214 33.8396C405.975 33.4438 405.855 33.0063 405.855 32.5271C405.855 31.9958 406.001 31.5011 406.292 31.0427C406.594 30.5844 407.032 30.2354 407.605 29.9958C408.188 29.7563 408.834 29.6365 409.542 29.6365C410.323 29.6365 411.011 29.7615 411.605 30.0115C412.198 30.2615 412.652 30.6313 412.964 31.1208C413.287 31.6104 413.459 32.1625 413.48 32.7771L412.152 32.8708C412.079 32.2042 411.834 31.7042 411.417 31.3708C411.011 31.0271 410.407 30.8552 409.605 30.8552C408.761 30.8552 408.146 31.0115 407.761 31.324C407.376 31.6365 407.183 32.0063 407.183 32.4333C407.183 32.8083 407.323 33.1208 407.605 33.3708C407.865 33.6104 408.558 33.8604 409.683 34.1208C410.818 34.3708 411.594 34.5896 412.011 34.7771C412.626 35.0583 413.079 35.4177 413.37 35.8552C413.662 36.2823 413.808 36.7771 413.808 37.3396C413.808 37.9021 413.646 38.4333 413.323 38.9333C413.001 39.4229 412.537 39.8031 411.933 40.074C411.339 40.3448 410.667 40.4802 409.917 40.4802C408.969 40.4802 408.172 40.3448 407.527 40.074C406.891 39.7927 406.391 39.3761 406.027 38.824C405.662 38.2719 405.469 37.6417 405.448 36.9333ZM415.537 31.2927V29.824H416.833V31.2927H415.537ZM415.537 40.3083V32.7146H416.833V40.3083H415.537ZM423.715 40.3083V39.3552C423.235 40.1052 422.527 40.4802 421.59 40.4802C420.985 40.4802 420.428 40.3136 419.918 39.9802C419.418 39.6469 419.027 39.1833 418.746 38.5896C418.465 37.9854 418.324 37.2927 418.324 36.5115C418.324 35.7511 418.449 35.0636 418.699 34.449C418.959 33.8344 419.34 33.3656 419.84 33.0427C420.35 32.7094 420.918 32.5427 421.543 32.5427C422.001 32.5427 422.407 32.6417 422.761 32.8396C423.116 33.0271 423.407 33.2719 423.636 33.574V29.824H424.918V40.3083H423.715ZM419.652 36.5115C419.652 37.4906 419.855 38.2198 420.261 38.699C420.678 39.1781 421.163 39.4177 421.715 39.4177C422.277 39.4177 422.756 39.1886 423.152 38.7302C423.548 38.2719 423.746 37.5688 423.746 36.6208C423.746 35.5792 423.543 34.8188 423.136 34.3396C422.741 33.85 422.246 33.6052 421.652 33.6052C421.09 33.6052 420.616 33.8396 420.23 34.3083C419.845 34.7771 419.652 35.5115 419.652 36.5115ZM432.147 37.8552L433.475 38.0271C433.267 38.8083 432.876 39.4125 432.303 39.8396C431.741 40.2667 431.017 40.4802 430.131 40.4802C429.017 40.4802 428.131 40.1417 427.475 39.4646C426.829 38.7771 426.506 37.8136 426.506 36.574C426.506 35.2927 426.834 34.3031 427.491 33.6052C428.157 32.8969 429.017 32.5427 430.069 32.5427C431.079 32.5427 431.907 32.8865 432.553 33.574C433.199 34.2615 433.522 35.2354 433.522 36.4958C433.522 36.5688 433.517 36.6833 433.506 36.8396H427.85C427.892 37.6729 428.126 38.3136 428.553 38.7615C428.98 39.199 429.512 39.4177 430.147 39.4177C430.616 39.4177 431.017 39.2979 431.35 39.0583C431.683 38.8083 431.949 38.4073 432.147 37.8552ZM427.913 35.7771H432.163C432.1 35.1417 431.939 34.6625 431.678 34.3396C431.262 33.8396 430.725 33.5896 430.069 33.5896C429.486 33.5896 428.991 33.7875 428.584 34.1833C428.178 34.5792 427.954 35.1104 427.913 35.7771Z" fill="black"/>
<path d="M476.357 36.6365L477.748 36.9802C477.456 38.1156 476.93 38.9854 476.17 39.5896C475.42 40.1833 474.498 40.4802 473.404 40.4802C472.279 40.4802 471.363 40.2511 470.654 39.7927C469.946 39.3344 469.404 38.6677 469.029 37.7927C468.665 36.9177 468.482 35.9802 468.482 34.9802C468.482 33.8865 468.691 32.9333 469.107 32.1208C469.524 31.3083 470.118 30.6938 470.889 30.2771C471.66 29.85 472.508 29.6365 473.436 29.6365C474.477 29.6365 475.357 29.9073 476.076 30.449C476.795 30.9802 477.295 31.7302 477.576 32.699L476.201 33.0115C475.962 32.2511 475.607 31.699 475.139 31.3552C474.68 31.0011 474.102 30.824 473.404 30.824C472.592 30.824 471.915 31.0167 471.373 31.4021C470.831 31.7875 470.451 32.3083 470.232 32.9646C470.014 33.6104 469.904 34.2823 469.904 34.9802C469.904 35.8656 470.035 36.6417 470.295 37.3083C470.555 37.975 470.962 38.475 471.514 38.8083C472.066 39.1313 472.66 39.2927 473.295 39.2927C474.076 39.2927 474.732 39.0688 475.264 38.6208C475.805 38.1729 476.17 37.5115 476.357 36.6365ZM484.504 37.8552L485.832 38.0271C485.624 38.8083 485.233 39.4125 484.66 39.8396C484.098 40.2667 483.374 40.4802 482.489 40.4802C481.374 40.4802 480.489 40.1417 479.832 39.4646C479.187 38.7771 478.864 37.8136 478.864 36.574C478.864 35.2927 479.192 34.3031 479.848 33.6052C480.515 32.8969 481.374 32.5427 482.426 32.5427C483.437 32.5427 484.265 32.8865 484.91 33.574C485.556 34.2615 485.879 35.2354 485.879 36.4958C485.879 36.5688 485.874 36.6833 485.864 36.8396H480.207C480.249 37.6729 480.483 38.3136 480.91 38.7615C481.338 39.199 481.869 39.4177 482.504 39.4177C482.973 39.4177 483.374 39.2979 483.707 39.0583C484.041 38.8083 484.306 38.4073 484.504 37.8552ZM480.27 35.7771H484.52C484.457 35.1417 484.296 34.6625 484.035 34.3396C483.619 33.8396 483.082 33.5896 482.426 33.5896C481.843 33.5896 481.348 33.7875 480.942 34.1833C480.535 34.5792 480.312 35.1104 480.27 35.7771ZM487.437 40.3083V32.7146H488.593V33.8552C488.895 33.324 489.171 32.975 489.421 32.8083C489.671 32.6313 489.942 32.5427 490.233 32.5427C490.671 32.5427 491.114 32.6781 491.562 32.949L491.124 34.1521C490.812 33.9646 490.494 33.8708 490.171 33.8708C489.89 33.8708 489.635 33.9542 489.405 34.1208C489.187 34.2875 489.03 34.5219 488.937 34.824C488.791 35.2823 488.718 35.7823 488.718 36.324V40.3083H487.437ZM495.145 39.1521L495.333 40.2927C494.968 40.3656 494.64 40.4021 494.348 40.4021C493.89 40.4021 493.531 40.3292 493.27 40.1833C493.01 40.0375 492.828 39.8448 492.723 39.6052C492.619 39.3656 492.567 38.8604 492.567 38.0896V33.7146H491.614V32.7146H492.567V30.824L493.848 30.0583V32.7146H495.145V33.7146H493.848V38.1521C493.848 38.5167 493.869 38.7563 493.911 38.8708C493.963 38.975 494.036 39.0583 494.13 39.1208C494.234 39.1729 494.385 39.199 494.583 39.199C494.718 39.199 494.906 39.1833 495.145 39.1521ZM496.405 31.2927V29.824H497.702V31.2927H496.405ZM496.405 40.3083V32.7146H497.702V40.3083H496.405ZM499.973 40.3083V33.7146H498.833V32.7146H499.973V31.9021C499.973 31.3917 500.015 31.0115 500.098 30.7615C500.223 30.4281 500.442 30.1573 500.755 29.949C501.067 29.7406 501.505 29.6365 502.067 29.6365C502.432 29.6365 502.833 29.6781 503.27 29.7615L503.083 30.8865C502.812 30.8448 502.557 30.824 502.317 30.824C501.932 30.824 501.656 30.9073 501.489 31.074C501.333 31.2406 501.255 31.5531 501.255 32.0115V32.7146H502.723V33.7146H501.255V40.3083H499.973ZM508.686 39.3708C508.207 39.7771 507.749 40.0636 507.311 40.2302C506.874 40.3969 506.4 40.4802 505.889 40.4802C505.056 40.4802 504.415 40.2771 503.967 39.8708C503.519 39.4646 503.295 38.9438 503.295 38.3083C503.295 37.9333 503.379 37.5948 503.545 37.2927C503.712 36.9802 503.931 36.7302 504.202 36.5427C504.483 36.3552 504.795 36.2146 505.139 36.1208C505.389 36.0583 505.769 35.9958 506.28 35.9333C507.321 35.8083 508.087 35.6573 508.577 35.4802C508.587 35.3031 508.592 35.1938 508.592 35.1521C508.592 34.6208 508.467 34.2511 508.217 34.0427C507.894 33.7511 507.41 33.6052 506.764 33.6052C506.15 33.6052 505.696 33.7146 505.405 33.9333C505.124 34.1417 504.915 34.5115 504.78 35.0427L503.514 34.8708C503.629 34.3396 503.816 33.9073 504.077 33.574C504.337 33.2406 504.717 32.9854 505.217 32.8083C505.717 32.6313 506.29 32.5427 506.936 32.5427C507.592 32.5427 508.124 32.6208 508.53 32.7771C508.936 32.9229 509.233 33.1104 509.42 33.3396C509.608 33.5688 509.743 33.8604 509.827 34.2146C509.868 34.4333 509.889 34.8292 509.889 35.4021V37.1208C509.889 38.3188 509.915 39.0792 509.967 39.4021C510.019 39.7146 510.129 40.0167 510.295 40.3083H508.952C508.816 40.0375 508.728 39.725 508.686 39.3708ZM508.577 36.4958C508.108 36.6833 507.41 36.8448 506.483 36.9802C505.952 37.0531 505.577 37.1417 505.358 37.2458C505.139 37.3396 504.967 37.4802 504.842 37.6677C504.728 37.8448 504.67 38.0427 504.67 38.2615C504.67 38.6052 504.801 38.8917 505.061 39.1208C505.321 39.35 505.702 39.4646 506.202 39.4646C506.691 39.4646 507.129 39.3604 507.514 39.1521C507.91 38.9333 508.196 38.6365 508.374 38.2615C508.509 37.9698 508.577 37.5375 508.577 36.9646V36.4958ZM516.837 37.5271L518.103 37.6833C517.967 38.5583 517.613 39.2458 517.04 39.7458C516.478 40.2354 515.78 40.4802 514.947 40.4802C513.905 40.4802 513.066 40.1417 512.431 39.4646C511.806 38.7771 511.493 37.8031 511.493 36.5427C511.493 35.7198 511.629 35.0011 511.9 34.3865C512.17 33.7719 512.582 33.3136 513.134 33.0115C513.697 32.699 514.301 32.5427 514.947 32.5427C515.78 32.5427 516.457 32.7511 516.978 33.1677C517.499 33.5844 517.837 34.1729 517.993 34.9333L516.728 35.1365C516.613 34.6261 516.405 34.2406 516.103 33.9802C515.801 33.7198 515.436 33.5896 515.009 33.5896C514.353 33.5896 513.822 33.824 513.415 34.2927C513.009 34.7615 512.806 35.4958 512.806 36.4958C512.806 37.5167 512.999 38.2615 513.384 38.7302C513.78 39.1886 514.295 39.4177 514.931 39.4177C515.431 39.4177 515.853 39.2667 516.197 38.9646C516.54 38.6521 516.754 38.1729 516.837 37.5271ZM522.025 39.1521L522.212 40.2927C521.848 40.3656 521.519 40.4021 521.228 40.4021C520.769 40.4021 520.41 40.3292 520.15 40.1833C519.889 40.0375 519.707 39.8448 519.603 39.6052C519.499 39.3656 519.447 38.8604 519.447 38.0896V33.7146H518.493V32.7146H519.447V30.824L520.728 30.0583V32.7146H522.025V33.7146H520.728V38.1521C520.728 38.5167 520.749 38.7563 520.79 38.8708C520.842 38.975 520.915 39.0583 521.009 39.1208C521.113 39.1729 521.264 39.199 521.462 39.199C521.598 39.199 521.785 39.1833 522.025 39.1521ZM523.284 31.2927V29.824H524.581V31.2927H523.284ZM523.284 40.3083V32.7146H524.581V40.3083H523.284ZM526.056 36.5115C526.056 35.1052 526.447 34.0636 527.228 33.3865C527.884 32.824 528.681 32.5427 529.618 32.5427C530.67 32.5427 531.525 32.8865 532.181 33.574C532.848 34.2511 533.181 35.1938 533.181 36.4021C533.181 37.3813 533.035 38.1521 532.743 38.7146C532.452 39.2667 532.025 39.699 531.462 40.0115C530.9 40.324 530.285 40.4802 529.618 40.4802C528.556 40.4802 527.697 40.1417 527.04 39.4646C526.384 38.7771 526.056 37.7927 526.056 36.5115ZM527.384 36.5115C527.384 37.4802 527.592 38.2094 528.009 38.699C528.436 39.1781 528.973 39.4177 529.618 39.4177C530.264 39.4177 530.795 39.1781 531.212 38.699C531.639 38.2094 531.853 37.4646 531.853 36.4646C531.853 35.5271 531.639 34.8188 531.212 34.3396C530.785 33.85 530.254 33.6052 529.618 33.6052C528.973 33.6052 528.436 33.8448 528.009 34.324C527.592 34.8031 527.384 35.5323 527.384 36.5115ZM534.691 40.3083V32.7146H535.848V33.7927C536.41 32.9594 537.217 32.5427 538.27 32.5427C538.728 32.5427 539.15 32.6261 539.535 32.7927C539.921 32.949 540.207 33.1625 540.395 33.4333C540.582 33.7042 540.717 34.0219 540.801 34.3865C540.842 34.6261 540.863 35.0427 540.863 35.6365V40.3083H539.582V35.6833C539.582 35.1625 539.53 34.7719 539.426 34.5115C539.322 34.2511 539.139 34.0427 538.879 33.8865C538.629 33.7302 538.332 33.6521 537.988 33.6521C537.447 33.6521 536.973 33.8292 536.566 34.1833C536.171 34.5271 535.973 35.1833 535.973 36.1521V40.3083H534.691ZM545.121 40.3083L549.136 29.824H550.636L554.933 40.3083H553.355L552.121 37.1365H547.746L546.59 40.3083H545.121ZM548.136 35.9958H551.699L550.605 33.0896C550.272 32.2146 550.022 31.4906 549.855 30.9177C549.72 31.5948 549.532 32.2615 549.293 32.9177L548.136 35.9958ZM556.037 40.3083V29.824H560.006C560.704 29.824 561.235 29.8552 561.6 29.9177C562.11 30.0011 562.537 30.1625 562.881 30.4021C563.235 30.6417 563.516 30.9802 563.725 31.4177C563.943 31.8552 564.053 32.3344 564.053 32.8552C564.053 33.7406 563.766 34.4958 563.193 35.1208C562.631 35.7354 561.605 36.0427 560.115 36.0427H557.428V40.3083H556.037ZM557.428 34.8083H560.146C561.042 34.8083 561.678 34.6417 562.053 34.3083C562.428 33.975 562.615 33.5063 562.615 32.9021C562.615 32.4542 562.506 32.074 562.287 31.7615C562.068 31.449 561.777 31.2458 561.412 31.1521C561.173 31.0896 560.74 31.0583 560.115 31.0583H557.428V34.8083ZM566.047 40.3083V29.824H567.438V40.3083H566.047Z" fill="black"/>
<g filter="url(#filter2_f_1_711)">
<path fill-rule="evenodd" clip-rule="evenodd" d="M55.5566 125.719H162.045V330.349H55.5566V125.719Z" fill="white"/>
<path fill-rule="evenodd" clip-rule="evenodd" d="M55.5566 125.719H162.045V330.349H55.5566V125.719Z" stroke="#44546A" stroke-miterlimit="10" stroke-linejoin="round"/>
<path d="M98.6748 220.442L100.065 220.786C99.7738 221.921 99.2477 222.791 98.4873 223.395C97.7373 223.989 96.8154 224.286 95.7217 224.286C94.5967 224.286 93.68 224.057 92.9717 223.599C92.2633 223.14 91.7217 222.474 91.3467 221.599C90.9821 220.724 90.7998 219.786 90.7998 218.786C90.7998 217.692 91.0081 216.739 91.4248 215.927C91.8415 215.114 92.4352 214.5 93.2061 214.083C93.9769 213.656 94.8258 213.442 95.7529 213.442C96.7946 213.442 97.6748 213.713 98.3936 214.255C99.1123 214.786 99.6123 215.536 99.8936 216.505L98.5186 216.817C98.279 216.057 97.9248 215.505 97.4561 215.161C96.9977 214.807 96.4196 214.63 95.7217 214.63C94.9092 214.63 94.2321 214.822 93.6904 215.208C93.1488 215.593 92.7686 216.114 92.5498 216.77C92.3311 217.416 92.2217 218.088 92.2217 218.786C92.2217 219.671 92.3519 220.447 92.6123 221.114C92.8727 221.781 93.279 222.281 93.8311 222.614C94.3831 222.937 94.9769 223.099 95.6123 223.099C96.3936 223.099 97.0498 222.875 97.5811 222.427C98.1227 221.979 98.4873 221.317 98.6748 220.442ZM101.587 224.114V213.63H102.868V224.114H101.587ZM104.875 215.099V213.63H106.171V215.099H104.875ZM104.875 224.114V216.52H106.171V224.114H104.875ZM113.334 221.661L114.662 221.833C114.454 222.614 114.063 223.218 113.49 223.645C112.928 224.072 112.204 224.286 111.318 224.286C110.204 224.286 109.318 223.947 108.662 223.27C108.016 222.583 107.693 221.619 107.693 220.38C107.693 219.099 108.021 218.109 108.678 217.411C109.344 216.703 110.204 216.349 111.256 216.349C112.266 216.349 113.094 216.692 113.74 217.38C114.386 218.067 114.709 219.041 114.709 220.302C114.709 220.375 114.704 220.489 114.693 220.645H109.037C109.079 221.479 109.313 222.119 109.74 222.567C110.167 223.005 110.698 223.224 111.334 223.224C111.803 223.224 112.204 223.104 112.537 222.864C112.87 222.614 113.136 222.213 113.334 221.661ZM109.1 219.583H113.35C113.287 218.947 113.126 218.468 112.865 218.145C112.448 217.645 111.912 217.395 111.256 217.395C110.672 217.395 110.178 217.593 109.771 217.989C109.365 218.385 109.141 218.916 109.1 219.583ZM116.282 224.114V216.52H117.438V217.599C118.001 216.765 118.808 216.349 119.86 216.349C120.318 216.349 120.74 216.432 121.126 216.599C121.511 216.755 121.797 216.968 121.985 217.239C122.172 217.51 122.308 217.828 122.391 218.192C122.433 218.432 122.454 218.849 122.454 219.442V224.114H121.172V219.489C121.172 218.968 121.12 218.578 121.016 218.317C120.912 218.057 120.73 217.849 120.469 217.692C120.219 217.536 119.922 217.458 119.579 217.458C119.037 217.458 118.563 217.635 118.157 217.989C117.761 218.333 117.563 218.989 117.563 219.958V224.114H116.282ZM127.245 222.958L127.433 224.099C127.068 224.171 126.74 224.208 126.449 224.208C125.99 224.208 125.631 224.135 125.37 223.989C125.11 223.843 124.928 223.651 124.824 223.411C124.719 223.171 124.667 222.666 124.667 221.895V217.52H123.714V216.52H124.667V214.63L125.949 213.864V216.52H127.245V217.52H125.949V221.958C125.949 222.322 125.969 222.562 126.011 222.677C126.063 222.781 126.136 222.864 126.23 222.927C126.334 222.979 126.485 223.005 126.683 223.005C126.818 223.005 127.006 222.989 127.245 222.958Z" fill="black"/>
<path d="M85.0215 238.739L86.334 238.63C86.3965 239.151 86.5371 239.583 86.7559 239.927C86.985 240.26 87.3392 240.531 87.8184 240.739C88.2975 240.947 88.834 241.052 89.4277 241.052C89.959 241.052 90.4277 240.974 90.834 240.817C91.2402 240.661 91.5423 240.447 91.7402 240.177C91.9382 239.895 92.0371 239.593 92.0371 239.27C92.0371 238.937 91.9382 238.651 91.7402 238.411C91.5527 238.161 91.2402 237.953 90.8027 237.786C90.5215 237.671 89.8965 237.5 88.9277 237.27C87.9694 237.041 87.2975 236.822 86.9121 236.614C86.4121 236.354 86.0371 236.031 85.7871 235.645C85.5475 235.25 85.4277 234.812 85.4277 234.333C85.4277 233.802 85.5736 233.307 85.8652 232.849C86.1673 232.39 86.6048 232.041 87.1777 231.802C87.7611 231.562 88.4069 231.442 89.1152 231.442C89.8965 231.442 90.584 231.567 91.1777 231.817C91.7715 232.067 92.2246 232.437 92.5371 232.927C92.86 233.416 93.0319 233.968 93.0527 234.583L91.7246 234.677C91.6517 234.01 91.4069 233.51 90.9902 233.177C90.584 232.833 89.9798 232.661 89.1777 232.661C88.334 232.661 87.7194 232.817 87.334 233.13C86.9486 233.442 86.7559 233.812 86.7559 234.239C86.7559 234.614 86.8965 234.927 87.1777 235.177C87.4382 235.416 88.1309 235.666 89.2559 235.927C90.3913 236.177 91.1673 236.395 91.584 236.583C92.1986 236.864 92.6517 237.224 92.9434 237.661C93.235 238.088 93.3809 238.583 93.3809 239.145C93.3809 239.708 93.2194 240.239 92.8965 240.739C92.5736 241.229 92.11 241.609 91.5059 241.88C90.9121 242.151 90.2402 242.286 89.4902 242.286C88.5423 242.286 87.7454 242.151 87.0996 241.88C86.4642 241.599 85.9642 241.182 85.5996 240.63C85.235 240.078 85.0423 239.447 85.0215 238.739ZM100.313 239.661L101.641 239.833C101.433 240.614 101.042 241.218 100.469 241.645C99.9065 242.072 99.1825 242.286 98.2971 242.286C97.1825 242.286 96.2971 241.947 95.6408 241.27C94.995 240.583 94.6721 239.619 94.6721 238.38C94.6721 237.099 95.0002 236.109 95.6565 235.411C96.3231 234.703 97.1825 234.349 98.2346 234.349C99.245 234.349 100.073 234.692 100.719 235.38C101.365 236.067 101.688 237.041 101.688 238.302C101.688 238.375 101.683 238.489 101.672 238.645H96.0158C96.0575 239.479 96.2919 240.119 96.719 240.567C97.146 241.005 97.6773 241.224 98.3127 241.224C98.7815 241.224 99.1825 241.104 99.5158 240.864C99.8492 240.614 100.115 240.213 100.313 239.661ZM96.0783 237.583H100.328C100.266 236.947 100.104 236.468 99.844 236.145C99.4273 235.645 98.8908 235.395 98.2346 235.395C97.6513 235.395 97.1565 235.593 96.7502 235.989C96.344 236.385 96.12 236.916 96.0783 237.583ZM103.245 242.114V234.52H104.401V235.661C104.703 235.13 104.979 234.781 105.229 234.614C105.479 234.437 105.75 234.349 106.042 234.349C106.479 234.349 106.922 234.484 107.37 234.755L106.933 235.958C106.62 235.77 106.302 235.677 105.979 235.677C105.698 235.677 105.443 235.76 105.214 235.927C104.995 236.093 104.839 236.328 104.745 236.63C104.599 237.088 104.526 237.588 104.526 238.13V242.114H103.245ZM110.251 242.114L107.36 234.52H108.719L110.344 239.067C110.522 239.557 110.688 240.067 110.844 240.599C110.949 240.192 111.105 239.708 111.313 239.145L113.001 234.52H114.329L111.454 242.114H110.251ZM115.469 233.099V231.63H116.766V233.099H115.469ZM115.469 242.114V234.52H116.766V242.114H115.469ZM123.679 239.333L124.944 239.489C124.809 240.364 124.455 241.052 123.882 241.552C123.319 242.041 122.621 242.286 121.788 242.286C120.746 242.286 119.908 241.947 119.272 241.27C118.647 240.583 118.335 239.609 118.335 238.349C118.335 237.526 118.47 236.807 118.741 236.192C119.012 235.578 119.424 235.119 119.976 234.817C120.538 234.505 121.142 234.349 121.788 234.349C122.621 234.349 123.299 234.557 123.819 234.974C124.34 235.39 124.679 235.979 124.835 236.739L123.569 236.942C123.455 236.432 123.246 236.046 122.944 235.786C122.642 235.526 122.278 235.395 121.851 235.395C121.194 235.395 120.663 235.63 120.257 236.099C119.851 236.567 119.647 237.302 119.647 238.302C119.647 239.322 119.84 240.067 120.226 240.536C120.621 240.994 121.137 241.224 121.772 241.224C122.272 241.224 122.694 241.072 123.038 240.77C123.382 240.458 123.595 239.979 123.679 239.333ZM131.257 239.661L132.585 239.833C132.377 240.614 131.986 241.218 131.413 241.645C130.851 242.072 130.127 242.286 129.241 242.286C128.127 242.286 127.241 241.947 126.585 241.27C125.939 240.583 125.616 239.619 125.616 238.38C125.616 237.099 125.944 236.109 126.601 235.411C127.267 234.703 128.127 234.349 129.179 234.349C130.189 234.349 131.017 234.692 131.663 235.38C132.309 236.067 132.632 237.041 132.632 238.302C132.632 238.375 132.627 238.489 132.616 238.645H126.96C127.002 239.479 127.236 240.119 127.663 240.567C128.09 241.005 128.621 241.224 129.257 241.224C129.726 241.224 130.127 241.104 130.46 240.864C130.793 240.614 131.059 240.213 131.257 239.661ZM127.022 237.583H131.272C131.21 236.947 131.049 236.468 130.788 236.145C130.371 235.645 129.835 235.395 129.179 235.395C128.595 235.395 128.101 235.593 127.694 235.989C127.288 236.385 127.064 236.916 127.022 237.583Z" fill="black"/>
</g>
<path fill-rule="evenodd" clip-rule="evenodd" d="M55.5566 123.719H162.045V328.349H55.5566V123.719Z" fill="white"/>
<path fill-rule="evenodd" clip-rule="evenodd" d="M55.5566 123.719H162.045V328.349H55.5566V123.719Z" stroke="#44546A" stroke-miterlimit="10" stroke-linejoin="round"/>
<path d="M98.6748 218.442L100.065 218.786C99.7738 219.921 99.2477 220.791 98.4873 221.395C97.7373 221.989 96.8154 222.286 95.7217 222.286C94.5967 222.286 93.68 222.057 92.9717 221.599C92.2633 221.14 91.7217 220.474 91.3467 219.599C90.9821 218.724 90.7998 217.786 90.7998 216.786C90.7998 215.692 91.0081 214.739 91.4248 213.927C91.8415 213.114 92.4352 212.5 93.2061 212.083C93.9769 211.656 94.8258 211.442 95.7529 211.442C96.7946 211.442 97.6748 211.713 98.3936 212.255C99.1123 212.786 99.6123 213.536 99.8936 214.505L98.5186 214.817C98.279 214.057 97.9248 213.505 97.4561 213.161C96.9977 212.807 96.4196 212.63 95.7217 212.63C94.9092 212.63 94.2321 212.822 93.6904 213.208C93.1488 213.593 92.7686 214.114 92.5498 214.77C92.3311 215.416 92.2217 216.088 92.2217 216.786C92.2217 217.671 92.3519 218.447 92.6123 219.114C92.8727 219.781 93.279 220.281 93.8311 220.614C94.3831 220.937 94.9769 221.099 95.6123 221.099C96.3936 221.099 97.0498 220.875 97.5811 220.427C98.1227 219.979 98.4873 219.317 98.6748 218.442ZM101.587 222.114V211.63H102.868V222.114H101.587ZM104.875 213.099V211.63H106.171V213.099H104.875ZM104.875 222.114V214.52H106.171V222.114H104.875ZM113.334 219.661L114.662 219.833C114.454 220.614 114.063 221.218 113.49 221.645C112.928 222.072 112.204 222.286 111.318 222.286C110.204 222.286 109.318 221.947 108.662 221.27C108.016 220.583 107.693 219.619 107.693 218.38C107.693 217.099 108.021 216.109 108.678 215.411C109.344 214.703 110.204 214.349 111.256 214.349C112.266 214.349 113.094 214.692 113.74 215.38C114.386 216.067 114.709 217.041 114.709 218.302C114.709 218.375 114.704 218.489 114.693 218.645H109.037C109.079 219.479 109.313 220.119 109.74 220.567C110.167 221.005 110.698 221.224 111.334 221.224C111.803 221.224 112.204 221.104 112.537 220.864C112.87 220.614 113.136 220.213 113.334 219.661ZM109.1 217.583H113.35C113.287 216.947 113.126 216.468 112.865 216.145C112.448 215.645 111.912 215.395 111.256 215.395C110.672 215.395 110.178 215.593 109.771 215.989C109.365 216.385 109.141 216.916 109.1 217.583ZM116.282 222.114V214.52H117.438V215.599C118.001 214.765 118.808 214.349 119.86 214.349C120.318 214.349 120.74 214.432 121.126 214.599C121.511 214.755 121.797 214.968 121.985 215.239C122.172 215.51 122.308 215.828 122.391 216.192C122.433 216.432 122.454 216.849 122.454 217.442V222.114H121.172V217.489C121.172 216.968 121.12 216.578 121.016 216.317C120.912 216.057 120.73 215.849 120.469 215.692C120.219 215.536 119.922 215.458 119.579 215.458C119.037 215.458 118.563 215.635 118.157 215.989C117.761 216.333 117.563 216.989 117.563 217.958V222.114H116.282ZM127.245 220.958L127.433 222.099C127.068 222.171 126.74 222.208 126.449 222.208C125.99 222.208 125.631 222.135 125.37 221.989C125.11 221.843 124.928 221.651 124.824 221.411C124.719 221.171 124.667 220.666 124.667 219.895V215.52H123.714V214.52H124.667V212.63L125.949 211.864V214.52H127.245V215.52H125.949V219.958C125.949 220.322 125.969 220.562 126.011 220.677C126.063 220.781 126.136 220.864 126.23 220.927C126.334 220.979 126.485 221.005 126.683 221.005C126.818 221.005 127.006 220.989 127.245 220.958Z" fill="black"/>
<path d="M85.0215 236.739L86.334 236.63C86.3965 237.151 86.5371 237.583 86.7559 237.927C86.985 238.26 87.3392 238.531 87.8184 238.739C88.2975 238.947 88.834 239.052 89.4277 239.052C89.959 239.052 90.4277 238.974 90.834 238.817C91.2402 238.661 91.5423 238.447 91.7402 238.177C91.9382 237.895 92.0371 237.593 92.0371 237.27C92.0371 236.937 91.9382 236.651 91.7402 236.411C91.5527 236.161 91.2402 235.953 90.8027 235.786C90.5215 235.671 89.8965 235.5 88.9277 235.27C87.9694 235.041 87.2975 234.822 86.9121 234.614C86.4121 234.354 86.0371 234.031 85.7871 233.645C85.5475 233.25 85.4277 232.812 85.4277 232.333C85.4277 231.802 85.5736 231.307 85.8652 230.849C86.1673 230.39 86.6048 230.041 87.1777 229.802C87.7611 229.562 88.4069 229.442 89.1152 229.442C89.8965 229.442 90.584 229.567 91.1777 229.817C91.7715 230.067 92.2246 230.437 92.5371 230.927C92.86 231.416 93.0319 231.968 93.0527 232.583L91.7246 232.677C91.6517 232.01 91.4069 231.51 90.9902 231.177C90.584 230.833 89.9798 230.661 89.1777 230.661C88.334 230.661 87.7194 230.817 87.334 231.13C86.9486 231.442 86.7559 231.812 86.7559 232.239C86.7559 232.614 86.8965 232.927 87.1777 233.177C87.4382 233.416 88.1309 233.666 89.2559 233.927C90.3913 234.177 91.1673 234.395 91.584 234.583C92.1986 234.864 92.6517 235.224 92.9434 235.661C93.235 236.088 93.3809 236.583 93.3809 237.145C93.3809 237.708 93.2194 238.239 92.8965 238.739C92.5736 239.229 92.11 239.609 91.5059 239.88C90.9121 240.151 90.2402 240.286 89.4902 240.286C88.5423 240.286 87.7454 240.151 87.0996 239.88C86.4642 239.599 85.9642 239.182 85.5996 238.63C85.235 238.078 85.0423 237.447 85.0215 236.739ZM100.313 237.661L101.641 237.833C101.433 238.614 101.042 239.218 100.469 239.645C99.9065 240.072 99.1825 240.286 98.2971 240.286C97.1825 240.286 96.2971 239.947 95.6408 239.27C94.995 238.583 94.6721 237.619 94.6721 236.38C94.6721 235.099 95.0002 234.109 95.6565 233.411C96.3231 232.703 97.1825 232.349 98.2346 232.349C99.245 232.349 100.073 232.692 100.719 233.38C101.365 234.067 101.688 235.041 101.688 236.302C101.688 236.375 101.683 236.489 101.672 236.645H96.0158C96.0575 237.479 96.2919 238.119 96.719 238.567C97.146 239.005 97.6773 239.224 98.3127 239.224C98.7815 239.224 99.1825 239.104 99.5158 238.864C99.8492 238.614 100.115 238.213 100.313 237.661ZM96.0783 235.583H100.328C100.266 234.947 100.104 234.468 99.844 234.145C99.4273 233.645 98.8908 233.395 98.2346 233.395C97.6513 233.395 97.1565 233.593 96.7502 233.989C96.344 234.385 96.12 234.916 96.0783 235.583ZM103.245 240.114V232.52H104.401V233.661C104.703 233.13 104.979 232.781 105.229 232.614C105.479 232.437 105.75 232.349 106.042 232.349C106.479 232.349 106.922 232.484 107.37 232.755L106.933 233.958C106.62 233.77 106.302 233.677 105.979 233.677C105.698 233.677 105.443 233.76 105.214 233.927C104.995 234.093 104.839 234.328 104.745 234.63C104.599 235.088 104.526 235.588 104.526 236.13V240.114H103.245ZM110.251 240.114L107.36 232.52H108.719L110.344 237.067C110.522 237.557 110.688 238.067 110.844 238.599C110.949 238.192 111.105 237.708 111.313 237.145L113.001 232.52H114.329L111.454 240.114H110.251ZM115.469 231.099V229.63H116.766V231.099H115.469ZM115.469 240.114V232.52H116.766V240.114H115.469ZM123.679 237.333L124.944 237.489C124.809 238.364 124.455 239.052 123.882 239.552C123.319 240.041 122.621 240.286 121.788 240.286C120.746 240.286 119.908 239.947 119.272 239.27C118.647 238.583 118.335 237.609 118.335 236.349C118.335 235.526 118.47 234.807 118.741 234.192C119.012 233.578 119.424 233.119 119.976 232.817C120.538 232.505 121.142 232.349 121.788 232.349C122.621 232.349 123.299 232.557 123.819 232.974C124.34 233.39 124.679 233.979 124.835 234.739L123.569 234.942C123.455 234.432 123.246 234.046 122.944 233.786C122.642 233.526 122.278 233.395 121.851 233.395C121.194 233.395 120.663 233.63 120.257 234.099C119.851 234.567 119.647 235.302 119.647 236.302C119.647 237.322 119.84 238.067 120.226 238.536C120.621 238.994 121.137 239.224 121.772 239.224C122.272 239.224 122.694 239.072 123.038 238.77C123.382 238.458 123.595 237.979 123.679 237.333ZM131.257 237.661L132.585 237.833C132.377 238.614 131.986 239.218 131.413 239.645C130.851 240.072 130.127 240.286 129.241 240.286C128.127 240.286 127.241 239.947 126.585 239.27C125.939 238.583 125.616 237.619 125.616 236.38C125.616 235.099 125.944 234.109 126.601 233.411C127.267 232.703 128.127 232.349 129.179 232.349C130.189 232.349 131.017 232.692 131.663 233.38C132.309 234.067 132.632 235.041 132.632 236.302C132.632 236.375 132.627 236.489 132.616 236.645H126.96C127.002 237.479 127.236 238.119 127.663 238.567C128.09 239.005 128.621 239.224 129.257 239.224C129.726 239.224 130.127 239.104 130.46 238.864C130.793 238.614 131.059 238.213 131.257 237.661ZM127.022 235.583H131.272C131.21 234.947 131.049 234.468 130.788 234.145C130.371 233.645 129.835 233.395 129.179 233.395C128.595 233.395 128.101 233.593 127.694 233.989C127.288 234.385 127.064 234.916 127.022 235.583Z" fill="black"/>
<path d="M480.564 254.47H434.422" stroke="#44546A" stroke-width="2" stroke-miterlimit="10" stroke-linejoin="round"/>
<path fill-rule="evenodd" clip-rule="evenodd" d="M434.422 251.166L425.346 254.47L434.422 257.773V251.166Z" fill="#44546A" stroke="#44546A" stroke-width="2" stroke-miterlimit="10"/>
<path d="M174.422 174.47H220.564" stroke="#44546A" stroke-width="2" stroke-miterlimit="10" stroke-linejoin="round"/>
<path fill-rule="evenodd" clip-rule="evenodd" d="M220.564 177.773L229.641 174.47L220.564 171.166V177.773Z" fill="#44546A" stroke="#44546A" stroke-width="2" stroke-miterlimit="10"/>
<path d="M232.564 206.47H186.422" stroke="#44546A" stroke-width="2" stroke-miterlimit="10" stroke-linejoin="round"/>
<path fill-rule="evenodd" clip-rule="evenodd" d="M186.422 203.166L177.346 206.47L186.422 209.773V203.166Z" fill="#44546A" stroke="#44546A" stroke-width="2" stroke-miterlimit="10"/>
<path d="M182.422 254.47H228.564" stroke="#44546A" stroke-width="2" stroke-miterlimit="10" stroke-linejoin="round"/>
<path fill-rule="evenodd" clip-rule="evenodd" d="M228.564 257.773L237.641 254.47L228.564 251.166V257.773Z" fill="#44546A" stroke="#44546A" stroke-width="2" stroke-miterlimit="10"/>
<path d="M240.564 286.47H194.422" stroke="#44546A" stroke-width="2" stroke-miterlimit="10" stroke-linejoin="round"/>
<path fill-rule="evenodd" clip-rule="evenodd" d="M194.422 283.166L185.346 286.47L194.422 289.773V283.166Z" fill="#44546A" stroke="#44546A" stroke-width="2" stroke-miterlimit="10"/>
<path d="M184.594 154.642V144.157H185.985V148.454H191.438V144.157H192.829V154.642H191.438V149.704H185.985V154.642H184.594ZM197.804 154.642V145.392H194.35V144.157H202.663V145.392H199.194V154.642H197.804ZM206.756 154.642V145.392H203.303V144.157H211.616V145.392H208.147V154.642H206.756ZM213.037 154.642V144.157H217.006C217.704 144.157 218.235 144.189 218.599 144.251C219.11 144.334 219.537 144.496 219.881 144.735C220.235 144.975 220.516 145.314 220.724 145.751C220.943 146.189 221.053 146.668 221.053 147.189C221.053 148.074 220.766 148.829 220.193 149.454C219.631 150.069 218.605 150.376 217.115 150.376H214.428V154.642H213.037ZM214.428 149.142H217.146C218.042 149.142 218.678 148.975 219.053 148.642C219.428 148.308 219.615 147.84 219.615 147.235C219.615 146.788 219.506 146.407 219.287 146.095C219.068 145.782 218.776 145.579 218.412 145.485C218.172 145.423 217.74 145.392 217.115 145.392H214.428V149.142Z" fill="black"/>
</g>
<defs>
<filter id="filter0_f_1_711" x="255.057" y="121.219" width="115.488" height="213.63" filterUnits="userSpaceOnUse" color-interpolation-filters="sRGB">
<feFlood flood-opacity="0" result="BackgroundImageFix"/>
<feBlend mode="normal" in="SourceGraphic" in2="BackgroundImageFix" result="shape"/>
<feGaussianBlur stdDeviation="2" result="effect1_foregroundBlur_1_711"/>
</filter>
<filter id="filter1_f_1_711" x="499.057" y="121.219" width="115.488" height="213.63" filterUnits="userSpaceOnUse" color-interpolation-filters="sRGB">
<feFlood flood-opacity="0" result="BackgroundImageFix"/>
<feBlend mode="normal" in="SourceGraphic" in2="BackgroundImageFix" result="shape"/>
<feGaussianBlur stdDeviation="2" result="effect1_foregroundBlur_1_711"/>
</filter>
<filter id="filter2_f_1_711" x="51.0566" y="121.219" width="115.488" height="213.63" filterUnits="userSpaceOnUse" color-interpolation-filters="sRGB">
<feFlood flood-opacity="0" result="BackgroundImageFix"/>
<feBlend mode="normal" in="SourceGraphic" in2="BackgroundImageFix" result="shape"/>
<feGaussianBlur stdDeviation="2" result="effect1_foregroundBlur_1_711"/>
</filter>
<clipPath id="clip0_1_711">
<rect width="642" height="385" fill="white"/>
</clipPath>
</defs>
</svg>
