<svg width="1139" height="385" viewBox="0 0 1139 385" fill="none" xmlns="http://www.w3.org/2000/svg">
<g clip-path="url(#clip0_1_930)">
<rect x="258" width="623" height="385" fill="white"/>
<path fill-rule="evenodd" clip-rule="evenodd" d="M280 83.631C280 72.9471 288.661 64.2861 299.345 64.2861H634.261C639.392 64.2861 644.312 66.3242 647.94 69.9521C651.568 73.58 653.606 78.5004 653.606 83.631V346.264C653.606 356.948 644.945 365.609 634.261 365.609H299.345C288.661 365.609 280 356.948 280 346.264V83.631Z" fill="#CCCCCC"/>
<path fill-rule="evenodd" clip-rule="evenodd" d="M280 83.631C280 72.9471 288.661 64.2861 299.345 64.2861H634.261C639.392 64.2861 644.312 66.3242 647.94 69.9521C651.568 73.58 653.606 78.5004 653.606 83.631V346.264C653.606 356.948 644.945 365.609 634.261 365.609H299.345C288.661 365.609 280 356.948 280 346.264V83.631Z" stroke="black" stroke-miterlimit="10" stroke-linejoin="round"/>
<path d="M403.163 93.032V82.5476H406.788C407.6 82.5476 408.22 82.5945 408.647 82.6883C409.252 82.8237 409.767 83.0737 410.194 83.4383C410.746 83.907 411.158 84.506 411.429 85.2351C411.699 85.9643 411.835 86.7976 411.835 87.7351C411.835 88.5268 411.741 89.2299 411.554 89.8445C411.377 90.4591 411.142 90.9695 410.85 91.3758C410.559 91.782 410.236 92.0997 409.882 92.3289C409.538 92.5581 409.121 92.7351 408.632 92.8601C408.153 92.9747 407.595 93.032 406.96 93.032H403.163ZM404.554 91.7976H406.804C407.491 91.7976 408.033 91.7351 408.429 91.6101C408.824 91.4747 409.137 91.2924 409.366 91.0633C409.699 90.7299 409.955 90.2872 410.132 89.7351C410.319 89.1726 410.413 88.4956 410.413 87.7039C410.413 86.6101 410.231 85.7716 409.866 85.1883C409.512 84.5945 409.074 84.1987 408.554 84.0008C408.189 83.8549 407.59 83.782 406.757 83.782H404.554V91.7976ZM418.544 92.0945C418.065 92.5008 417.607 92.7872 417.169 92.9539C416.732 93.1206 416.258 93.2039 415.747 93.2039C414.914 93.2039 414.273 93.0008 413.825 92.5945C413.377 92.1883 413.154 91.6674 413.154 91.032C413.154 90.657 413.237 90.3185 413.404 90.0164C413.57 89.7039 413.789 89.4539 414.06 89.2664C414.341 89.0789 414.654 88.9383 414.997 88.8445C415.247 88.782 415.627 88.7195 416.138 88.657C417.18 88.532 417.945 88.381 418.435 88.2039C418.445 88.0268 418.45 87.9174 418.45 87.8758C418.45 87.3445 418.325 86.9747 418.075 86.7664C417.752 86.4747 417.268 86.3289 416.622 86.3289C416.008 86.3289 415.555 86.4383 415.263 86.657C414.982 86.8654 414.773 87.2351 414.638 87.7664L413.372 87.5945C413.487 87.0633 413.674 86.631 413.935 86.2976C414.195 85.9643 414.575 85.7091 415.075 85.532C415.575 85.3549 416.148 85.2664 416.794 85.2664C417.45 85.2664 417.982 85.3445 418.388 85.5008C418.794 85.6466 419.091 85.8341 419.279 86.0633C419.466 86.2924 419.601 86.5841 419.685 86.9383C419.726 87.157 419.747 87.5529 419.747 88.1258V89.8445C419.747 91.0424 419.773 91.8029 419.825 92.1258C419.877 92.4383 419.987 92.7404 420.154 93.032H418.81C418.674 92.7612 418.586 92.4487 418.544 92.0945ZM418.435 89.2195C417.966 89.407 417.268 89.5685 416.341 89.7039C415.81 89.7768 415.435 89.8654 415.216 89.9695C414.997 90.0633 414.825 90.2039 414.7 90.3914C414.586 90.5685 414.529 90.7664 414.529 90.9851C414.529 91.3289 414.659 91.6154 414.919 91.8445C415.18 92.0737 415.56 92.1883 416.06 92.1883C416.549 92.1883 416.987 92.0841 417.372 91.8758C417.768 91.657 418.055 91.3601 418.232 90.9851C418.367 90.6935 418.435 90.2612 418.435 89.6883V89.2195ZM424.555 91.8758L424.742 93.0164C424.378 93.0893 424.049 93.1258 423.758 93.1258C423.299 93.1258 422.94 93.0529 422.68 92.907C422.419 92.7612 422.237 92.5685 422.133 92.3289C422.029 92.0893 421.976 91.5841 421.976 90.8133V86.4383H421.023V85.4383H421.976V83.5476L423.258 82.782V85.4383H424.555V86.4383H423.258V90.8758C423.258 91.2404 423.279 91.4799 423.32 91.5945C423.372 91.6987 423.445 91.782 423.539 91.8445C423.643 91.8966 423.794 91.9226 423.992 91.9226C424.128 91.9226 424.315 91.907 424.555 91.8758ZM430.767 92.0945C430.288 92.5008 429.83 92.7872 429.392 92.9539C428.955 93.1206 428.481 93.2039 427.97 93.2039C427.137 93.2039 426.496 93.0008 426.048 92.5945C425.601 92.1883 425.377 91.6674 425.377 91.032C425.377 90.657 425.46 90.3185 425.627 90.0164C425.793 89.7039 426.012 89.4539 426.283 89.2664C426.564 89.0789 426.877 88.9383 427.22 88.8445C427.47 88.782 427.851 88.7195 428.361 88.657C429.403 88.532 430.168 88.381 430.658 88.2039C430.668 88.0268 430.673 87.9174 430.673 87.8758C430.673 87.3445 430.548 86.9747 430.298 86.7664C429.976 86.4747 429.491 86.3289 428.845 86.3289C428.231 86.3289 427.778 86.4383 427.486 86.657C427.205 86.8654 426.996 87.2351 426.861 87.7664L425.595 87.5945C425.71 87.0633 425.897 86.631 426.158 86.2976C426.418 85.9643 426.798 85.7091 427.298 85.532C427.798 85.3549 428.371 85.2664 429.017 85.2664C429.673 85.2664 430.205 85.3445 430.611 85.5008C431.017 85.6466 431.314 85.8341 431.502 86.0633C431.689 86.2924 431.825 86.5841 431.908 86.9383C431.95 87.157 431.97 87.5529 431.97 88.1258V89.8445C431.97 91.0424 431.996 91.8029 432.048 92.1258C432.101 92.4383 432.21 92.7404 432.377 93.032H431.033C430.897 92.7612 430.809 92.4487 430.767 92.0945ZM430.658 89.2195C430.189 89.407 429.491 89.5685 428.564 89.7039C428.033 89.7768 427.658 89.8654 427.439 89.9695C427.22 90.0633 427.048 90.2039 426.923 90.3914C426.809 90.5685 426.752 90.7664 426.752 90.9851C426.752 91.3289 426.882 91.6154 427.142 91.8445C427.403 92.0737 427.783 92.1883 428.283 92.1883C428.772 92.1883 429.21 92.0841 429.595 91.8758C429.991 91.657 430.278 91.3601 430.455 90.9851C430.59 90.6935 430.658 90.2612 430.658 89.6883V89.2195ZM445.678 89.3601L447.068 89.7039C446.777 90.8393 446.251 91.7091 445.49 92.3133C444.74 92.907 443.818 93.2039 442.725 93.2039C441.6 93.2039 440.683 92.9747 439.975 92.5164C439.266 92.0581 438.725 91.3914 438.35 90.5164C437.985 89.6414 437.803 88.7039 437.803 87.7039C437.803 86.6101 438.011 85.657 438.428 84.8445C438.844 84.032 439.438 83.4174 440.209 83.0008C440.98 82.5737 441.829 82.3601 442.756 82.3601C443.798 82.3601 444.678 82.631 445.397 83.1726C446.115 83.7039 446.615 84.4539 446.897 85.4226L445.522 85.7351C445.282 84.9747 444.928 84.4226 444.459 84.0789C444.001 83.7247 443.423 83.5476 442.725 83.5476C441.912 83.5476 441.235 83.7404 440.693 84.1258C440.152 84.5112 439.772 85.032 439.553 85.6883C439.334 86.3341 439.225 87.006 439.225 87.7039C439.225 88.5893 439.355 89.3654 439.615 90.032C439.876 90.6987 440.282 91.1987 440.834 91.532C441.386 91.8549 441.98 92.0164 442.615 92.0164C443.397 92.0164 444.053 91.7924 444.584 91.3445C445.126 90.8966 445.49 90.2351 445.678 89.3601ZM453.825 90.5789L455.153 90.7508C454.944 91.532 454.554 92.1362 453.981 92.5633C453.418 92.9904 452.694 93.2039 451.809 93.2039C450.694 93.2039 449.809 92.8654 449.153 92.1883C448.507 91.5008 448.184 90.5372 448.184 89.2976C448.184 88.0164 448.512 87.0268 449.168 86.3289C449.835 85.6206 450.694 85.2664 451.746 85.2664C452.757 85.2664 453.585 85.6101 454.231 86.2976C454.877 86.9851 455.2 87.9591 455.2 89.2195C455.2 89.2924 455.194 89.407 455.184 89.5633H449.528C449.569 90.3966 449.804 91.0372 450.231 91.4851C450.658 91.9226 451.189 92.1414 451.825 92.1414C452.293 92.1414 452.694 92.0216 453.028 91.782C453.361 91.532 453.627 91.131 453.825 90.5789ZM449.59 88.5008H453.84C453.778 87.8654 453.616 87.3862 453.356 87.0633C452.939 86.5633 452.403 86.3133 451.746 86.3133C451.163 86.3133 450.668 86.5112 450.262 86.907C449.856 87.3029 449.632 87.8341 449.59 88.5008ZM456.773 93.032V85.4383H457.929V86.5164C458.491 85.6831 459.299 85.2664 460.351 85.2664C460.809 85.2664 461.231 85.3497 461.616 85.5164C462.002 85.6726 462.288 85.8862 462.476 86.157C462.663 86.4279 462.799 86.7456 462.882 87.1101C462.924 87.3497 462.944 87.7664 462.944 88.3601V93.032H461.663V88.407C461.663 87.8862 461.611 87.4956 461.507 87.2351C461.403 86.9747 461.22 86.7664 460.96 86.6101C460.71 86.4539 460.413 86.3758 460.069 86.3758C459.528 86.3758 459.054 86.5529 458.648 86.907C458.252 87.2508 458.054 87.907 458.054 88.8758V93.032H456.773ZM467.736 91.8758L467.924 93.0164C467.559 93.0893 467.231 93.1258 466.939 93.1258C466.481 93.1258 466.122 93.0529 465.861 92.907C465.601 92.7612 465.418 92.5685 465.314 92.3289C465.21 92.0893 465.158 91.5841 465.158 90.8133V86.4383H464.205V85.4383H465.158V83.5476L466.439 82.782V85.4383H467.736V86.4383H466.439V90.8758C466.439 91.2404 466.46 91.4799 466.502 91.5945C466.554 91.6987 466.627 91.782 466.721 91.8445C466.825 91.8966 466.976 91.9226 467.174 91.9226C467.309 91.9226 467.497 91.907 467.736 91.8758ZM474.199 90.5789L475.527 90.7508C475.319 91.532 474.928 92.1362 474.355 92.5633C473.793 92.9904 473.069 93.2039 472.183 93.2039C471.069 93.2039 470.183 92.8654 469.527 92.1883C468.881 91.5008 468.558 90.5372 468.558 89.2976C468.558 88.0164 468.886 87.0268 469.543 86.3289C470.209 85.6206 471.069 85.2664 472.121 85.2664C473.131 85.2664 473.959 85.6101 474.605 86.2976C475.251 86.9851 475.574 87.9591 475.574 89.2195C475.574 89.2924 475.569 89.407 475.558 89.5633H469.902C469.944 90.3966 470.178 91.0372 470.605 91.4851C471.032 91.9226 471.563 92.1414 472.199 92.1414C472.668 92.1414 473.069 92.0216 473.402 91.782C473.735 91.532 474.001 91.131 474.199 90.5789ZM469.964 88.5008H474.214C474.152 87.8654 473.99 87.3862 473.73 87.0633C473.313 86.5633 472.777 86.3133 472.121 86.3133C471.537 86.3133 471.043 86.5112 470.636 86.907C470.23 87.3029 470.006 87.8341 469.964 88.5008ZM477.131 93.032V85.4383H478.287V86.5789C478.589 86.0476 478.865 85.6987 479.115 85.532C479.365 85.3549 479.636 85.2664 479.928 85.2664C480.365 85.2664 480.808 85.4018 481.256 85.6726L480.819 86.8758C480.506 86.6883 480.188 86.5945 479.865 86.5945C479.584 86.5945 479.329 86.6779 479.1 86.8445C478.881 87.0112 478.725 87.2456 478.631 87.5476C478.485 88.006 478.412 88.506 478.412 89.0476V93.032H477.131ZM485.131 93.2039L488.177 82.3601H489.209L486.162 93.2039H485.131ZM501.884 89.3601L503.275 89.7039C502.983 90.8393 502.457 91.7091 501.696 92.3133C500.946 92.907 500.025 93.2039 498.931 93.2039C497.806 93.2039 496.889 92.9747 496.181 92.5164C495.472 92.0581 494.931 91.3914 494.556 90.5164C494.191 89.6414 494.009 88.7039 494.009 87.7039C494.009 86.6101 494.217 85.657 494.634 84.8445C495.051 84.032 495.644 83.4174 496.415 83.0008C497.186 82.5737 498.035 82.3601 498.962 82.3601C500.004 82.3601 500.884 82.631 501.603 83.1726C502.321 83.7039 502.821 84.4539 503.103 85.4226L501.728 85.7351C501.488 84.9747 501.134 84.4226 500.665 84.0789C500.207 83.7247 499.629 83.5476 498.931 83.5476C498.118 83.5476 497.441 83.7404 496.9 84.1258C496.358 84.5112 495.978 85.032 495.759 85.6883C495.54 86.3341 495.431 87.006 495.431 87.7039C495.431 88.5893 495.561 89.3654 495.821 90.032C496.082 90.6987 496.488 91.1987 497.04 91.532C497.592 91.8549 498.186 92.0164 498.821 92.0164C499.603 92.0164 500.259 91.7924 500.79 91.3445C501.332 90.8966 501.696 90.2351 501.884 89.3601ZM504.796 93.032V82.5476H506.078V93.032H504.796ZM507.599 89.2351C507.599 87.8289 507.99 86.7872 508.771 86.1101C509.427 85.5476 510.224 85.2664 511.162 85.2664C512.214 85.2664 513.068 85.6101 513.724 86.2976C514.391 86.9747 514.724 87.9174 514.724 89.1258C514.724 90.1049 514.579 90.8758 514.287 91.4383C513.995 91.9904 513.568 92.4226 513.006 92.7351C512.443 93.0476 511.829 93.2039 511.162 93.2039C510.099 93.2039 509.24 92.8654 508.584 92.1883C507.927 91.5008 507.599 90.5164 507.599 89.2351ZM508.927 89.2351C508.927 90.2039 509.136 90.9331 509.552 91.4226C509.98 91.9018 510.516 92.1414 511.162 92.1414C511.808 92.1414 512.339 91.9018 512.756 91.4226C513.183 90.9331 513.396 90.1883 513.396 89.1883C513.396 88.2508 513.183 87.5424 512.756 87.0633C512.329 86.5737 511.797 86.3289 511.162 86.3289C510.516 86.3289 509.98 86.5685 509.552 87.0476C509.136 87.5268 508.927 88.256 508.927 89.2351ZM521.219 93.032V91.9226C520.625 92.7768 519.818 93.2039 518.797 93.2039C518.349 93.2039 517.933 93.1206 517.547 92.9539C517.162 92.7768 516.87 92.5581 516.672 92.2976C516.485 92.0372 516.355 91.7195 516.282 91.3445C516.23 91.0945 516.204 90.6935 516.204 90.1414V85.4383H517.485V89.6414C517.485 90.3185 517.511 90.7716 517.563 91.0008C517.646 91.3445 517.818 91.6154 518.079 91.8133C518.349 92.0008 518.678 92.0945 519.063 92.0945C519.448 92.0945 519.808 91.9956 520.141 91.7976C520.485 91.5997 520.724 91.3289 520.86 90.9851C521.006 90.6414 521.079 90.1466 521.079 89.5008V85.4383H522.36V93.032H521.219ZM529.308 93.032V92.0789C528.829 92.8289 528.12 93.2039 527.183 93.2039C526.579 93.2039 526.021 93.0372 525.511 92.7039C525.011 92.3706 524.62 91.907 524.339 91.3133C524.058 90.7091 523.917 90.0164 523.917 89.2351C523.917 88.4747 524.042 87.7872 524.292 87.1726C524.553 86.5581 524.933 86.0893 525.433 85.7664C525.943 85.4331 526.511 85.2664 527.136 85.2664C527.594 85.2664 528.001 85.3654 528.355 85.5633C528.709 85.7508 529.001 85.9956 529.23 86.2976V82.5476H530.511V93.032H529.308ZM525.245 89.2351C525.245 90.2143 525.448 90.9435 525.855 91.4226C526.271 91.9018 526.756 92.1414 527.308 92.1414C527.87 92.1414 528.349 91.9122 528.745 91.4539C529.141 90.9956 529.339 90.2924 529.339 89.3445C529.339 88.3029 529.136 87.5424 528.73 87.0633C528.334 86.5737 527.839 86.3289 527.245 86.3289C526.683 86.3289 526.209 86.5633 525.823 87.032C525.438 87.5008 525.245 88.2351 525.245 89.2351Z" fill="black"/>
<g filter="url(#filter0_f_1_930)">
<path fill-rule="evenodd" clip-rule="evenodd" d="M508.556 125.491H615.045V330.121H508.556V125.491Z" fill="white"/>
<path fill-rule="evenodd" clip-rule="evenodd" d="M508.556 125.491H615.045V330.121H508.556V125.491Z" stroke="#44546A" stroke-miterlimit="10" stroke-linejoin="round"/>
<path d="M533.347 220.214L534.738 220.558C534.446 221.693 533.92 222.563 533.16 223.167C532.41 223.761 531.488 224.058 530.394 224.058C529.269 224.058 528.352 223.828 527.644 223.37C526.936 222.912 526.394 222.245 526.019 221.37C525.654 220.495 525.472 219.558 525.472 218.558C525.472 217.464 525.68 216.511 526.097 215.698C526.514 214.886 527.107 214.271 527.878 213.855C528.649 213.427 529.498 213.214 530.425 213.214C531.467 213.214 532.347 213.485 533.066 214.026C533.785 214.558 534.285 215.308 534.566 216.276L533.191 216.589C532.951 215.828 532.597 215.276 532.128 214.933C531.67 214.578 531.092 214.401 530.394 214.401C529.581 214.401 528.904 214.594 528.363 214.98C527.821 215.365 527.441 215.886 527.222 216.542C527.003 217.188 526.894 217.86 526.894 218.558C526.894 219.443 527.024 220.219 527.285 220.886C527.545 221.552 527.951 222.052 528.503 222.386C529.055 222.709 529.649 222.87 530.285 222.87C531.066 222.87 531.722 222.646 532.253 222.198C532.795 221.75 533.16 221.089 533.347 220.214ZM541.494 221.433L542.822 221.605C542.614 222.386 542.223 222.99 541.65 223.417C541.088 223.844 540.364 224.058 539.478 224.058C538.364 224.058 537.478 223.719 536.822 223.042C536.176 222.355 535.853 221.391 535.853 220.151C535.853 218.87 536.181 217.881 536.838 217.183C537.504 216.474 538.364 216.12 539.416 216.12C540.426 216.12 541.254 216.464 541.9 217.151C542.546 217.839 542.869 218.813 542.869 220.073C542.869 220.146 542.864 220.261 542.853 220.417H537.197C537.239 221.25 537.473 221.891 537.9 222.339C538.327 222.776 538.858 222.995 539.494 222.995C539.963 222.995 540.364 222.875 540.697 222.636C541.03 222.386 541.296 221.985 541.494 221.433ZM537.259 219.355H541.509C541.447 218.719 541.285 218.24 541.025 217.917C540.608 217.417 540.072 217.167 539.416 217.167C538.832 217.167 538.338 217.365 537.931 217.761C537.525 218.157 537.301 218.688 537.259 219.355ZM544.426 223.886V216.292H545.582V217.433C545.885 216.901 546.161 216.552 546.411 216.386C546.661 216.209 546.931 216.12 547.223 216.12C547.661 216.12 548.103 216.256 548.551 216.526L548.114 217.73C547.801 217.542 547.483 217.448 547.161 217.448C546.879 217.448 546.624 217.532 546.395 217.698C546.176 217.865 546.02 218.099 545.926 218.401C545.78 218.86 545.707 219.36 545.707 219.901V223.886H544.426ZM552.135 222.73L552.322 223.87C551.958 223.943 551.63 223.98 551.338 223.98C550.88 223.98 550.52 223.907 550.26 223.761C550 223.615 549.817 223.422 549.713 223.183C549.609 222.943 549.557 222.438 549.557 221.667V217.292H548.604V216.292H549.557V214.401L550.838 213.636V216.292H552.135V217.292H550.838V221.73C550.838 222.094 550.859 222.334 550.901 222.448C550.953 222.552 551.026 222.636 551.119 222.698C551.223 222.75 551.375 222.776 551.572 222.776C551.708 222.776 551.895 222.761 552.135 222.73ZM553.394 214.87V213.401H554.691V214.87H553.394ZM553.394 223.886V216.292H554.691V223.886H553.394ZM556.963 223.886V217.292H555.822V216.292H556.963V215.48C556.963 214.969 557.005 214.589 557.088 214.339C557.213 214.006 557.432 213.735 557.744 213.526C558.057 213.318 558.494 213.214 559.057 213.214C559.421 213.214 559.822 213.256 560.26 213.339L560.072 214.464C559.802 214.422 559.546 214.401 559.307 214.401C558.921 214.401 558.645 214.485 558.479 214.651C558.322 214.818 558.244 215.131 558.244 215.589V216.292H559.713V217.292H558.244V223.886H556.963ZM565.676 222.948C565.197 223.355 564.738 223.641 564.301 223.808C563.863 223.974 563.389 224.058 562.879 224.058C562.045 224.058 561.405 223.855 560.957 223.448C560.509 223.042 560.285 222.521 560.285 221.886C560.285 221.511 560.368 221.172 560.535 220.87C560.702 220.558 560.92 220.308 561.191 220.12C561.473 219.933 561.785 219.792 562.129 219.698C562.379 219.636 562.759 219.573 563.269 219.511C564.311 219.386 565.077 219.235 565.566 219.058C565.577 218.881 565.582 218.771 565.582 218.73C565.582 218.198 565.457 217.828 565.207 217.62C564.884 217.328 564.4 217.183 563.754 217.183C563.139 217.183 562.686 217.292 562.394 217.511C562.113 217.719 561.905 218.089 561.769 218.62L560.504 218.448C560.618 217.917 560.806 217.485 561.066 217.151C561.327 216.818 561.707 216.563 562.207 216.386C562.707 216.209 563.28 216.12 563.926 216.12C564.582 216.12 565.113 216.198 565.519 216.355C565.926 216.5 566.223 216.688 566.41 216.917C566.598 217.146 566.733 217.438 566.816 217.792C566.858 218.011 566.879 218.407 566.879 218.98V220.698C566.879 221.896 566.905 222.657 566.957 222.98C567.009 223.292 567.118 223.594 567.285 223.886H565.941C565.806 223.615 565.717 223.302 565.676 222.948ZM565.566 220.073C565.098 220.261 564.4 220.422 563.473 220.558C562.941 220.631 562.566 220.719 562.348 220.823C562.129 220.917 561.957 221.058 561.832 221.245C561.717 221.422 561.66 221.62 561.66 221.839C561.66 222.183 561.79 222.469 562.051 222.698C562.311 222.927 562.691 223.042 563.191 223.042C563.681 223.042 564.118 222.938 564.504 222.73C564.9 222.511 565.186 222.214 565.363 221.839C565.499 221.547 565.566 221.115 565.566 220.542V220.073ZM573.827 221.105L575.092 221.261C574.957 222.136 574.603 222.823 574.03 223.323C573.467 223.813 572.769 224.058 571.936 224.058C570.894 224.058 570.056 223.719 569.421 223.042C568.796 222.355 568.483 221.381 568.483 220.12C568.483 219.297 568.618 218.578 568.889 217.964C569.16 217.349 569.572 216.891 570.124 216.589C570.686 216.276 571.29 216.12 571.936 216.12C572.769 216.12 573.447 216.328 573.967 216.745C574.488 217.162 574.827 217.75 574.983 218.511L573.717 218.714C573.603 218.203 573.394 217.818 573.092 217.558C572.79 217.297 572.426 217.167 571.999 217.167C571.342 217.167 570.811 217.401 570.405 217.87C569.999 218.339 569.796 219.073 569.796 220.073C569.796 221.094 569.988 221.839 570.374 222.308C570.769 222.766 571.285 222.995 571.921 222.995C572.421 222.995 572.842 222.844 573.186 222.542C573.53 222.23 573.743 221.75 573.827 221.105ZM579.014 222.73L579.202 223.87C578.837 223.943 578.509 223.98 578.217 223.98C577.759 223.98 577.4 223.907 577.139 223.761C576.879 223.615 576.697 223.422 576.592 223.183C576.488 222.943 576.436 222.438 576.436 221.667V217.292H575.483V216.292H576.436V214.401L577.717 213.636V216.292H579.014V217.292H577.717V221.73C577.717 222.094 577.738 222.334 577.78 222.448C577.832 222.552 577.905 222.636 577.999 222.698C578.103 222.75 578.254 222.776 578.452 222.776C578.587 222.776 578.775 222.761 579.014 222.73ZM580.274 214.87V213.401H581.571V214.87H580.274ZM580.274 223.886V216.292H581.571V223.886H580.274ZM583.046 220.089C583.046 218.683 583.436 217.641 584.217 216.964C584.874 216.401 585.671 216.12 586.608 216.12C587.66 216.12 588.514 216.464 589.171 217.151C589.837 217.828 590.171 218.771 590.171 219.98C590.171 220.959 590.025 221.73 589.733 222.292C589.441 222.844 589.014 223.276 588.452 223.589C587.889 223.901 587.275 224.058 586.608 224.058C585.546 224.058 584.686 223.719 584.03 223.042C583.374 222.355 583.046 221.37 583.046 220.089ZM584.374 220.089C584.374 221.058 584.582 221.787 584.999 222.276C585.426 222.756 585.962 222.995 586.608 222.995C587.254 222.995 587.785 222.756 588.202 222.276C588.629 221.787 588.842 221.042 588.842 220.042C588.842 219.105 588.629 218.396 588.202 217.917C587.775 217.427 587.243 217.183 586.608 217.183C585.962 217.183 585.426 217.422 584.999 217.901C584.582 218.381 584.374 219.11 584.374 220.089ZM591.681 223.886V216.292H592.837V217.37C593.4 216.537 594.207 216.12 595.259 216.12C595.717 216.12 596.139 216.203 596.525 216.37C596.91 216.526 597.197 216.74 597.384 217.011C597.572 217.282 597.707 217.599 597.79 217.964C597.832 218.203 597.853 218.62 597.853 219.214V223.886H596.572V219.261C596.572 218.74 596.52 218.349 596.415 218.089C596.311 217.828 596.129 217.62 595.868 217.464C595.618 217.308 595.322 217.23 594.978 217.23C594.436 217.23 593.962 217.407 593.556 217.761C593.16 218.105 592.962 218.761 592.962 219.73V223.886H591.681Z" fill="black"/>
<path d="M540.873 238.511L542.186 238.401C542.248 238.922 542.389 239.355 542.608 239.698C542.837 240.032 543.191 240.302 543.67 240.511C544.149 240.719 544.686 240.823 545.279 240.823C545.811 240.823 546.279 240.745 546.686 240.589C547.092 240.433 547.394 240.219 547.592 239.948C547.79 239.667 547.889 239.365 547.889 239.042C547.889 238.709 547.79 238.422 547.592 238.183C547.404 237.933 547.092 237.724 546.654 237.558C546.373 237.443 545.748 237.271 544.779 237.042C543.821 236.813 543.149 236.594 542.764 236.386C542.264 236.125 541.889 235.802 541.639 235.417C541.399 235.021 541.279 234.584 541.279 234.105C541.279 233.573 541.425 233.078 541.717 232.62C542.019 232.162 542.456 231.813 543.029 231.573C543.613 231.334 544.259 231.214 544.967 231.214C545.748 231.214 546.436 231.339 547.029 231.589C547.623 231.839 548.076 232.209 548.389 232.698C548.712 233.188 548.884 233.74 548.904 234.355L547.576 234.448C547.503 233.782 547.259 233.282 546.842 232.948C546.436 232.605 545.831 232.433 545.029 232.433C544.186 232.433 543.571 232.589 543.186 232.901C542.8 233.214 542.608 233.584 542.608 234.011C542.608 234.386 542.748 234.698 543.029 234.948C543.29 235.188 543.983 235.438 545.108 235.698C546.243 235.948 547.019 236.167 547.436 236.355C548.05 236.636 548.503 236.995 548.795 237.433C549.087 237.86 549.233 238.355 549.233 238.917C549.233 239.48 549.071 240.011 548.748 240.511C548.425 241 547.962 241.381 547.358 241.651C546.764 241.922 546.092 242.058 545.342 242.058C544.394 242.058 543.597 241.922 542.951 241.651C542.316 241.37 541.816 240.953 541.451 240.401C541.087 239.849 540.894 239.219 540.873 238.511ZM556.164 239.433L557.493 239.605C557.284 240.386 556.894 240.99 556.321 241.417C555.758 241.844 555.034 242.058 554.149 242.058C553.034 242.058 552.149 241.719 551.493 241.042C550.847 240.355 550.524 239.391 550.524 238.151C550.524 236.87 550.852 235.881 551.508 235.183C552.175 234.474 553.034 234.12 554.086 234.12C555.097 234.12 555.925 234.464 556.571 235.151C557.216 235.839 557.539 236.813 557.539 238.073C557.539 238.146 557.534 238.261 557.524 238.417H551.868C551.909 239.25 552.144 239.891 552.571 240.339C552.998 240.776 553.529 240.995 554.164 240.995C554.633 240.995 555.034 240.875 555.368 240.636C555.701 240.386 555.966 239.985 556.164 239.433ZM551.93 237.355H556.18C556.118 236.719 555.956 236.24 555.696 235.917C555.279 235.417 554.743 235.167 554.086 235.167C553.503 235.167 553.008 235.365 552.602 235.761C552.196 236.157 551.972 236.688 551.93 237.355ZM559.097 241.886V234.292H560.253V235.433C560.555 234.901 560.831 234.552 561.081 234.386C561.331 234.209 561.602 234.12 561.894 234.12C562.331 234.12 562.774 234.256 563.222 234.526L562.784 235.73C562.472 235.542 562.154 235.448 561.831 235.448C561.55 235.448 561.295 235.532 561.065 235.698C560.847 235.865 560.69 236.099 560.597 236.401C560.451 236.86 560.378 237.36 560.378 237.901V241.886H559.097ZM566.102 241.886L563.212 234.292H564.571L566.196 238.839C566.373 239.328 566.54 239.839 566.696 240.37C566.8 239.964 566.957 239.48 567.165 238.917L568.852 234.292H570.181L567.306 241.886H566.102ZM576.524 239.433L577.852 239.605C577.644 240.386 577.253 240.99 576.681 241.417C576.118 241.844 575.394 242.058 574.509 242.058C573.394 242.058 572.509 241.719 571.852 241.042C571.207 240.355 570.884 239.391 570.884 238.151C570.884 236.87 571.212 235.881 571.868 235.183C572.535 234.474 573.394 234.12 574.446 234.12C575.457 234.12 576.285 234.464 576.931 235.151C577.576 235.839 577.899 236.813 577.899 238.073C577.899 238.146 577.894 238.261 577.884 238.417H572.227C572.269 239.25 572.503 239.891 572.931 240.339C573.358 240.776 573.889 240.995 574.524 240.995C574.993 240.995 575.394 240.875 575.727 240.636C576.061 240.386 576.326 239.985 576.524 239.433ZM572.29 237.355H576.54C576.477 236.719 576.316 236.24 576.056 235.917C575.639 235.417 575.102 235.167 574.446 235.167C573.863 235.167 573.368 235.365 572.962 235.761C572.556 236.157 572.332 236.688 572.29 237.355ZM579.457 241.886V234.292H580.613V235.433C580.915 234.901 581.191 234.552 581.441 234.386C581.691 234.209 581.962 234.12 582.254 234.12C582.691 234.12 583.134 234.256 583.582 234.526L583.144 235.73C582.832 235.542 582.514 235.448 582.191 235.448C581.91 235.448 581.655 235.532 581.425 235.698C581.207 235.865 581.05 236.099 580.957 236.401C580.811 236.86 580.738 237.36 580.738 237.901V241.886H579.457Z" fill="black"/>
</g>
<path fill-rule="evenodd" clip-rule="evenodd" d="M508.556 123.491H615.045V328.121H508.556V123.491Z" fill="white"/>
<path fill-rule="evenodd" clip-rule="evenodd" d="M508.556 123.491H615.045V328.121H508.556V123.491Z" stroke="#44546A" stroke-miterlimit="10" stroke-linejoin="round"/>
<path d="M533.347 218.214L534.738 218.558C534.446 219.693 533.92 220.563 533.16 221.167C532.41 221.761 531.488 222.058 530.394 222.058C529.269 222.058 528.352 221.828 527.644 221.37C526.936 220.912 526.394 220.245 526.019 219.37C525.654 218.495 525.472 217.558 525.472 216.558C525.472 215.464 525.68 214.511 526.097 213.698C526.514 212.886 527.107 212.271 527.878 211.855C528.649 211.427 529.498 211.214 530.425 211.214C531.467 211.214 532.347 211.485 533.066 212.026C533.785 212.558 534.285 213.308 534.566 214.276L533.191 214.589C532.951 213.828 532.597 213.276 532.128 212.933C531.67 212.578 531.092 212.401 530.394 212.401C529.581 212.401 528.904 212.594 528.363 212.98C527.821 213.365 527.441 213.886 527.222 214.542C527.003 215.188 526.894 215.86 526.894 216.558C526.894 217.443 527.024 218.219 527.285 218.886C527.545 219.552 527.951 220.052 528.503 220.386C529.055 220.709 529.649 220.87 530.285 220.87C531.066 220.87 531.722 220.646 532.253 220.198C532.795 219.75 533.16 219.089 533.347 218.214ZM541.494 219.433L542.822 219.605C542.614 220.386 542.223 220.99 541.65 221.417C541.088 221.844 540.364 222.058 539.478 222.058C538.364 222.058 537.478 221.719 536.822 221.042C536.176 220.355 535.853 219.391 535.853 218.151C535.853 216.87 536.181 215.881 536.838 215.183C537.504 214.474 538.364 214.12 539.416 214.12C540.426 214.12 541.254 214.464 541.9 215.151C542.546 215.839 542.869 216.813 542.869 218.073C542.869 218.146 542.864 218.261 542.853 218.417H537.197C537.239 219.25 537.473 219.891 537.9 220.339C538.327 220.776 538.858 220.995 539.494 220.995C539.963 220.995 540.364 220.875 540.697 220.636C541.03 220.386 541.296 219.985 541.494 219.433ZM537.259 217.355H541.509C541.447 216.719 541.285 216.24 541.025 215.917C540.608 215.417 540.072 215.167 539.416 215.167C538.832 215.167 538.338 215.365 537.931 215.761C537.525 216.157 537.301 216.688 537.259 217.355ZM544.426 221.886V214.292H545.582V215.433C545.885 214.901 546.161 214.552 546.411 214.386C546.661 214.209 546.931 214.12 547.223 214.12C547.661 214.12 548.103 214.256 548.551 214.526L548.114 215.73C547.801 215.542 547.483 215.448 547.161 215.448C546.879 215.448 546.624 215.532 546.395 215.698C546.176 215.865 546.02 216.099 545.926 216.401C545.78 216.86 545.707 217.36 545.707 217.901V221.886H544.426ZM552.135 220.73L552.322 221.87C551.958 221.943 551.63 221.98 551.338 221.98C550.88 221.98 550.52 221.907 550.26 221.761C550 221.615 549.817 221.422 549.713 221.183C549.609 220.943 549.557 220.438 549.557 219.667V215.292H548.604V214.292H549.557V212.401L550.838 211.636V214.292H552.135V215.292H550.838V219.73C550.838 220.094 550.859 220.334 550.901 220.448C550.953 220.552 551.026 220.636 551.119 220.698C551.223 220.75 551.375 220.776 551.572 220.776C551.708 220.776 551.895 220.761 552.135 220.73ZM553.394 212.87V211.401H554.691V212.87H553.394ZM553.394 221.886V214.292H554.691V221.886H553.394ZM556.963 221.886V215.292H555.822V214.292H556.963V213.48C556.963 212.969 557.005 212.589 557.088 212.339C557.213 212.006 557.432 211.735 557.744 211.526C558.057 211.318 558.494 211.214 559.057 211.214C559.421 211.214 559.822 211.256 560.26 211.339L560.072 212.464C559.802 212.422 559.546 212.401 559.307 212.401C558.921 212.401 558.645 212.485 558.479 212.651C558.322 212.818 558.244 213.131 558.244 213.589V214.292H559.713V215.292H558.244V221.886H556.963ZM565.676 220.948C565.197 221.355 564.738 221.641 564.301 221.808C563.863 221.974 563.389 222.058 562.879 222.058C562.045 222.058 561.405 221.855 560.957 221.448C560.509 221.042 560.285 220.521 560.285 219.886C560.285 219.511 560.368 219.172 560.535 218.87C560.702 218.558 560.92 218.308 561.191 218.12C561.473 217.933 561.785 217.792 562.129 217.698C562.379 217.636 562.759 217.573 563.269 217.511C564.311 217.386 565.077 217.235 565.566 217.058C565.577 216.881 565.582 216.771 565.582 216.73C565.582 216.198 565.457 215.828 565.207 215.62C564.884 215.328 564.4 215.183 563.754 215.183C563.139 215.183 562.686 215.292 562.394 215.511C562.113 215.719 561.905 216.089 561.769 216.62L560.504 216.448C560.618 215.917 560.806 215.485 561.066 215.151C561.327 214.818 561.707 214.563 562.207 214.386C562.707 214.209 563.28 214.12 563.926 214.12C564.582 214.12 565.113 214.198 565.519 214.355C565.926 214.5 566.223 214.688 566.41 214.917C566.598 215.146 566.733 215.438 566.816 215.792C566.858 216.011 566.879 216.407 566.879 216.98V218.698C566.879 219.896 566.905 220.657 566.957 220.98C567.009 221.292 567.118 221.594 567.285 221.886H565.941C565.806 221.615 565.717 221.302 565.676 220.948ZM565.566 218.073C565.098 218.261 564.4 218.422 563.473 218.558C562.941 218.631 562.566 218.719 562.348 218.823C562.129 218.917 561.957 219.058 561.832 219.245C561.717 219.422 561.66 219.62 561.66 219.839C561.66 220.183 561.79 220.469 562.051 220.698C562.311 220.927 562.691 221.042 563.191 221.042C563.681 221.042 564.118 220.938 564.504 220.73C564.9 220.511 565.186 220.214 565.363 219.839C565.499 219.547 565.566 219.115 565.566 218.542V218.073ZM573.827 219.105L575.092 219.261C574.957 220.136 574.603 220.823 574.03 221.323C573.467 221.813 572.769 222.058 571.936 222.058C570.894 222.058 570.056 221.719 569.421 221.042C568.796 220.355 568.483 219.381 568.483 218.12C568.483 217.297 568.618 216.578 568.889 215.964C569.16 215.349 569.572 214.891 570.124 214.589C570.686 214.276 571.29 214.12 571.936 214.12C572.769 214.12 573.447 214.328 573.967 214.745C574.488 215.162 574.827 215.75 574.983 216.511L573.717 216.714C573.603 216.203 573.394 215.818 573.092 215.558C572.79 215.297 572.426 215.167 571.999 215.167C571.342 215.167 570.811 215.401 570.405 215.87C569.999 216.339 569.796 217.073 569.796 218.073C569.796 219.094 569.988 219.839 570.374 220.308C570.769 220.766 571.285 220.995 571.921 220.995C572.421 220.995 572.842 220.844 573.186 220.542C573.53 220.23 573.743 219.75 573.827 219.105ZM579.014 220.73L579.202 221.87C578.837 221.943 578.509 221.98 578.217 221.98C577.759 221.98 577.4 221.907 577.139 221.761C576.879 221.615 576.697 221.422 576.592 221.183C576.488 220.943 576.436 220.438 576.436 219.667V215.292H575.483V214.292H576.436V212.401L577.717 211.636V214.292H579.014V215.292H577.717V219.73C577.717 220.094 577.738 220.334 577.78 220.448C577.832 220.552 577.905 220.636 577.999 220.698C578.103 220.75 578.254 220.776 578.452 220.776C578.587 220.776 578.775 220.761 579.014 220.73ZM580.274 212.87V211.401H581.571V212.87H580.274ZM580.274 221.886V214.292H581.571V221.886H580.274ZM583.046 218.089C583.046 216.683 583.436 215.641 584.217 214.964C584.874 214.401 585.671 214.12 586.608 214.12C587.66 214.12 588.514 214.464 589.171 215.151C589.837 215.828 590.171 216.771 590.171 217.98C590.171 218.959 590.025 219.73 589.733 220.292C589.441 220.844 589.014 221.276 588.452 221.589C587.889 221.901 587.275 222.058 586.608 222.058C585.546 222.058 584.686 221.719 584.03 221.042C583.374 220.355 583.046 219.37 583.046 218.089ZM584.374 218.089C584.374 219.058 584.582 219.787 584.999 220.276C585.426 220.756 585.962 220.995 586.608 220.995C587.254 220.995 587.785 220.756 588.202 220.276C588.629 219.787 588.842 219.042 588.842 218.042C588.842 217.105 588.629 216.396 588.202 215.917C587.775 215.427 587.243 215.183 586.608 215.183C585.962 215.183 585.426 215.422 584.999 215.901C584.582 216.381 584.374 217.11 584.374 218.089ZM591.681 221.886V214.292H592.837V215.37C593.4 214.537 594.207 214.12 595.259 214.12C595.717 214.12 596.139 214.203 596.525 214.37C596.91 214.526 597.197 214.74 597.384 215.011C597.572 215.282 597.707 215.599 597.79 215.964C597.832 216.203 597.853 216.62 597.853 217.214V221.886H596.572V217.261C596.572 216.74 596.52 216.349 596.415 216.089C596.311 215.828 596.129 215.62 595.868 215.464C595.618 215.308 595.322 215.23 594.978 215.23C594.436 215.23 593.962 215.407 593.556 215.761C593.16 216.105 592.962 216.761 592.962 217.73V221.886H591.681Z" fill="black"/>
<path d="M540.873 236.511L542.186 236.401C542.248 236.922 542.389 237.355 542.608 237.698C542.837 238.032 543.191 238.302 543.67 238.511C544.149 238.719 544.686 238.823 545.279 238.823C545.811 238.823 546.279 238.745 546.686 238.589C547.092 238.433 547.394 238.219 547.592 237.948C547.79 237.667 547.889 237.365 547.889 237.042C547.889 236.709 547.79 236.422 547.592 236.183C547.404 235.933 547.092 235.724 546.654 235.558C546.373 235.443 545.748 235.271 544.779 235.042C543.821 234.813 543.149 234.594 542.764 234.386C542.264 234.125 541.889 233.802 541.639 233.417C541.399 233.021 541.279 232.584 541.279 232.105C541.279 231.573 541.425 231.078 541.717 230.62C542.019 230.162 542.456 229.813 543.029 229.573C543.613 229.334 544.259 229.214 544.967 229.214C545.748 229.214 546.436 229.339 547.029 229.589C547.623 229.839 548.076 230.209 548.389 230.698C548.712 231.188 548.884 231.74 548.904 232.355L547.576 232.448C547.503 231.782 547.259 231.282 546.842 230.948C546.436 230.605 545.831 230.433 545.029 230.433C544.186 230.433 543.571 230.589 543.186 230.901C542.8 231.214 542.608 231.584 542.608 232.011C542.608 232.386 542.748 232.698 543.029 232.948C543.29 233.188 543.983 233.438 545.108 233.698C546.243 233.948 547.019 234.167 547.436 234.355C548.05 234.636 548.503 234.995 548.795 235.433C549.087 235.86 549.233 236.355 549.233 236.917C549.233 237.48 549.071 238.011 548.748 238.511C548.425 239 547.962 239.381 547.358 239.651C546.764 239.922 546.092 240.058 545.342 240.058C544.394 240.058 543.597 239.922 542.951 239.651C542.316 239.37 541.816 238.953 541.451 238.401C541.087 237.849 540.894 237.219 540.873 236.511ZM556.164 237.433L557.493 237.605C557.284 238.386 556.894 238.99 556.321 239.417C555.758 239.844 555.034 240.058 554.149 240.058C553.034 240.058 552.149 239.719 551.493 239.042C550.847 238.355 550.524 237.391 550.524 236.151C550.524 234.87 550.852 233.881 551.508 233.183C552.175 232.474 553.034 232.12 554.086 232.12C555.097 232.12 555.925 232.464 556.571 233.151C557.216 233.839 557.539 234.813 557.539 236.073C557.539 236.146 557.534 236.261 557.524 236.417H551.868C551.909 237.25 552.144 237.891 552.571 238.339C552.998 238.776 553.529 238.995 554.164 238.995C554.633 238.995 555.034 238.875 555.368 238.636C555.701 238.386 555.966 237.985 556.164 237.433ZM551.93 235.355H556.18C556.118 234.719 555.956 234.24 555.696 233.917C555.279 233.417 554.743 233.167 554.086 233.167C553.503 233.167 553.008 233.365 552.602 233.761C552.196 234.157 551.972 234.688 551.93 235.355ZM559.097 239.886V232.292H560.253V233.433C560.555 232.901 560.831 232.552 561.081 232.386C561.331 232.209 561.602 232.12 561.894 232.12C562.331 232.12 562.774 232.256 563.222 232.526L562.784 233.73C562.472 233.542 562.154 233.448 561.831 233.448C561.55 233.448 561.295 233.532 561.065 233.698C560.847 233.865 560.69 234.099 560.597 234.401C560.451 234.86 560.378 235.36 560.378 235.901V239.886H559.097ZM566.102 239.886L563.212 232.292H564.571L566.196 236.839C566.373 237.328 566.54 237.839 566.696 238.37C566.8 237.964 566.957 237.48 567.165 236.917L568.852 232.292H570.181L567.306 239.886H566.102ZM576.524 237.433L577.852 237.605C577.644 238.386 577.253 238.99 576.681 239.417C576.118 239.844 575.394 240.058 574.509 240.058C573.394 240.058 572.509 239.719 571.852 239.042C571.207 238.355 570.884 237.391 570.884 236.151C570.884 234.87 571.212 233.881 571.868 233.183C572.535 232.474 573.394 232.12 574.446 232.12C575.457 232.12 576.285 232.464 576.931 233.151C577.576 233.839 577.899 234.813 577.899 236.073C577.899 236.146 577.894 236.261 577.884 236.417H572.227C572.269 237.25 572.503 237.891 572.931 238.339C573.358 238.776 573.889 238.995 574.524 238.995C574.993 238.995 575.394 238.875 575.727 238.636C576.061 238.386 576.326 237.985 576.524 237.433ZM572.29 235.355H576.54C576.477 234.719 576.316 234.24 576.056 233.917C575.639 233.417 575.102 233.167 574.446 233.167C573.863 233.167 573.368 233.365 572.962 233.761C572.556 234.157 572.332 234.688 572.29 235.355ZM579.457 239.886V232.292H580.613V233.433C580.915 232.901 581.191 232.552 581.441 232.386C581.691 232.209 581.962 232.12 582.254 232.12C582.691 232.12 583.134 232.256 583.582 232.526L583.144 233.73C582.832 233.542 582.514 233.448 582.191 233.448C581.91 233.448 581.655 233.532 581.425 233.698C581.207 233.865 581.05 234.099 580.957 234.401C580.811 234.86 580.738 235.36 580.738 235.901V239.886H579.457Z" fill="black"/>
<g filter="url(#filter1_f_1_930)">
<path fill-rule="evenodd" clip-rule="evenodd" d="M752.556 125.491H859.045V330.121H752.556V125.491Z" fill="white"/>
<path fill-rule="evenodd" clip-rule="evenodd" d="M752.556 125.491H859.045V330.121H752.556V125.491Z" stroke="#44546A" stroke-miterlimit="10" stroke-linejoin="round"/>
<path d="M777.347 220.214L778.738 220.558C778.446 221.693 777.92 222.563 777.159 223.167C776.409 223.761 775.488 224.058 774.394 224.058C773.269 224.058 772.352 223.828 771.644 223.37C770.936 222.912 770.394 222.245 770.019 221.37C769.654 220.495 769.472 219.558 769.472 218.558C769.472 217.464 769.68 216.511 770.097 215.698C770.514 214.886 771.107 214.271 771.878 213.855C772.649 213.427 773.498 213.214 774.425 213.214C775.467 213.214 776.347 213.485 777.066 214.026C777.784 214.558 778.284 215.308 778.566 216.276L777.191 216.589C776.951 215.828 776.597 215.276 776.128 214.933C775.67 214.578 775.092 214.401 774.394 214.401C773.581 214.401 772.904 214.594 772.363 214.98C771.821 215.365 771.441 215.886 771.222 216.542C771.003 217.188 770.894 217.86 770.894 218.558C770.894 219.443 771.024 220.219 771.284 220.886C771.545 221.552 771.951 222.052 772.503 222.386C773.055 222.709 773.649 222.87 774.284 222.87C775.066 222.87 775.722 222.646 776.253 222.198C776.795 221.75 777.159 221.089 777.347 220.214ZM785.494 221.433L786.822 221.605C786.614 222.386 786.223 222.99 785.65 223.417C785.088 223.844 784.364 224.058 783.478 224.058C782.364 224.058 781.478 223.719 780.822 223.042C780.176 222.355 779.853 221.391 779.853 220.151C779.853 218.87 780.181 217.881 780.838 217.183C781.504 216.474 782.364 216.12 783.416 216.12C784.426 216.12 785.254 216.464 785.9 217.151C786.546 217.839 786.869 218.813 786.869 220.073C786.869 220.146 786.864 220.261 786.853 220.417H781.197C781.239 221.25 781.473 221.891 781.9 222.339C782.327 222.776 782.858 222.995 783.494 222.995C783.963 222.995 784.364 222.875 784.697 222.636C785.03 222.386 785.296 221.985 785.494 221.433ZM781.259 219.355H785.509C785.447 218.719 785.285 218.24 785.025 217.917C784.608 217.417 784.072 217.167 783.416 217.167C782.832 217.167 782.338 217.365 781.931 217.761C781.525 218.157 781.301 218.688 781.259 219.355ZM788.426 223.886V216.292H789.582V217.433C789.884 216.901 790.161 216.552 790.411 216.386C790.661 216.209 790.931 216.12 791.223 216.12C791.661 216.12 792.103 216.256 792.551 216.526L792.114 217.73C791.801 217.542 791.483 217.448 791.161 217.448C790.879 217.448 790.624 217.532 790.395 217.698C790.176 217.865 790.02 218.099 789.926 218.401C789.78 218.86 789.707 219.36 789.707 219.901V223.886H788.426ZM796.135 222.73L796.322 223.87C795.958 223.943 795.63 223.98 795.338 223.98C794.88 223.98 794.52 223.907 794.26 223.761C793.999 223.615 793.817 223.422 793.713 223.183C793.609 222.943 793.557 222.438 793.557 221.667V217.292H792.604V216.292H793.557V214.401L794.838 213.636V216.292H796.135V217.292H794.838V221.73C794.838 222.094 794.859 222.334 794.901 222.448C794.953 222.552 795.026 222.636 795.119 222.698C795.223 222.75 795.374 222.776 795.572 222.776C795.708 222.776 795.895 222.761 796.135 222.73ZM797.394 214.87V213.401H798.691V214.87H797.394ZM797.394 223.886V216.292H798.691V223.886H797.394ZM800.963 223.886V217.292H799.822V216.292H800.963V215.48C800.963 214.969 801.005 214.589 801.088 214.339C801.213 214.006 801.432 213.735 801.744 213.526C802.057 213.318 802.494 213.214 803.057 213.214C803.421 213.214 803.822 213.256 804.26 213.339L804.072 214.464C803.802 214.422 803.546 214.401 803.307 214.401C802.921 214.401 802.645 214.485 802.479 214.651C802.322 214.818 802.244 215.131 802.244 215.589V216.292H803.713V217.292H802.244V223.886H800.963ZM809.676 222.948C809.196 223.355 808.738 223.641 808.301 223.808C807.863 223.974 807.389 224.058 806.879 224.058C806.045 224.058 805.405 223.855 804.957 223.448C804.509 223.042 804.285 222.521 804.285 221.886C804.285 221.511 804.368 221.172 804.535 220.87C804.702 220.558 804.92 220.308 805.191 220.12C805.473 219.933 805.785 219.792 806.129 219.698C806.379 219.636 806.759 219.573 807.269 219.511C808.311 219.386 809.077 219.235 809.566 219.058C809.577 218.881 809.582 218.771 809.582 218.73C809.582 218.198 809.457 217.828 809.207 217.62C808.884 217.328 808.4 217.183 807.754 217.183C807.139 217.183 806.686 217.292 806.394 217.511C806.113 217.719 805.905 218.089 805.769 218.62L804.504 218.448C804.618 217.917 804.806 217.485 805.066 217.151C805.327 216.818 805.707 216.563 806.207 216.386C806.707 216.209 807.28 216.12 807.926 216.12C808.582 216.12 809.113 216.198 809.519 216.355C809.926 216.5 810.223 216.688 810.41 216.917C810.598 217.146 810.733 217.438 810.816 217.792C810.858 218.011 810.879 218.407 810.879 218.98V220.698C810.879 221.896 810.905 222.657 810.957 222.98C811.009 223.292 811.118 223.594 811.285 223.886H809.941C809.806 223.615 809.717 223.302 809.676 222.948ZM809.566 220.073C809.098 220.261 808.4 220.422 807.473 220.558C806.941 220.631 806.566 220.719 806.348 220.823C806.129 220.917 805.957 221.058 805.832 221.245C805.717 221.422 805.66 221.62 805.66 221.839C805.66 222.183 805.79 222.469 806.051 222.698C806.311 222.927 806.691 223.042 807.191 223.042C807.681 223.042 808.118 222.938 808.504 222.73C808.9 222.511 809.186 222.214 809.363 221.839C809.499 221.547 809.566 221.115 809.566 220.542V220.073ZM817.827 221.105L819.092 221.261C818.957 222.136 818.603 222.823 818.03 223.323C817.467 223.813 816.769 224.058 815.936 224.058C814.894 224.058 814.056 223.719 813.42 223.042C812.795 222.355 812.483 221.381 812.483 220.12C812.483 219.297 812.618 218.578 812.889 217.964C813.16 217.349 813.572 216.891 814.124 216.589C814.686 216.276 815.29 216.12 815.936 216.12C816.769 216.12 817.447 216.328 817.967 216.745C818.488 217.162 818.827 217.75 818.983 218.511L817.717 218.714C817.603 218.203 817.394 217.818 817.092 217.558C816.79 217.297 816.426 217.167 815.999 217.167C815.342 217.167 814.811 217.401 814.405 217.87C813.999 218.339 813.795 219.073 813.795 220.073C813.795 221.094 813.988 221.839 814.374 222.308C814.769 222.766 815.285 222.995 815.92 222.995C816.42 222.995 816.842 222.844 817.186 222.542C817.53 222.23 817.743 221.75 817.827 221.105ZM823.014 222.73L823.202 223.87C822.837 223.943 822.509 223.98 822.217 223.98C821.759 223.98 821.4 223.907 821.139 223.761C820.879 223.615 820.697 223.422 820.592 223.183C820.488 222.943 820.436 222.438 820.436 221.667V217.292H819.483V216.292H820.436V214.401L821.717 213.636V216.292H823.014V217.292H821.717V221.73C821.717 222.094 821.738 222.334 821.78 222.448C821.832 222.552 821.905 222.636 821.999 222.698C822.103 222.75 822.254 222.776 822.452 222.776C822.587 222.776 822.775 222.761 823.014 222.73ZM824.274 214.87V213.401H825.571V214.87H824.274ZM824.274 223.886V216.292H825.571V223.886H824.274ZM827.045 220.089C827.045 218.683 827.436 217.641 828.217 216.964C828.874 216.401 829.67 216.12 830.608 216.12C831.66 216.12 832.514 216.464 833.17 217.151C833.837 217.828 834.17 218.771 834.17 219.98C834.17 220.959 834.025 221.73 833.733 222.292C833.441 222.844 833.014 223.276 832.452 223.589C831.889 223.901 831.275 224.058 830.608 224.058C829.545 224.058 828.686 223.719 828.03 223.042C827.374 222.355 827.045 221.37 827.045 220.089ZM828.374 220.089C828.374 221.058 828.582 221.787 828.999 222.276C829.426 222.756 829.962 222.995 830.608 222.995C831.254 222.995 831.785 222.756 832.202 222.276C832.629 221.787 832.842 221.042 832.842 220.042C832.842 219.105 832.629 218.396 832.202 217.917C831.775 217.427 831.243 217.183 830.608 217.183C829.962 217.183 829.426 217.422 828.999 217.901C828.582 218.381 828.374 219.11 828.374 220.089ZM835.681 223.886V216.292H836.837V217.37C837.4 216.537 838.207 216.12 839.259 216.12C839.717 216.12 840.139 216.203 840.525 216.37C840.91 216.526 841.197 216.74 841.384 217.011C841.572 217.282 841.707 217.599 841.79 217.964C841.832 218.203 841.853 218.62 841.853 219.214V223.886H840.572V219.261C840.572 218.74 840.52 218.349 840.415 218.089C840.311 217.828 840.129 217.62 839.868 217.464C839.618 217.308 839.322 217.23 838.978 217.23C838.436 217.23 837.962 217.407 837.556 217.761C837.16 218.105 836.962 218.761 836.962 219.73V223.886H835.681Z" fill="black"/>
<path d="M793.973 241.886L797.989 231.401H799.489L803.786 241.886H802.208L800.973 238.714H796.598L795.442 241.886H793.973ZM796.989 237.573H800.551L799.458 234.667C799.124 233.792 798.874 233.068 798.708 232.495C798.572 233.172 798.385 233.839 798.145 234.495L796.989 237.573ZM804.89 241.886V231.401H808.858C809.556 231.401 810.087 231.433 810.452 231.495C810.962 231.578 811.39 231.74 811.733 231.98C812.087 232.219 812.369 232.558 812.577 232.995C812.796 233.433 812.905 233.912 812.905 234.433C812.905 235.318 812.619 236.073 812.046 236.698C811.483 237.313 810.457 237.62 808.968 237.62H806.28V241.886H804.89ZM806.28 236.386H808.999C809.895 236.386 810.53 236.219 810.905 235.886C811.28 235.552 811.468 235.084 811.468 234.48C811.468 234.032 811.358 233.651 811.14 233.339C810.921 233.026 810.629 232.823 810.265 232.73C810.025 232.667 809.593 232.636 808.968 232.636H806.28V236.386ZM814.899 241.886V231.401H816.29V241.886H814.899Z" fill="black"/>
</g>
<path fill-rule="evenodd" clip-rule="evenodd" d="M752.556 123.491H859.045V328.121H752.556V123.491Z" fill="white"/>
<path fill-rule="evenodd" clip-rule="evenodd" d="M752.556 123.491H859.045V328.121H752.556V123.491Z" stroke="#44546A" stroke-miterlimit="10" stroke-linejoin="round"/>
<path d="M777.347 218.214L778.738 218.558C778.446 219.693 777.92 220.563 777.159 221.167C776.409 221.761 775.488 222.058 774.394 222.058C773.269 222.058 772.352 221.828 771.644 221.37C770.936 220.912 770.394 220.245 770.019 219.37C769.654 218.495 769.472 217.558 769.472 216.558C769.472 215.464 769.68 214.511 770.097 213.698C770.514 212.886 771.107 212.271 771.878 211.855C772.649 211.427 773.498 211.214 774.425 211.214C775.467 211.214 776.347 211.485 777.066 212.026C777.784 212.558 778.284 213.308 778.566 214.276L777.191 214.589C776.951 213.828 776.597 213.276 776.128 212.933C775.67 212.578 775.092 212.401 774.394 212.401C773.581 212.401 772.904 212.594 772.363 212.98C771.821 213.365 771.441 213.886 771.222 214.542C771.003 215.188 770.894 215.86 770.894 216.558C770.894 217.443 771.024 218.219 771.284 218.886C771.545 219.552 771.951 220.052 772.503 220.386C773.055 220.709 773.649 220.87 774.284 220.87C775.066 220.87 775.722 220.646 776.253 220.198C776.795 219.75 777.159 219.089 777.347 218.214ZM785.494 219.433L786.822 219.605C786.614 220.386 786.223 220.99 785.65 221.417C785.088 221.844 784.364 222.058 783.478 222.058C782.364 222.058 781.478 221.719 780.822 221.042C780.176 220.355 779.853 219.391 779.853 218.151C779.853 216.87 780.181 215.881 780.838 215.183C781.504 214.474 782.364 214.12 783.416 214.12C784.426 214.12 785.254 214.464 785.9 215.151C786.546 215.839 786.869 216.813 786.869 218.073C786.869 218.146 786.864 218.261 786.853 218.417H781.197C781.239 219.25 781.473 219.891 781.9 220.339C782.327 220.776 782.858 220.995 783.494 220.995C783.963 220.995 784.364 220.875 784.697 220.636C785.03 220.386 785.296 219.985 785.494 219.433ZM781.259 217.355H785.509C785.447 216.719 785.285 216.24 785.025 215.917C784.608 215.417 784.072 215.167 783.416 215.167C782.832 215.167 782.338 215.365 781.931 215.761C781.525 216.157 781.301 216.688 781.259 217.355ZM788.426 221.886V214.292H789.582V215.433C789.884 214.901 790.161 214.552 790.411 214.386C790.661 214.209 790.931 214.12 791.223 214.12C791.661 214.12 792.103 214.256 792.551 214.526L792.114 215.73C791.801 215.542 791.483 215.448 791.161 215.448C790.879 215.448 790.624 215.532 790.395 215.698C790.176 215.865 790.02 216.099 789.926 216.401C789.78 216.86 789.707 217.36 789.707 217.901V221.886H788.426ZM796.135 220.73L796.322 221.87C795.958 221.943 795.63 221.98 795.338 221.98C794.88 221.98 794.52 221.907 794.26 221.761C793.999 221.615 793.817 221.422 793.713 221.183C793.609 220.943 793.557 220.438 793.557 219.667V215.292H792.604V214.292H793.557V212.401L794.838 211.636V214.292H796.135V215.292H794.838V219.73C794.838 220.094 794.859 220.334 794.901 220.448C794.953 220.552 795.026 220.636 795.119 220.698C795.223 220.75 795.374 220.776 795.572 220.776C795.708 220.776 795.895 220.761 796.135 220.73ZM797.394 212.87V211.401H798.691V212.87H797.394ZM797.394 221.886V214.292H798.691V221.886H797.394ZM800.963 221.886V215.292H799.822V214.292H800.963V213.48C800.963 212.969 801.005 212.589 801.088 212.339C801.213 212.006 801.432 211.735 801.744 211.526C802.057 211.318 802.494 211.214 803.057 211.214C803.421 211.214 803.822 211.256 804.26 211.339L804.072 212.464C803.802 212.422 803.546 212.401 803.307 212.401C802.921 212.401 802.645 212.485 802.479 212.651C802.322 212.818 802.244 213.131 802.244 213.589V214.292H803.713V215.292H802.244V221.886H800.963ZM809.676 220.948C809.196 221.355 808.738 221.641 808.301 221.808C807.863 221.974 807.389 222.058 806.879 222.058C806.045 222.058 805.405 221.855 804.957 221.448C804.509 221.042 804.285 220.521 804.285 219.886C804.285 219.511 804.368 219.172 804.535 218.87C804.702 218.558 804.92 218.308 805.191 218.12C805.473 217.933 805.785 217.792 806.129 217.698C806.379 217.636 806.759 217.573 807.269 217.511C808.311 217.386 809.077 217.235 809.566 217.058C809.577 216.881 809.582 216.771 809.582 216.73C809.582 216.198 809.457 215.828 809.207 215.62C808.884 215.328 808.4 215.183 807.754 215.183C807.139 215.183 806.686 215.292 806.394 215.511C806.113 215.719 805.905 216.089 805.769 216.62L804.504 216.448C804.618 215.917 804.806 215.485 805.066 215.151C805.327 214.818 805.707 214.563 806.207 214.386C806.707 214.209 807.28 214.12 807.926 214.12C808.582 214.12 809.113 214.198 809.519 214.355C809.926 214.5 810.223 214.688 810.41 214.917C810.598 215.146 810.733 215.438 810.816 215.792C810.858 216.011 810.879 216.407 810.879 216.98V218.698C810.879 219.896 810.905 220.657 810.957 220.98C811.009 221.292 811.118 221.594 811.285 221.886H809.941C809.806 221.615 809.717 221.302 809.676 220.948ZM809.566 218.073C809.098 218.261 808.4 218.422 807.473 218.558C806.941 218.631 806.566 218.719 806.348 218.823C806.129 218.917 805.957 219.058 805.832 219.245C805.717 219.422 805.66 219.62 805.66 219.839C805.66 220.183 805.79 220.469 806.051 220.698C806.311 220.927 806.691 221.042 807.191 221.042C807.681 221.042 808.118 220.938 808.504 220.73C808.9 220.511 809.186 220.214 809.363 219.839C809.499 219.547 809.566 219.115 809.566 218.542V218.073ZM817.827 219.105L819.092 219.261C818.957 220.136 818.603 220.823 818.03 221.323C817.467 221.813 816.769 222.058 815.936 222.058C814.894 222.058 814.056 221.719 813.42 221.042C812.795 220.355 812.483 219.381 812.483 218.12C812.483 217.297 812.618 216.578 812.889 215.964C813.16 215.349 813.572 214.891 814.124 214.589C814.686 214.276 815.29 214.12 815.936 214.12C816.769 214.12 817.447 214.328 817.967 214.745C818.488 215.162 818.827 215.75 818.983 216.511L817.717 216.714C817.603 216.203 817.394 215.818 817.092 215.558C816.79 215.297 816.426 215.167 815.999 215.167C815.342 215.167 814.811 215.401 814.405 215.87C813.999 216.339 813.795 217.073 813.795 218.073C813.795 219.094 813.988 219.839 814.374 220.308C814.769 220.766 815.285 220.995 815.92 220.995C816.42 220.995 816.842 220.844 817.186 220.542C817.53 220.23 817.743 219.75 817.827 219.105ZM823.014 220.73L823.202 221.87C822.837 221.943 822.509 221.98 822.217 221.98C821.759 221.98 821.4 221.907 821.139 221.761C820.879 221.615 820.697 221.422 820.592 221.183C820.488 220.943 820.436 220.438 820.436 219.667V215.292H819.483V214.292H820.436V212.401L821.717 211.636V214.292H823.014V215.292H821.717V219.73C821.717 220.094 821.738 220.334 821.78 220.448C821.832 220.552 821.905 220.636 821.999 220.698C822.103 220.75 822.254 220.776 822.452 220.776C822.587 220.776 822.775 220.761 823.014 220.73ZM824.274 212.87V211.401H825.571V212.87H824.274ZM824.274 221.886V214.292H825.571V221.886H824.274ZM827.045 218.089C827.045 216.683 827.436 215.641 828.217 214.964C828.874 214.401 829.67 214.12 830.608 214.12C831.66 214.12 832.514 214.464 833.17 215.151C833.837 215.828 834.17 216.771 834.17 217.98C834.17 218.959 834.025 219.73 833.733 220.292C833.441 220.844 833.014 221.276 832.452 221.589C831.889 221.901 831.275 222.058 830.608 222.058C829.545 222.058 828.686 221.719 828.03 221.042C827.374 220.355 827.045 219.37 827.045 218.089ZM828.374 218.089C828.374 219.058 828.582 219.787 828.999 220.276C829.426 220.756 829.962 220.995 830.608 220.995C831.254 220.995 831.785 220.756 832.202 220.276C832.629 219.787 832.842 219.042 832.842 218.042C832.842 217.105 832.629 216.396 832.202 215.917C831.775 215.427 831.243 215.183 830.608 215.183C829.962 215.183 829.426 215.422 828.999 215.901C828.582 216.381 828.374 217.11 828.374 218.089ZM835.681 221.886V214.292H836.837V215.37C837.4 214.537 838.207 214.12 839.259 214.12C839.717 214.12 840.139 214.203 840.525 214.37C840.91 214.526 841.197 214.74 841.384 215.011C841.572 215.282 841.707 215.599 841.79 215.964C841.832 216.203 841.853 216.62 841.853 217.214V221.886H840.572V217.261C840.572 216.74 840.52 216.349 840.415 216.089C840.311 215.828 840.129 215.62 839.868 215.464C839.618 215.308 839.322 215.23 838.978 215.23C838.436 215.23 837.962 215.407 837.556 215.761C837.16 216.105 836.962 216.761 836.962 217.73V221.886H835.681Z" fill="black"/>
<path d="M793.973 239.886L797.989 229.401H799.489L803.786 239.886H802.208L800.973 236.714H796.598L795.442 239.886H793.973ZM796.989 235.573H800.551L799.458 232.667C799.124 231.792 798.874 231.068 798.708 230.495C798.572 231.172 798.385 231.839 798.145 232.495L796.989 235.573ZM804.89 239.886V229.401H808.858C809.556 229.401 810.087 229.433 810.452 229.495C810.962 229.578 811.39 229.74 811.733 229.98C812.087 230.219 812.369 230.558 812.577 230.995C812.796 231.433 812.905 231.912 812.905 232.433C812.905 233.318 812.619 234.073 812.046 234.698C811.483 235.313 810.457 235.62 808.968 235.62H806.28V239.886H804.89ZM806.28 234.386H808.999C809.895 234.386 810.53 234.219 810.905 233.886C811.28 233.552 811.468 233.084 811.468 232.48C811.468 232.032 811.358 231.651 811.14 231.339C810.921 231.026 810.629 230.823 810.265 230.73C810.025 230.667 809.593 230.636 808.968 230.636H806.28V234.386ZM814.899 239.886V229.401H816.29V239.886H814.899Z" fill="black"/>
<path d="M671.423 222.241H717.564" stroke="#44546A" stroke-width="2" stroke-miterlimit="10" stroke-linejoin="round"/>
<path fill-rule="evenodd" clip-rule="evenodd" d="M717.564 225.545L726.641 222.241L717.564 218.938V225.545Z" fill="#44546A" stroke="#44546A" stroke-width="2" stroke-miterlimit="10"/>
<path d="M701.066 27.1811L703.05 368.535" stroke="black" stroke-miterlimit="10" stroke-linejoin="round" stroke-dasharray="4 3"/>
<path d="M620.859 36.4081L622.249 36.7519C621.958 37.8873 621.432 38.7571 620.671 39.3612C619.921 39.955 618.999 40.2519 617.906 40.2519C616.781 40.2519 615.864 40.0227 615.156 39.5644C614.447 39.106 613.906 38.4394 613.531 37.5644C613.166 36.6894 612.984 35.7519 612.984 34.7519C612.984 33.6581 613.192 32.705 613.609 31.8925C614.025 31.08 614.619 30.4654 615.39 30.0487C616.161 29.6217 617.01 29.4081 617.937 29.4081C618.978 29.4081 619.859 29.679 620.577 30.2206C621.296 30.7519 621.796 31.5019 622.077 32.4706L620.702 32.7831C620.463 32.0227 620.109 31.4706 619.64 31.1269C619.182 30.7727 618.603 30.5956 617.906 30.5956C617.093 30.5956 616.416 30.7883 615.874 31.1737C615.333 31.5592 614.952 32.08 614.734 32.7362C614.515 33.3821 614.406 34.054 614.406 34.7519C614.406 35.6373 614.536 36.4133 614.796 37.08C615.057 37.7467 615.463 38.2467 616.015 38.58C616.567 38.9029 617.161 39.0644 617.796 39.0644C618.577 39.0644 619.234 38.8404 619.765 38.3925C620.307 37.9446 620.671 37.2831 620.859 36.4081ZM623.771 40.08V29.5956H625.052V40.08H623.771ZM627.058 31.0644V29.5956H628.355V31.0644H627.058ZM627.058 40.08V32.4862H628.355V40.08H627.058ZM635.518 37.6269L636.846 37.7987C636.638 38.58 636.247 39.1842 635.674 39.6112C635.111 40.0383 634.388 40.2519 633.502 40.2519C632.388 40.2519 631.502 39.9133 630.846 39.2362C630.2 38.5487 629.877 37.5852 629.877 36.3456C629.877 35.0644 630.205 34.0748 630.861 33.3769C631.528 32.6685 632.388 32.3144 633.44 32.3144C634.45 32.3144 635.278 32.6581 635.924 33.3456C636.57 34.0331 636.893 35.0071 636.893 36.2675C636.893 36.3404 636.888 36.455 636.877 36.6112H631.221C631.263 37.4446 631.497 38.0852 631.924 38.5331C632.351 38.9706 632.882 39.1894 633.518 39.1894C633.986 39.1894 634.388 39.0696 634.721 38.83C635.054 38.58 635.32 38.179 635.518 37.6269ZM631.283 35.5487H635.533C635.471 34.9133 635.309 34.4342 635.049 34.1112C634.632 33.6112 634.096 33.3612 633.44 33.3612C632.856 33.3612 632.361 33.5592 631.955 33.955C631.549 34.3508 631.325 34.8821 631.283 35.5487ZM638.466 40.08V32.4862H639.622V33.5644C640.184 32.731 640.992 32.3144 642.044 32.3144C642.502 32.3144 642.924 32.3977 643.309 32.5644C643.695 32.7206 643.981 32.9342 644.169 33.205C644.356 33.4758 644.492 33.7935 644.575 34.1581C644.617 34.3977 644.638 34.8144 644.638 35.4081V40.08H643.356V35.455C643.356 34.9342 643.304 34.5435 643.2 34.2831C643.096 34.0227 642.914 33.8144 642.653 33.6581C642.403 33.5019 642.106 33.4237 641.763 33.4237C641.221 33.4237 640.747 33.6008 640.341 33.955C639.945 34.2987 639.747 34.955 639.747 35.9237V40.08H638.466ZM649.429 38.9237L649.617 40.0644C649.252 40.1373 648.924 40.1737 648.632 40.1737C648.174 40.1737 647.815 40.1008 647.554 39.955C647.294 39.8092 647.112 39.6165 647.007 39.3769C646.903 39.1373 646.851 38.6321 646.851 37.8612V33.4862H645.898V32.4862H646.851V30.5956L648.132 29.83V32.4862H649.429V33.4862H648.132V37.9237C648.132 38.2883 648.153 38.5279 648.195 38.6425C648.247 38.7467 648.32 38.83 648.414 38.8925C648.518 38.9446 648.669 38.9706 648.867 38.9706C649.002 38.9706 649.19 38.955 649.429 38.9237ZM654.448 36.705L655.761 36.5956C655.823 37.1165 655.964 37.5487 656.183 37.8925C656.412 38.2258 656.766 38.4967 657.245 38.705C657.724 38.9133 658.261 39.0175 658.855 39.0175C659.386 39.0175 659.855 38.9394 660.261 38.7831C660.667 38.6269 660.969 38.4133 661.167 38.1425C661.365 37.8612 661.464 37.5592 661.464 37.2362C661.464 36.9029 661.365 36.6165 661.167 36.3769C660.98 36.1269 660.667 35.9185 660.23 35.7519C659.948 35.6373 659.323 35.4654 658.355 35.2362C657.396 35.0071 656.724 34.7883 656.339 34.58C655.839 34.3196 655.464 33.9967 655.214 33.6112C654.974 33.2154 654.855 32.7779 654.855 32.2987C654.855 31.7675 655 31.2727 655.292 30.8144C655.594 30.356 656.032 30.0071 656.605 29.7675C657.188 29.5279 657.834 29.4081 658.542 29.4081C659.323 29.4081 660.011 29.5331 660.605 29.7831C661.198 30.0331 661.651 30.4029 661.964 30.8925C662.287 31.3821 662.459 31.9342 662.48 32.5487L661.151 32.6425C661.078 31.9758 660.834 31.4758 660.417 31.1425C660.011 30.7987 659.407 30.6269 658.605 30.6269C657.761 30.6269 657.146 30.7831 656.761 31.0956C656.375 31.4081 656.183 31.7779 656.183 32.205C656.183 32.58 656.323 32.8925 656.605 33.1425C656.865 33.3821 657.558 33.6321 658.683 33.8925C659.818 34.1425 660.594 34.3612 661.011 34.5487C661.625 34.83 662.078 35.1894 662.37 35.6269C662.662 36.054 662.808 36.5487 662.808 37.1112C662.808 37.6737 662.646 38.205 662.323 38.705C662 39.1946 661.537 39.5748 660.933 39.8456C660.339 40.1165 659.667 40.2519 658.917 40.2519C657.969 40.2519 657.172 40.1165 656.526 39.8456C655.891 39.5644 655.391 39.1477 655.026 38.5956C654.662 38.0435 654.469 37.4133 654.448 36.705ZM664.536 31.0644V29.5956H665.833V31.0644H664.536ZM664.536 40.08V32.4862H665.833V40.08H664.536ZM672.714 40.08V39.1269C672.235 39.8769 671.527 40.2519 670.589 40.2519C669.985 40.2519 669.428 40.0852 668.918 39.7519C668.418 39.4185 668.027 38.955 667.746 38.3612C667.464 37.7571 667.324 37.0644 667.324 36.2831C667.324 35.5227 667.449 34.8352 667.699 34.2206C667.959 33.606 668.339 33.1373 668.839 32.8144C669.35 32.481 669.918 32.3144 670.543 32.3144C671.001 32.3144 671.407 32.4133 671.761 32.6112C672.115 32.7987 672.407 33.0435 672.636 33.3456V29.5956H673.918V40.08H672.714ZM668.652 36.2831C668.652 37.2623 668.855 37.9915 669.261 38.4706C669.678 38.9498 670.162 39.1894 670.714 39.1894C671.277 39.1894 671.756 38.9602 672.152 38.5019C672.548 38.0435 672.746 37.3404 672.746 36.3925C672.746 35.3508 672.543 34.5904 672.136 34.1112C671.74 33.6217 671.246 33.3769 670.652 33.3769C670.089 33.3769 669.615 33.6112 669.23 34.08C668.845 34.5487 668.652 35.2831 668.652 36.2831ZM681.147 37.6269L682.475 37.7987C682.267 38.58 681.876 39.1842 681.303 39.6112C680.741 40.0383 680.017 40.2519 679.131 40.2519C678.017 40.2519 677.131 39.9133 676.475 39.2362C675.829 38.5487 675.506 37.5852 675.506 36.3456C675.506 35.0644 675.834 34.0748 676.491 33.3769C677.157 32.6685 678.017 32.3144 679.069 32.3144C680.079 32.3144 680.907 32.6581 681.553 33.3456C682.199 34.0331 682.522 35.0071 682.522 36.2675C682.522 36.3404 682.517 36.455 682.506 36.6112H676.85C676.892 37.4446 677.126 38.0852 677.553 38.5331C677.98 38.9706 678.511 39.1894 679.147 39.1894C679.616 39.1894 680.017 39.0696 680.35 38.83C680.683 38.58 680.949 38.179 681.147 37.6269ZM676.912 35.5487H681.162C681.1 34.9133 680.938 34.4342 680.678 34.1112C680.261 33.6112 679.725 33.3612 679.069 33.3612C678.485 33.3612 677.991 33.5592 677.584 33.955C677.178 34.3508 676.954 34.8821 676.912 35.5487Z" fill="black"/>
<path d="M725.357 36.4081L726.748 36.7519C726.456 37.8873 725.93 38.7571 725.17 39.3612C724.42 39.955 723.498 40.2519 722.404 40.2519C721.279 40.2519 720.363 40.0227 719.654 39.5644C718.946 39.106 718.404 38.4394 718.029 37.5644C717.665 36.6894 717.482 35.7519 717.482 34.7519C717.482 33.6581 717.691 32.705 718.107 31.8925C718.524 31.08 719.118 30.4654 719.889 30.0487C720.66 29.6217 721.508 29.4081 722.436 29.4081C723.477 29.4081 724.357 29.679 725.076 30.2206C725.795 30.7519 726.295 31.5019 726.576 32.4706L725.201 32.7831C724.962 32.0227 724.607 31.4706 724.139 31.1269C723.68 30.7727 723.102 30.5956 722.404 30.5956C721.592 30.5956 720.915 30.7883 720.373 31.1737C719.831 31.5592 719.451 32.08 719.232 32.7362C719.014 33.3821 718.904 34.054 718.904 34.7519C718.904 35.6373 719.035 36.4133 719.295 37.08C719.555 37.7467 719.962 38.2467 720.514 38.58C721.066 38.9029 721.66 39.0644 722.295 39.0644C723.076 39.0644 723.732 38.8404 724.264 38.3925C724.805 37.9446 725.17 37.2831 725.357 36.4081ZM733.504 37.6269L734.832 37.7987C734.624 38.58 734.233 39.1842 733.66 39.6112C733.098 40.0383 732.374 40.2519 731.489 40.2519C730.374 40.2519 729.489 39.9133 728.832 39.2362C728.187 38.5487 727.864 37.5852 727.864 36.3456C727.864 35.0644 728.192 34.0748 728.848 33.3769C729.515 32.6685 730.374 32.3144 731.426 32.3144C732.437 32.3144 733.265 32.6581 733.91 33.3456C734.556 34.0331 734.879 35.0071 734.879 36.2675C734.879 36.3404 734.874 36.455 734.864 36.6112H729.207C729.249 37.4446 729.483 38.0852 729.91 38.5331C730.338 38.9706 730.869 39.1894 731.504 39.1894C731.973 39.1894 732.374 39.0696 732.707 38.83C733.041 38.58 733.306 38.179 733.504 37.6269ZM729.27 35.5487H733.52C733.457 34.9133 733.296 34.4342 733.035 34.1112C732.619 33.6112 732.082 33.3612 731.426 33.3612C730.843 33.3612 730.348 33.5592 729.942 33.955C729.535 34.3508 729.312 34.8821 729.27 35.5487ZM736.437 40.08V32.4862H737.593V33.6269C737.895 33.0956 738.171 32.7467 738.421 32.58C738.671 32.4029 738.942 32.3144 739.233 32.3144C739.671 32.3144 740.114 32.4498 740.562 32.7206L740.124 33.9237C739.812 33.7362 739.494 33.6425 739.171 33.6425C738.89 33.6425 738.635 33.7258 738.405 33.8925C738.187 34.0592 738.03 34.2935 737.937 34.5956C737.791 35.054 737.718 35.554 737.718 36.0956V40.08H736.437ZM744.145 38.9237L744.333 40.0644C743.968 40.1373 743.64 40.1737 743.348 40.1737C742.89 40.1737 742.531 40.1008 742.27 39.955C742.01 39.8092 741.828 39.6165 741.723 39.3769C741.619 39.1373 741.567 38.6321 741.567 37.8612V33.4862H740.614V32.4862H741.567V30.5956L742.848 29.83V32.4862H744.145V33.4862H742.848V37.9237C742.848 38.2883 742.869 38.5279 742.911 38.6425C742.963 38.7467 743.036 38.83 743.13 38.8925C743.234 38.9446 743.385 38.9706 743.583 38.9706C743.718 38.9706 743.906 38.955 744.145 38.9237ZM745.405 31.0644V29.5956H746.702V31.0644H745.405ZM745.405 40.08V32.4862H746.702V40.08H745.405ZM748.973 40.08V33.4862H747.833V32.4862H748.973V31.6737C748.973 31.1633 749.015 30.7831 749.098 30.5331C749.223 30.1998 749.442 29.929 749.755 29.7206C750.067 29.5123 750.505 29.4081 751.067 29.4081C751.432 29.4081 751.833 29.4498 752.27 29.5331L752.083 30.6581C751.812 30.6165 751.557 30.5956 751.317 30.5956C750.932 30.5956 750.656 30.679 750.489 30.8456C750.333 31.0123 750.255 31.3248 750.255 31.7831V32.4862H751.723V33.4862H750.255V40.08H748.973ZM757.686 39.1425C757.207 39.5487 756.749 39.8352 756.311 40.0019C755.874 40.1685 755.4 40.2519 754.889 40.2519C754.056 40.2519 753.415 40.0487 752.967 39.6425C752.519 39.2362 752.295 38.7154 752.295 38.08C752.295 37.705 752.379 37.3665 752.545 37.0644C752.712 36.7519 752.931 36.5019 753.202 36.3144C753.483 36.1269 753.795 35.9862 754.139 35.8925C754.389 35.83 754.769 35.7675 755.28 35.705C756.321 35.58 757.087 35.429 757.577 35.2519C757.587 35.0748 757.592 34.9654 757.592 34.9237C757.592 34.3925 757.467 34.0227 757.217 33.8144C756.894 33.5227 756.41 33.3769 755.764 33.3769C755.15 33.3769 754.696 33.4862 754.405 33.705C754.124 33.9133 753.915 34.2831 753.78 34.8144L752.514 34.6425C752.629 34.1112 752.816 33.679 753.077 33.3456C753.337 33.0123 753.717 32.7571 754.217 32.58C754.717 32.4029 755.29 32.3144 755.936 32.3144C756.592 32.3144 757.124 32.3925 757.53 32.5487C757.936 32.6946 758.233 32.8821 758.42 33.1112C758.608 33.3404 758.743 33.6321 758.827 33.9862C758.868 34.205 758.889 34.6008 758.889 35.1737V36.8925C758.889 38.0904 758.915 38.8508 758.967 39.1737C759.019 39.4862 759.129 39.7883 759.295 40.08H757.952C757.816 39.8092 757.728 39.4967 757.686 39.1425ZM757.577 36.2675C757.108 36.455 756.41 36.6165 755.483 36.7519C754.952 36.8248 754.577 36.9133 754.358 37.0175C754.139 37.1112 753.967 37.2519 753.842 37.4394C753.728 37.6165 753.67 37.8144 753.67 38.0331C753.67 38.3769 753.801 38.6633 754.061 38.8925C754.321 39.1217 754.702 39.2362 755.202 39.2362C755.691 39.2362 756.129 39.1321 756.514 38.9237C756.91 38.705 757.196 38.4081 757.374 38.0331C757.509 37.7415 757.577 37.3092 757.577 36.7362V36.2675ZM765.837 37.2987L767.103 37.455C766.967 38.33 766.613 39.0175 766.04 39.5175C765.478 40.0071 764.78 40.2519 763.947 40.2519C762.905 40.2519 762.066 39.9133 761.431 39.2362C760.806 38.5487 760.493 37.5748 760.493 36.3144C760.493 35.4915 760.629 34.7727 760.9 34.1581C761.17 33.5435 761.582 33.0852 762.134 32.7831C762.697 32.4706 763.301 32.3144 763.947 32.3144C764.78 32.3144 765.457 32.5227 765.978 32.9394C766.499 33.356 766.837 33.9446 766.993 34.705L765.728 34.9081C765.613 34.3977 765.405 34.0123 765.103 33.7519C764.801 33.4915 764.436 33.3612 764.009 33.3612C763.353 33.3612 762.822 33.5956 762.415 34.0644C762.009 34.5331 761.806 35.2675 761.806 36.2675C761.806 37.2883 761.999 38.0331 762.384 38.5019C762.78 38.9602 763.295 39.1894 763.931 39.1894C764.431 39.1894 764.853 39.0383 765.197 38.7362C765.54 38.4237 765.754 37.9446 765.837 37.2987ZM771.025 38.9237L771.212 40.0644C770.848 40.1373 770.519 40.1737 770.228 40.1737C769.769 40.1737 769.41 40.1008 769.15 39.955C768.889 39.8092 768.707 39.6165 768.603 39.3769C768.499 39.1373 768.447 38.6321 768.447 37.8612V33.4862H767.493V32.4862H768.447V30.5956L769.728 29.83V32.4862H771.025V33.4862H769.728V37.9237C769.728 38.2883 769.749 38.5279 769.79 38.6425C769.842 38.7467 769.915 38.83 770.009 38.8925C770.113 38.9446 770.264 38.9706 770.462 38.9706C770.598 38.9706 770.785 38.955 771.025 38.9237ZM772.284 31.0644V29.5956H773.581V31.0644H772.284ZM772.284 40.08V32.4862H773.581V40.08H772.284ZM775.056 36.2831C775.056 34.8769 775.447 33.8352 776.228 33.1581C776.884 32.5956 777.681 32.3144 778.618 32.3144C779.67 32.3144 780.525 32.6581 781.181 33.3456C781.848 34.0227 782.181 34.9654 782.181 36.1737C782.181 37.1529 782.035 37.9237 781.743 38.4862C781.452 39.0383 781.025 39.4706 780.462 39.7831C779.9 40.0956 779.285 40.2519 778.618 40.2519C777.556 40.2519 776.697 39.9133 776.04 39.2362C775.384 38.5487 775.056 37.5644 775.056 36.2831ZM776.384 36.2831C776.384 37.2519 776.592 37.981 777.009 38.4706C777.436 38.9498 777.973 39.1894 778.618 39.1894C779.264 39.1894 779.795 38.9498 780.212 38.4706C780.639 37.981 780.853 37.2362 780.853 36.2362C780.853 35.2987 780.639 34.5904 780.212 34.1112C779.785 33.6217 779.254 33.3769 778.618 33.3769C777.973 33.3769 777.436 33.6165 777.009 34.0956C776.592 34.5748 776.384 35.304 776.384 36.2831ZM783.691 40.08V32.4862H784.848V33.5644C785.41 32.731 786.217 32.3144 787.27 32.3144C787.728 32.3144 788.15 32.3977 788.535 32.5644C788.921 32.7206 789.207 32.9342 789.395 33.205C789.582 33.4758 789.717 33.7935 789.801 34.1581C789.842 34.3977 789.863 34.8144 789.863 35.4081V40.08H788.582V35.455C788.582 34.9342 788.53 34.5435 788.426 34.2831C788.322 34.0227 788.139 33.8144 787.879 33.6581C787.629 33.5019 787.332 33.4237 786.988 33.4237C786.447 33.4237 785.973 33.6008 785.566 33.955C785.171 34.2987 784.973 34.955 784.973 35.9237V40.08H783.691ZM794.121 40.08L798.136 29.5956H799.636L803.933 40.08H802.355L801.121 36.9081H796.746L795.59 40.08H794.121ZM797.136 35.7675H800.699L799.605 32.8612C799.272 31.9862 799.022 31.2623 798.855 30.6894C798.72 31.3665 798.532 32.0331 798.293 32.6894L797.136 35.7675ZM805.037 40.08V29.5956H809.006C809.704 29.5956 810.235 29.6269 810.6 29.6894C811.11 29.7727 811.537 29.9342 811.881 30.1737C812.235 30.4133 812.516 30.7519 812.725 31.1894C812.943 31.6269 813.053 32.106 813.053 32.6269C813.053 33.5123 812.766 34.2675 812.193 34.8925C811.631 35.5071 810.605 35.8144 809.115 35.8144H806.428V40.08H805.037ZM806.428 34.58H809.146C810.042 34.58 810.678 34.4133 811.053 34.08C811.428 33.7467 811.615 33.2779 811.615 32.6737C811.615 32.2258 811.506 31.8456 811.287 31.5331C811.068 31.2206 810.777 31.0175 810.412 30.9237C810.173 30.8612 809.74 30.83 809.115 30.83H806.428V34.58ZM815.047 40.08V29.5956H816.438V40.08H815.047Z" fill="black"/>
<g filter="url(#filter2_f_1_930)">
<path fill-rule="evenodd" clip-rule="evenodd" d="M304.556 125.491H411.045V330.121H304.556V125.491Z" fill="white"/>
<path fill-rule="evenodd" clip-rule="evenodd" d="M304.556 125.491H411.045V330.121H304.556V125.491Z" stroke="#44546A" stroke-miterlimit="10" stroke-linejoin="round"/>
<path d="M347.674 220.214L349.065 220.558C348.773 221.693 348.247 222.563 347.487 223.167C346.737 223.761 345.815 224.058 344.721 224.058C343.596 224.058 342.68 223.828 341.971 223.37C341.263 222.912 340.721 222.245 340.346 221.37C339.982 220.495 339.799 219.558 339.799 218.558C339.799 217.464 340.008 216.511 340.424 215.698C340.841 214.886 341.435 214.271 342.206 213.855C342.977 213.427 343.826 213.214 344.753 213.214C345.794 213.214 346.674 213.485 347.393 214.026C348.112 214.558 348.612 215.308 348.893 216.276L347.518 216.589C347.279 215.828 346.924 215.276 346.456 214.933C345.997 214.578 345.419 214.401 344.721 214.401C343.909 214.401 343.232 214.594 342.69 214.98C342.148 215.365 341.768 215.886 341.549 216.542C341.331 217.188 341.221 217.86 341.221 218.558C341.221 219.443 341.352 220.219 341.612 220.886C341.872 221.552 342.279 222.052 342.831 222.386C343.383 222.709 343.977 222.87 344.612 222.87C345.393 222.87 346.049 222.646 346.581 222.198C347.122 221.75 347.487 221.089 347.674 220.214ZM350.587 223.886V213.401H351.868V223.886H350.587ZM353.874 214.87V213.401H355.171V214.87H353.874ZM353.874 223.886V216.292H355.171V223.886H353.874ZM362.334 221.433L363.662 221.605C363.453 222.386 363.063 222.99 362.49 223.417C361.927 223.844 361.203 224.058 360.318 224.058C359.203 224.058 358.318 223.719 357.662 223.042C357.016 222.355 356.693 221.391 356.693 220.151C356.693 218.87 357.021 217.881 357.677 217.183C358.344 216.474 359.203 216.12 360.255 216.12C361.266 216.12 362.094 216.464 362.74 217.151C363.386 217.839 363.709 218.813 363.709 220.073C363.709 220.146 363.703 220.261 363.693 220.417H358.037C358.078 221.25 358.313 221.891 358.74 222.339C359.167 222.776 359.698 222.995 360.334 222.995C360.802 222.995 361.203 222.875 361.537 222.636C361.87 222.386 362.136 221.985 362.334 221.433ZM358.099 219.355H362.349C362.287 218.719 362.125 218.24 361.865 217.917C361.448 217.417 360.912 217.167 360.255 217.167C359.672 217.167 359.177 217.365 358.771 217.761C358.365 218.157 358.141 218.688 358.099 219.355ZM365.282 223.886V216.292H366.438V217.37C367 216.537 367.808 216.12 368.86 216.12C369.318 216.12 369.74 216.203 370.125 216.37C370.511 216.526 370.797 216.74 370.985 217.011C371.172 217.282 371.308 217.599 371.391 217.964C371.433 218.203 371.453 218.62 371.453 219.214V223.886H370.172V219.261C370.172 218.74 370.12 218.349 370.016 218.089C369.912 217.828 369.729 217.62 369.469 217.464C369.219 217.308 368.922 217.23 368.578 217.23C368.037 217.23 367.563 217.407 367.157 217.761C366.761 218.105 366.563 218.761 366.563 219.73V223.886H365.282ZM376.245 222.73L376.433 223.87C376.068 223.943 375.74 223.98 375.448 223.98C374.99 223.98 374.631 223.907 374.37 223.761C374.11 223.615 373.927 223.422 373.823 223.183C373.719 222.943 373.667 222.438 373.667 221.667V217.292H372.714V216.292H373.667V214.401L374.948 213.636V216.292H376.245V217.292H374.948V221.73C374.948 222.094 374.969 222.334 375.011 222.448C375.063 222.552 375.136 222.636 375.23 222.698C375.334 222.75 375.485 222.776 375.683 222.776C375.818 222.776 376.006 222.761 376.245 222.73Z" fill="black"/>
<path d="M334.021 238.511L335.334 238.401C335.396 238.922 335.537 239.355 335.756 239.698C335.985 240.032 336.339 240.302 336.818 240.511C337.297 240.719 337.834 240.823 338.428 240.823C338.959 240.823 339.428 240.745 339.834 240.589C340.24 240.433 340.542 240.219 340.74 239.948C340.938 239.667 341.037 239.365 341.037 239.042C341.037 238.709 340.938 238.422 340.74 238.183C340.553 237.933 340.24 237.724 339.803 237.558C339.521 237.443 338.896 237.271 337.928 237.042C336.969 236.813 336.297 236.594 335.912 236.386C335.412 236.125 335.037 235.802 334.787 235.417C334.547 235.021 334.428 234.584 334.428 234.105C334.428 233.573 334.573 233.078 334.865 232.62C335.167 232.162 335.605 231.813 336.178 231.573C336.761 231.334 337.407 231.214 338.115 231.214C338.896 231.214 339.584 231.339 340.178 231.589C340.771 231.839 341.224 232.209 341.537 232.698C341.86 233.188 342.032 233.74 342.053 234.355L340.724 234.448C340.652 233.782 340.407 233.282 339.99 232.948C339.584 232.605 338.98 232.433 338.178 232.433C337.334 232.433 336.719 232.589 336.334 232.901C335.948 233.214 335.756 233.584 335.756 234.011C335.756 234.386 335.896 234.698 336.178 234.948C336.438 235.188 337.131 235.438 338.256 235.698C339.391 235.948 340.167 236.167 340.584 236.355C341.198 236.636 341.652 236.995 341.943 237.433C342.235 237.86 342.381 238.355 342.381 238.917C342.381 239.48 342.219 240.011 341.896 240.511C341.573 241 341.11 241.381 340.506 241.651C339.912 241.922 339.24 242.058 338.49 242.058C337.542 242.058 336.745 241.922 336.099 241.651C335.464 241.37 334.964 240.953 334.599 240.401C334.235 239.849 334.042 239.219 334.021 238.511ZM349.313 239.433L350.641 239.605C350.432 240.386 350.042 240.99 349.469 241.417C348.906 241.844 348.182 242.058 347.297 242.058C346.182 242.058 345.297 241.719 344.641 241.042C343.995 240.355 343.672 239.391 343.672 238.151C343.672 236.87 344 235.881 344.656 235.183C345.323 234.474 346.182 234.12 347.234 234.12C348.245 234.12 349.073 234.464 349.719 235.151C350.365 235.839 350.688 236.813 350.688 238.073C350.688 238.146 350.682 238.261 350.672 238.417H345.016C345.057 239.25 345.292 239.891 345.719 240.339C346.146 240.776 346.677 240.995 347.313 240.995C347.781 240.995 348.182 240.875 348.516 240.636C348.849 240.386 349.115 239.985 349.313 239.433ZM345.078 237.355H349.328C349.266 236.719 349.104 236.24 348.844 235.917C348.427 235.417 347.891 235.167 347.234 235.167C346.651 235.167 346.156 235.365 345.75 235.761C345.344 236.157 345.12 236.688 345.078 237.355ZM352.245 241.886V234.292H353.401V235.433C353.703 234.901 353.979 234.552 354.229 234.386C354.479 234.209 354.75 234.12 355.042 234.12C355.479 234.12 355.922 234.256 356.37 234.526L355.932 235.73C355.62 235.542 355.302 235.448 354.979 235.448C354.698 235.448 354.443 235.532 354.214 235.698C353.995 235.865 353.839 236.099 353.745 236.401C353.599 236.86 353.526 237.36 353.526 237.901V241.886H352.245ZM359.251 241.886L356.36 234.292H357.719L359.344 238.839C359.521 239.328 359.688 239.839 359.844 240.37C359.948 239.964 360.105 239.48 360.313 238.917L362.001 234.292H363.329L360.454 241.886H359.251ZM364.469 232.87V231.401H365.766V232.87H364.469ZM364.469 241.886V234.292H365.766V241.886H364.469ZM372.679 239.105L373.944 239.261C373.809 240.136 373.455 240.823 372.882 241.323C372.319 241.813 371.621 242.058 370.788 242.058C369.746 242.058 368.908 241.719 368.272 241.042C367.647 240.355 367.335 239.381 367.335 238.12C367.335 237.297 367.47 236.578 367.741 235.964C368.012 235.349 368.423 234.891 368.975 234.589C369.538 234.276 370.142 234.12 370.788 234.12C371.621 234.12 372.298 234.328 372.819 234.745C373.34 235.162 373.679 235.75 373.835 236.511L372.569 236.714C372.455 236.203 372.246 235.818 371.944 235.558C371.642 235.297 371.278 235.167 370.85 235.167C370.194 235.167 369.663 235.401 369.257 235.87C368.85 236.339 368.647 237.073 368.647 238.073C368.647 239.094 368.84 239.839 369.225 240.308C369.621 240.766 370.137 240.995 370.772 240.995C371.272 240.995 371.694 240.844 372.038 240.542C372.382 240.23 372.595 239.75 372.679 239.105ZM380.257 239.433L381.585 239.605C381.377 240.386 380.986 240.99 380.413 241.417C379.85 241.844 379.127 242.058 378.241 242.058C377.127 242.058 376.241 241.719 375.585 241.042C374.939 240.355 374.616 239.391 374.616 238.151C374.616 236.87 374.944 235.881 375.6 235.183C376.267 234.474 377.127 234.12 378.179 234.12C379.189 234.12 380.017 234.464 380.663 235.151C381.309 235.839 381.632 236.813 381.632 238.073C381.632 238.146 381.627 238.261 381.616 238.417H375.96C376.002 239.25 376.236 239.891 376.663 240.339C377.09 240.776 377.621 240.995 378.257 240.995C378.725 240.995 379.127 240.875 379.46 240.636C379.793 240.386 380.059 239.985 380.257 239.433ZM376.022 237.355H380.272C380.21 236.719 380.048 236.24 379.788 235.917C379.371 235.417 378.835 235.167 378.179 235.167C377.595 235.167 377.1 235.365 376.694 235.761C376.288 236.157 376.064 236.688 376.022 237.355Z" fill="black"/>
</g>
<path fill-rule="evenodd" clip-rule="evenodd" d="M304.556 123.491H411.045V328.121H304.556V123.491Z" fill="white"/>
<path fill-rule="evenodd" clip-rule="evenodd" d="M304.556 123.491H411.045V328.121H304.556V123.491Z" stroke="#44546A" stroke-miterlimit="10" stroke-linejoin="round"/>
<path d="M347.674 218.214L349.065 218.558C348.773 219.693 348.247 220.563 347.487 221.167C346.737 221.761 345.815 222.058 344.721 222.058C343.596 222.058 342.68 221.828 341.971 221.37C341.263 220.912 340.721 220.245 340.346 219.37C339.982 218.495 339.799 217.558 339.799 216.558C339.799 215.464 340.008 214.511 340.424 213.698C340.841 212.886 341.435 212.271 342.206 211.855C342.977 211.427 343.826 211.214 344.753 211.214C345.794 211.214 346.674 211.485 347.393 212.026C348.112 212.558 348.612 213.308 348.893 214.276L347.518 214.589C347.279 213.828 346.924 213.276 346.456 212.933C345.997 212.578 345.419 212.401 344.721 212.401C343.909 212.401 343.232 212.594 342.69 212.98C342.148 213.365 341.768 213.886 341.549 214.542C341.331 215.188 341.221 215.86 341.221 216.558C341.221 217.443 341.352 218.219 341.612 218.886C341.872 219.552 342.279 220.052 342.831 220.386C343.383 220.709 343.977 220.87 344.612 220.87C345.393 220.87 346.049 220.646 346.581 220.198C347.122 219.75 347.487 219.089 347.674 218.214ZM350.587 221.886V211.401H351.868V221.886H350.587ZM353.874 212.87V211.401H355.171V212.87H353.874ZM353.874 221.886V214.292H355.171V221.886H353.874ZM362.334 219.433L363.662 219.605C363.453 220.386 363.063 220.99 362.49 221.417C361.927 221.844 361.203 222.058 360.318 222.058C359.203 222.058 358.318 221.719 357.662 221.042C357.016 220.355 356.693 219.391 356.693 218.151C356.693 216.87 357.021 215.881 357.677 215.183C358.344 214.474 359.203 214.12 360.255 214.12C361.266 214.12 362.094 214.464 362.74 215.151C363.386 215.839 363.709 216.813 363.709 218.073C363.709 218.146 363.703 218.261 363.693 218.417H358.037C358.078 219.25 358.313 219.891 358.74 220.339C359.167 220.776 359.698 220.995 360.334 220.995C360.802 220.995 361.203 220.875 361.537 220.636C361.87 220.386 362.136 219.985 362.334 219.433ZM358.099 217.355H362.349C362.287 216.719 362.125 216.24 361.865 215.917C361.448 215.417 360.912 215.167 360.255 215.167C359.672 215.167 359.177 215.365 358.771 215.761C358.365 216.157 358.141 216.688 358.099 217.355ZM365.282 221.886V214.292H366.438V215.37C367 214.537 367.808 214.12 368.86 214.12C369.318 214.12 369.74 214.203 370.125 214.37C370.511 214.526 370.797 214.74 370.985 215.011C371.172 215.282 371.308 215.599 371.391 215.964C371.433 216.203 371.453 216.62 371.453 217.214V221.886H370.172V217.261C370.172 216.74 370.12 216.349 370.016 216.089C369.912 215.828 369.729 215.62 369.469 215.464C369.219 215.308 368.922 215.23 368.578 215.23C368.037 215.23 367.563 215.407 367.157 215.761C366.761 216.105 366.563 216.761 366.563 217.73V221.886H365.282ZM376.245 220.73L376.433 221.87C376.068 221.943 375.74 221.98 375.448 221.98C374.99 221.98 374.631 221.907 374.37 221.761C374.11 221.615 373.927 221.422 373.823 221.183C373.719 220.943 373.667 220.438 373.667 219.667V215.292H372.714V214.292H373.667V212.401L374.948 211.636V214.292H376.245V215.292H374.948V219.73C374.948 220.094 374.969 220.334 375.011 220.448C375.063 220.552 375.136 220.636 375.23 220.698C375.334 220.75 375.485 220.776 375.683 220.776C375.818 220.776 376.006 220.761 376.245 220.73Z" fill="black"/>
<path d="M334.021 236.511L335.334 236.401C335.396 236.922 335.537 237.355 335.756 237.698C335.985 238.032 336.339 238.302 336.818 238.511C337.297 238.719 337.834 238.823 338.428 238.823C338.959 238.823 339.428 238.745 339.834 238.589C340.24 238.433 340.542 238.219 340.74 237.948C340.938 237.667 341.037 237.365 341.037 237.042C341.037 236.709 340.938 236.422 340.74 236.183C340.553 235.933 340.24 235.724 339.803 235.558C339.521 235.443 338.896 235.271 337.928 235.042C336.969 234.813 336.297 234.594 335.912 234.386C335.412 234.125 335.037 233.802 334.787 233.417C334.547 233.021 334.428 232.584 334.428 232.105C334.428 231.573 334.573 231.078 334.865 230.62C335.167 230.162 335.605 229.813 336.178 229.573C336.761 229.334 337.407 229.214 338.115 229.214C338.896 229.214 339.584 229.339 340.178 229.589C340.771 229.839 341.224 230.209 341.537 230.698C341.86 231.188 342.032 231.74 342.053 232.355L340.724 232.448C340.652 231.782 340.407 231.282 339.99 230.948C339.584 230.605 338.98 230.433 338.178 230.433C337.334 230.433 336.719 230.589 336.334 230.901C335.948 231.214 335.756 231.584 335.756 232.011C335.756 232.386 335.896 232.698 336.178 232.948C336.438 233.188 337.131 233.438 338.256 233.698C339.391 233.948 340.167 234.167 340.584 234.355C341.198 234.636 341.652 234.995 341.943 235.433C342.235 235.86 342.381 236.355 342.381 236.917C342.381 237.48 342.219 238.011 341.896 238.511C341.573 239 341.11 239.381 340.506 239.651C339.912 239.922 339.24 240.058 338.49 240.058C337.542 240.058 336.745 239.922 336.099 239.651C335.464 239.37 334.964 238.953 334.599 238.401C334.235 237.849 334.042 237.219 334.021 236.511ZM349.313 237.433L350.641 237.605C350.432 238.386 350.042 238.99 349.469 239.417C348.906 239.844 348.182 240.058 347.297 240.058C346.182 240.058 345.297 239.719 344.641 239.042C343.995 238.355 343.672 237.391 343.672 236.151C343.672 234.87 344 233.881 344.656 233.183C345.323 232.474 346.182 232.12 347.234 232.12C348.245 232.12 349.073 232.464 349.719 233.151C350.365 233.839 350.688 234.813 350.688 236.073C350.688 236.146 350.682 236.261 350.672 236.417H345.016C345.057 237.25 345.292 237.891 345.719 238.339C346.146 238.776 346.677 238.995 347.313 238.995C347.781 238.995 348.182 238.875 348.516 238.636C348.849 238.386 349.115 237.985 349.313 237.433ZM345.078 235.355H349.328C349.266 234.719 349.104 234.24 348.844 233.917C348.427 233.417 347.891 233.167 347.234 233.167C346.651 233.167 346.156 233.365 345.75 233.761C345.344 234.157 345.12 234.688 345.078 235.355ZM352.245 239.886V232.292H353.401V233.433C353.703 232.901 353.979 232.552 354.229 232.386C354.479 232.209 354.75 232.12 355.042 232.12C355.479 232.12 355.922 232.256 356.37 232.526L355.932 233.73C355.62 233.542 355.302 233.448 354.979 233.448C354.698 233.448 354.443 233.532 354.214 233.698C353.995 233.865 353.839 234.099 353.745 234.401C353.599 234.86 353.526 235.36 353.526 235.901V239.886H352.245ZM359.251 239.886L356.36 232.292H357.719L359.344 236.839C359.521 237.328 359.688 237.839 359.844 238.37C359.948 237.964 360.105 237.48 360.313 236.917L362.001 232.292H363.329L360.454 239.886H359.251ZM364.469 230.87V229.401H365.766V230.87H364.469ZM364.469 239.886V232.292H365.766V239.886H364.469ZM372.679 237.105L373.944 237.261C373.809 238.136 373.455 238.823 372.882 239.323C372.319 239.813 371.621 240.058 370.788 240.058C369.746 240.058 368.908 239.719 368.272 239.042C367.647 238.355 367.335 237.381 367.335 236.12C367.335 235.297 367.47 234.578 367.741 233.964C368.012 233.349 368.423 232.891 368.975 232.589C369.538 232.276 370.142 232.12 370.788 232.12C371.621 232.12 372.298 232.328 372.819 232.745C373.34 233.162 373.679 233.75 373.835 234.511L372.569 234.714C372.455 234.203 372.246 233.818 371.944 233.558C371.642 233.297 371.278 233.167 370.85 233.167C370.194 233.167 369.663 233.401 369.257 233.87C368.85 234.339 368.647 235.073 368.647 236.073C368.647 237.094 368.84 237.839 369.225 238.308C369.621 238.766 370.137 238.995 370.772 238.995C371.272 238.995 371.694 238.844 372.038 238.542C372.382 238.23 372.595 237.75 372.679 237.105ZM380.257 237.433L381.585 237.605C381.377 238.386 380.986 238.99 380.413 239.417C379.85 239.844 379.127 240.058 378.241 240.058C377.127 240.058 376.241 239.719 375.585 239.042C374.939 238.355 374.616 237.391 374.616 236.151C374.616 234.87 374.944 233.881 375.6 233.183C376.267 232.474 377.127 232.12 378.179 232.12C379.189 232.12 380.017 232.464 380.663 233.151C381.309 233.839 381.632 234.813 381.632 236.073C381.632 236.146 381.627 236.261 381.616 236.417H375.96C376.002 237.25 376.236 237.891 376.663 238.339C377.09 238.776 377.621 238.995 378.257 238.995C378.725 238.995 379.127 238.875 379.46 238.636C379.793 238.386 380.059 237.985 380.257 237.433ZM376.022 235.355H380.272C380.21 234.719 380.048 234.24 379.788 233.917C379.371 233.417 378.835 233.167 378.179 233.167C377.595 233.167 377.1 233.365 376.694 233.761C376.288 234.157 376.064 234.688 376.022 235.355Z" fill="black"/>
<path d="M729.564 254.241H683.423" stroke="#44546A" stroke-width="2" stroke-miterlimit="10" stroke-linejoin="round"/>
<path fill-rule="evenodd" clip-rule="evenodd" d="M683.423 250.938L674.346 254.241L683.423 257.545V250.938Z" fill="#44546A" stroke="#44546A" stroke-width="2" stroke-miterlimit="10"/>
<path d="M423.423 174.241H469.564" stroke="#44546A" stroke-width="2" stroke-miterlimit="10" stroke-linejoin="round"/>
<path fill-rule="evenodd" clip-rule="evenodd" d="M469.564 177.545L478.641 174.241L469.564 170.938V177.545Z" fill="#44546A" stroke="#44546A" stroke-width="2" stroke-miterlimit="10"/>
<path d="M481.564 206.241H435.423" stroke="#44546A" stroke-width="2" stroke-miterlimit="10" stroke-linejoin="round"/>
<path fill-rule="evenodd" clip-rule="evenodd" d="M435.423 202.938L426.346 206.241L435.423 209.545V202.938Z" fill="#44546A" stroke="#44546A" stroke-width="2" stroke-miterlimit="10"/>
<path d="M431.423 254.241H477.564" stroke="#44546A" stroke-width="2" stroke-miterlimit="10" stroke-linejoin="round"/>
<path fill-rule="evenodd" clip-rule="evenodd" d="M477.564 257.545L486.641 254.241L477.564 250.938V257.545Z" fill="#44546A" stroke="#44546A" stroke-width="2" stroke-miterlimit="10"/>
<path d="M489.564 286.241H443.423" stroke="#44546A" stroke-width="2" stroke-miterlimit="10" stroke-linejoin="round"/>
<path fill-rule="evenodd" clip-rule="evenodd" d="M443.423 282.938L434.346 286.241L443.423 289.545V282.938Z" fill="#44546A" stroke="#44546A" stroke-width="2" stroke-miterlimit="10"/>
<path d="M433.594 154.413V143.929H434.985V148.226H440.438V143.929H441.829V154.413H440.438V149.476H434.985V154.413H433.594ZM446.804 154.413V145.163H443.351V143.929H451.663V145.163H448.194V154.413H446.804ZM455.756 154.413V145.163H452.303V143.929H460.616V145.163H457.147V154.413H455.756ZM462.037 154.413V143.929H466.006C466.704 143.929 467.235 143.96 467.6 144.023C468.11 144.106 468.537 144.267 468.881 144.507C469.235 144.747 469.516 145.085 469.725 145.523C469.943 145.96 470.053 146.439 470.053 146.96C470.053 147.846 469.766 148.601 469.193 149.226C468.631 149.84 467.605 150.148 466.115 150.148H463.428V154.413H462.037ZM463.428 148.913H466.146C467.042 148.913 467.678 148.747 468.053 148.413C468.428 148.08 468.615 147.611 468.615 147.007C468.615 146.559 468.506 146.179 468.287 145.866C468.068 145.554 467.777 145.351 467.412 145.257C467.172 145.195 466.74 145.163 466.115 145.163H463.428V148.913Z" fill="black"/>
</g>
<defs>
<filter id="filter0_f_1_930" x="504.056" y="120.991" width="115.488" height="213.63" filterUnits="userSpaceOnUse" color-interpolation-filters="sRGB">
<feFlood flood-opacity="0" result="BackgroundImageFix"/>
<feBlend mode="normal" in="SourceGraphic" in2="BackgroundImageFix" result="shape"/>
<feGaussianBlur stdDeviation="2" result="effect1_foregroundBlur_1_930"/>
</filter>
<filter id="filter1_f_1_930" x="748.056" y="120.991" width="115.488" height="213.63" filterUnits="userSpaceOnUse" color-interpolation-filters="sRGB">
<feFlood flood-opacity="0" result="BackgroundImageFix"/>
<feBlend mode="normal" in="SourceGraphic" in2="BackgroundImageFix" result="shape"/>
<feGaussianBlur stdDeviation="2" result="effect1_foregroundBlur_1_930"/>
</filter>
<filter id="filter2_f_1_930" x="300.056" y="120.991" width="115.488" height="213.63" filterUnits="userSpaceOnUse" color-interpolation-filters="sRGB">
<feFlood flood-opacity="0" result="BackgroundImageFix"/>
<feBlend mode="normal" in="SourceGraphic" in2="BackgroundImageFix" result="shape"/>
<feGaussianBlur stdDeviation="2" result="effect1_foregroundBlur_1_930"/>
</filter>
<clipPath id="clip0_1_930">
<rect width="1138.68" height="384.724" fill="white"/>
</clipPath>
</defs>
</svg>
