<svg width="1135" height="368" viewBox="0 0 1135 368" fill="none" xmlns="http://www.w3.org/2000/svg">
<g clip-path="url(#clip0_1_780)">
<rect x="295" width="546" height="368" fill="white"/>
<g filter="url(#filter0_f_1_780)">
<path fill-rule="evenodd" clip-rule="evenodd" d="M518 74.4908H624.488V349.231H518V74.4908Z" fill="white"/>
<path fill-rule="evenodd" clip-rule="evenodd" d="M518 74.4908H624.488V349.231H518V74.4908Z" stroke="#44546A" stroke-miterlimit="10" stroke-linejoin="round"/>
<path d="M542.791 204.269L544.181 204.613C543.889 205.748 543.363 206.618 542.603 207.222C541.853 207.816 540.931 208.113 539.837 208.113C538.712 208.113 537.796 207.884 537.087 207.425C536.379 206.967 535.837 206.3 535.462 205.425C535.098 204.55 534.916 203.613 534.916 202.613C534.916 201.519 535.124 200.566 535.541 199.753C535.957 198.941 536.551 198.326 537.322 197.91C538.093 197.483 538.942 197.269 539.869 197.269C540.91 197.269 541.791 197.54 542.509 198.082C543.228 198.613 543.728 199.363 544.009 200.332L542.634 200.644C542.395 199.884 542.041 199.332 541.572 198.988C541.113 198.634 540.535 198.457 539.837 198.457C539.025 198.457 538.348 198.649 537.806 199.035C537.264 199.42 536.884 199.941 536.666 200.597C536.447 201.243 536.337 201.915 536.337 202.613C536.337 203.498 536.468 204.274 536.728 204.941C536.988 205.608 537.395 206.108 537.947 206.441C538.499 206.764 539.093 206.925 539.728 206.925C540.509 206.925 541.166 206.701 541.697 206.253C542.238 205.805 542.603 205.144 542.791 204.269ZM550.937 205.488L552.265 205.66C552.057 206.441 551.666 207.045 551.094 207.472C550.531 207.899 549.807 208.113 548.922 208.113C547.807 208.113 546.922 207.774 546.265 207.097C545.62 206.41 545.297 205.446 545.297 204.207C545.297 202.925 545.625 201.936 546.281 201.238C546.948 200.529 547.807 200.175 548.859 200.175C549.87 200.175 550.698 200.519 551.344 201.207C551.989 201.894 552.312 202.868 552.312 204.128C552.312 204.201 552.307 204.316 552.297 204.472H546.64C546.682 205.305 546.916 205.946 547.344 206.394C547.771 206.832 548.302 207.05 548.937 207.05C549.406 207.05 549.807 206.93 550.14 206.691C550.474 206.441 550.739 206.04 550.937 205.488ZM546.703 203.41H550.953C550.89 202.774 550.729 202.295 550.469 201.972C550.052 201.472 549.515 201.222 548.859 201.222C548.276 201.222 547.781 201.42 547.375 201.816C546.969 202.212 546.745 202.743 546.703 203.41ZM553.87 207.941V200.347H555.026V201.488C555.328 200.957 555.604 200.608 555.854 200.441C556.104 200.264 556.375 200.175 556.667 200.175C557.104 200.175 557.547 200.311 557.995 200.582L557.557 201.785C557.245 201.597 556.927 201.503 556.604 201.503C556.323 201.503 556.068 201.587 555.838 201.753C555.62 201.92 555.463 202.154 555.37 202.457C555.224 202.915 555.151 203.415 555.151 203.957V207.941H553.87ZM561.578 206.785L561.766 207.925C561.401 207.998 561.073 208.035 560.782 208.035C560.323 208.035 559.964 207.962 559.703 207.816C559.443 207.67 559.261 207.477 559.157 207.238C559.052 206.998 559 206.493 559 205.722V201.347H558.047V200.347H559V198.457L560.282 197.691V200.347H561.578V201.347H560.282V205.785C560.282 206.149 560.302 206.389 560.344 206.503C560.396 206.608 560.469 206.691 560.563 206.753C560.667 206.805 560.818 206.832 561.016 206.832C561.151 206.832 561.339 206.816 561.578 206.785ZM562.838 198.925V197.457H564.135V198.925H562.838ZM562.838 207.941V200.347H564.135V207.941H562.838ZM566.407 207.941V201.347H565.266V200.347H566.407V199.535C566.407 199.024 566.448 198.644 566.532 198.394C566.657 198.061 566.875 197.79 567.188 197.582C567.5 197.373 567.938 197.269 568.5 197.269C568.865 197.269 569.266 197.311 569.703 197.394L569.516 198.519C569.245 198.477 568.99 198.457 568.75 198.457C568.365 198.457 568.089 198.54 567.922 198.707C567.766 198.873 567.688 199.186 567.688 199.644V200.347H569.157V201.347H567.688V207.941H566.407ZM575.119 207.003C574.64 207.41 574.182 207.696 573.744 207.863C573.307 208.029 572.833 208.113 572.322 208.113C571.489 208.113 570.848 207.91 570.4 207.503C569.953 207.097 569.729 206.576 569.729 205.941C569.729 205.566 569.812 205.227 569.979 204.925C570.145 204.613 570.364 204.363 570.635 204.175C570.916 203.988 571.229 203.847 571.572 203.753C571.822 203.691 572.203 203.628 572.713 203.566C573.755 203.441 574.52 203.29 575.01 203.113C575.02 202.936 575.025 202.826 575.025 202.785C575.025 202.253 574.9 201.884 574.65 201.675C574.328 201.384 573.843 201.238 573.197 201.238C572.583 201.238 572.13 201.347 571.838 201.566C571.557 201.774 571.348 202.144 571.213 202.675L569.947 202.503C570.062 201.972 570.249 201.54 570.51 201.207C570.77 200.873 571.15 200.618 571.65 200.441C572.15 200.264 572.723 200.175 573.369 200.175C574.025 200.175 574.557 200.253 574.963 200.41C575.369 200.555 575.666 200.743 575.854 200.972C576.041 201.201 576.176 201.493 576.26 201.847C576.301 202.066 576.322 202.462 576.322 203.035V204.753C576.322 205.951 576.348 206.712 576.4 207.035C576.453 207.347 576.562 207.649 576.729 207.941H575.385C575.249 207.67 575.161 207.358 575.119 207.003ZM575.01 204.128C574.541 204.316 573.843 204.477 572.916 204.613C572.385 204.686 572.01 204.774 571.791 204.878C571.572 204.972 571.4 205.113 571.275 205.3C571.161 205.477 571.104 205.675 571.104 205.894C571.104 206.238 571.234 206.524 571.494 206.753C571.755 206.983 572.135 207.097 572.635 207.097C573.124 207.097 573.562 206.993 573.947 206.785C574.343 206.566 574.63 206.269 574.807 205.894C574.942 205.602 575.01 205.17 575.01 204.597V204.128ZM583.27 205.16L584.536 205.316C584.4 206.191 584.046 206.878 583.473 207.378C582.911 207.868 582.213 208.113 581.38 208.113C580.338 208.113 579.499 207.774 578.864 207.097C578.239 206.41 577.927 205.436 577.927 204.175C577.927 203.352 578.062 202.634 578.333 202.019C578.604 201.404 579.015 200.946 579.567 200.644C580.13 200.332 580.734 200.175 581.38 200.175C582.213 200.175 582.89 200.384 583.411 200.8C583.932 201.217 584.27 201.805 584.427 202.566L583.161 202.769C583.046 202.259 582.838 201.873 582.536 201.613C582.234 201.352 581.869 201.222 581.442 201.222C580.786 201.222 580.255 201.457 579.848 201.925C579.442 202.394 579.239 203.128 579.239 204.128C579.239 205.149 579.432 205.894 579.817 206.363C580.213 206.821 580.729 207.05 581.364 207.05C581.864 207.05 582.286 206.899 582.63 206.597C582.973 206.285 583.187 205.805 583.27 205.16ZM588.458 206.785L588.645 207.925C588.281 207.998 587.953 208.035 587.661 208.035C587.203 208.035 586.843 207.962 586.583 207.816C586.322 207.67 586.14 207.477 586.036 207.238C585.932 206.998 585.88 206.493 585.88 205.722V201.347H584.927V200.347H585.88V198.457L587.161 197.691V200.347H588.458V201.347H587.161V205.785C587.161 206.149 587.182 206.389 587.223 206.503C587.275 206.608 587.348 206.691 587.442 206.753C587.546 206.805 587.697 206.832 587.895 206.832C588.031 206.832 588.218 206.816 588.458 206.785ZM589.717 198.925V197.457H591.014V198.925H589.717ZM589.717 207.941V200.347H591.014V207.941H589.717ZM592.489 204.144C592.489 202.738 592.88 201.696 593.661 201.019C594.317 200.457 595.114 200.175 596.052 200.175C597.104 200.175 597.958 200.519 598.614 201.207C599.281 201.884 599.614 202.826 599.614 204.035C599.614 205.014 599.468 205.785 599.177 206.347C598.885 206.899 598.458 207.332 597.895 207.644C597.333 207.957 596.718 208.113 596.052 208.113C594.989 208.113 594.13 207.774 593.473 207.097C592.817 206.41 592.489 205.425 592.489 204.144ZM593.817 204.144C593.817 205.113 594.025 205.842 594.442 206.332C594.869 206.811 595.406 207.05 596.052 207.05C596.697 207.05 597.229 206.811 597.645 206.332C598.072 205.842 598.286 205.097 598.286 204.097C598.286 203.16 598.072 202.451 597.645 201.972C597.218 201.483 596.687 201.238 596.052 201.238C595.406 201.238 594.869 201.477 594.442 201.957C594.025 202.436 593.817 203.165 593.817 204.144ZM601.125 207.941V200.347H602.281V201.425C602.843 200.592 603.651 200.175 604.703 200.175C605.161 200.175 605.583 200.259 605.968 200.425C606.354 200.582 606.64 200.795 606.828 201.066C607.015 201.337 607.151 201.654 607.234 202.019C607.276 202.259 607.296 202.675 607.296 203.269V207.941H606.015V203.316C606.015 202.795 605.963 202.404 605.859 202.144C605.755 201.884 605.572 201.675 605.312 201.519C605.062 201.363 604.765 201.285 604.421 201.285C603.88 201.285 603.406 201.462 603 201.816C602.604 202.16 602.406 202.816 602.406 203.785V207.941H601.125Z" fill="black"/>
<path d="M568.45 222.269L569.84 222.613C569.549 223.748 569.023 224.618 568.262 225.222C567.512 225.816 566.59 226.113 565.497 226.113C564.372 226.113 563.455 225.884 562.747 225.425C562.038 224.967 561.497 224.3 561.122 223.425C560.757 222.55 560.575 221.613 560.575 220.613C560.575 219.519 560.783 218.566 561.2 217.753C561.616 216.941 562.21 216.326 562.981 215.91C563.752 215.483 564.601 215.269 565.528 215.269C566.569 215.269 567.45 215.54 568.168 216.082C568.887 216.613 569.387 217.363 569.668 218.332L568.293 218.644C568.054 217.884 567.7 217.332 567.231 216.988C566.773 216.634 566.194 216.457 565.497 216.457C564.684 216.457 564.007 216.649 563.465 217.035C562.924 217.42 562.543 217.941 562.325 218.597C562.106 219.243 561.997 219.915 561.997 220.613C561.997 221.498 562.127 222.274 562.387 222.941C562.648 223.608 563.054 224.108 563.606 224.441C564.158 224.764 564.752 224.925 565.387 224.925C566.168 224.925 566.825 224.701 567.356 224.253C567.898 223.805 568.262 223.144 568.45 222.269ZM571.503 225.941V215.457H572.893V224.707H578.05V225.941H571.503ZM579.935 225.941V215.457H581.326V225.941H579.935Z" fill="black"/>
</g>
<path fill-rule="evenodd" clip-rule="evenodd" d="M518 72.4908H624.488V347.231H518V72.4908Z" fill="white"/>
<path fill-rule="evenodd" clip-rule="evenodd" d="M518 72.4908H624.488V347.231H518V72.4908Z" stroke="#44546A" stroke-miterlimit="10" stroke-linejoin="round"/>
<path d="M542.791 202.269L544.181 202.613C543.889 203.748 543.363 204.618 542.603 205.222C541.853 205.816 540.931 206.113 539.837 206.113C538.712 206.113 537.796 205.884 537.087 205.425C536.379 204.967 535.837 204.3 535.462 203.425C535.098 202.55 534.916 201.613 534.916 200.613C534.916 199.519 535.124 198.566 535.541 197.753C535.957 196.941 536.551 196.326 537.322 195.91C538.093 195.483 538.942 195.269 539.869 195.269C540.91 195.269 541.791 195.54 542.509 196.082C543.228 196.613 543.728 197.363 544.009 198.332L542.634 198.644C542.395 197.884 542.041 197.332 541.572 196.988C541.113 196.634 540.535 196.457 539.837 196.457C539.025 196.457 538.348 196.649 537.806 197.035C537.264 197.42 536.884 197.941 536.666 198.597C536.447 199.243 536.337 199.915 536.337 200.613C536.337 201.498 536.468 202.274 536.728 202.941C536.988 203.608 537.395 204.108 537.947 204.441C538.499 204.764 539.093 204.925 539.728 204.925C540.509 204.925 541.166 204.701 541.697 204.253C542.238 203.805 542.603 203.144 542.791 202.269ZM550.937 203.488L552.265 203.66C552.057 204.441 551.666 205.045 551.094 205.472C550.531 205.899 549.807 206.113 548.922 206.113C547.807 206.113 546.922 205.774 546.265 205.097C545.62 204.41 545.297 203.446 545.297 202.207C545.297 200.925 545.625 199.936 546.281 199.238C546.948 198.529 547.807 198.175 548.859 198.175C549.87 198.175 550.698 198.519 551.344 199.207C551.989 199.894 552.312 200.868 552.312 202.128C552.312 202.201 552.307 202.316 552.297 202.472H546.64C546.682 203.305 546.916 203.946 547.344 204.394C547.771 204.832 548.302 205.05 548.937 205.05C549.406 205.05 549.807 204.93 550.14 204.691C550.474 204.441 550.739 204.04 550.937 203.488ZM546.703 201.41H550.953C550.89 200.774 550.729 200.295 550.469 199.972C550.052 199.472 549.515 199.222 548.859 199.222C548.276 199.222 547.781 199.42 547.375 199.816C546.969 200.212 546.745 200.743 546.703 201.41ZM553.87 205.941V198.347H555.026V199.488C555.328 198.957 555.604 198.608 555.854 198.441C556.104 198.264 556.375 198.175 556.667 198.175C557.104 198.175 557.547 198.311 557.995 198.582L557.557 199.785C557.245 199.597 556.927 199.503 556.604 199.503C556.323 199.503 556.068 199.587 555.838 199.753C555.62 199.92 555.463 200.154 555.37 200.457C555.224 200.915 555.151 201.415 555.151 201.957V205.941H553.87ZM561.578 204.785L561.766 205.925C561.401 205.998 561.073 206.035 560.782 206.035C560.323 206.035 559.964 205.962 559.703 205.816C559.443 205.67 559.261 205.477 559.157 205.238C559.052 204.998 559 204.493 559 203.722V199.347H558.047V198.347H559V196.457L560.282 195.691V198.347H561.578V199.347H560.282V203.785C560.282 204.149 560.302 204.389 560.344 204.503C560.396 204.608 560.469 204.691 560.563 204.753C560.667 204.805 560.818 204.832 561.016 204.832C561.151 204.832 561.339 204.816 561.578 204.785ZM562.838 196.925V195.457H564.135V196.925H562.838ZM562.838 205.941V198.347H564.135V205.941H562.838ZM566.407 205.941V199.347H565.266V198.347H566.407V197.535C566.407 197.024 566.448 196.644 566.532 196.394C566.657 196.061 566.875 195.79 567.188 195.582C567.5 195.373 567.938 195.269 568.5 195.269C568.865 195.269 569.266 195.311 569.703 195.394L569.516 196.519C569.245 196.477 568.99 196.457 568.75 196.457C568.365 196.457 568.089 196.54 567.922 196.707C567.766 196.873 567.688 197.186 567.688 197.644V198.347H569.157V199.347H567.688V205.941H566.407ZM575.119 205.003C574.64 205.41 574.182 205.696 573.744 205.863C573.307 206.029 572.833 206.113 572.322 206.113C571.489 206.113 570.848 205.91 570.4 205.503C569.953 205.097 569.729 204.576 569.729 203.941C569.729 203.566 569.812 203.227 569.979 202.925C570.145 202.613 570.364 202.363 570.635 202.175C570.916 201.988 571.229 201.847 571.572 201.753C571.822 201.691 572.203 201.628 572.713 201.566C573.755 201.441 574.52 201.29 575.01 201.113C575.02 200.936 575.025 200.826 575.025 200.785C575.025 200.253 574.9 199.884 574.65 199.675C574.328 199.384 573.843 199.238 573.197 199.238C572.583 199.238 572.13 199.347 571.838 199.566C571.557 199.774 571.348 200.144 571.213 200.675L569.947 200.503C570.062 199.972 570.249 199.54 570.51 199.207C570.77 198.873 571.15 198.618 571.65 198.441C572.15 198.264 572.723 198.175 573.369 198.175C574.025 198.175 574.557 198.253 574.963 198.41C575.369 198.555 575.666 198.743 575.854 198.972C576.041 199.201 576.176 199.493 576.26 199.847C576.301 200.066 576.322 200.462 576.322 201.035V202.753C576.322 203.951 576.348 204.712 576.4 205.035C576.453 205.347 576.562 205.649 576.729 205.941H575.385C575.249 205.67 575.161 205.358 575.119 205.003ZM575.01 202.128C574.541 202.316 573.843 202.477 572.916 202.613C572.385 202.686 572.01 202.774 571.791 202.878C571.572 202.972 571.4 203.113 571.275 203.3C571.161 203.477 571.104 203.675 571.104 203.894C571.104 204.238 571.234 204.524 571.494 204.753C571.755 204.983 572.135 205.097 572.635 205.097C573.124 205.097 573.562 204.993 573.947 204.785C574.343 204.566 574.63 204.269 574.807 203.894C574.942 203.602 575.01 203.17 575.01 202.597V202.128ZM583.27 203.16L584.536 203.316C584.4 204.191 584.046 204.878 583.473 205.378C582.911 205.868 582.213 206.113 581.38 206.113C580.338 206.113 579.499 205.774 578.864 205.097C578.239 204.41 577.927 203.436 577.927 202.175C577.927 201.352 578.062 200.634 578.333 200.019C578.604 199.404 579.015 198.946 579.567 198.644C580.13 198.332 580.734 198.175 581.38 198.175C582.213 198.175 582.89 198.384 583.411 198.8C583.932 199.217 584.27 199.805 584.427 200.566L583.161 200.769C583.046 200.259 582.838 199.873 582.536 199.613C582.234 199.352 581.869 199.222 581.442 199.222C580.786 199.222 580.255 199.457 579.848 199.925C579.442 200.394 579.239 201.128 579.239 202.128C579.239 203.149 579.432 203.894 579.817 204.363C580.213 204.821 580.729 205.05 581.364 205.05C581.864 205.05 582.286 204.899 582.63 204.597C582.973 204.285 583.187 203.805 583.27 203.16ZM588.458 204.785L588.645 205.925C588.281 205.998 587.953 206.035 587.661 206.035C587.203 206.035 586.843 205.962 586.583 205.816C586.322 205.67 586.14 205.477 586.036 205.238C585.932 204.998 585.88 204.493 585.88 203.722V199.347H584.927V198.347H585.88V196.457L587.161 195.691V198.347H588.458V199.347H587.161V203.785C587.161 204.149 587.182 204.389 587.223 204.503C587.275 204.608 587.348 204.691 587.442 204.753C587.546 204.805 587.697 204.832 587.895 204.832C588.031 204.832 588.218 204.816 588.458 204.785ZM589.717 196.925V195.457H591.014V196.925H589.717ZM589.717 205.941V198.347H591.014V205.941H589.717ZM592.489 202.144C592.489 200.738 592.88 199.696 593.661 199.019C594.317 198.457 595.114 198.175 596.052 198.175C597.104 198.175 597.958 198.519 598.614 199.207C599.281 199.884 599.614 200.826 599.614 202.035C599.614 203.014 599.468 203.785 599.177 204.347C598.885 204.899 598.458 205.332 597.895 205.644C597.333 205.957 596.718 206.113 596.052 206.113C594.989 206.113 594.13 205.774 593.473 205.097C592.817 204.41 592.489 203.425 592.489 202.144ZM593.817 202.144C593.817 203.113 594.025 203.842 594.442 204.332C594.869 204.811 595.406 205.05 596.052 205.05C596.697 205.05 597.229 204.811 597.645 204.332C598.072 203.842 598.286 203.097 598.286 202.097C598.286 201.16 598.072 200.451 597.645 199.972C597.218 199.483 596.687 199.238 596.052 199.238C595.406 199.238 594.869 199.477 594.442 199.957C594.025 200.436 593.817 201.165 593.817 202.144ZM601.125 205.941V198.347H602.281V199.425C602.843 198.592 603.651 198.175 604.703 198.175C605.161 198.175 605.583 198.259 605.968 198.425C606.354 198.582 606.64 198.795 606.828 199.066C607.015 199.337 607.151 199.654 607.234 200.019C607.276 200.259 607.296 200.675 607.296 201.269V205.941H606.015V201.316C606.015 200.795 605.963 200.404 605.859 200.144C605.755 199.884 605.572 199.675 605.312 199.519C605.062 199.363 604.765 199.285 604.421 199.285C603.88 199.285 603.406 199.462 603 199.816C602.604 200.16 602.406 200.816 602.406 201.785V205.941H601.125Z" fill="black"/>
<path d="M568.45 220.269L569.84 220.613C569.549 221.748 569.023 222.618 568.262 223.222C567.512 223.816 566.59 224.113 565.497 224.113C564.372 224.113 563.455 223.884 562.747 223.425C562.038 222.967 561.497 222.3 561.122 221.425C560.757 220.55 560.575 219.613 560.575 218.613C560.575 217.519 560.783 216.566 561.2 215.753C561.616 214.941 562.21 214.326 562.981 213.91C563.752 213.483 564.601 213.269 565.528 213.269C566.569 213.269 567.45 213.54 568.168 214.082C568.887 214.613 569.387 215.363 569.668 216.332L568.293 216.644C568.054 215.884 567.7 215.332 567.231 214.988C566.773 214.634 566.194 214.457 565.497 214.457C564.684 214.457 564.007 214.649 563.465 215.035C562.924 215.42 562.543 215.941 562.325 216.597C562.106 217.243 561.997 217.915 561.997 218.613C561.997 219.498 562.127 220.274 562.387 220.941C562.648 221.608 563.054 222.108 563.606 222.441C564.158 222.764 564.752 222.925 565.387 222.925C566.168 222.925 566.825 222.701 567.356 222.253C567.898 221.805 568.262 221.144 568.45 220.269ZM571.503 223.941V213.457H572.893V222.707H578.05V223.941H571.503ZM579.935 223.941V213.457H581.326V223.941H579.935Z" fill="black"/>
<path d="M666.509 24.1811V353.157" stroke="black" stroke-miterlimit="10" stroke-linejoin="round" stroke-dasharray="4 3"/>
<path d="M586.302 33.4081L587.693 33.7519C587.401 34.8873 586.875 35.7571 586.115 36.3612C585.365 36.955 584.443 37.2519 583.349 37.2519C582.224 37.2519 581.307 37.0227 580.599 36.5644C579.891 36.106 579.349 35.4394 578.974 34.5644C578.61 33.6894 578.427 32.7519 578.427 31.7519C578.427 30.6581 578.636 29.705 579.052 28.8925C579.469 28.08 580.063 27.4654 580.833 27.0488C581.604 26.6217 582.453 26.4081 583.38 26.4081C584.422 26.4081 585.302 26.679 586.021 27.2206C586.74 27.7519 587.24 28.5019 587.521 29.4706L586.146 29.7831C585.906 29.0227 585.552 28.4706 585.083 28.1269C584.625 27.7727 584.047 27.5956 583.349 27.5956C582.537 27.5956 581.86 27.7883 581.318 28.1738C580.776 28.5592 580.396 29.08 580.177 29.7363C579.958 30.3821 579.849 31.054 579.849 31.7519C579.849 32.6373 579.979 33.4133 580.24 34.08C580.5 34.7467 580.906 35.2467 581.458 35.58C582.011 35.9029 582.604 36.0644 583.24 36.0644C584.021 36.0644 584.677 35.8404 585.208 35.3925C585.75 34.9446 586.115 34.2831 586.302 33.4081ZM589.215 37.08V26.5956H590.496V37.08H589.215ZM592.502 28.0644V26.5956H593.799V28.0644H592.502ZM592.502 37.08V29.4863H593.799V37.08H592.502ZM600.961 34.6269L602.289 34.7988C602.081 35.58 601.691 36.1842 601.118 36.6112C600.555 37.0383 599.831 37.2519 598.946 37.2519C597.831 37.2519 596.946 36.9133 596.289 36.2362C595.644 35.5488 595.321 34.5852 595.321 33.3456C595.321 32.0644 595.649 31.0748 596.305 30.3769C596.972 29.6685 597.831 29.3144 598.883 29.3144C599.894 29.3144 600.722 29.6581 601.368 30.3456C602.013 31.0331 602.336 32.0071 602.336 33.2675C602.336 33.3404 602.331 33.455 602.321 33.6113H596.664C596.706 34.4446 596.941 35.0852 597.368 35.5331C597.795 35.9706 598.326 36.1894 598.961 36.1894C599.43 36.1894 599.831 36.0696 600.164 35.83C600.498 35.58 600.763 35.179 600.961 34.6269ZM596.727 32.5488H600.977C600.914 31.9133 600.753 31.4342 600.493 31.1113C600.076 30.6113 599.539 30.3613 598.883 30.3613C598.3 30.3613 597.805 30.5592 597.399 30.955C596.993 31.3508 596.769 31.8821 596.727 32.5488ZM603.909 37.08V29.4863H605.066V30.5644C605.628 29.731 606.435 29.3144 607.487 29.3144C607.946 29.3144 608.368 29.3977 608.753 29.5644C609.138 29.7206 609.425 29.9342 609.612 30.205C609.8 30.4758 609.935 30.7935 610.019 31.1581C610.06 31.3977 610.081 31.8144 610.081 32.4081V37.08H608.8V32.455C608.8 31.9342 608.748 31.5435 608.644 31.2831C608.54 31.0227 608.357 30.8144 608.097 30.6581C607.847 30.5019 607.55 30.4238 607.206 30.4238C606.665 30.4238 606.191 30.6008 605.784 30.955C605.388 31.2988 605.191 31.955 605.191 32.9238V37.08H603.909ZM614.873 35.9237L615.06 37.0644C614.696 37.1373 614.368 37.1737 614.076 37.1737C613.618 37.1737 613.258 37.1008 612.998 36.955C612.738 36.8092 612.555 36.6165 612.451 36.3769C612.347 36.1373 612.295 35.6321 612.295 34.8613V30.4863H611.342V29.4863H612.295V27.5956L613.576 26.83V29.4863H614.873V30.4863H613.576V34.9238C613.576 35.2883 613.597 35.5279 613.639 35.6425C613.691 35.7467 613.764 35.83 613.857 35.8925C613.961 35.9446 614.113 35.9706 614.31 35.9706C614.446 35.9706 614.633 35.955 614.873 35.9237ZM619.892 33.705L621.204 33.5956C621.267 34.1165 621.408 34.5488 621.626 34.8925C621.855 35.2258 622.21 35.4967 622.689 35.705C623.168 35.9133 623.704 36.0175 624.298 36.0175C624.829 36.0175 625.298 35.9394 625.704 35.7831C626.111 35.6269 626.413 35.4133 626.611 35.1425C626.809 34.8613 626.908 34.5592 626.908 34.2363C626.908 33.9029 626.809 33.6165 626.611 33.3769C626.423 33.1269 626.111 32.9185 625.673 32.7519C625.392 32.6373 624.767 32.4654 623.798 32.2363C622.84 32.0071 622.168 31.7883 621.783 31.58C621.283 31.3196 620.908 30.9967 620.658 30.6113C620.418 30.2154 620.298 29.7779 620.298 29.2988C620.298 28.7675 620.444 28.2727 620.736 27.8144C621.038 27.356 621.475 27.0071 622.048 26.7675C622.631 26.5279 623.277 26.4081 623.986 26.4081C624.767 26.4081 625.454 26.5331 626.048 26.7831C626.642 27.0331 627.095 27.4029 627.408 27.8925C627.73 28.3821 627.902 28.9342 627.923 29.5488L626.595 29.6425C626.522 28.9758 626.277 28.4758 625.861 28.1425C625.454 27.7988 624.85 27.6269 624.048 27.6269C623.204 27.6269 622.59 27.7831 622.204 28.0956C621.819 28.4081 621.626 28.7779 621.626 29.205C621.626 29.58 621.767 29.8925 622.048 30.1425C622.309 30.3821 623.001 30.6321 624.126 30.8925C625.262 31.1425 626.038 31.3613 626.454 31.5488C627.069 31.83 627.522 32.1894 627.814 32.6269C628.105 33.054 628.251 33.5488 628.251 34.1113C628.251 34.6738 628.09 35.205 627.767 35.705C627.444 36.1946 626.98 36.5748 626.376 36.8456C625.783 37.1165 625.111 37.2519 624.361 37.2519C623.413 37.2519 622.616 37.1165 621.97 36.8456C621.335 36.5644 620.835 36.1477 620.47 35.5956C620.105 35.0435 619.913 34.4133 619.892 33.705ZM629.98 28.0644V26.5956H631.277V28.0644H629.98ZM629.98 37.08V29.4863H631.277V37.08H629.98ZM638.158 37.08V36.1269C637.679 36.8769 636.971 37.2519 636.033 37.2519C635.429 37.2519 634.872 37.0852 634.361 36.7519C633.861 36.4185 633.471 35.955 633.189 35.3613C632.908 34.7571 632.767 34.0644 632.767 33.2831C632.767 32.5227 632.892 31.8352 633.142 31.2206C633.403 30.606 633.783 30.1373 634.283 29.8144C634.793 29.481 635.361 29.3144 635.986 29.3144C636.444 29.3144 636.851 29.4133 637.205 29.6113C637.559 29.7988 637.851 30.0435 638.08 30.3456V26.5956H639.361V37.08H638.158ZM634.096 33.2831C634.096 34.2623 634.299 34.9915 634.705 35.4706C635.122 35.9498 635.606 36.1894 636.158 36.1894C636.721 36.1894 637.2 35.9602 637.596 35.5019C637.991 35.0435 638.189 34.3404 638.189 33.3925C638.189 32.3508 637.986 31.5904 637.58 31.1113C637.184 30.6217 636.689 30.3769 636.096 30.3769C635.533 30.3769 635.059 30.6113 634.674 31.08C634.288 31.5488 634.096 32.2831 634.096 33.2831ZM646.59 34.6269L647.919 34.7988C647.71 35.58 647.32 36.1842 646.747 36.6112C646.184 37.0383 645.46 37.2519 644.575 37.2519C643.46 37.2519 642.575 36.9133 641.919 36.2362C641.273 35.5488 640.95 34.5852 640.95 33.3456C640.95 32.0644 641.278 31.0748 641.934 30.3769C642.601 29.6685 643.46 29.3144 644.512 29.3144C645.523 29.3144 646.351 29.6581 646.997 30.3456C647.642 31.0331 647.965 32.0071 647.965 33.2675C647.965 33.3404 647.96 33.455 647.95 33.6113H642.294C642.335 34.4446 642.57 35.0852 642.997 35.5331C643.424 35.9706 643.955 36.1894 644.59 36.1894C645.059 36.1894 645.46 36.0696 645.794 35.83C646.127 35.58 646.392 35.179 646.59 34.6269ZM642.356 32.5488H646.606C646.544 31.9133 646.382 31.4342 646.122 31.1113C645.705 30.6113 645.169 30.3613 644.512 30.3613C643.929 30.3613 643.434 30.5592 643.028 30.955C642.622 31.3508 642.398 31.8821 642.356 32.5488Z" fill="black"/>
<path d="M690.801 33.4081L692.191 33.7519C691.9 34.8873 691.374 35.7571 690.613 36.3612C689.863 36.955 688.941 37.2519 687.848 37.2519C686.723 37.2519 685.806 37.0227 685.098 36.5644C684.389 36.106 683.848 35.4394 683.473 34.5644C683.108 33.6894 682.926 32.7519 682.926 31.7519C682.926 30.6581 683.134 29.705 683.551 28.8925C683.967 28.08 684.561 27.4654 685.332 27.0488C686.103 26.6217 686.952 26.4081 687.879 26.4081C688.921 26.4081 689.801 26.679 690.52 27.2206C691.238 27.7519 691.738 28.5019 692.02 29.4706L690.645 29.7831C690.405 29.0227 690.051 28.4706 689.582 28.1269C689.124 27.7727 688.546 27.5956 687.848 27.5956C687.035 27.5956 686.358 27.7883 685.816 28.1738C685.275 28.5592 684.895 29.08 684.676 29.7363C684.457 30.3821 684.348 31.054 684.348 31.7519C684.348 32.6373 684.478 33.4133 684.738 34.08C684.999 34.7467 685.405 35.2467 685.957 35.58C686.509 35.9029 687.103 36.0644 687.738 36.0644C688.52 36.0644 689.176 35.8404 689.707 35.3925C690.249 34.9446 690.613 34.2831 690.801 33.4081ZM698.948 34.6269L700.276 34.7988C700.067 35.58 699.677 36.1842 699.104 36.6112C698.541 37.0383 697.817 37.2519 696.932 37.2519C695.817 37.2519 694.932 36.9133 694.276 36.2362C693.63 35.5488 693.307 34.5852 693.307 33.3456C693.307 32.0644 693.635 31.0748 694.291 30.3769C694.958 29.6685 695.817 29.3144 696.869 29.3144C697.88 29.3144 698.708 29.6581 699.354 30.3456C700 31.0331 700.323 32.0071 700.323 33.2675C700.323 33.3404 700.317 33.455 700.307 33.6113H694.651C694.692 34.4446 694.927 35.0852 695.354 35.5331C695.781 35.9706 696.312 36.1894 696.948 36.1894C697.416 36.1894 697.817 36.0696 698.151 35.83C698.484 35.58 698.75 35.179 698.948 34.6269ZM694.713 32.5488H698.963C698.901 31.9133 698.739 31.4342 698.479 31.1113C698.062 30.6113 697.526 30.3613 696.869 30.3613C696.286 30.3613 695.791 30.5592 695.385 30.955C694.979 31.3508 694.755 31.8821 694.713 32.5488ZM701.88 37.08V29.4863H703.036V30.6269C703.338 30.0956 703.614 29.7467 703.864 29.58C704.114 29.4029 704.385 29.3144 704.677 29.3144C705.114 29.3144 705.557 29.4498 706.005 29.7206L705.567 30.9238C705.255 30.7363 704.937 30.6425 704.614 30.6425C704.333 30.6425 704.078 30.7258 703.849 30.8925C703.63 31.0592 703.474 31.2935 703.38 31.5956C703.234 32.054 703.161 32.554 703.161 33.0956V37.08H701.88ZM709.589 35.9237L709.776 37.0644C709.412 37.1373 709.083 37.1737 708.792 37.1737C708.333 37.1737 707.974 37.1008 707.714 36.955C707.453 36.8092 707.271 36.6165 707.167 36.3769C707.063 36.1373 707.011 35.6321 707.011 34.8613V30.4863H706.057V29.4863H707.011V27.5956L708.292 26.83V29.4863H709.589V30.4863H708.292V34.9238C708.292 35.2883 708.313 35.5279 708.354 35.6425C708.406 35.7467 708.479 35.83 708.573 35.8925C708.677 35.9446 708.828 35.9706 709.026 35.9706C709.162 35.9706 709.349 35.955 709.589 35.9237ZM710.848 28.0644V26.5956H712.145V28.0644H710.848ZM710.848 37.08V29.4863H712.145V37.08H710.848ZM714.417 37.08V30.4863H713.276V29.4863H714.417V28.6738C714.417 28.1633 714.458 27.7831 714.542 27.5331C714.667 27.1998 714.886 26.929 715.198 26.7206C715.511 26.5123 715.948 26.4081 716.511 26.4081C716.875 26.4081 717.276 26.4498 717.714 26.5331L717.526 27.6581C717.255 27.6165 717 27.5956 716.761 27.5956C716.375 27.5956 716.099 27.679 715.932 27.8456C715.776 28.0123 715.698 28.3248 715.698 28.7831V29.4863H717.167V30.4863H715.698V37.08H714.417ZM723.129 36.1425C722.65 36.5487 722.192 36.8352 721.754 37.0019C721.317 37.1685 720.843 37.2519 720.333 37.2519C719.499 37.2519 718.859 37.0487 718.411 36.6425C717.963 36.2362 717.739 35.7154 717.739 35.08C717.739 34.705 717.822 34.3665 717.989 34.0644C718.155 33.7519 718.374 33.5019 718.645 33.3144C718.926 33.1269 719.239 32.9863 719.583 32.8925C719.833 32.83 720.213 32.7675 720.723 32.705C721.765 32.58 722.53 32.429 723.02 32.2519C723.03 32.0748 723.036 31.9654 723.036 31.9238C723.036 31.3925 722.911 31.0227 722.661 30.8144C722.338 30.5227 721.853 30.3769 721.208 30.3769C720.593 30.3769 720.14 30.4863 719.848 30.705C719.567 30.9133 719.359 31.2831 719.223 31.8144L717.958 31.6425C718.072 31.1113 718.26 30.679 718.52 30.3456C718.78 30.0123 719.161 29.7571 719.661 29.58C720.161 29.4029 720.734 29.3144 721.379 29.3144C722.036 29.3144 722.567 29.3925 722.973 29.5488C723.379 29.6946 723.676 29.8821 723.864 30.1113C724.051 30.3404 724.187 30.6321 724.27 30.9863C724.312 31.205 724.333 31.6008 724.333 32.1738V33.8925C724.333 35.0904 724.359 35.8508 724.411 36.1737C724.463 36.4862 724.572 36.7883 724.739 37.08H723.395C723.26 36.8092 723.171 36.4967 723.129 36.1425ZM723.02 33.2675C722.551 33.455 721.853 33.6165 720.926 33.7519C720.395 33.8248 720.02 33.9133 719.801 34.0175C719.583 34.1113 719.411 34.2519 719.286 34.4394C719.171 34.6165 719.114 34.8144 719.114 35.0331C719.114 35.3769 719.244 35.6633 719.504 35.8925C719.765 36.1217 720.145 36.2362 720.645 36.2362C721.135 36.2362 721.572 36.1321 721.958 35.9237C722.353 35.705 722.64 35.4081 722.817 35.0331C722.952 34.7415 723.02 34.3092 723.02 33.7363V33.2675ZM731.281 34.2988L732.546 34.455C732.411 35.33 732.057 36.0175 731.484 36.5175C730.921 37.0071 730.223 37.2519 729.39 37.2519C728.348 37.2519 727.51 36.9133 726.874 36.2362C726.249 35.5488 725.937 34.5748 725.937 33.3144C725.937 32.4915 726.072 31.7727 726.343 31.1581C726.614 30.5435 727.025 30.0852 727.577 29.7831C728.14 29.4706 728.744 29.3144 729.39 29.3144C730.223 29.3144 730.9 29.5227 731.421 29.9394C731.942 30.356 732.281 30.9446 732.437 31.705L731.171 31.9081C731.057 31.3977 730.848 31.0123 730.546 30.7519C730.244 30.4915 729.879 30.3613 729.452 30.3613C728.796 30.3613 728.265 30.5956 727.859 31.0644C727.452 31.5331 727.249 32.2675 727.249 33.2675C727.249 34.2883 727.442 35.0331 727.827 35.5019C728.223 35.9602 728.739 36.1894 729.374 36.1894C729.874 36.1894 730.296 36.0383 730.64 35.7363C730.984 35.4238 731.197 34.9446 731.281 34.2988ZM736.468 35.9237L736.656 37.0644C736.291 37.1373 735.963 37.1737 735.671 37.1737C735.213 37.1737 734.853 37.1008 734.593 36.955C734.333 36.8092 734.15 36.6165 734.046 36.3769C733.942 36.1373 733.89 35.6321 733.89 34.8613V30.4863H732.937V29.4863H733.89V27.5956L735.171 26.83V29.4863H736.468V30.4863H735.171V34.9238C735.171 35.2883 735.192 35.5279 735.234 35.6425C735.286 35.7467 735.359 35.83 735.452 35.8925C735.557 35.9446 735.708 35.9706 735.906 35.9706C736.041 35.9706 736.228 35.955 736.468 35.9237ZM737.727 28.0644V26.5956H739.024V28.0644H737.727ZM737.727 37.08V29.4863H739.024V37.08H737.727ZM740.499 33.2831C740.499 31.8769 740.89 30.8352 741.671 30.1581C742.327 29.5956 743.124 29.3144 744.062 29.3144C745.114 29.3144 745.968 29.6581 746.624 30.3456C747.291 31.0227 747.624 31.9654 747.624 33.1738C747.624 34.1529 747.478 34.9238 747.187 35.4863C746.895 36.0383 746.468 36.4706 745.906 36.7831C745.343 37.0956 744.728 37.2519 744.062 37.2519C742.999 37.2519 742.14 36.9133 741.484 36.2362C740.827 35.5488 740.499 34.5644 740.499 33.2831ZM741.827 33.2831C741.827 34.2519 742.036 34.981 742.452 35.4706C742.879 35.9498 743.416 36.1894 744.062 36.1894C744.708 36.1894 745.239 35.9498 745.656 35.4706C746.083 34.981 746.296 34.2363 746.296 33.2363C746.296 32.2988 746.083 31.5904 745.656 31.1113C745.228 30.6217 744.697 30.3769 744.062 30.3769C743.416 30.3769 742.879 30.6165 742.452 31.0956C742.036 31.5748 741.827 32.304 741.827 33.2831ZM749.135 37.08V29.4863H750.291V30.5644C750.854 29.731 751.661 29.3144 752.713 29.3144C753.171 29.3144 753.593 29.3977 753.979 29.5644C754.364 29.7206 754.65 29.9342 754.838 30.205C755.025 30.4758 755.161 30.7935 755.244 31.1581C755.286 31.3977 755.307 31.8144 755.307 32.4081V37.08H754.025V32.455C754.025 31.9342 753.973 31.5435 753.869 31.2831C753.765 31.0227 753.583 30.8144 753.322 30.6581C753.072 30.5019 752.775 30.4238 752.432 30.4238C751.89 30.4238 751.416 30.6008 751.01 30.955C750.614 31.2988 750.416 31.955 750.416 32.9238V37.08H749.135ZM759.564 37.08L763.58 26.5956H765.08L769.377 37.08H767.799L766.564 33.9081H762.189L761.033 37.08H759.564ZM762.58 32.7675H766.142L765.049 29.8613C764.715 28.9863 764.465 28.2623 764.299 27.6894C764.163 28.3665 763.976 29.0331 763.736 29.6894L762.58 32.7675ZM770.48 37.08V26.5956H774.449C775.147 26.5956 775.678 26.6269 776.043 26.6894C776.553 26.7727 776.98 26.9342 777.324 27.1738C777.678 27.4133 777.96 27.7519 778.168 28.1894C778.387 28.6269 778.496 29.106 778.496 29.6269C778.496 30.5123 778.21 31.2675 777.637 31.8925C777.074 32.5071 776.048 32.8144 774.559 32.8144H771.871V37.08H770.48ZM771.871 31.58H774.59C775.486 31.58 776.121 31.4133 776.496 31.08C776.871 30.7467 777.059 30.2779 777.059 29.6738C777.059 29.2258 776.949 28.8456 776.73 28.5331C776.512 28.2206 776.22 28.0175 775.855 27.9238C775.616 27.8613 775.184 27.83 774.559 27.83H771.871V31.58ZM780.49 37.08V26.5956H781.881V37.08H780.49Z" fill="black"/>
<g filter="url(#filter1_f_1_780)">
<path fill-rule="evenodd" clip-rule="evenodd" d="M318 74.4908H424.488V349.231H318V74.4908Z" fill="white"/>
<path fill-rule="evenodd" clip-rule="evenodd" d="M318 74.4908H424.488V349.231H318V74.4908Z" stroke="#44546A" stroke-miterlimit="10" stroke-linejoin="round"/>
<path d="M361.118 204.269L362.509 204.613C362.217 205.748 361.691 206.618 360.931 207.222C360.181 207.816 359.259 208.113 358.165 208.113C357.04 208.113 356.123 207.884 355.415 207.425C354.707 206.967 354.165 206.3 353.79 205.425C353.425 204.55 353.243 203.613 353.243 202.613C353.243 201.519 353.451 200.566 353.868 199.753C354.285 198.941 354.879 198.326 355.649 197.91C356.42 197.483 357.269 197.269 358.196 197.269C359.238 197.269 360.118 197.54 360.837 198.082C361.556 198.613 362.056 199.363 362.337 200.332L360.962 200.644C360.722 199.884 360.368 199.332 359.899 198.988C359.441 198.634 358.863 198.457 358.165 198.457C357.353 198.457 356.675 198.649 356.134 199.035C355.592 199.42 355.212 199.941 354.993 200.597C354.774 201.243 354.665 201.915 354.665 202.613C354.665 203.498 354.795 204.274 355.056 204.941C355.316 205.608 355.722 206.108 356.274 206.441C356.826 206.764 357.42 206.925 358.056 206.925C358.837 206.925 359.493 206.701 360.024 206.253C360.566 205.805 360.931 205.144 361.118 204.269ZM364.031 207.941V197.457H365.312V207.941H364.031ZM367.318 198.925V197.457H368.615V198.925H367.318ZM367.318 207.941V200.347H368.615V207.941H367.318ZM375.777 205.488L377.105 205.66C376.897 206.441 376.506 207.045 375.934 207.472C375.371 207.899 374.647 208.113 373.762 208.113C372.647 208.113 371.762 207.774 371.105 207.097C370.46 206.41 370.137 205.446 370.137 204.207C370.137 202.925 370.465 201.936 371.121 201.238C371.788 200.529 372.647 200.175 373.699 200.175C374.71 200.175 375.538 200.519 376.184 201.207C376.829 201.894 377.152 202.868 377.152 204.128C377.152 204.201 377.147 204.316 377.137 204.472H371.48C371.522 205.305 371.756 205.946 372.184 206.394C372.611 206.832 373.142 207.05 373.777 207.05C374.246 207.05 374.647 206.93 374.98 206.691C375.314 206.441 375.579 206.04 375.777 205.488ZM371.543 203.41H375.793C375.73 202.774 375.569 202.295 375.309 201.972C374.892 201.472 374.355 201.222 373.699 201.222C373.116 201.222 372.621 201.42 372.215 201.816C371.809 202.212 371.585 202.743 371.543 203.41ZM378.725 207.941V200.347H379.881V201.425C380.444 200.592 381.251 200.175 382.303 200.175C382.762 200.175 383.184 200.259 383.569 200.425C383.954 200.582 384.241 200.795 384.428 201.066C384.616 201.337 384.751 201.654 384.835 202.019C384.876 202.259 384.897 202.675 384.897 203.269V207.941H383.616V203.316C383.616 202.795 383.564 202.404 383.46 202.144C383.355 201.884 383.173 201.675 382.913 201.519C382.663 201.363 382.366 201.285 382.022 201.285C381.48 201.285 381.006 201.462 380.6 201.816C380.204 202.16 380.006 202.816 380.006 203.785V207.941H378.725ZM389.689 206.785L389.876 207.925C389.512 207.998 389.184 208.035 388.892 208.035C388.434 208.035 388.074 207.962 387.814 207.816C387.553 207.67 387.371 207.477 387.267 207.238C387.163 206.998 387.111 206.493 387.111 205.722V201.347H386.158V200.347H387.111V198.457L388.392 197.691V200.347H389.689V201.347H388.392V205.785C388.392 206.149 388.413 206.389 388.454 206.503C388.507 206.608 388.579 206.691 388.673 206.753C388.777 206.805 388.928 206.832 389.126 206.832C389.262 206.832 389.449 206.816 389.689 206.785Z" fill="black"/>
<path d="M335.378 225.941L339.394 215.457H340.894L345.191 225.941H343.613L342.378 222.769H338.003L336.847 225.941H335.378ZM338.394 221.628H341.957L340.863 218.722C340.529 217.847 340.279 217.123 340.113 216.55C339.977 217.227 339.79 217.894 339.55 218.55L338.394 221.628ZM346.138 228.847V218.347H347.31V219.332C347.592 218.946 347.904 218.66 348.248 218.472C348.592 218.274 349.013 218.175 349.513 218.175C350.159 218.175 350.732 218.342 351.232 218.675C351.732 219.009 352.107 219.483 352.357 220.097C352.607 220.701 352.732 221.363 352.732 222.082C352.732 222.863 352.592 223.566 352.31 224.191C352.039 224.805 351.633 225.279 351.092 225.613C350.56 225.946 350.003 226.113 349.42 226.113C348.993 226.113 348.607 226.024 348.263 225.847C347.92 225.66 347.638 225.43 347.42 225.16V228.847H346.138ZM347.295 222.191C347.295 223.16 347.493 223.878 347.888 224.347C348.295 224.816 348.779 225.05 349.342 225.05C349.914 225.05 350.404 224.811 350.81 224.332C351.217 223.842 351.42 223.092 351.42 222.082C351.42 221.113 351.217 220.389 350.81 219.91C350.414 219.42 349.94 219.175 349.388 219.175C348.847 219.175 348.362 219.436 347.935 219.957C347.508 220.467 347.295 221.212 347.295 222.191ZM354.29 228.847V218.347H355.461V219.332C355.743 218.946 356.055 218.66 356.399 218.472C356.743 218.274 357.165 218.175 357.665 218.175C358.31 218.175 358.883 218.342 359.383 218.675C359.883 219.009 360.258 219.483 360.508 220.097C360.758 220.701 360.883 221.363 360.883 222.082C360.883 222.863 360.743 223.566 360.461 224.191C360.191 224.805 359.784 225.279 359.243 225.613C358.711 225.946 358.154 226.113 357.571 226.113C357.144 226.113 356.758 226.024 356.415 225.847C356.071 225.66 355.79 225.43 355.571 225.16V228.847H354.29ZM355.446 222.191C355.446 223.16 355.644 223.878 356.04 224.347C356.446 224.816 356.93 225.05 357.493 225.05C358.066 225.05 358.555 224.811 358.961 224.332C359.368 223.842 359.571 223.092 359.571 222.082C359.571 221.113 359.368 220.389 358.961 219.91C358.566 219.42 358.092 219.175 357.54 219.175C356.998 219.175 356.513 219.436 356.086 219.957C355.659 220.467 355.446 221.212 355.446 222.191ZM362.409 225.941V215.457H363.691V225.941H362.409ZM365.697 216.925V215.457H366.994V216.925H365.697ZM365.697 225.941V218.347H366.994V225.941H365.697ZM373.906 223.16L375.172 223.316C375.036 224.191 374.682 224.878 374.109 225.378C373.547 225.868 372.849 226.113 372.015 226.113C370.974 226.113 370.135 225.774 369.5 225.097C368.875 224.41 368.562 223.436 368.562 222.175C368.562 221.352 368.698 220.634 368.969 220.019C369.239 219.404 369.651 218.946 370.203 218.644C370.765 218.332 371.37 218.175 372.015 218.175C372.849 218.175 373.526 218.384 374.047 218.8C374.567 219.217 374.906 219.805 375.062 220.566L373.797 220.769C373.682 220.259 373.474 219.873 373.172 219.613C372.87 219.352 372.505 219.222 372.078 219.222C371.422 219.222 370.89 219.457 370.484 219.925C370.078 220.394 369.875 221.128 369.875 222.128C369.875 223.149 370.067 223.894 370.453 224.363C370.849 224.821 371.364 225.05 372 225.05C372.5 225.05 372.922 224.899 373.265 224.597C373.609 224.285 373.823 223.805 373.906 223.16ZM381.234 225.003C380.755 225.41 380.297 225.696 379.859 225.863C379.422 226.029 378.948 226.113 378.437 226.113C377.604 226.113 376.963 225.91 376.515 225.503C376.067 225.097 375.844 224.576 375.844 223.941C375.844 223.566 375.927 223.227 376.094 222.925C376.26 222.613 376.479 222.363 376.75 222.175C377.031 221.988 377.344 221.847 377.687 221.753C377.937 221.691 378.317 221.628 378.828 221.566C379.87 221.441 380.635 221.29 381.125 221.113C381.135 220.936 381.14 220.826 381.14 220.785C381.14 220.253 381.015 219.884 380.765 219.675C380.442 219.384 379.958 219.238 379.312 219.238C378.698 219.238 378.245 219.347 377.953 219.566C377.672 219.774 377.463 220.144 377.328 220.675L376.062 220.503C376.177 219.972 376.364 219.54 376.625 219.207C376.885 218.873 377.265 218.618 377.765 218.441C378.265 218.264 378.838 218.175 379.484 218.175C380.14 218.175 380.672 218.253 381.078 218.41C381.484 218.555 381.781 218.743 381.969 218.972C382.156 219.201 382.291 219.493 382.375 219.847C382.416 220.066 382.437 220.462 382.437 221.035V222.753C382.437 223.951 382.463 224.712 382.515 225.035C382.567 225.347 382.677 225.649 382.844 225.941H381.5C381.364 225.67 381.276 225.358 381.234 225.003ZM381.125 222.128C380.656 222.316 379.958 222.477 379.031 222.613C378.5 222.686 378.125 222.774 377.906 222.878C377.687 222.972 377.515 223.113 377.39 223.3C377.276 223.477 377.219 223.675 377.219 223.894C377.219 224.238 377.349 224.524 377.609 224.753C377.87 224.983 378.25 225.097 378.75 225.097C379.239 225.097 379.677 224.993 380.062 224.785C380.458 224.566 380.745 224.269 380.922 223.894C381.057 223.602 381.125 223.17 381.125 222.597V222.128ZM387.245 224.785L387.432 225.925C387.068 225.998 386.739 226.035 386.448 226.035C385.989 226.035 385.63 225.962 385.37 225.816C385.109 225.67 384.927 225.477 384.823 225.238C384.719 224.998 384.667 224.493 384.667 223.722V219.347H383.713V218.347H384.667V216.457L385.948 215.691V218.347H387.245V219.347H385.948V223.785C385.948 224.149 385.969 224.389 386.01 224.503C386.062 224.608 386.135 224.691 386.229 224.753C386.333 224.805 386.484 224.832 386.682 224.832C386.818 224.832 387.005 224.816 387.245 224.785ZM388.504 216.925V215.457H389.801V216.925H388.504ZM388.504 225.941V218.347H389.801V225.941H388.504ZM391.276 222.144C391.276 220.738 391.667 219.696 392.448 219.019C393.104 218.457 393.901 218.175 394.838 218.175C395.89 218.175 396.745 218.519 397.401 219.207C398.068 219.884 398.401 220.826 398.401 222.035C398.401 223.014 398.255 223.785 397.963 224.347C397.672 224.899 397.245 225.332 396.682 225.644C396.12 225.957 395.505 226.113 394.838 226.113C393.776 226.113 392.917 225.774 392.26 225.097C391.604 224.41 391.276 223.425 391.276 222.144ZM392.604 222.144C392.604 223.113 392.812 223.842 393.229 224.332C393.656 224.811 394.193 225.05 394.838 225.05C395.484 225.05 396.015 224.811 396.432 224.332C396.859 223.842 397.073 223.097 397.073 222.097C397.073 221.16 396.859 220.451 396.432 219.972C396.005 219.483 395.474 219.238 394.838 219.238C394.193 219.238 393.656 219.477 393.229 219.957C392.812 220.436 392.604 221.165 392.604 222.144ZM399.911 225.941V218.347H401.068V219.425C401.63 218.592 402.437 218.175 403.49 218.175C403.948 218.175 404.37 218.259 404.755 218.425C405.141 218.582 405.427 218.795 405.615 219.066C405.802 219.337 405.937 219.654 406.021 220.019C406.062 220.259 406.083 220.675 406.083 221.269V225.941H404.802V221.316C404.802 220.795 404.75 220.404 404.646 220.144C404.542 219.884 404.359 219.675 404.099 219.519C403.849 219.363 403.552 219.285 403.208 219.285C402.667 219.285 402.193 219.462 401.786 219.816C401.391 220.16 401.193 220.816 401.193 221.785V225.941H399.911Z" fill="black"/>
</g>
<path fill-rule="evenodd" clip-rule="evenodd" d="M318 72.4908H424.488V347.231H318V72.4908Z" fill="white"/>
<path fill-rule="evenodd" clip-rule="evenodd" d="M318 72.4908H424.488V347.231H318V72.4908Z" stroke="#44546A" stroke-miterlimit="10" stroke-linejoin="round"/>
<path d="M361.118 202.269L362.509 202.613C362.217 203.748 361.691 204.618 360.931 205.222C360.181 205.816 359.259 206.113 358.165 206.113C357.04 206.113 356.123 205.884 355.415 205.425C354.707 204.967 354.165 204.3 353.79 203.425C353.425 202.55 353.243 201.613 353.243 200.613C353.243 199.519 353.451 198.566 353.868 197.753C354.285 196.941 354.879 196.326 355.649 195.91C356.42 195.483 357.269 195.269 358.196 195.269C359.238 195.269 360.118 195.54 360.837 196.082C361.556 196.613 362.056 197.363 362.337 198.332L360.962 198.644C360.722 197.884 360.368 197.332 359.899 196.988C359.441 196.634 358.863 196.457 358.165 196.457C357.353 196.457 356.675 196.649 356.134 197.035C355.592 197.42 355.212 197.941 354.993 198.597C354.774 199.243 354.665 199.915 354.665 200.613C354.665 201.498 354.795 202.274 355.056 202.941C355.316 203.608 355.722 204.108 356.274 204.441C356.826 204.764 357.42 204.925 358.056 204.925C358.837 204.925 359.493 204.701 360.024 204.253C360.566 203.805 360.931 203.144 361.118 202.269ZM364.031 205.941V195.457H365.312V205.941H364.031ZM367.318 196.925V195.457H368.615V196.925H367.318ZM367.318 205.941V198.347H368.615V205.941H367.318ZM375.777 203.488L377.105 203.66C376.897 204.441 376.506 205.045 375.934 205.472C375.371 205.899 374.647 206.113 373.762 206.113C372.647 206.113 371.762 205.774 371.105 205.097C370.46 204.41 370.137 203.446 370.137 202.207C370.137 200.925 370.465 199.936 371.121 199.238C371.788 198.529 372.647 198.175 373.699 198.175C374.71 198.175 375.538 198.519 376.184 199.207C376.829 199.894 377.152 200.868 377.152 202.128C377.152 202.201 377.147 202.316 377.137 202.472H371.48C371.522 203.305 371.756 203.946 372.184 204.394C372.611 204.832 373.142 205.05 373.777 205.05C374.246 205.05 374.647 204.93 374.98 204.691C375.314 204.441 375.579 204.04 375.777 203.488ZM371.543 201.41H375.793C375.73 200.774 375.569 200.295 375.309 199.972C374.892 199.472 374.355 199.222 373.699 199.222C373.116 199.222 372.621 199.42 372.215 199.816C371.809 200.212 371.585 200.743 371.543 201.41ZM378.725 205.941V198.347H379.881V199.425C380.444 198.592 381.251 198.175 382.303 198.175C382.762 198.175 383.184 198.259 383.569 198.425C383.954 198.582 384.241 198.795 384.428 199.066C384.616 199.337 384.751 199.654 384.835 200.019C384.876 200.259 384.897 200.675 384.897 201.269V205.941H383.616V201.316C383.616 200.795 383.564 200.404 383.46 200.144C383.355 199.884 383.173 199.675 382.913 199.519C382.663 199.363 382.366 199.285 382.022 199.285C381.48 199.285 381.006 199.462 380.6 199.816C380.204 200.16 380.006 200.816 380.006 201.785V205.941H378.725ZM389.689 204.785L389.876 205.925C389.512 205.998 389.184 206.035 388.892 206.035C388.434 206.035 388.074 205.962 387.814 205.816C387.553 205.67 387.371 205.477 387.267 205.238C387.163 204.998 387.111 204.493 387.111 203.722V199.347H386.158V198.347H387.111V196.457L388.392 195.691V198.347H389.689V199.347H388.392V203.785C388.392 204.149 388.413 204.389 388.454 204.503C388.507 204.608 388.579 204.691 388.673 204.753C388.777 204.805 388.928 204.832 389.126 204.832C389.262 204.832 389.449 204.816 389.689 204.785Z" fill="black"/>
<path d="M335.378 223.941L339.394 213.457H340.894L345.191 223.941H343.613L342.378 220.769H338.003L336.847 223.941H335.378ZM338.394 219.628H341.957L340.863 216.722C340.529 215.847 340.279 215.123 340.113 214.55C339.977 215.227 339.79 215.894 339.55 216.55L338.394 219.628ZM346.138 226.847V216.347H347.31V217.332C347.592 216.946 347.904 216.66 348.248 216.472C348.592 216.274 349.013 216.175 349.513 216.175C350.159 216.175 350.732 216.342 351.232 216.675C351.732 217.009 352.107 217.483 352.357 218.097C352.607 218.701 352.732 219.363 352.732 220.082C352.732 220.863 352.592 221.566 352.31 222.191C352.039 222.805 351.633 223.279 351.092 223.613C350.56 223.946 350.003 224.113 349.42 224.113C348.993 224.113 348.607 224.024 348.263 223.847C347.92 223.66 347.638 223.43 347.42 223.16V226.847H346.138ZM347.295 220.191C347.295 221.16 347.493 221.878 347.888 222.347C348.295 222.816 348.779 223.05 349.342 223.05C349.914 223.05 350.404 222.811 350.81 222.332C351.217 221.842 351.42 221.092 351.42 220.082C351.42 219.113 351.217 218.389 350.81 217.91C350.414 217.42 349.94 217.175 349.388 217.175C348.847 217.175 348.362 217.436 347.935 217.957C347.508 218.467 347.295 219.212 347.295 220.191ZM354.29 226.847V216.347H355.461V217.332C355.743 216.946 356.055 216.66 356.399 216.472C356.743 216.274 357.165 216.175 357.665 216.175C358.31 216.175 358.883 216.342 359.383 216.675C359.883 217.009 360.258 217.483 360.508 218.097C360.758 218.701 360.883 219.363 360.883 220.082C360.883 220.863 360.743 221.566 360.461 222.191C360.191 222.805 359.784 223.279 359.243 223.613C358.711 223.946 358.154 224.113 357.571 224.113C357.144 224.113 356.758 224.024 356.415 223.847C356.071 223.66 355.79 223.43 355.571 223.16V226.847H354.29ZM355.446 220.191C355.446 221.16 355.644 221.878 356.04 222.347C356.446 222.816 356.93 223.05 357.493 223.05C358.066 223.05 358.555 222.811 358.961 222.332C359.368 221.842 359.571 221.092 359.571 220.082C359.571 219.113 359.368 218.389 358.961 217.91C358.566 217.42 358.092 217.175 357.54 217.175C356.998 217.175 356.513 217.436 356.086 217.957C355.659 218.467 355.446 219.212 355.446 220.191ZM362.409 223.941V213.457H363.691V223.941H362.409ZM365.697 214.925V213.457H366.994V214.925H365.697ZM365.697 223.941V216.347H366.994V223.941H365.697ZM373.906 221.16L375.172 221.316C375.036 222.191 374.682 222.878 374.109 223.378C373.547 223.868 372.849 224.113 372.015 224.113C370.974 224.113 370.135 223.774 369.5 223.097C368.875 222.41 368.562 221.436 368.562 220.175C368.562 219.352 368.698 218.634 368.969 218.019C369.239 217.404 369.651 216.946 370.203 216.644C370.765 216.332 371.37 216.175 372.015 216.175C372.849 216.175 373.526 216.384 374.047 216.8C374.567 217.217 374.906 217.805 375.062 218.566L373.797 218.769C373.682 218.259 373.474 217.873 373.172 217.613C372.87 217.352 372.505 217.222 372.078 217.222C371.422 217.222 370.89 217.457 370.484 217.925C370.078 218.394 369.875 219.128 369.875 220.128C369.875 221.149 370.067 221.894 370.453 222.363C370.849 222.821 371.364 223.05 372 223.05C372.5 223.05 372.922 222.899 373.265 222.597C373.609 222.285 373.823 221.805 373.906 221.16ZM381.234 223.003C380.755 223.41 380.297 223.696 379.859 223.863C379.422 224.029 378.948 224.113 378.437 224.113C377.604 224.113 376.963 223.91 376.515 223.503C376.067 223.097 375.844 222.576 375.844 221.941C375.844 221.566 375.927 221.227 376.094 220.925C376.26 220.613 376.479 220.363 376.75 220.175C377.031 219.988 377.344 219.847 377.687 219.753C377.937 219.691 378.317 219.628 378.828 219.566C379.87 219.441 380.635 219.29 381.125 219.113C381.135 218.936 381.14 218.826 381.14 218.785C381.14 218.253 381.015 217.884 380.765 217.675C380.442 217.384 379.958 217.238 379.312 217.238C378.698 217.238 378.245 217.347 377.953 217.566C377.672 217.774 377.463 218.144 377.328 218.675L376.062 218.503C376.177 217.972 376.364 217.54 376.625 217.207C376.885 216.873 377.265 216.618 377.765 216.441C378.265 216.264 378.838 216.175 379.484 216.175C380.14 216.175 380.672 216.253 381.078 216.41C381.484 216.555 381.781 216.743 381.969 216.972C382.156 217.201 382.291 217.493 382.375 217.847C382.416 218.066 382.437 218.462 382.437 219.035V220.753C382.437 221.951 382.463 222.712 382.515 223.035C382.567 223.347 382.677 223.649 382.844 223.941H381.5C381.364 223.67 381.276 223.358 381.234 223.003ZM381.125 220.128C380.656 220.316 379.958 220.477 379.031 220.613C378.5 220.686 378.125 220.774 377.906 220.878C377.687 220.972 377.515 221.113 377.39 221.3C377.276 221.477 377.219 221.675 377.219 221.894C377.219 222.238 377.349 222.524 377.609 222.753C377.87 222.983 378.25 223.097 378.75 223.097C379.239 223.097 379.677 222.993 380.062 222.785C380.458 222.566 380.745 222.269 380.922 221.894C381.057 221.602 381.125 221.17 381.125 220.597V220.128ZM387.245 222.785L387.432 223.925C387.068 223.998 386.739 224.035 386.448 224.035C385.989 224.035 385.63 223.962 385.37 223.816C385.109 223.67 384.927 223.477 384.823 223.238C384.719 222.998 384.667 222.493 384.667 221.722V217.347H383.713V216.347H384.667V214.457L385.948 213.691V216.347H387.245V217.347H385.948V221.785C385.948 222.149 385.969 222.389 386.01 222.503C386.062 222.608 386.135 222.691 386.229 222.753C386.333 222.805 386.484 222.832 386.682 222.832C386.818 222.832 387.005 222.816 387.245 222.785ZM388.504 214.925V213.457H389.801V214.925H388.504ZM388.504 223.941V216.347H389.801V223.941H388.504ZM391.276 220.144C391.276 218.738 391.667 217.696 392.448 217.019C393.104 216.457 393.901 216.175 394.838 216.175C395.89 216.175 396.745 216.519 397.401 217.207C398.068 217.884 398.401 218.826 398.401 220.035C398.401 221.014 398.255 221.785 397.963 222.347C397.672 222.899 397.245 223.332 396.682 223.644C396.12 223.957 395.505 224.113 394.838 224.113C393.776 224.113 392.917 223.774 392.26 223.097C391.604 222.41 391.276 221.425 391.276 220.144ZM392.604 220.144C392.604 221.113 392.812 221.842 393.229 222.332C393.656 222.811 394.193 223.05 394.838 223.05C395.484 223.05 396.015 222.811 396.432 222.332C396.859 221.842 397.073 221.097 397.073 220.097C397.073 219.16 396.859 218.451 396.432 217.972C396.005 217.483 395.474 217.238 394.838 217.238C394.193 217.238 393.656 217.477 393.229 217.957C392.812 218.436 392.604 219.165 392.604 220.144ZM399.911 223.941V216.347H401.068V217.425C401.63 216.592 402.437 216.175 403.49 216.175C403.948 216.175 404.37 216.259 404.755 216.425C405.141 216.582 405.427 216.795 405.615 217.066C405.802 217.337 405.937 217.654 406.021 218.019C406.062 218.259 406.083 218.675 406.083 219.269V223.941H404.802V219.316C404.802 218.795 404.75 218.404 404.646 218.144C404.542 217.884 404.359 217.675 404.099 217.519C403.849 217.363 403.552 217.285 403.208 217.285C402.667 217.285 402.193 217.462 401.786 217.816C401.391 218.16 401.193 218.816 401.193 219.785V223.941H399.911Z" fill="black"/>
<path d="M436.866 155.241H483.008" stroke="#44546A" stroke-width="2" stroke-miterlimit="10" stroke-linejoin="round"/>
<path fill-rule="evenodd" clip-rule="evenodd" d="M483.008 158.545L492.084 155.241L483.008 151.938V158.545Z" fill="#44546A" stroke="#44546A" stroke-width="2" stroke-miterlimit="10"/>
<path d="M495.008 187.241H448.866" stroke="#44546A" stroke-width="2" stroke-miterlimit="10" stroke-linejoin="round"/>
<path fill-rule="evenodd" clip-rule="evenodd" d="M448.866 183.938L439.79 187.241L448.866 190.545V183.938Z" fill="#44546A" stroke="#44546A" stroke-width="2" stroke-miterlimit="10"/>
<path d="M444.866 235.241H491.008" stroke="#44546A" stroke-width="2" stroke-miterlimit="10" stroke-linejoin="round"/>
<path fill-rule="evenodd" clip-rule="evenodd" d="M491.008 238.545L500.084 235.241L491.008 231.938V238.545Z" fill="#44546A" stroke="#44546A" stroke-width="2" stroke-miterlimit="10"/>
<path d="M503.008 267.241H456.866" stroke="#44546A" stroke-width="2" stroke-miterlimit="10" stroke-linejoin="round"/>
<path fill-rule="evenodd" clip-rule="evenodd" d="M456.866 263.938L447.79 267.241L456.866 270.545V263.938Z" fill="#44546A" stroke="#44546A" stroke-width="2" stroke-miterlimit="10"/>
<g filter="url(#filter2_f_1_780)">
<path fill-rule="evenodd" clip-rule="evenodd" d="M710 74.4908H816.488V349.231H710V74.4908Z" fill="white"/>
<path fill-rule="evenodd" clip-rule="evenodd" d="M710 74.4908H816.488V349.231H710V74.4908Z" stroke="#44546A" stroke-miterlimit="10" stroke-linejoin="round"/>
<path d="M734.791 204.269L736.181 204.613C735.889 205.748 735.363 206.618 734.603 207.222C733.853 207.816 732.931 208.113 731.837 208.113C730.712 208.113 729.796 207.884 729.087 207.425C728.379 206.967 727.837 206.3 727.462 205.425C727.098 204.55 726.916 203.613 726.916 202.613C726.916 201.519 727.124 200.566 727.541 199.753C727.957 198.941 728.551 198.326 729.322 197.91C730.093 197.483 730.942 197.269 731.869 197.269C732.91 197.269 733.791 197.54 734.509 198.082C735.228 198.613 735.728 199.363 736.009 200.332L734.634 200.644C734.395 199.884 734.041 199.332 733.572 198.988C733.113 198.634 732.535 198.457 731.837 198.457C731.025 198.457 730.348 198.649 729.806 199.035C729.264 199.42 728.884 199.941 728.666 200.597C728.447 201.243 728.337 201.915 728.337 202.613C728.337 203.498 728.468 204.274 728.728 204.941C728.988 205.608 729.395 206.108 729.947 206.441C730.499 206.764 731.093 206.925 731.728 206.925C732.509 206.925 733.166 206.701 733.697 206.253C734.238 205.805 734.603 205.144 734.791 204.269ZM742.937 205.488L744.265 205.66C744.057 206.441 743.666 207.045 743.094 207.472C742.531 207.899 741.807 208.113 740.922 208.113C739.807 208.113 738.922 207.774 738.265 207.097C737.62 206.41 737.297 205.446 737.297 204.207C737.297 202.925 737.625 201.936 738.281 201.238C738.948 200.529 739.807 200.175 740.859 200.175C741.87 200.175 742.698 200.519 743.344 201.207C743.989 201.894 744.312 202.868 744.312 204.128C744.312 204.201 744.307 204.316 744.297 204.472H738.64C738.682 205.305 738.916 205.946 739.344 206.394C739.771 206.832 740.302 207.05 740.937 207.05C741.406 207.05 741.807 206.93 742.14 206.691C742.474 206.441 742.739 206.04 742.937 205.488ZM738.703 203.41H742.953C742.89 202.774 742.729 202.295 742.469 201.972C742.052 201.472 741.515 201.222 740.859 201.222C740.276 201.222 739.781 201.42 739.375 201.816C738.969 202.212 738.745 202.743 738.703 203.41ZM745.87 207.941V200.347H747.026V201.488C747.328 200.957 747.604 200.608 747.854 200.441C748.104 200.264 748.375 200.175 748.667 200.175C749.104 200.175 749.547 200.311 749.995 200.582L749.557 201.785C749.245 201.597 748.927 201.503 748.604 201.503C748.323 201.503 748.068 201.587 747.838 201.753C747.62 201.92 747.463 202.154 747.37 202.457C747.224 202.915 747.151 203.415 747.151 203.957V207.941H745.87ZM753.578 206.785L753.766 207.925C753.401 207.998 753.073 208.035 752.782 208.035C752.323 208.035 751.964 207.962 751.703 207.816C751.443 207.67 751.261 207.477 751.157 207.238C751.052 206.998 751 206.493 751 205.722V201.347H750.047V200.347H751V198.457L752.282 197.691V200.347H753.578V201.347H752.282V205.785C752.282 206.149 752.302 206.389 752.344 206.503C752.396 206.608 752.469 206.691 752.563 206.753C752.667 206.805 752.818 206.832 753.016 206.832C753.151 206.832 753.339 206.816 753.578 206.785ZM754.838 198.925V197.457H756.135V198.925H754.838ZM754.838 207.941V200.347H756.135V207.941H754.838ZM758.407 207.941V201.347H757.266V200.347H758.407V199.535C758.407 199.024 758.448 198.644 758.532 198.394C758.657 198.061 758.875 197.79 759.188 197.582C759.5 197.373 759.938 197.269 760.5 197.269C760.865 197.269 761.266 197.311 761.703 197.394L761.516 198.519C761.245 198.477 760.99 198.457 760.75 198.457C760.365 198.457 760.089 198.54 759.922 198.707C759.766 198.873 759.688 199.186 759.688 199.644V200.347H761.157V201.347H759.688V207.941H758.407ZM767.119 207.003C766.64 207.41 766.182 207.696 765.744 207.863C765.307 208.029 764.833 208.113 764.322 208.113C763.489 208.113 762.848 207.91 762.4 207.503C761.953 207.097 761.729 206.576 761.729 205.941C761.729 205.566 761.812 205.227 761.979 204.925C762.145 204.613 762.364 204.363 762.635 204.175C762.916 203.988 763.229 203.847 763.572 203.753C763.822 203.691 764.203 203.628 764.713 203.566C765.755 203.441 766.52 203.29 767.01 203.113C767.02 202.936 767.025 202.826 767.025 202.785C767.025 202.253 766.9 201.884 766.65 201.675C766.328 201.384 765.843 201.238 765.197 201.238C764.583 201.238 764.13 201.347 763.838 201.566C763.557 201.774 763.348 202.144 763.213 202.675L761.947 202.503C762.062 201.972 762.249 201.54 762.51 201.207C762.77 200.873 763.15 200.618 763.65 200.441C764.15 200.264 764.723 200.175 765.369 200.175C766.025 200.175 766.557 200.253 766.963 200.41C767.369 200.555 767.666 200.743 767.854 200.972C768.041 201.201 768.176 201.493 768.26 201.847C768.301 202.066 768.322 202.462 768.322 203.035V204.753C768.322 205.951 768.348 206.712 768.4 207.035C768.453 207.347 768.562 207.649 768.729 207.941H767.385C767.249 207.67 767.161 207.358 767.119 207.003ZM767.01 204.128C766.541 204.316 765.843 204.477 764.916 204.613C764.385 204.686 764.01 204.774 763.791 204.878C763.572 204.972 763.4 205.113 763.275 205.3C763.161 205.477 763.104 205.675 763.104 205.894C763.104 206.238 763.234 206.524 763.494 206.753C763.755 206.983 764.135 207.097 764.635 207.097C765.124 207.097 765.562 206.993 765.947 206.785C766.343 206.566 766.63 206.269 766.807 205.894C766.942 205.602 767.01 205.17 767.01 204.597V204.128ZM775.27 205.16L776.536 205.316C776.4 206.191 776.046 206.878 775.473 207.378C774.911 207.868 774.213 208.113 773.38 208.113C772.338 208.113 771.499 207.774 770.864 207.097C770.239 206.41 769.927 205.436 769.927 204.175C769.927 203.352 770.062 202.634 770.333 202.019C770.604 201.404 771.015 200.946 771.567 200.644C772.13 200.332 772.734 200.175 773.38 200.175C774.213 200.175 774.89 200.384 775.411 200.8C775.932 201.217 776.27 201.805 776.427 202.566L775.161 202.769C775.046 202.259 774.838 201.873 774.536 201.613C774.234 201.352 773.869 201.222 773.442 201.222C772.786 201.222 772.255 201.457 771.848 201.925C771.442 202.394 771.239 203.128 771.239 204.128C771.239 205.149 771.432 205.894 771.817 206.363C772.213 206.821 772.729 207.05 773.364 207.05C773.864 207.05 774.286 206.899 774.63 206.597C774.973 206.285 775.187 205.805 775.27 205.16ZM780.458 206.785L780.645 207.925C780.281 207.998 779.953 208.035 779.661 208.035C779.203 208.035 778.843 207.962 778.583 207.816C778.322 207.67 778.14 207.477 778.036 207.238C777.932 206.998 777.88 206.493 777.88 205.722V201.347H776.927V200.347H777.88V198.457L779.161 197.691V200.347H780.458V201.347H779.161V205.785C779.161 206.149 779.182 206.389 779.223 206.503C779.275 206.608 779.348 206.691 779.442 206.753C779.546 206.805 779.697 206.832 779.895 206.832C780.031 206.832 780.218 206.816 780.458 206.785ZM781.717 198.925V197.457H783.014V198.925H781.717ZM781.717 207.941V200.347H783.014V207.941H781.717ZM784.489 204.144C784.489 202.738 784.88 201.696 785.661 201.019C786.317 200.457 787.114 200.175 788.052 200.175C789.104 200.175 789.958 200.519 790.614 201.207C791.281 201.884 791.614 202.826 791.614 204.035C791.614 205.014 791.468 205.785 791.177 206.347C790.885 206.899 790.458 207.332 789.895 207.644C789.333 207.957 788.718 208.113 788.052 208.113C786.989 208.113 786.13 207.774 785.473 207.097C784.817 206.41 784.489 205.425 784.489 204.144ZM785.817 204.144C785.817 205.113 786.025 205.842 786.442 206.332C786.869 206.811 787.406 207.05 788.052 207.05C788.697 207.05 789.229 206.811 789.645 206.332C790.072 205.842 790.286 205.097 790.286 204.097C790.286 203.16 790.072 202.451 789.645 201.972C789.218 201.483 788.687 201.238 788.052 201.238C787.406 201.238 786.869 201.477 786.442 201.957C786.025 202.436 785.817 203.165 785.817 204.144ZM793.125 207.941V200.347H794.281V201.425C794.843 200.592 795.651 200.175 796.703 200.175C797.161 200.175 797.583 200.259 797.968 200.425C798.354 200.582 798.64 200.795 798.828 201.066C799.015 201.337 799.151 201.654 799.234 202.019C799.276 202.259 799.296 202.675 799.296 203.269V207.941H798.015V203.316C798.015 202.795 797.963 202.404 797.859 202.144C797.755 201.884 797.572 201.675 797.312 201.519C797.062 201.363 796.765 201.285 796.421 201.285C795.88 201.285 795.406 201.462 795 201.816C794.604 202.16 794.406 202.816 794.406 203.785V207.941H793.125Z" fill="black"/>
<path d="M751.417 225.941L755.433 215.457H756.933L761.229 225.941H759.651L758.417 222.769H754.042L752.886 225.941H751.417ZM754.433 221.628H757.995L756.901 218.722C756.568 217.847 756.318 217.123 756.151 216.55C756.016 217.227 755.828 217.894 755.589 218.55L754.433 221.628ZM762.333 225.941V215.457H766.302C767 215.457 767.531 215.488 767.896 215.55C768.406 215.634 768.833 215.795 769.177 216.035C769.531 216.274 769.812 216.613 770.021 217.05C770.239 217.488 770.349 217.967 770.349 218.488C770.349 219.373 770.062 220.128 769.489 220.753C768.927 221.368 767.901 221.675 766.411 221.675H763.724V225.941H762.333ZM763.724 220.441H766.443C767.338 220.441 767.974 220.274 768.349 219.941C768.724 219.608 768.911 219.139 768.911 218.535C768.911 218.087 768.802 217.707 768.583 217.394C768.364 217.082 768.073 216.878 767.708 216.785C767.469 216.722 767.036 216.691 766.411 216.691H763.724V220.441ZM772.343 225.941V215.457H773.734V225.941H772.343Z" fill="black"/>
</g>
<path fill-rule="evenodd" clip-rule="evenodd" d="M710 72.4908H816.488V347.231H710V72.4908Z" fill="white"/>
<path fill-rule="evenodd" clip-rule="evenodd" d="M710 72.4908H816.488V347.231H710V72.4908Z" stroke="#44546A" stroke-miterlimit="10" stroke-linejoin="round"/>
<path d="M734.791 202.269L736.181 202.613C735.889 203.748 735.363 204.618 734.603 205.222C733.853 205.816 732.931 206.113 731.837 206.113C730.712 206.113 729.796 205.884 729.087 205.425C728.379 204.967 727.837 204.3 727.462 203.425C727.098 202.55 726.916 201.613 726.916 200.613C726.916 199.519 727.124 198.566 727.541 197.753C727.957 196.941 728.551 196.326 729.322 195.91C730.093 195.483 730.942 195.269 731.869 195.269C732.91 195.269 733.791 195.54 734.509 196.082C735.228 196.613 735.728 197.363 736.009 198.332L734.634 198.644C734.395 197.884 734.041 197.332 733.572 196.988C733.113 196.634 732.535 196.457 731.837 196.457C731.025 196.457 730.348 196.649 729.806 197.035C729.264 197.42 728.884 197.941 728.666 198.597C728.447 199.243 728.337 199.915 728.337 200.613C728.337 201.498 728.468 202.274 728.728 202.941C728.988 203.608 729.395 204.108 729.947 204.441C730.499 204.764 731.093 204.925 731.728 204.925C732.509 204.925 733.166 204.701 733.697 204.253C734.238 203.805 734.603 203.144 734.791 202.269ZM742.937 203.488L744.265 203.66C744.057 204.441 743.666 205.045 743.094 205.472C742.531 205.899 741.807 206.113 740.922 206.113C739.807 206.113 738.922 205.774 738.265 205.097C737.62 204.41 737.297 203.446 737.297 202.207C737.297 200.925 737.625 199.936 738.281 199.238C738.948 198.529 739.807 198.175 740.859 198.175C741.87 198.175 742.698 198.519 743.344 199.207C743.989 199.894 744.312 200.868 744.312 202.128C744.312 202.201 744.307 202.316 744.297 202.472H738.64C738.682 203.305 738.916 203.946 739.344 204.394C739.771 204.832 740.302 205.05 740.937 205.05C741.406 205.05 741.807 204.93 742.14 204.691C742.474 204.441 742.739 204.04 742.937 203.488ZM738.703 201.41H742.953C742.89 200.774 742.729 200.295 742.469 199.972C742.052 199.472 741.515 199.222 740.859 199.222C740.276 199.222 739.781 199.42 739.375 199.816C738.969 200.212 738.745 200.743 738.703 201.41ZM745.87 205.941V198.347H747.026V199.488C747.328 198.957 747.604 198.608 747.854 198.441C748.104 198.264 748.375 198.175 748.667 198.175C749.104 198.175 749.547 198.311 749.995 198.582L749.557 199.785C749.245 199.597 748.927 199.503 748.604 199.503C748.323 199.503 748.068 199.587 747.838 199.753C747.62 199.92 747.463 200.154 747.37 200.457C747.224 200.915 747.151 201.415 747.151 201.957V205.941H745.87ZM753.578 204.785L753.766 205.925C753.401 205.998 753.073 206.035 752.782 206.035C752.323 206.035 751.964 205.962 751.703 205.816C751.443 205.67 751.261 205.477 751.157 205.238C751.052 204.998 751 204.493 751 203.722V199.347H750.047V198.347H751V196.457L752.282 195.691V198.347H753.578V199.347H752.282V203.785C752.282 204.149 752.302 204.389 752.344 204.503C752.396 204.608 752.469 204.691 752.563 204.753C752.667 204.805 752.818 204.832 753.016 204.832C753.151 204.832 753.339 204.816 753.578 204.785ZM754.838 196.925V195.457H756.135V196.925H754.838ZM754.838 205.941V198.347H756.135V205.941H754.838ZM758.407 205.941V199.347H757.266V198.347H758.407V197.535C758.407 197.024 758.448 196.644 758.532 196.394C758.657 196.061 758.875 195.79 759.188 195.582C759.5 195.373 759.938 195.269 760.5 195.269C760.865 195.269 761.266 195.311 761.703 195.394L761.516 196.519C761.245 196.477 760.99 196.457 760.75 196.457C760.365 196.457 760.089 196.54 759.922 196.707C759.766 196.873 759.688 197.186 759.688 197.644V198.347H761.157V199.347H759.688V205.941H758.407ZM767.119 205.003C766.64 205.41 766.182 205.696 765.744 205.863C765.307 206.029 764.833 206.113 764.322 206.113C763.489 206.113 762.848 205.91 762.4 205.503C761.953 205.097 761.729 204.576 761.729 203.941C761.729 203.566 761.812 203.227 761.979 202.925C762.145 202.613 762.364 202.363 762.635 202.175C762.916 201.988 763.229 201.847 763.572 201.753C763.822 201.691 764.203 201.628 764.713 201.566C765.755 201.441 766.52 201.29 767.01 201.113C767.02 200.936 767.025 200.826 767.025 200.785C767.025 200.253 766.9 199.884 766.65 199.675C766.328 199.384 765.843 199.238 765.197 199.238C764.583 199.238 764.13 199.347 763.838 199.566C763.557 199.774 763.348 200.144 763.213 200.675L761.947 200.503C762.062 199.972 762.249 199.54 762.51 199.207C762.77 198.873 763.15 198.618 763.65 198.441C764.15 198.264 764.723 198.175 765.369 198.175C766.025 198.175 766.557 198.253 766.963 198.41C767.369 198.555 767.666 198.743 767.854 198.972C768.041 199.201 768.176 199.493 768.26 199.847C768.301 200.066 768.322 200.462 768.322 201.035V202.753C768.322 203.951 768.348 204.712 768.4 205.035C768.453 205.347 768.562 205.649 768.729 205.941H767.385C767.249 205.67 767.161 205.358 767.119 205.003ZM767.01 202.128C766.541 202.316 765.843 202.477 764.916 202.613C764.385 202.686 764.01 202.774 763.791 202.878C763.572 202.972 763.4 203.113 763.275 203.3C763.161 203.477 763.104 203.675 763.104 203.894C763.104 204.238 763.234 204.524 763.494 204.753C763.755 204.983 764.135 205.097 764.635 205.097C765.124 205.097 765.562 204.993 765.947 204.785C766.343 204.566 766.63 204.269 766.807 203.894C766.942 203.602 767.01 203.17 767.01 202.597V202.128ZM775.27 203.16L776.536 203.316C776.4 204.191 776.046 204.878 775.473 205.378C774.911 205.868 774.213 206.113 773.38 206.113C772.338 206.113 771.499 205.774 770.864 205.097C770.239 204.41 769.927 203.436 769.927 202.175C769.927 201.352 770.062 200.634 770.333 200.019C770.604 199.404 771.015 198.946 771.567 198.644C772.13 198.332 772.734 198.175 773.38 198.175C774.213 198.175 774.89 198.384 775.411 198.8C775.932 199.217 776.27 199.805 776.427 200.566L775.161 200.769C775.046 200.259 774.838 199.873 774.536 199.613C774.234 199.352 773.869 199.222 773.442 199.222C772.786 199.222 772.255 199.457 771.848 199.925C771.442 200.394 771.239 201.128 771.239 202.128C771.239 203.149 771.432 203.894 771.817 204.363C772.213 204.821 772.729 205.05 773.364 205.05C773.864 205.05 774.286 204.899 774.63 204.597C774.973 204.285 775.187 203.805 775.27 203.16ZM780.458 204.785L780.645 205.925C780.281 205.998 779.953 206.035 779.661 206.035C779.203 206.035 778.843 205.962 778.583 205.816C778.322 205.67 778.14 205.477 778.036 205.238C777.932 204.998 777.88 204.493 777.88 203.722V199.347H776.927V198.347H777.88V196.457L779.161 195.691V198.347H780.458V199.347H779.161V203.785C779.161 204.149 779.182 204.389 779.223 204.503C779.275 204.608 779.348 204.691 779.442 204.753C779.546 204.805 779.697 204.832 779.895 204.832C780.031 204.832 780.218 204.816 780.458 204.785ZM781.717 196.925V195.457H783.014V196.925H781.717ZM781.717 205.941V198.347H783.014V205.941H781.717ZM784.489 202.144C784.489 200.738 784.88 199.696 785.661 199.019C786.317 198.457 787.114 198.175 788.052 198.175C789.104 198.175 789.958 198.519 790.614 199.207C791.281 199.884 791.614 200.826 791.614 202.035C791.614 203.014 791.468 203.785 791.177 204.347C790.885 204.899 790.458 205.332 789.895 205.644C789.333 205.957 788.718 206.113 788.052 206.113C786.989 206.113 786.13 205.774 785.473 205.097C784.817 204.41 784.489 203.425 784.489 202.144ZM785.817 202.144C785.817 203.113 786.025 203.842 786.442 204.332C786.869 204.811 787.406 205.05 788.052 205.05C788.697 205.05 789.229 204.811 789.645 204.332C790.072 203.842 790.286 203.097 790.286 202.097C790.286 201.16 790.072 200.451 789.645 199.972C789.218 199.483 788.687 199.238 788.052 199.238C787.406 199.238 786.869 199.477 786.442 199.957C786.025 200.436 785.817 201.165 785.817 202.144ZM793.125 205.941V198.347H794.281V199.425C794.843 198.592 795.651 198.175 796.703 198.175C797.161 198.175 797.583 198.259 797.968 198.425C798.354 198.582 798.64 198.795 798.828 199.066C799.015 199.337 799.151 199.654 799.234 200.019C799.276 200.259 799.296 200.675 799.296 201.269V205.941H798.015V201.316C798.015 200.795 797.963 200.404 797.859 200.144C797.755 199.884 797.572 199.675 797.312 199.519C797.062 199.363 796.765 199.285 796.421 199.285C795.88 199.285 795.406 199.462 795 199.816C794.604 200.16 794.406 200.816 794.406 201.785V205.941H793.125Z" fill="black"/>
<path d="M751.417 223.941L755.433 213.457H756.933L761.229 223.941H759.651L758.417 220.769H754.042L752.886 223.941H751.417ZM754.433 219.628H757.995L756.901 216.722C756.568 215.847 756.318 215.123 756.151 214.55C756.016 215.227 755.828 215.894 755.589 216.55L754.433 219.628ZM762.333 223.941V213.457H766.302C767 213.457 767.531 213.488 767.896 213.55C768.406 213.634 768.833 213.795 769.177 214.035C769.531 214.274 769.812 214.613 770.021 215.05C770.239 215.488 770.349 215.967 770.349 216.488C770.349 217.373 770.062 218.128 769.489 218.753C768.927 219.368 767.901 219.675 766.411 219.675H763.724V223.941H762.333ZM763.724 218.441H766.443C767.338 218.441 767.974 218.274 768.349 217.941C768.724 217.608 768.911 217.139 768.911 216.535C768.911 216.087 768.802 215.707 768.583 215.394C768.364 215.082 768.073 214.878 767.708 214.785C767.469 214.722 767.036 214.691 766.411 214.691H763.724V218.441ZM772.343 223.941V213.457H773.734V223.941H772.343Z" fill="black"/>
<path d="M636.866 195.241H683.008" stroke="#44546A" stroke-width="2" stroke-miterlimit="10" stroke-linejoin="round"/>
<path fill-rule="evenodd" clip-rule="evenodd" d="M683.008 198.545L692.084 195.241L683.008 191.938V198.545Z" fill="#44546A" stroke="#44546A" stroke-width="2" stroke-miterlimit="10"/>
<path d="M695.008 227.241H648.866" stroke="#44546A" stroke-width="2" stroke-miterlimit="10" stroke-linejoin="round"/>
<path fill-rule="evenodd" clip-rule="evenodd" d="M648.866 223.938L639.79 227.241L648.866 230.545V223.938Z" fill="#44546A" stroke="#44546A" stroke-width="2" stroke-miterlimit="10"/>
</g>
<defs>
<filter id="filter0_f_1_780" x="513.5" y="69.9908" width="115.488" height="283.74" filterUnits="userSpaceOnUse" color-interpolation-filters="sRGB">
<feFlood flood-opacity="0" result="BackgroundImageFix"/>
<feBlend mode="normal" in="SourceGraphic" in2="BackgroundImageFix" result="shape"/>
<feGaussianBlur stdDeviation="2" result="effect1_foregroundBlur_1_780"/>
</filter>
<filter id="filter1_f_1_780" x="313.5" y="69.9908" width="115.488" height="283.74" filterUnits="userSpaceOnUse" color-interpolation-filters="sRGB">
<feFlood flood-opacity="0" result="BackgroundImageFix"/>
<feBlend mode="normal" in="SourceGraphic" in2="BackgroundImageFix" result="shape"/>
<feGaussianBlur stdDeviation="2" result="effect1_foregroundBlur_1_780"/>
</filter>
<filter id="filter2_f_1_780" x="705.5" y="69.9908" width="115.488" height="283.74" filterUnits="userSpaceOnUse" color-interpolation-filters="sRGB">
<feFlood flood-opacity="0" result="BackgroundImageFix"/>
<feBlend mode="normal" in="SourceGraphic" in2="BackgroundImageFix" result="shape"/>
<feGaussianBlur stdDeviation="2" result="effect1_foregroundBlur_1_780"/>
</filter>
<clipPath id="clip0_1_780">
<rect width="1135" height="368" fill="white"/>
</clipPath>
</defs>
</svg>
