<svg width="565" height="368" viewBox="0 0 565 368" fill="none" xmlns="http://www.w3.org/2000/svg">
<g clip-path="url(#clip0_1_2)">
<rect width="565" height="368" fill="white"/>
<g filter="url(#filter0_f_1_2)">
<path fill-rule="evenodd" clip-rule="evenodd" d="M233 74.4908H339.488V349.231H233V74.4908Z" fill="white"/>
<path fill-rule="evenodd" clip-rule="evenodd" d="M233 74.4908H339.488V349.231H233V74.4908Z" stroke="#44546A" stroke-miterlimit="10" stroke-linejoin="round"/>
<path d="M257.791 204.269L259.181 204.613C258.89 205.748 258.364 206.618 257.603 207.222C256.853 207.816 255.931 208.113 254.837 208.113C253.712 208.113 252.796 207.884 252.087 207.425C251.379 206.967 250.837 206.3 250.462 205.425C250.098 204.55 249.916 203.613 249.916 202.613C249.916 201.519 250.124 200.566 250.541 199.753C250.957 198.941 251.551 198.326 252.322 197.91C253.093 197.483 253.942 197.269 254.869 197.269C255.91 197.269 256.791 197.54 257.509 198.082C258.228 198.613 258.728 199.363 259.009 200.332L257.634 200.644C257.395 199.884 257.041 199.332 256.572 198.988C256.114 198.634 255.535 198.457 254.837 198.457C254.025 198.457 253.348 198.649 252.806 199.035C252.265 199.42 251.884 199.941 251.666 200.597C251.447 201.243 251.337 201.915 251.337 202.613C251.337 203.498 251.468 204.274 251.728 204.941C251.989 205.608 252.395 206.108 252.947 206.441C253.499 206.764 254.093 206.925 254.728 206.925C255.509 206.925 256.166 206.701 256.697 206.253C257.239 205.805 257.603 205.144 257.791 204.269ZM265.937 205.488L267.266 205.66C267.057 206.441 266.667 207.045 266.094 207.472C265.531 207.899 264.807 208.113 263.922 208.113C262.807 208.113 261.922 207.774 261.266 207.097C260.62 206.41 260.297 205.446 260.297 204.207C260.297 202.925 260.625 201.936 261.281 201.238C261.948 200.529 262.807 200.175 263.859 200.175C264.87 200.175 265.698 200.519 266.344 201.207C266.989 201.894 267.312 202.868 267.312 204.128C267.312 204.201 267.307 204.316 267.297 204.472H261.641C261.682 205.305 261.917 205.946 262.344 206.394C262.771 206.832 263.302 207.05 263.937 207.05C264.406 207.05 264.807 206.93 265.141 206.691C265.474 206.441 265.739 206.04 265.937 205.488ZM261.703 203.41H265.953C265.891 202.774 265.729 202.295 265.469 201.972C265.052 201.472 264.516 201.222 263.859 201.222C263.276 201.222 262.781 201.42 262.375 201.816C261.969 202.212 261.745 202.743 261.703 203.41ZM268.87 207.941V200.347H270.026V201.488C270.328 200.957 270.604 200.608 270.854 200.441C271.104 200.264 271.375 200.175 271.667 200.175C272.104 200.175 272.547 200.311 272.995 200.582L272.557 201.785C272.245 201.597 271.927 201.503 271.604 201.503C271.323 201.503 271.068 201.587 270.839 201.753C270.62 201.92 270.464 202.154 270.37 202.457C270.224 202.915 270.151 203.415 270.151 203.957V207.941H268.87ZM276.578 206.785L276.766 207.925C276.401 207.998 276.073 208.035 275.782 208.035C275.323 208.035 274.964 207.962 274.703 207.816C274.443 207.67 274.261 207.477 274.157 207.238C274.052 206.998 274 206.493 274 205.722V201.347H273.047V200.347H274V198.457L275.282 197.691V200.347H276.578V201.347H275.282V205.785C275.282 206.149 275.302 206.389 275.344 206.503C275.396 206.608 275.469 206.691 275.563 206.753C275.667 206.805 275.818 206.832 276.016 206.832C276.151 206.832 276.339 206.816 276.578 206.785ZM277.838 198.925V197.457H279.135V198.925H277.838ZM277.838 207.941V200.347H279.135V207.941H277.838ZM281.407 207.941V201.347H280.266V200.347H281.407V199.535C281.407 199.024 281.448 198.644 281.532 198.394C281.657 198.061 281.875 197.79 282.188 197.582C282.5 197.373 282.938 197.269 283.5 197.269C283.865 197.269 284.266 197.311 284.703 197.394L284.516 198.519C284.245 198.477 283.99 198.457 283.75 198.457C283.365 198.457 283.089 198.54 282.922 198.707C282.766 198.873 282.688 199.186 282.688 199.644V200.347H284.157V201.347H282.688V207.941H281.407ZM290.119 207.003C289.64 207.41 289.182 207.696 288.744 207.863C288.307 208.029 287.833 208.113 287.322 208.113C286.489 208.113 285.848 207.91 285.401 207.503C284.953 207.097 284.729 206.576 284.729 205.941C284.729 205.566 284.812 205.227 284.979 204.925C285.145 204.613 285.364 204.363 285.635 204.175C285.916 203.988 286.229 203.847 286.572 203.753C286.822 203.691 287.203 203.628 287.713 203.566C288.755 203.441 289.52 203.29 290.01 203.113C290.02 202.936 290.026 202.826 290.026 202.785C290.026 202.253 289.901 201.884 289.651 201.675C289.328 201.384 288.843 201.238 288.197 201.238C287.583 201.238 287.13 201.347 286.838 201.566C286.557 201.774 286.348 202.144 286.213 202.675L284.947 202.503C285.062 201.972 285.249 201.54 285.51 201.207C285.77 200.873 286.151 200.618 286.651 200.441C287.151 200.264 287.723 200.175 288.369 200.175C289.026 200.175 289.557 200.253 289.963 200.41C290.369 200.555 290.666 200.743 290.854 200.972C291.041 201.201 291.177 201.493 291.26 201.847C291.302 202.066 291.322 202.462 291.322 203.035V204.753C291.322 205.951 291.348 206.712 291.401 207.035C291.453 207.347 291.562 207.649 291.729 207.941H290.385C290.249 207.67 290.161 207.358 290.119 207.003ZM290.01 204.128C289.541 204.316 288.843 204.477 287.916 204.613C287.385 204.686 287.01 204.774 286.791 204.878C286.572 204.972 286.401 205.113 286.276 205.3C286.161 205.477 286.104 205.675 286.104 205.894C286.104 206.238 286.234 206.524 286.494 206.753C286.755 206.983 287.135 207.097 287.635 207.097C288.124 207.097 288.562 206.993 288.947 206.785C289.343 206.566 289.63 206.269 289.807 205.894C289.942 205.602 290.01 205.17 290.01 204.597V204.128ZM298.27 205.16L299.536 205.316C299.401 206.191 299.046 206.878 298.473 207.378C297.911 207.868 297.213 208.113 296.38 208.113C295.338 208.113 294.499 207.774 293.864 207.097C293.239 206.41 292.927 205.436 292.927 204.175C292.927 203.352 293.062 202.634 293.333 202.019C293.604 201.404 294.015 200.946 294.567 200.644C295.13 200.332 295.734 200.175 296.38 200.175C297.213 200.175 297.89 200.384 298.411 200.8C298.932 201.217 299.27 201.805 299.427 202.566L298.161 202.769C298.046 202.259 297.838 201.873 297.536 201.613C297.234 201.352 296.869 201.222 296.442 201.222C295.786 201.222 295.255 201.457 294.848 201.925C294.442 202.394 294.239 203.128 294.239 204.128C294.239 205.149 294.432 205.894 294.817 206.363C295.213 206.821 295.729 207.05 296.364 207.05C296.864 207.05 297.286 206.899 297.63 206.597C297.973 206.285 298.187 205.805 298.27 205.16ZM303.458 206.785L303.645 207.925C303.281 207.998 302.953 208.035 302.661 208.035C302.203 208.035 301.843 207.962 301.583 207.816C301.322 207.67 301.14 207.477 301.036 207.238C300.932 206.998 300.88 206.493 300.88 205.722V201.347H299.927V200.347H300.88V198.457L302.161 197.691V200.347H303.458V201.347H302.161V205.785C302.161 206.149 302.182 206.389 302.223 206.503C302.276 206.608 302.348 206.691 302.442 206.753C302.546 206.805 302.697 206.832 302.895 206.832C303.031 206.832 303.218 206.816 303.458 206.785ZM304.717 198.925V197.457H306.014V198.925H304.717ZM304.717 207.941V200.347H306.014V207.941H304.717ZM307.489 204.144C307.489 202.738 307.88 201.696 308.661 201.019C309.317 200.457 310.114 200.175 311.052 200.175C312.104 200.175 312.958 200.519 313.614 201.207C314.281 201.884 314.614 202.826 314.614 204.035C314.614 205.014 314.468 205.785 314.177 206.347C313.885 206.899 313.458 207.332 312.895 207.644C312.333 207.957 311.718 208.113 311.052 208.113C309.989 208.113 309.13 207.774 308.473 207.097C307.817 206.41 307.489 205.425 307.489 204.144ZM308.817 204.144C308.817 205.113 309.026 205.842 309.442 206.332C309.869 206.811 310.406 207.05 311.052 207.05C311.697 207.05 312.229 206.811 312.645 206.332C313.072 205.842 313.286 205.097 313.286 204.097C313.286 203.16 313.072 202.451 312.645 201.972C312.218 201.483 311.687 201.238 311.052 201.238C310.406 201.238 309.869 201.477 309.442 201.957C309.026 202.436 308.817 203.165 308.817 204.144ZM316.125 207.941V200.347H317.281V201.425C317.843 200.592 318.651 200.175 319.703 200.175C320.161 200.175 320.583 200.259 320.968 200.425C321.354 200.582 321.64 200.795 321.828 201.066C322.015 201.337 322.151 201.654 322.234 202.019C322.276 202.259 322.296 202.675 322.296 203.269V207.941H321.015V203.316C321.015 202.795 320.963 202.404 320.859 202.144C320.755 201.884 320.572 201.675 320.312 201.519C320.062 201.363 319.765 201.285 319.421 201.285C318.88 201.285 318.406 201.462 318 201.816C317.604 202.16 317.406 202.816 317.406 203.785V207.941H316.125Z" fill="black"/>
<path d="M283.45 222.269L284.84 222.613C284.549 223.748 284.023 224.618 283.262 225.222C282.512 225.816 281.59 226.113 280.497 226.113C279.372 226.113 278.455 225.884 277.747 225.425C277.038 224.967 276.497 224.3 276.122 223.425C275.757 222.55 275.575 221.613 275.575 220.613C275.575 219.519 275.783 218.566 276.2 217.753C276.616 216.941 277.21 216.326 277.981 215.91C278.752 215.483 279.601 215.269 280.528 215.269C281.57 215.269 282.45 215.54 283.169 216.082C283.887 216.613 284.387 217.363 284.669 218.332L283.294 218.644C283.054 217.884 282.7 217.332 282.231 216.988C281.773 216.634 281.195 216.457 280.497 216.457C279.684 216.457 279.007 216.649 278.465 217.035C277.924 217.42 277.544 217.941 277.325 218.597C277.106 219.243 276.997 219.915 276.997 220.613C276.997 221.498 277.127 222.274 277.387 222.941C277.648 223.608 278.054 224.108 278.606 224.441C279.158 224.764 279.752 224.925 280.387 224.925C281.169 224.925 281.825 224.701 282.356 224.253C282.898 223.805 283.262 223.144 283.45 222.269ZM286.503 225.941V215.457H287.893V224.707H293.05V225.941H286.503ZM294.935 225.941V215.457H296.326V225.941H294.935Z" fill="black"/>
</g>
<path fill-rule="evenodd" clip-rule="evenodd" d="M233 72.4908H339.488V347.231H233V72.4908Z" fill="white"/>
<path fill-rule="evenodd" clip-rule="evenodd" d="M233 72.4908H339.488V347.231H233V72.4908Z" stroke="#44546A" stroke-miterlimit="10" stroke-linejoin="round"/>
<path d="M257.791 202.269L259.181 202.613C258.89 203.748 258.364 204.618 257.603 205.222C256.853 205.816 255.931 206.113 254.837 206.113C253.712 206.113 252.796 205.884 252.087 205.425C251.379 204.967 250.837 204.3 250.462 203.425C250.098 202.55 249.916 201.613 249.916 200.613C249.916 199.519 250.124 198.566 250.541 197.753C250.957 196.941 251.551 196.326 252.322 195.91C253.093 195.483 253.942 195.269 254.869 195.269C255.91 195.269 256.791 195.54 257.509 196.082C258.228 196.613 258.728 197.363 259.009 198.332L257.634 198.644C257.395 197.884 257.041 197.332 256.572 196.988C256.114 196.634 255.535 196.457 254.837 196.457C254.025 196.457 253.348 196.649 252.806 197.035C252.265 197.42 251.884 197.941 251.666 198.597C251.447 199.243 251.337 199.915 251.337 200.613C251.337 201.498 251.468 202.274 251.728 202.941C251.989 203.608 252.395 204.108 252.947 204.441C253.499 204.764 254.093 204.925 254.728 204.925C255.509 204.925 256.166 204.701 256.697 204.253C257.239 203.805 257.603 203.144 257.791 202.269ZM265.937 203.488L267.266 203.66C267.057 204.441 266.667 205.045 266.094 205.472C265.531 205.899 264.807 206.113 263.922 206.113C262.807 206.113 261.922 205.774 261.266 205.097C260.62 204.41 260.297 203.446 260.297 202.207C260.297 200.925 260.625 199.936 261.281 199.238C261.948 198.529 262.807 198.175 263.859 198.175C264.87 198.175 265.698 198.519 266.344 199.207C266.989 199.894 267.312 200.868 267.312 202.128C267.312 202.201 267.307 202.316 267.297 202.472H261.641C261.682 203.305 261.917 203.946 262.344 204.394C262.771 204.832 263.302 205.05 263.937 205.05C264.406 205.05 264.807 204.93 265.141 204.691C265.474 204.441 265.739 204.04 265.937 203.488ZM261.703 201.41H265.953C265.891 200.774 265.729 200.295 265.469 199.972C265.052 199.472 264.516 199.222 263.859 199.222C263.276 199.222 262.781 199.42 262.375 199.816C261.969 200.212 261.745 200.743 261.703 201.41ZM268.87 205.941V198.347H270.026V199.488C270.328 198.957 270.604 198.608 270.854 198.441C271.104 198.264 271.375 198.175 271.667 198.175C272.104 198.175 272.547 198.311 272.995 198.582L272.557 199.785C272.245 199.597 271.927 199.503 271.604 199.503C271.323 199.503 271.068 199.587 270.839 199.753C270.62 199.92 270.464 200.154 270.37 200.457C270.224 200.915 270.151 201.415 270.151 201.957V205.941H268.87ZM276.578 204.785L276.766 205.925C276.401 205.998 276.073 206.035 275.782 206.035C275.323 206.035 274.964 205.962 274.703 205.816C274.443 205.67 274.261 205.477 274.157 205.238C274.052 204.998 274 204.493 274 203.722V199.347H273.047V198.347H274V196.457L275.282 195.691V198.347H276.578V199.347H275.282V203.785C275.282 204.149 275.302 204.389 275.344 204.503C275.396 204.608 275.469 204.691 275.563 204.753C275.667 204.805 275.818 204.832 276.016 204.832C276.151 204.832 276.339 204.816 276.578 204.785ZM277.838 196.925V195.457H279.135V196.925H277.838ZM277.838 205.941V198.347H279.135V205.941H277.838ZM281.407 205.941V199.347H280.266V198.347H281.407V197.535C281.407 197.024 281.448 196.644 281.532 196.394C281.657 196.061 281.875 195.79 282.188 195.582C282.5 195.373 282.938 195.269 283.5 195.269C283.865 195.269 284.266 195.311 284.703 195.394L284.516 196.519C284.245 196.477 283.99 196.457 283.75 196.457C283.365 196.457 283.089 196.54 282.922 196.707C282.766 196.873 282.688 197.186 282.688 197.644V198.347H284.157V199.347H282.688V205.941H281.407ZM290.119 205.003C289.64 205.41 289.182 205.696 288.744 205.863C288.307 206.029 287.833 206.113 287.322 206.113C286.489 206.113 285.848 205.91 285.401 205.503C284.953 205.097 284.729 204.576 284.729 203.941C284.729 203.566 284.812 203.227 284.979 202.925C285.145 202.613 285.364 202.363 285.635 202.175C285.916 201.988 286.229 201.847 286.572 201.753C286.822 201.691 287.203 201.628 287.713 201.566C288.755 201.441 289.52 201.29 290.01 201.113C290.02 200.936 290.026 200.826 290.026 200.785C290.026 200.253 289.901 199.884 289.651 199.675C289.328 199.384 288.843 199.238 288.197 199.238C287.583 199.238 287.13 199.347 286.838 199.566C286.557 199.774 286.348 200.144 286.213 200.675L284.947 200.503C285.062 199.972 285.249 199.54 285.51 199.207C285.77 198.873 286.151 198.618 286.651 198.441C287.151 198.264 287.723 198.175 288.369 198.175C289.026 198.175 289.557 198.253 289.963 198.41C290.369 198.555 290.666 198.743 290.854 198.972C291.041 199.201 291.177 199.493 291.26 199.847C291.302 200.066 291.322 200.462 291.322 201.035V202.753C291.322 203.951 291.348 204.712 291.401 205.035C291.453 205.347 291.562 205.649 291.729 205.941H290.385C290.249 205.67 290.161 205.358 290.119 205.003ZM290.01 202.128C289.541 202.316 288.843 202.477 287.916 202.613C287.385 202.686 287.01 202.774 286.791 202.878C286.572 202.972 286.401 203.113 286.276 203.3C286.161 203.477 286.104 203.675 286.104 203.894C286.104 204.238 286.234 204.524 286.494 204.753C286.755 204.983 287.135 205.097 287.635 205.097C288.124 205.097 288.562 204.993 288.947 204.785C289.343 204.566 289.63 204.269 289.807 203.894C289.942 203.602 290.01 203.17 290.01 202.597V202.128ZM298.27 203.16L299.536 203.316C299.401 204.191 299.046 204.878 298.473 205.378C297.911 205.868 297.213 206.113 296.38 206.113C295.338 206.113 294.499 205.774 293.864 205.097C293.239 204.41 292.927 203.436 292.927 202.175C292.927 201.352 293.062 200.634 293.333 200.019C293.604 199.404 294.015 198.946 294.567 198.644C295.13 198.332 295.734 198.175 296.38 198.175C297.213 198.175 297.89 198.384 298.411 198.8C298.932 199.217 299.27 199.805 299.427 200.566L298.161 200.769C298.046 200.259 297.838 199.873 297.536 199.613C297.234 199.352 296.869 199.222 296.442 199.222C295.786 199.222 295.255 199.457 294.848 199.925C294.442 200.394 294.239 201.128 294.239 202.128C294.239 203.149 294.432 203.894 294.817 204.363C295.213 204.821 295.729 205.05 296.364 205.05C296.864 205.05 297.286 204.899 297.63 204.597C297.973 204.285 298.187 203.805 298.27 203.16ZM303.458 204.785L303.645 205.925C303.281 205.998 302.953 206.035 302.661 206.035C302.203 206.035 301.843 205.962 301.583 205.816C301.322 205.67 301.14 205.477 301.036 205.238C300.932 204.998 300.88 204.493 300.88 203.722V199.347H299.927V198.347H300.88V196.457L302.161 195.691V198.347H303.458V199.347H302.161V203.785C302.161 204.149 302.182 204.389 302.223 204.503C302.276 204.608 302.348 204.691 302.442 204.753C302.546 204.805 302.697 204.832 302.895 204.832C303.031 204.832 303.218 204.816 303.458 204.785ZM304.717 196.925V195.457H306.014V196.925H304.717ZM304.717 205.941V198.347H306.014V205.941H304.717ZM307.489 202.144C307.489 200.738 307.88 199.696 308.661 199.019C309.317 198.457 310.114 198.175 311.052 198.175C312.104 198.175 312.958 198.519 313.614 199.207C314.281 199.884 314.614 200.826 314.614 202.035C314.614 203.014 314.468 203.785 314.177 204.347C313.885 204.899 313.458 205.332 312.895 205.644C312.333 205.957 311.718 206.113 311.052 206.113C309.989 206.113 309.13 205.774 308.473 205.097C307.817 204.41 307.489 203.425 307.489 202.144ZM308.817 202.144C308.817 203.113 309.026 203.842 309.442 204.332C309.869 204.811 310.406 205.05 311.052 205.05C311.697 205.05 312.229 204.811 312.645 204.332C313.072 203.842 313.286 203.097 313.286 202.097C313.286 201.16 313.072 200.451 312.645 199.972C312.218 199.483 311.687 199.238 311.052 199.238C310.406 199.238 309.869 199.477 309.442 199.957C309.026 200.436 308.817 201.165 308.817 202.144ZM316.125 205.941V198.347H317.281V199.425C317.843 198.592 318.651 198.175 319.703 198.175C320.161 198.175 320.583 198.259 320.968 198.425C321.354 198.582 321.64 198.795 321.828 199.066C322.015 199.337 322.151 199.654 322.234 200.019C322.276 200.259 322.296 200.675 322.296 201.269V205.941H321.015V201.316C321.015 200.795 320.963 200.404 320.859 200.144C320.755 199.884 320.572 199.675 320.312 199.519C320.062 199.363 319.765 199.285 319.421 199.285C318.88 199.285 318.406 199.462 318 199.816C317.604 200.16 317.406 200.816 317.406 201.785V205.941H316.125Z" fill="black"/>
<path d="M283.45 220.269L284.84 220.613C284.549 221.748 284.023 222.618 283.262 223.222C282.512 223.816 281.59 224.113 280.497 224.113C279.372 224.113 278.455 223.884 277.747 223.425C277.038 222.967 276.497 222.3 276.122 221.425C275.757 220.55 275.575 219.613 275.575 218.613C275.575 217.519 275.783 216.566 276.2 215.753C276.616 214.941 277.21 214.326 277.981 213.91C278.752 213.483 279.601 213.269 280.528 213.269C281.57 213.269 282.45 213.54 283.169 214.082C283.887 214.613 284.387 215.363 284.669 216.332L283.294 216.644C283.054 215.884 282.7 215.332 282.231 214.988C281.773 214.634 281.195 214.457 280.497 214.457C279.684 214.457 279.007 214.649 278.465 215.035C277.924 215.42 277.544 215.941 277.325 216.597C277.106 217.243 276.997 217.915 276.997 218.613C276.997 219.498 277.127 220.274 277.387 220.941C277.648 221.608 278.054 222.108 278.606 222.441C279.158 222.764 279.752 222.925 280.387 222.925C281.169 222.925 281.825 222.701 282.356 222.253C282.898 221.805 283.262 221.144 283.45 220.269ZM286.503 223.941V213.457H287.893V222.707H293.05V223.941H286.503ZM294.935 223.941V213.457H296.326V223.941H294.935Z" fill="black"/>
<path d="M381.509 24.1811V353.157" stroke="black" stroke-miterlimit="10" stroke-linejoin="round" stroke-dasharray="4 3"/>
<path d="M301.302 33.4081L302.693 33.7519C302.401 34.8873 301.875 35.7571 301.115 36.3612C300.365 36.955 299.443 37.2519 298.349 37.2519C297.224 37.2519 296.307 37.0227 295.599 36.5644C294.891 36.106 294.349 35.4394 293.974 34.5644C293.609 33.6894 293.427 32.7519 293.427 31.7519C293.427 30.6581 293.636 29.705 294.052 28.8925C294.469 28.08 295.063 27.4654 295.833 27.0488C296.604 26.6217 297.453 26.4081 298.38 26.4081C299.422 26.4081 300.302 26.679 301.021 27.2206C301.74 27.7519 302.24 28.5019 302.521 29.4706L301.146 29.7831C300.906 29.0227 300.552 28.4706 300.083 28.1269C299.625 27.7727 299.047 27.5956 298.349 27.5956C297.537 27.5956 296.859 27.7883 296.318 28.1738C295.776 28.5592 295.396 29.08 295.177 29.7363C294.958 30.3821 294.849 31.054 294.849 31.7519C294.849 32.6373 294.979 33.4133 295.24 34.08C295.5 34.7467 295.906 35.2467 296.458 35.58C297.011 35.9029 297.604 36.0644 298.24 36.0644C299.021 36.0644 299.677 35.8404 300.208 35.3925C300.75 34.9446 301.115 34.2831 301.302 33.4081ZM304.215 37.08V26.5956H305.496V37.08H304.215ZM307.502 28.0644V26.5956H308.799V28.0644H307.502ZM307.502 37.08V29.4863H308.799V37.08H307.502ZM315.961 34.6269L317.289 34.7988C317.081 35.58 316.69 36.1842 316.118 36.6112C315.555 37.0383 314.831 37.2519 313.946 37.2519C312.831 37.2519 311.946 36.9133 311.289 36.2362C310.644 35.5488 310.321 34.5852 310.321 33.3456C310.321 32.0644 310.649 31.0748 311.305 30.3769C311.972 29.6685 312.831 29.3144 313.883 29.3144C314.894 29.3144 315.722 29.6581 316.368 30.3456C317.013 31.0331 317.336 32.0071 317.336 33.2675C317.336 33.3404 317.331 33.455 317.321 33.6113H311.664C311.706 34.4446 311.94 35.0852 312.368 35.5331C312.795 35.9706 313.326 36.1894 313.961 36.1894C314.43 36.1894 314.831 36.0696 315.164 35.83C315.498 35.58 315.763 35.179 315.961 34.6269ZM311.727 32.5488H315.977C315.914 31.9133 315.753 31.4342 315.493 31.1113C315.076 30.6113 314.539 30.3613 313.883 30.3613C313.3 30.3613 312.805 30.5592 312.399 30.955C311.993 31.3508 311.769 31.8821 311.727 32.5488ZM318.909 37.08V29.4863H320.065V30.5644C320.628 29.731 321.435 29.3144 322.487 29.3144C322.946 29.3144 323.368 29.3977 323.753 29.5644C324.138 29.7206 324.425 29.9342 324.612 30.205C324.8 30.4758 324.935 30.7935 325.019 31.1581C325.06 31.3977 325.081 31.8144 325.081 32.4081V37.08H323.8V32.455C323.8 31.9342 323.748 31.5435 323.644 31.2831C323.539 31.0227 323.357 30.8144 323.097 30.6581C322.847 30.5019 322.55 30.4238 322.206 30.4238C321.664 30.4238 321.19 30.6008 320.784 30.955C320.388 31.2988 320.19 31.955 320.19 32.9238V37.08H318.909ZM329.873 35.9237L330.06 37.0644C329.696 37.1373 329.368 37.1737 329.076 37.1737C328.618 37.1737 328.258 37.1008 327.998 36.955C327.737 36.8092 327.555 36.6165 327.451 36.3769C327.347 36.1373 327.295 35.6321 327.295 34.8613V30.4863H326.342V29.4863H327.295V27.5956L328.576 26.83V29.4863H329.873V30.4863H328.576V34.9238C328.576 35.2883 328.597 35.5279 328.638 35.6425C328.691 35.7467 328.763 35.83 328.857 35.8925C328.961 35.9446 329.112 35.9706 329.31 35.9706C329.446 35.9706 329.633 35.955 329.873 35.9237ZM334.892 33.705L336.204 33.5956C336.267 34.1165 336.407 34.5488 336.626 34.8925C336.855 35.2258 337.21 35.4967 337.689 35.705C338.168 35.9133 338.704 36.0175 339.298 36.0175C339.829 36.0175 340.298 35.9394 340.704 35.7831C341.111 35.6269 341.413 35.4133 341.611 35.1425C341.809 34.8613 341.907 34.5592 341.907 34.2363C341.907 33.9029 341.809 33.6165 341.611 33.3769C341.423 33.1269 341.111 32.9185 340.673 32.7519C340.392 32.6373 339.767 32.4654 338.798 32.2363C337.84 32.0071 337.168 31.7883 336.782 31.58C336.282 31.3196 335.907 30.9967 335.657 30.6113C335.418 30.2154 335.298 29.7779 335.298 29.2988C335.298 28.7675 335.444 28.2727 335.736 27.8144C336.038 27.356 336.475 27.0071 337.048 26.7675C337.631 26.5279 338.277 26.4081 338.986 26.4081C339.767 26.4081 340.454 26.5331 341.048 26.7831C341.642 27.0331 342.095 27.4029 342.407 27.8925C342.73 28.3821 342.902 28.9342 342.923 29.5488L341.595 29.6425C341.522 28.9758 341.277 28.4758 340.861 28.1425C340.454 27.7988 339.85 27.6269 339.048 27.6269C338.204 27.6269 337.59 27.7831 337.204 28.0956C336.819 28.4081 336.626 28.7779 336.626 29.205C336.626 29.58 336.767 29.8925 337.048 30.1425C337.309 30.3821 338.001 30.6321 339.126 30.8925C340.262 31.1425 341.038 31.3613 341.454 31.5488C342.069 31.83 342.522 32.1894 342.814 32.6269C343.105 33.054 343.251 33.5488 343.251 34.1113C343.251 34.6738 343.09 35.205 342.767 35.705C342.444 36.1946 341.98 36.5748 341.376 36.8456C340.782 37.1165 340.111 37.2519 339.361 37.2519C338.413 37.2519 337.616 37.1165 336.97 36.8456C336.335 36.5644 335.835 36.1477 335.47 35.5956C335.105 35.0435 334.913 34.4133 334.892 33.705ZM344.98 28.0644V26.5956H346.277V28.0644H344.98ZM344.98 37.08V29.4863H346.277V37.08H344.98ZM353.158 37.08V36.1269C352.679 36.8769 351.97 37.2519 351.033 37.2519C350.429 37.2519 349.872 37.0852 349.361 36.7519C348.861 36.4185 348.47 35.955 348.189 35.3613C347.908 34.7571 347.767 34.0644 347.767 33.2831C347.767 32.5227 347.892 31.8352 348.142 31.2206C348.403 30.606 348.783 30.1373 349.283 29.8144C349.793 29.481 350.361 29.3144 350.986 29.3144C351.444 29.3144 351.851 29.4133 352.205 29.6113C352.559 29.7988 352.851 30.0435 353.08 30.3456V26.5956H354.361V37.08H353.158ZM349.095 33.2831C349.095 34.2623 349.299 34.9915 349.705 35.4706C350.122 35.9498 350.606 36.1894 351.158 36.1894C351.72 36.1894 352.2 35.9602 352.595 35.5019C352.991 35.0435 353.189 34.3404 353.189 33.3925C353.189 32.3508 352.986 31.5904 352.58 31.1113C352.184 30.6217 351.689 30.3769 351.095 30.3769C350.533 30.3769 350.059 30.6113 349.674 31.08C349.288 31.5488 349.095 32.2831 349.095 33.2831ZM361.59 34.6269L362.918 34.7988C362.71 35.58 362.319 36.1842 361.747 36.6112C361.184 37.0383 360.46 37.2519 359.575 37.2519C358.46 37.2519 357.575 36.9133 356.918 36.2362C356.273 35.5488 355.95 34.5852 355.95 33.3456C355.95 32.0644 356.278 31.0748 356.934 30.3769C357.601 29.6685 358.46 29.3144 359.512 29.3144C360.523 29.3144 361.351 29.6581 361.997 30.3456C362.642 31.0331 362.965 32.0071 362.965 33.2675C362.965 33.3404 362.96 33.455 362.95 33.6113H357.293C357.335 34.4446 357.569 35.0852 357.997 35.5331C358.424 35.9706 358.955 36.1894 359.59 36.1894C360.059 36.1894 360.46 36.0696 360.793 35.83C361.127 35.58 361.392 35.179 361.59 34.6269ZM357.356 32.5488H361.606C361.543 31.9133 361.382 31.4342 361.122 31.1113C360.705 30.6113 360.168 30.3613 359.512 30.3613C358.929 30.3613 358.434 30.5592 358.028 30.955C357.622 31.3508 357.398 31.8821 357.356 32.5488Z" fill="black"/>
<path d="M405.801 33.4081L407.192 33.7519C406.9 34.8873 406.374 35.7571 405.613 36.3612C404.863 36.955 403.942 37.2519 402.848 37.2519C401.723 37.2519 400.806 37.0227 400.098 36.5644C399.39 36.106 398.848 35.4394 398.473 34.5644C398.108 33.6894 397.926 32.7519 397.926 31.7519C397.926 30.6581 398.134 29.705 398.551 28.8925C398.968 28.08 399.561 27.4654 400.332 27.0488C401.103 26.6217 401.952 26.4081 402.879 26.4081C403.921 26.4081 404.801 26.679 405.52 27.2206C406.238 27.7519 406.738 28.5019 407.02 29.4706L405.645 29.7831C405.405 29.0227 405.051 28.4706 404.582 28.1269C404.124 27.7727 403.546 27.5956 402.848 27.5956C402.035 27.5956 401.358 27.7883 400.817 28.1738C400.275 28.5592 399.895 29.08 399.676 29.7363C399.457 30.3821 399.348 31.054 399.348 31.7519C399.348 32.6373 399.478 33.4133 399.738 34.08C399.999 34.7467 400.405 35.2467 400.957 35.58C401.509 35.9029 402.103 36.0644 402.738 36.0644C403.52 36.0644 404.176 35.8404 404.707 35.3925C405.249 34.9446 405.613 34.2831 405.801 33.4081ZM413.948 34.6269L415.276 34.7988C415.068 35.58 414.677 36.1842 414.104 36.6112C413.542 37.0383 412.818 37.2519 411.932 37.2519C410.818 37.2519 409.932 36.9133 409.276 36.2362C408.63 35.5488 408.307 34.5852 408.307 33.3456C408.307 32.0644 408.635 31.0748 409.292 30.3769C409.958 29.6685 410.818 29.3144 411.87 29.3144C412.88 29.3144 413.708 29.6581 414.354 30.3456C415 31.0331 415.323 32.0071 415.323 33.2675C415.323 33.3404 415.318 33.455 415.307 33.6113H409.651C409.693 34.4446 409.927 35.0852 410.354 35.5331C410.781 35.9706 411.312 36.1894 411.948 36.1894C412.417 36.1894 412.818 36.0696 413.151 35.83C413.484 35.58 413.75 35.179 413.948 34.6269ZM409.713 32.5488H413.963C413.901 31.9133 413.739 31.4342 413.479 31.1113C413.062 30.6113 412.526 30.3613 411.87 30.3613C411.286 30.3613 410.792 30.5592 410.385 30.955C409.979 31.3508 409.755 31.8821 409.713 32.5488ZM416.88 37.08V29.4863H418.036V30.6269C418.338 30.0956 418.615 29.7467 418.865 29.58C419.115 29.4029 419.385 29.3144 419.677 29.3144C420.115 29.3144 420.557 29.4498 421.005 29.7206L420.568 30.9238C420.255 30.7363 419.937 30.6425 419.615 30.6425C419.333 30.6425 419.078 30.7258 418.849 30.8925C418.63 31.0592 418.474 31.2935 418.38 31.5956C418.234 32.054 418.161 32.554 418.161 33.0956V37.08H416.88ZM424.589 35.9237L424.776 37.0644C424.412 37.1373 424.084 37.1737 423.792 37.1737C423.334 37.1737 422.974 37.1008 422.714 36.955C422.453 36.8092 422.271 36.6165 422.167 36.3769C422.063 36.1373 422.011 35.6321 422.011 34.8613V30.4863H421.058V29.4863H422.011V27.5956L423.292 26.83V29.4863H424.589V30.4863H423.292V34.9238C423.292 35.2883 423.313 35.5279 423.354 35.6425C423.407 35.7467 423.479 35.83 423.573 35.8925C423.677 35.9446 423.828 35.9706 424.026 35.9706C424.162 35.9706 424.349 35.955 424.589 35.9237ZM425.848 28.0644V26.5956H427.145V28.0644H425.848ZM425.848 37.08V29.4863H427.145V37.08H425.848ZM429.417 37.08V30.4863H428.276V29.4863H429.417V28.6738C429.417 28.1633 429.459 27.7831 429.542 27.5331C429.667 27.1998 429.886 26.929 430.198 26.7206C430.511 26.5123 430.948 26.4081 431.511 26.4081C431.875 26.4081 432.276 26.4498 432.714 26.5331L432.526 27.6581C432.256 27.6165 432 27.5956 431.761 27.5956C431.375 27.5956 431.099 27.679 430.933 27.8456C430.776 28.0123 430.698 28.3248 430.698 28.7831V29.4863H432.167V30.4863H430.698V37.08H429.417ZM438.13 36.1425C437.65 36.5487 437.192 36.8352 436.755 37.0019C436.317 37.1685 435.843 37.2519 435.333 37.2519C434.499 37.2519 433.859 37.0487 433.411 36.6425C432.963 36.2362 432.739 35.7154 432.739 35.08C432.739 34.705 432.822 34.3665 432.989 34.0644C433.156 33.7519 433.374 33.5019 433.645 33.3144C433.926 33.1269 434.239 32.9863 434.583 32.8925C434.833 32.83 435.213 32.7675 435.723 32.705C436.765 32.58 437.531 32.429 438.02 32.2519C438.031 32.0748 438.036 31.9654 438.036 31.9238C438.036 31.3925 437.911 31.0227 437.661 30.8144C437.338 30.5227 436.854 30.3769 436.208 30.3769C435.593 30.3769 435.14 30.4863 434.848 30.705C434.567 30.9133 434.359 31.2831 434.223 31.8144L432.958 31.6425C433.072 31.1113 433.26 30.679 433.52 30.3456C433.781 30.0123 434.161 29.7571 434.661 29.58C435.161 29.4029 435.734 29.3144 436.38 29.3144C437.036 29.3144 437.567 29.3925 437.973 29.5488C438.38 29.6946 438.676 29.8821 438.864 30.1113C439.051 30.3404 439.187 30.6321 439.27 30.9863C439.312 31.205 439.333 31.6008 439.333 32.1738V33.8925C439.333 35.0904 439.359 35.8508 439.411 36.1737C439.463 36.4862 439.572 36.7883 439.739 37.08H438.395C438.26 36.8092 438.171 36.4967 438.13 36.1425ZM438.02 33.2675C437.551 33.455 436.854 33.6165 435.926 33.7519C435.395 33.8248 435.02 33.9133 434.801 34.0175C434.583 34.1113 434.411 34.2519 434.286 34.4394C434.171 34.6165 434.114 34.8144 434.114 35.0331C434.114 35.3769 434.244 35.6633 434.505 35.8925C434.765 36.1217 435.145 36.2362 435.645 36.2362C436.135 36.2362 436.572 36.1321 436.958 35.9237C437.354 35.705 437.64 35.4081 437.817 35.0331C437.952 34.7415 438.02 34.3092 438.02 33.7363V33.2675ZM446.281 34.2988L447.546 34.455C447.411 35.33 447.057 36.0175 446.484 36.5175C445.921 37.0071 445.223 37.2519 444.39 37.2519C443.348 37.2519 442.51 36.9133 441.874 36.2362C441.249 35.5488 440.937 34.5748 440.937 33.3144C440.937 32.4915 441.072 31.7727 441.343 31.1581C441.614 30.5435 442.025 30.0852 442.578 29.7831C443.14 29.4706 443.744 29.3144 444.39 29.3144C445.223 29.3144 445.9 29.5227 446.421 29.9394C446.942 30.356 447.281 30.9446 447.437 31.705L446.171 31.9081C446.057 31.3977 445.848 31.0123 445.546 30.7519C445.244 30.4915 444.88 30.3613 444.453 30.3613C443.796 30.3613 443.265 30.5956 442.859 31.0644C442.453 31.5331 442.249 32.2675 442.249 33.2675C442.249 34.2883 442.442 35.0331 442.828 35.5019C443.223 35.9602 443.739 36.1894 444.374 36.1894C444.874 36.1894 445.296 36.0383 445.64 35.7363C445.984 35.4238 446.197 34.9446 446.281 34.2988ZM451.468 35.9237L451.656 37.0644C451.291 37.1373 450.963 37.1737 450.671 37.1737C450.213 37.1737 449.854 37.1008 449.593 36.955C449.333 36.8092 449.15 36.6165 449.046 36.3769C448.942 36.1373 448.89 35.6321 448.89 34.8613V30.4863H447.937V29.4863H448.89V27.5956L450.171 26.83V29.4863H451.468V30.4863H450.171V34.9238C450.171 35.2883 450.192 35.5279 450.234 35.6425C450.286 35.7467 450.359 35.83 450.453 35.8925C450.557 35.9446 450.708 35.9706 450.906 35.9706C451.041 35.9706 451.229 35.955 451.468 35.9237ZM452.728 28.0644V26.5956H454.025V28.0644H452.728ZM452.728 37.08V29.4863H454.025V37.08H452.728ZM455.499 33.2831C455.499 31.8769 455.89 30.8352 456.671 30.1581C457.328 29.5956 458.124 29.3144 459.062 29.3144C460.114 29.3144 460.968 29.6581 461.624 30.3456C462.291 31.0227 462.624 31.9654 462.624 33.1738C462.624 34.1529 462.479 34.9238 462.187 35.4863C461.895 36.0383 461.468 36.4706 460.906 36.7831C460.343 37.0956 459.729 37.2519 459.062 37.2519C457.999 37.2519 457.14 36.9133 456.484 36.2362C455.828 35.5488 455.499 34.5644 455.499 33.2831ZM456.828 33.2831C456.828 34.2519 457.036 34.981 457.453 35.4706C457.88 35.9498 458.416 36.1894 459.062 36.1894C459.708 36.1894 460.239 35.9498 460.656 35.4706C461.083 34.981 461.296 34.2363 461.296 33.2363C461.296 32.2988 461.083 31.5904 460.656 31.1113C460.229 30.6217 459.697 30.3769 459.062 30.3769C458.416 30.3769 457.88 30.6165 457.453 31.0956C457.036 31.5748 456.828 32.304 456.828 33.2831ZM464.135 37.08V29.4863H465.291V30.5644C465.854 29.731 466.661 29.3144 467.713 29.3144C468.171 29.3144 468.593 29.3977 468.979 29.5644C469.364 29.7206 469.651 29.9342 469.838 30.205C470.026 30.4758 470.161 30.7935 470.244 31.1581C470.286 31.3977 470.307 31.8144 470.307 32.4081V37.08H469.026V32.455C469.026 31.9342 468.973 31.5435 468.869 31.2831C468.765 31.0227 468.583 30.8144 468.322 30.6581C468.072 30.5019 467.776 30.4238 467.432 30.4238C466.89 30.4238 466.416 30.6008 466.01 30.955C465.614 31.2988 465.416 31.955 465.416 32.9238V37.08H464.135ZM474.564 37.08L478.58 26.5956H480.08L484.377 37.08H482.799L481.564 33.9081H477.189L476.033 37.08H474.564ZM477.58 32.7675H481.143L480.049 29.8613C479.715 28.9863 479.465 28.2623 479.299 27.6894C479.163 28.3665 478.976 29.0331 478.736 29.6894L477.58 32.7675ZM485.481 37.08V26.5956H489.449C490.147 26.5956 490.679 26.6269 491.043 26.6894C491.554 26.7727 491.981 26.9342 492.324 27.1738C492.679 27.4133 492.96 27.7519 493.168 28.1894C493.387 28.6269 493.496 29.106 493.496 29.6269C493.496 30.5123 493.21 31.2675 492.637 31.8925C492.074 32.5071 491.048 32.8144 489.559 32.8144H486.871V37.08H485.481ZM486.871 31.58H489.59C490.486 31.58 491.121 31.4133 491.496 31.08C491.871 30.7467 492.059 30.2779 492.059 29.6738C492.059 29.2258 491.949 28.8456 491.731 28.5331C491.512 28.2206 491.22 28.0175 490.856 27.9238C490.616 27.8613 490.184 27.83 489.559 27.83H486.871V31.58ZM495.491 37.08V26.5956H496.881V37.08H495.491Z" fill="black"/>
<g filter="url(#filter1_f_1_2)">
<path fill-rule="evenodd" clip-rule="evenodd" d="M33 74.4908H139.488V349.231H33V74.4908Z" fill="white"/>
<path fill-rule="evenodd" clip-rule="evenodd" d="M33 74.4908H139.488V349.231H33V74.4908Z" stroke="#44546A" stroke-miterlimit="10" stroke-linejoin="round"/>
<path d="M76.1181 204.269L77.5087 204.613C77.217 205.748 76.691 206.618 75.9306 207.222C75.1806 207.816 74.2587 208.113 73.1649 208.113C72.0399 208.113 71.1233 207.884 70.4149 207.425C69.7066 206.967 69.1649 206.3 68.7899 205.425C68.4254 204.55 68.2431 203.613 68.2431 202.613C68.2431 201.519 68.4514 200.566 68.8681 199.753C69.2847 198.941 69.8785 198.326 70.6493 197.91C71.4202 197.483 72.2691 197.269 73.1962 197.269C74.2379 197.269 75.1181 197.54 75.8368 198.082C76.5556 198.613 77.0556 199.363 77.3368 200.332L75.9618 200.644C75.7222 199.884 75.3681 199.332 74.8993 198.988C74.441 198.634 73.8629 198.457 73.1649 198.457C72.3524 198.457 71.6754 198.649 71.1337 199.035C70.592 199.42 70.2118 199.941 69.9931 200.597C69.7743 201.243 69.6649 201.915 69.6649 202.613C69.6649 203.498 69.7952 204.274 70.0556 204.941C70.316 205.608 70.7222 206.108 71.2743 206.441C71.8264 206.764 72.4202 206.925 73.0556 206.925C73.8368 206.925 74.4931 206.701 75.0243 206.253C75.566 205.805 75.9306 205.144 76.1181 204.269ZM79.0305 207.941V197.457H80.3117V207.941H79.0305ZM82.3179 198.925V197.457H83.6147V198.925H82.3179ZM82.3179 207.941V200.347H83.6147V207.941H82.3179ZM90.7772 205.488L92.1053 205.66C91.897 206.441 91.5063 207.045 90.9334 207.472C90.3709 207.899 89.647 208.113 88.7615 208.113C87.647 208.113 86.7615 207.774 86.1053 207.097C85.4595 206.41 85.1365 205.446 85.1365 204.207C85.1365 202.925 85.4647 201.936 86.1209 201.238C86.7876 200.529 87.647 200.175 88.699 200.175C89.7095 200.175 90.5376 200.519 91.1834 201.207C91.8292 201.894 92.1522 202.868 92.1522 204.128C92.1522 204.201 92.147 204.316 92.1365 204.472H86.4803C86.522 205.305 86.7563 205.946 87.1834 206.394C87.6105 206.832 88.1417 207.05 88.7772 207.05C89.2459 207.05 89.647 206.93 89.9803 206.691C90.3136 206.441 90.5792 206.04 90.7772 205.488ZM86.5428 203.41H90.7928C90.7303 202.774 90.5688 202.295 90.3084 201.972C89.8917 201.472 89.3553 201.222 88.699 201.222C88.1157 201.222 87.6209 201.42 87.2147 201.816C86.8084 202.212 86.5845 202.743 86.5428 203.41ZM93.7251 207.941V200.347H94.8814V201.425C95.4439 200.592 96.2512 200.175 97.3033 200.175C97.7616 200.175 98.1835 200.259 98.5689 200.425C98.9543 200.582 99.2408 200.795 99.4283 201.066C99.6158 201.337 99.7512 201.654 99.8345 202.019C99.8762 202.259 99.897 202.675 99.897 203.269V207.941H98.6158V203.316C98.6158 202.795 98.5637 202.404 98.4595 202.144C98.3553 201.884 98.173 201.675 97.9126 201.519C97.6626 201.363 97.3658 201.285 97.022 201.285C96.4803 201.285 96.0064 201.462 95.6001 201.816C95.2043 202.16 95.0064 202.816 95.0064 203.785V207.941H93.7251ZM104.689 206.785L104.876 207.925C104.512 207.998 104.184 208.035 103.892 208.035C103.434 208.035 103.074 207.962 102.814 207.816C102.553 207.67 102.371 207.477 102.267 207.238C102.163 206.998 102.111 206.493 102.111 205.722V201.347H101.158V200.347H102.111V198.457L103.392 197.691V200.347H104.689V201.347H103.392V205.785C103.392 206.149 103.413 206.389 103.454 206.503C103.506 206.608 103.579 206.691 103.673 206.753C103.777 206.805 103.928 206.832 104.126 206.832C104.262 206.832 104.449 206.816 104.689 206.785Z" fill="black"/>
<path d="M50.3786 225.941L54.3942 215.457H55.8942L60.1911 225.941H58.613L57.3786 222.769H53.0036L51.8474 225.941H50.3786ZM53.3942 221.628H56.9567L55.863 218.722C55.5296 217.847 55.2796 217.123 55.113 216.55C54.9776 217.227 54.7901 217.894 54.5505 218.55L53.3942 221.628ZM61.1386 228.847V218.347H62.3105V219.332C62.5917 218.946 62.9042 218.66 63.248 218.472C63.5917 218.274 64.0136 218.175 64.5136 218.175C65.1594 218.175 65.7323 218.342 66.2323 218.675C66.7323 219.009 67.1073 219.483 67.3573 220.097C67.6073 220.701 67.7323 221.363 67.7323 222.082C67.7323 222.863 67.5917 223.566 67.3105 224.191C67.0396 224.805 66.6334 225.279 66.0917 225.613C65.5605 225.946 65.0032 226.113 64.4198 226.113C63.9927 226.113 63.6073 226.024 63.2636 225.847C62.9198 225.66 62.6386 225.43 62.4198 225.16V228.847H61.1386ZM62.2948 222.191C62.2948 223.16 62.4927 223.878 62.8886 224.347C63.2948 224.816 63.7792 225.05 64.3417 225.05C64.9146 225.05 65.4042 224.811 65.8105 224.332C66.2167 223.842 66.4198 223.092 66.4198 222.082C66.4198 221.113 66.2167 220.389 65.8105 219.91C65.4146 219.42 64.9407 219.175 64.3886 219.175C63.8469 219.175 63.3625 219.436 62.9355 219.957C62.5084 220.467 62.2948 221.212 62.2948 222.191ZM69.2897 228.847V218.347H70.4616V219.332C70.7428 218.946 71.0553 218.66 71.3991 218.472C71.7428 218.274 72.1647 218.175 72.6647 218.175C73.3105 218.175 73.8835 218.342 74.3835 218.675C74.8835 219.009 75.2585 219.483 75.5085 220.097C75.7585 220.701 75.8835 221.363 75.8835 222.082C75.8835 222.863 75.7428 223.566 75.4616 224.191C75.1907 224.805 74.7845 225.279 74.2428 225.613C73.7116 225.946 73.1543 226.113 72.571 226.113C72.1439 226.113 71.7585 226.024 71.4147 225.847C71.071 225.66 70.7897 225.43 70.571 225.16V228.847H69.2897ZM70.446 222.191C70.446 223.16 70.6439 223.878 71.0397 224.347C71.446 224.816 71.9303 225.05 72.4928 225.05C73.0657 225.05 73.5553 224.811 73.9616 224.332C74.3678 223.842 74.571 223.092 74.571 222.082C74.571 221.113 74.3678 220.389 73.9616 219.91C73.5657 219.42 73.0918 219.175 72.5397 219.175C71.998 219.175 71.5137 219.436 71.0866 219.957C70.6595 220.467 70.446 221.212 70.446 222.191ZM77.4095 225.941V215.457H78.6908V225.941H77.4095ZM80.697 216.925V215.457H81.9938V216.925H80.697ZM80.697 225.941V218.347H81.9938V225.941H80.697ZM88.9062 223.16L90.1718 223.316C90.0364 224.191 89.6823 224.878 89.1093 225.378C88.5468 225.868 87.8489 226.113 87.0156 226.113C85.9739 226.113 85.1354 225.774 84.5 225.097C83.875 224.41 83.5625 223.436 83.5625 222.175C83.5625 221.352 83.6979 220.634 83.9687 220.019C84.2396 219.404 84.651 218.946 85.2031 218.644C85.7656 218.332 86.3698 218.175 87.0156 218.175C87.8489 218.175 88.526 218.384 89.0468 218.8C89.5677 219.217 89.9062 219.805 90.0625 220.566L88.7968 220.769C88.6823 220.259 88.4739 219.873 88.1718 219.613C87.8698 219.352 87.5052 219.222 87.0781 219.222C86.4218 219.222 85.8906 219.457 85.4843 219.925C85.0781 220.394 84.875 221.128 84.875 222.128C84.875 223.149 85.0677 223.894 85.4531 224.363C85.8489 224.821 86.3646 225.05 87 225.05C87.5 225.05 87.9218 224.899 88.2656 224.597C88.6093 224.285 88.8229 223.805 88.9062 223.16ZM96.2343 225.003C95.7552 225.41 95.2968 225.696 94.8593 225.863C94.4218 226.029 93.9479 226.113 93.4375 226.113C92.6041 226.113 91.9635 225.91 91.5156 225.503C91.0677 225.097 90.8437 224.576 90.8437 223.941C90.8437 223.566 90.9271 223.227 91.0937 222.925C91.2604 222.613 91.4791 222.363 91.75 222.175C92.0312 221.988 92.3437 221.847 92.6875 221.753C92.9375 221.691 93.3177 221.628 93.8281 221.566C94.8698 221.441 95.6354 221.29 96.125 221.113C96.1354 220.936 96.1406 220.826 96.1406 220.785C96.1406 220.253 96.0156 219.884 95.7656 219.675C95.4427 219.384 94.9583 219.238 94.3125 219.238C93.6979 219.238 93.2448 219.347 92.9531 219.566C92.6718 219.774 92.4635 220.144 92.3281 220.675L91.0625 220.503C91.1771 219.972 91.3646 219.54 91.625 219.207C91.8854 218.873 92.2656 218.618 92.7656 218.441C93.2656 218.264 93.8385 218.175 94.4843 218.175C95.1406 218.175 95.6718 218.253 96.0781 218.41C96.4843 218.555 96.7812 218.743 96.9687 218.972C97.1562 219.201 97.2916 219.493 97.375 219.847C97.4166 220.066 97.4375 220.462 97.4375 221.035V222.753C97.4375 223.951 97.4635 224.712 97.5156 225.035C97.5677 225.347 97.6771 225.649 97.8437 225.941H96.5C96.3646 225.67 96.276 225.358 96.2343 225.003ZM96.125 222.128C95.6562 222.316 94.9583 222.477 94.0312 222.613C93.5 222.686 93.125 222.774 92.9062 222.878C92.6875 222.972 92.5156 223.113 92.3906 223.3C92.276 223.477 92.2187 223.675 92.2187 223.894C92.2187 224.238 92.3489 224.524 92.6093 224.753C92.8698 224.983 93.25 225.097 93.75 225.097C94.2396 225.097 94.6771 224.993 95.0625 224.785C95.4583 224.566 95.7448 224.269 95.9218 223.894C96.0573 223.602 96.125 223.17 96.125 222.597V222.128ZM102.245 224.785L102.432 225.925C102.068 225.998 101.74 226.035 101.448 226.035C100.99 226.035 100.63 225.962 100.37 225.816C100.109 225.67 99.9271 225.477 99.823 225.238C99.7188 224.998 99.6667 224.493 99.6667 223.722V219.347H98.7136V218.347H99.6667V216.457L100.948 215.691V218.347H102.245V219.347H100.948V223.785C100.948 224.149 100.969 224.389 101.01 224.503C101.063 224.608 101.135 224.691 101.229 224.753C101.333 224.805 101.484 224.832 101.682 224.832C101.818 224.832 102.005 224.816 102.245 224.785ZM103.504 216.925V215.457H104.801V216.925H103.504ZM103.504 225.941V218.347H104.801V225.941H103.504ZM106.276 222.144C106.276 220.738 106.667 219.696 107.448 219.019C108.104 218.457 108.901 218.175 109.839 218.175C110.891 218.175 111.745 218.519 112.401 219.207C113.068 219.884 113.401 220.826 113.401 222.035C113.401 223.014 113.255 223.785 112.964 224.347C112.672 224.899 112.245 225.332 111.682 225.644C111.12 225.957 110.505 226.113 109.839 226.113C108.776 226.113 107.917 225.774 107.26 225.097C106.604 224.41 106.276 223.425 106.276 222.144ZM107.604 222.144C107.604 223.113 107.813 223.842 108.229 224.332C108.656 224.811 109.193 225.05 109.839 225.05C110.484 225.05 111.016 224.811 111.432 224.332C111.859 223.842 112.073 223.097 112.073 222.097C112.073 221.16 111.859 220.451 111.432 219.972C111.005 219.483 110.474 219.238 109.839 219.238C109.193 219.238 108.656 219.477 108.229 219.957C107.813 220.436 107.604 221.165 107.604 222.144ZM114.912 225.941V218.347H116.068V219.425C116.63 218.592 117.438 218.175 118.49 218.175C118.948 218.175 119.37 218.259 119.755 218.425C120.141 218.582 120.427 218.795 120.615 219.066C120.802 219.337 120.938 219.654 121.021 220.019C121.063 220.259 121.083 220.675 121.083 221.269V225.941H119.802V221.316C119.802 220.795 119.75 220.404 119.646 220.144C119.542 219.884 119.359 219.675 119.099 219.519C118.849 219.363 118.552 219.285 118.208 219.285C117.667 219.285 117.193 219.462 116.787 219.816C116.391 220.16 116.193 220.816 116.193 221.785V225.941H114.912Z" fill="black"/>
</g>
<path fill-rule="evenodd" clip-rule="evenodd" d="M33 72.4908H139.488V347.231H33V72.4908Z" fill="white"/>
<path fill-rule="evenodd" clip-rule="evenodd" d="M33 72.4908H139.488V347.231H33V72.4908Z" stroke="#44546A" stroke-miterlimit="10" stroke-linejoin="round"/>
<path d="M76.1181 202.269L77.5087 202.613C77.217 203.748 76.691 204.618 75.9306 205.222C75.1806 205.816 74.2587 206.113 73.1649 206.113C72.0399 206.113 71.1233 205.884 70.4149 205.425C69.7066 204.967 69.1649 204.3 68.7899 203.425C68.4254 202.55 68.2431 201.613 68.2431 200.613C68.2431 199.519 68.4514 198.566 68.8681 197.753C69.2847 196.941 69.8785 196.326 70.6493 195.91C71.4202 195.483 72.2691 195.269 73.1962 195.269C74.2379 195.269 75.1181 195.54 75.8368 196.082C76.5556 196.613 77.0556 197.363 77.3368 198.332L75.9618 198.644C75.7222 197.884 75.3681 197.332 74.8993 196.988C74.441 196.634 73.8629 196.457 73.1649 196.457C72.3524 196.457 71.6754 196.649 71.1337 197.035C70.592 197.42 70.2118 197.941 69.9931 198.597C69.7743 199.243 69.6649 199.915 69.6649 200.613C69.6649 201.498 69.7952 202.274 70.0556 202.941C70.316 203.608 70.7222 204.108 71.2743 204.441C71.8264 204.764 72.4202 204.925 73.0556 204.925C73.8368 204.925 74.4931 204.701 75.0243 204.253C75.566 203.805 75.9306 203.144 76.1181 202.269ZM79.0305 205.941V195.457H80.3117V205.941H79.0305ZM82.3179 196.925V195.457H83.6147V196.925H82.3179ZM82.3179 205.941V198.347H83.6147V205.941H82.3179ZM90.7772 203.488L92.1053 203.66C91.897 204.441 91.5063 205.045 90.9334 205.472C90.3709 205.899 89.647 206.113 88.7615 206.113C87.647 206.113 86.7615 205.774 86.1053 205.097C85.4595 204.41 85.1365 203.446 85.1365 202.207C85.1365 200.925 85.4647 199.936 86.1209 199.238C86.7876 198.529 87.647 198.175 88.699 198.175C89.7095 198.175 90.5376 198.519 91.1834 199.207C91.8292 199.894 92.1522 200.868 92.1522 202.128C92.1522 202.201 92.147 202.316 92.1365 202.472H86.4803C86.522 203.305 86.7563 203.946 87.1834 204.394C87.6105 204.832 88.1417 205.05 88.7772 205.05C89.2459 205.05 89.647 204.93 89.9803 204.691C90.3136 204.441 90.5792 204.04 90.7772 203.488ZM86.5428 201.41H90.7928C90.7303 200.774 90.5688 200.295 90.3084 199.972C89.8917 199.472 89.3553 199.222 88.699 199.222C88.1157 199.222 87.6209 199.42 87.2147 199.816C86.8084 200.212 86.5845 200.743 86.5428 201.41ZM93.7251 205.941V198.347H94.8814V199.425C95.4439 198.592 96.2512 198.175 97.3033 198.175C97.7616 198.175 98.1835 198.259 98.5689 198.425C98.9543 198.582 99.2408 198.795 99.4283 199.066C99.6158 199.337 99.7512 199.654 99.8345 200.019C99.8762 200.259 99.897 200.675 99.897 201.269V205.941H98.6158V201.316C98.6158 200.795 98.5637 200.404 98.4595 200.144C98.3553 199.884 98.173 199.675 97.9126 199.519C97.6626 199.363 97.3658 199.285 97.022 199.285C96.4803 199.285 96.0064 199.462 95.6001 199.816C95.2043 200.16 95.0064 200.816 95.0064 201.785V205.941H93.7251ZM104.689 204.785L104.876 205.925C104.512 205.998 104.184 206.035 103.892 206.035C103.434 206.035 103.074 205.962 102.814 205.816C102.553 205.67 102.371 205.477 102.267 205.238C102.163 204.998 102.111 204.493 102.111 203.722V199.347H101.158V198.347H102.111V196.457L103.392 195.691V198.347H104.689V199.347H103.392V203.785C103.392 204.149 103.413 204.389 103.454 204.503C103.506 204.608 103.579 204.691 103.673 204.753C103.777 204.805 103.928 204.832 104.126 204.832C104.262 204.832 104.449 204.816 104.689 204.785Z" fill="black"/>
<path d="M50.3786 223.941L54.3942 213.457H55.8942L60.1911 223.941H58.613L57.3786 220.769H53.0036L51.8474 223.941H50.3786ZM53.3942 219.628H56.9567L55.863 216.722C55.5296 215.847 55.2796 215.123 55.113 214.55C54.9776 215.227 54.7901 215.894 54.5505 216.55L53.3942 219.628ZM61.1386 226.847V216.347H62.3105V217.332C62.5917 216.946 62.9042 216.66 63.248 216.472C63.5917 216.274 64.0136 216.175 64.5136 216.175C65.1594 216.175 65.7323 216.342 66.2323 216.675C66.7323 217.009 67.1073 217.483 67.3573 218.097C67.6073 218.701 67.7323 219.363 67.7323 220.082C67.7323 220.863 67.5917 221.566 67.3105 222.191C67.0396 222.805 66.6334 223.279 66.0917 223.613C65.5605 223.946 65.0032 224.113 64.4198 224.113C63.9927 224.113 63.6073 224.024 63.2636 223.847C62.9198 223.66 62.6386 223.43 62.4198 223.16V226.847H61.1386ZM62.2948 220.191C62.2948 221.16 62.4927 221.878 62.8886 222.347C63.2948 222.816 63.7792 223.05 64.3417 223.05C64.9146 223.05 65.4042 222.811 65.8105 222.332C66.2167 221.842 66.4198 221.092 66.4198 220.082C66.4198 219.113 66.2167 218.389 65.8105 217.91C65.4146 217.42 64.9407 217.175 64.3886 217.175C63.8469 217.175 63.3625 217.436 62.9355 217.957C62.5084 218.467 62.2948 219.212 62.2948 220.191ZM69.2897 226.847V216.347H70.4616V217.332C70.7428 216.946 71.0553 216.66 71.3991 216.472C71.7428 216.274 72.1647 216.175 72.6647 216.175C73.3105 216.175 73.8835 216.342 74.3835 216.675C74.8835 217.009 75.2585 217.483 75.5085 218.097C75.7585 218.701 75.8835 219.363 75.8835 220.082C75.8835 220.863 75.7428 221.566 75.4616 222.191C75.1907 222.805 74.7845 223.279 74.2428 223.613C73.7116 223.946 73.1543 224.113 72.571 224.113C72.1439 224.113 71.7585 224.024 71.4147 223.847C71.071 223.66 70.7897 223.43 70.571 223.16V226.847H69.2897ZM70.446 220.191C70.446 221.16 70.6439 221.878 71.0397 222.347C71.446 222.816 71.9303 223.05 72.4928 223.05C73.0657 223.05 73.5553 222.811 73.9616 222.332C74.3678 221.842 74.571 221.092 74.571 220.082C74.571 219.113 74.3678 218.389 73.9616 217.91C73.5657 217.42 73.0918 217.175 72.5397 217.175C71.998 217.175 71.5137 217.436 71.0866 217.957C70.6595 218.467 70.446 219.212 70.446 220.191ZM77.4095 223.941V213.457H78.6908V223.941H77.4095ZM80.697 214.925V213.457H81.9938V214.925H80.697ZM80.697 223.941V216.347H81.9938V223.941H80.697ZM88.9062 221.16L90.1718 221.316C90.0364 222.191 89.6823 222.878 89.1093 223.378C88.5468 223.868 87.8489 224.113 87.0156 224.113C85.9739 224.113 85.1354 223.774 84.5 223.097C83.875 222.41 83.5625 221.436 83.5625 220.175C83.5625 219.352 83.6979 218.634 83.9687 218.019C84.2396 217.404 84.651 216.946 85.2031 216.644C85.7656 216.332 86.3698 216.175 87.0156 216.175C87.8489 216.175 88.526 216.384 89.0468 216.8C89.5677 217.217 89.9062 217.805 90.0625 218.566L88.7968 218.769C88.6823 218.259 88.4739 217.873 88.1718 217.613C87.8698 217.352 87.5052 217.222 87.0781 217.222C86.4218 217.222 85.8906 217.457 85.4843 217.925C85.0781 218.394 84.875 219.128 84.875 220.128C84.875 221.149 85.0677 221.894 85.4531 222.363C85.8489 222.821 86.3646 223.05 87 223.05C87.5 223.05 87.9218 222.899 88.2656 222.597C88.6093 222.285 88.8229 221.805 88.9062 221.16ZM96.2343 223.003C95.7552 223.41 95.2968 223.696 94.8593 223.863C94.4218 224.029 93.9479 224.113 93.4375 224.113C92.6041 224.113 91.9635 223.91 91.5156 223.503C91.0677 223.097 90.8437 222.576 90.8437 221.941C90.8437 221.566 90.9271 221.227 91.0937 220.925C91.2604 220.613 91.4791 220.363 91.75 220.175C92.0312 219.988 92.3437 219.847 92.6875 219.753C92.9375 219.691 93.3177 219.628 93.8281 219.566C94.8698 219.441 95.6354 219.29 96.125 219.113C96.1354 218.936 96.1406 218.826 96.1406 218.785C96.1406 218.253 96.0156 217.884 95.7656 217.675C95.4427 217.384 94.9583 217.238 94.3125 217.238C93.6979 217.238 93.2448 217.347 92.9531 217.566C92.6718 217.774 92.4635 218.144 92.3281 218.675L91.0625 218.503C91.1771 217.972 91.3646 217.54 91.625 217.207C91.8854 216.873 92.2656 216.618 92.7656 216.441C93.2656 216.264 93.8385 216.175 94.4843 216.175C95.1406 216.175 95.6718 216.253 96.0781 216.41C96.4843 216.555 96.7812 216.743 96.9687 216.972C97.1562 217.201 97.2916 217.493 97.375 217.847C97.4166 218.066 97.4375 218.462 97.4375 219.035V220.753C97.4375 221.951 97.4635 222.712 97.5156 223.035C97.5677 223.347 97.6771 223.649 97.8437 223.941H96.5C96.3646 223.67 96.276 223.358 96.2343 223.003ZM96.125 220.128C95.6562 220.316 94.9583 220.477 94.0312 220.613C93.5 220.686 93.125 220.774 92.9062 220.878C92.6875 220.972 92.5156 221.113 92.3906 221.3C92.276 221.477 92.2187 221.675 92.2187 221.894C92.2187 222.238 92.3489 222.524 92.6093 222.753C92.8698 222.983 93.25 223.097 93.75 223.097C94.2396 223.097 94.6771 222.993 95.0625 222.785C95.4583 222.566 95.7448 222.269 95.9218 221.894C96.0573 221.602 96.125 221.17 96.125 220.597V220.128ZM102.245 222.785L102.432 223.925C102.068 223.998 101.74 224.035 101.448 224.035C100.99 224.035 100.63 223.962 100.37 223.816C100.109 223.67 99.9271 223.477 99.823 223.238C99.7188 222.998 99.6667 222.493 99.6667 221.722V217.347H98.7136V216.347H99.6667V214.457L100.948 213.691V216.347H102.245V217.347H100.948V221.785C100.948 222.149 100.969 222.389 101.01 222.503C101.063 222.608 101.135 222.691 101.229 222.753C101.333 222.805 101.484 222.832 101.682 222.832C101.818 222.832 102.005 222.816 102.245 222.785ZM103.504 214.925V213.457H104.801V214.925H103.504ZM103.504 223.941V216.347H104.801V223.941H103.504ZM106.276 220.144C106.276 218.738 106.667 217.696 107.448 217.019C108.104 216.457 108.901 216.175 109.839 216.175C110.891 216.175 111.745 216.519 112.401 217.207C113.068 217.884 113.401 218.826 113.401 220.035C113.401 221.014 113.255 221.785 112.964 222.347C112.672 222.899 112.245 223.332 111.682 223.644C111.12 223.957 110.505 224.113 109.839 224.113C108.776 224.113 107.917 223.774 107.26 223.097C106.604 222.41 106.276 221.425 106.276 220.144ZM107.604 220.144C107.604 221.113 107.813 221.842 108.229 222.332C108.656 222.811 109.193 223.05 109.839 223.05C110.484 223.05 111.016 222.811 111.432 222.332C111.859 221.842 112.073 221.097 112.073 220.097C112.073 219.16 111.859 218.451 111.432 217.972C111.005 217.483 110.474 217.238 109.839 217.238C109.193 217.238 108.656 217.477 108.229 217.957C107.813 218.436 107.604 219.165 107.604 220.144ZM114.912 223.941V216.347H116.068V217.425C116.63 216.592 117.438 216.175 118.49 216.175C118.948 216.175 119.37 216.259 119.755 216.425C120.141 216.582 120.427 216.795 120.615 217.066C120.802 217.337 120.938 217.654 121.021 218.019C121.063 218.259 121.083 218.675 121.083 219.269V223.941H119.802V219.316C119.802 218.795 119.75 218.404 119.646 218.144C119.542 217.884 119.359 217.675 119.099 217.519C118.849 217.363 118.552 217.285 118.208 217.285C117.667 217.285 117.193 217.462 116.787 217.816C116.391 218.16 116.193 218.816 116.193 219.785V223.941H114.912Z" fill="black"/>
<path d="M151.866 155.241H198.008" stroke="#44546A" stroke-width="2" stroke-miterlimit="10" stroke-linejoin="round"/>
<path fill-rule="evenodd" clip-rule="evenodd" d="M198.008 158.545L207.084 155.241L198.008 151.938V158.545Z" fill="#44546A" stroke="#44546A" stroke-width="2" stroke-miterlimit="10"/>
<path d="M210.008 187.241H163.866" stroke="#44546A" stroke-width="2" stroke-miterlimit="10" stroke-linejoin="round"/>
<path fill-rule="evenodd" clip-rule="evenodd" d="M163.866 183.938L154.79 187.241L163.866 190.545V183.938Z" fill="#44546A" stroke="#44546A" stroke-width="2" stroke-miterlimit="10"/>
<path d="M159.866 235.241H206.008" stroke="#44546A" stroke-width="2" stroke-miterlimit="10" stroke-linejoin="round"/>
<path fill-rule="evenodd" clip-rule="evenodd" d="M206.008 238.545L215.084 235.241L206.008 231.938V238.545Z" fill="#44546A" stroke="#44546A" stroke-width="2" stroke-miterlimit="10"/>
<path d="M218.008 267.241H171.866" stroke="#44546A" stroke-width="2" stroke-miterlimit="10" stroke-linejoin="round"/>
<path fill-rule="evenodd" clip-rule="evenodd" d="M171.866 263.938L162.79 267.241L171.866 270.545V263.938Z" fill="#44546A" stroke="#44546A" stroke-width="2" stroke-miterlimit="10"/>
<g filter="url(#filter2_f_1_2)">
<path fill-rule="evenodd" clip-rule="evenodd" d="M425 74.4908H531.488V349.231H425V74.4908Z" fill="white"/>
<path fill-rule="evenodd" clip-rule="evenodd" d="M425 74.4908H531.488V349.231H425V74.4908Z" stroke="#44546A" stroke-miterlimit="10" stroke-linejoin="round"/>
<path d="M449.791 204.269L451.181 204.613C450.89 205.748 450.364 206.618 449.603 207.222C448.853 207.816 447.931 208.113 446.837 208.113C445.712 208.113 444.796 207.884 444.087 207.425C443.379 206.967 442.837 206.3 442.462 205.425C442.098 204.55 441.916 203.613 441.916 202.613C441.916 201.519 442.124 200.566 442.541 199.753C442.957 198.941 443.551 198.326 444.322 197.91C445.093 197.483 445.942 197.269 446.869 197.269C447.91 197.269 448.791 197.54 449.509 198.082C450.228 198.613 450.728 199.363 451.009 200.332L449.634 200.644C449.395 199.884 449.041 199.332 448.572 198.988C448.114 198.634 447.535 198.457 446.837 198.457C446.025 198.457 445.348 198.649 444.806 199.035C444.265 199.42 443.884 199.941 443.666 200.597C443.447 201.243 443.337 201.915 443.337 202.613C443.337 203.498 443.468 204.274 443.728 204.941C443.989 205.608 444.395 206.108 444.947 206.441C445.499 206.764 446.093 206.925 446.728 206.925C447.509 206.925 448.166 206.701 448.697 206.253C449.239 205.805 449.603 205.144 449.791 204.269ZM457.937 205.488L459.266 205.66C459.057 206.441 458.667 207.045 458.094 207.472C457.531 207.899 456.807 208.113 455.922 208.113C454.807 208.113 453.922 207.774 453.266 207.097C452.62 206.41 452.297 205.446 452.297 204.207C452.297 202.925 452.625 201.936 453.281 201.238C453.948 200.529 454.807 200.175 455.859 200.175C456.87 200.175 457.698 200.519 458.344 201.207C458.989 201.894 459.312 202.868 459.312 204.128C459.312 204.201 459.307 204.316 459.297 204.472H453.641C453.682 205.305 453.917 205.946 454.344 206.394C454.771 206.832 455.302 207.05 455.937 207.05C456.406 207.05 456.807 206.93 457.141 206.691C457.474 206.441 457.739 206.04 457.937 205.488ZM453.703 203.41H457.953C457.891 202.774 457.729 202.295 457.469 201.972C457.052 201.472 456.516 201.222 455.859 201.222C455.276 201.222 454.781 201.42 454.375 201.816C453.969 202.212 453.745 202.743 453.703 203.41ZM460.87 207.941V200.347H462.026V201.488C462.328 200.957 462.604 200.608 462.854 200.441C463.104 200.264 463.375 200.175 463.667 200.175C464.104 200.175 464.547 200.311 464.995 200.582L464.557 201.785C464.245 201.597 463.927 201.503 463.604 201.503C463.323 201.503 463.068 201.587 462.839 201.753C462.62 201.92 462.464 202.154 462.37 202.457C462.224 202.915 462.151 203.415 462.151 203.957V207.941H460.87ZM468.578 206.785L468.766 207.925C468.401 207.998 468.073 208.035 467.782 208.035C467.323 208.035 466.964 207.962 466.703 207.816C466.443 207.67 466.261 207.477 466.157 207.238C466.052 206.998 466 206.493 466 205.722V201.347H465.047V200.347H466V198.457L467.282 197.691V200.347H468.578V201.347H467.282V205.785C467.282 206.149 467.302 206.389 467.344 206.503C467.396 206.608 467.469 206.691 467.563 206.753C467.667 206.805 467.818 206.832 468.016 206.832C468.151 206.832 468.339 206.816 468.578 206.785ZM469.838 198.925V197.457H471.135V198.925H469.838ZM469.838 207.941V200.347H471.135V207.941H469.838ZM473.407 207.941V201.347H472.266V200.347H473.407V199.535C473.407 199.024 473.448 198.644 473.532 198.394C473.657 198.061 473.875 197.79 474.188 197.582C474.5 197.373 474.938 197.269 475.5 197.269C475.865 197.269 476.266 197.311 476.703 197.394L476.516 198.519C476.245 198.477 475.99 198.457 475.75 198.457C475.365 198.457 475.089 198.54 474.922 198.707C474.766 198.873 474.688 199.186 474.688 199.644V200.347H476.157V201.347H474.688V207.941H473.407ZM482.119 207.003C481.64 207.41 481.182 207.696 480.744 207.863C480.307 208.029 479.833 208.113 479.322 208.113C478.489 208.113 477.848 207.91 477.401 207.503C476.953 207.097 476.729 206.576 476.729 205.941C476.729 205.566 476.812 205.227 476.979 204.925C477.145 204.613 477.364 204.363 477.635 204.175C477.916 203.988 478.229 203.847 478.572 203.753C478.822 203.691 479.203 203.628 479.713 203.566C480.755 203.441 481.52 203.29 482.01 203.113C482.02 202.936 482.026 202.826 482.026 202.785C482.026 202.253 481.901 201.884 481.651 201.675C481.328 201.384 480.843 201.238 480.197 201.238C479.583 201.238 479.13 201.347 478.838 201.566C478.557 201.774 478.348 202.144 478.213 202.675L476.947 202.503C477.062 201.972 477.249 201.54 477.51 201.207C477.77 200.873 478.151 200.618 478.651 200.441C479.151 200.264 479.723 200.175 480.369 200.175C481.026 200.175 481.557 200.253 481.963 200.41C482.369 200.555 482.666 200.743 482.854 200.972C483.041 201.201 483.177 201.493 483.26 201.847C483.302 202.066 483.322 202.462 483.322 203.035V204.753C483.322 205.951 483.348 206.712 483.401 207.035C483.453 207.347 483.562 207.649 483.729 207.941H482.385C482.249 207.67 482.161 207.358 482.119 207.003ZM482.01 204.128C481.541 204.316 480.843 204.477 479.916 204.613C479.385 204.686 479.01 204.774 478.791 204.878C478.572 204.972 478.401 205.113 478.276 205.3C478.161 205.477 478.104 205.675 478.104 205.894C478.104 206.238 478.234 206.524 478.494 206.753C478.755 206.983 479.135 207.097 479.635 207.097C480.124 207.097 480.562 206.993 480.947 206.785C481.343 206.566 481.63 206.269 481.807 205.894C481.942 205.602 482.01 205.17 482.01 204.597V204.128ZM490.27 205.16L491.536 205.316C491.401 206.191 491.046 206.878 490.473 207.378C489.911 207.868 489.213 208.113 488.38 208.113C487.338 208.113 486.499 207.774 485.864 207.097C485.239 206.41 484.927 205.436 484.927 204.175C484.927 203.352 485.062 202.634 485.333 202.019C485.604 201.404 486.015 200.946 486.567 200.644C487.13 200.332 487.734 200.175 488.38 200.175C489.213 200.175 489.89 200.384 490.411 200.8C490.932 201.217 491.27 201.805 491.427 202.566L490.161 202.769C490.046 202.259 489.838 201.873 489.536 201.613C489.234 201.352 488.869 201.222 488.442 201.222C487.786 201.222 487.255 201.457 486.848 201.925C486.442 202.394 486.239 203.128 486.239 204.128C486.239 205.149 486.432 205.894 486.817 206.363C487.213 206.821 487.729 207.05 488.364 207.05C488.864 207.05 489.286 206.899 489.63 206.597C489.973 206.285 490.187 205.805 490.27 205.16ZM495.458 206.785L495.645 207.925C495.281 207.998 494.953 208.035 494.661 208.035C494.203 208.035 493.843 207.962 493.583 207.816C493.322 207.67 493.14 207.477 493.036 207.238C492.932 206.998 492.88 206.493 492.88 205.722V201.347H491.927V200.347H492.88V198.457L494.161 197.691V200.347H495.458V201.347H494.161V205.785C494.161 206.149 494.182 206.389 494.223 206.503C494.276 206.608 494.348 206.691 494.442 206.753C494.546 206.805 494.697 206.832 494.895 206.832C495.031 206.832 495.218 206.816 495.458 206.785ZM496.717 198.925V197.457H498.014V198.925H496.717ZM496.717 207.941V200.347H498.014V207.941H496.717ZM499.489 204.144C499.489 202.738 499.88 201.696 500.661 201.019C501.317 200.457 502.114 200.175 503.052 200.175C504.104 200.175 504.958 200.519 505.614 201.207C506.281 201.884 506.614 202.826 506.614 204.035C506.614 205.014 506.468 205.785 506.177 206.347C505.885 206.899 505.458 207.332 504.895 207.644C504.333 207.957 503.718 208.113 503.052 208.113C501.989 208.113 501.13 207.774 500.473 207.097C499.817 206.41 499.489 205.425 499.489 204.144ZM500.817 204.144C500.817 205.113 501.026 205.842 501.442 206.332C501.869 206.811 502.406 207.05 503.052 207.05C503.697 207.05 504.229 206.811 504.645 206.332C505.072 205.842 505.286 205.097 505.286 204.097C505.286 203.16 505.072 202.451 504.645 201.972C504.218 201.483 503.687 201.238 503.052 201.238C502.406 201.238 501.869 201.477 501.442 201.957C501.026 202.436 500.817 203.165 500.817 204.144ZM508.125 207.941V200.347H509.281V201.425C509.843 200.592 510.651 200.175 511.703 200.175C512.161 200.175 512.583 200.259 512.968 200.425C513.354 200.582 513.64 200.795 513.828 201.066C514.015 201.337 514.151 201.654 514.234 202.019C514.276 202.259 514.296 202.675 514.296 203.269V207.941H513.015V203.316C513.015 202.795 512.963 202.404 512.859 202.144C512.755 201.884 512.572 201.675 512.312 201.519C512.062 201.363 511.765 201.285 511.421 201.285C510.88 201.285 510.406 201.462 510 201.816C509.604 202.16 509.406 202.816 509.406 203.785V207.941H508.125Z" fill="black"/>
<path d="M466.417 225.941L470.432 215.457H471.932L476.229 225.941H474.651L473.417 222.769H469.042L467.886 225.941H466.417ZM469.432 221.628H472.995L471.901 218.722C471.568 217.847 471.318 217.123 471.151 216.55C471.016 217.227 470.828 217.894 470.589 218.55L469.432 221.628ZM477.333 225.941V215.457H481.302C482 215.457 482.531 215.488 482.896 215.55C483.406 215.634 483.833 215.795 484.177 216.035C484.531 216.274 484.812 216.613 485.021 217.05C485.239 217.488 485.349 217.967 485.349 218.488C485.349 219.373 485.062 220.128 484.489 220.753C483.927 221.368 482.901 221.675 481.411 221.675H478.724V225.941H477.333ZM478.724 220.441H481.442C482.338 220.441 482.974 220.274 483.349 219.941C483.724 219.608 483.911 219.139 483.911 218.535C483.911 218.087 483.802 217.707 483.583 217.394C483.364 217.082 483.073 216.878 482.708 216.785C482.468 216.722 482.036 216.691 481.411 216.691H478.724V220.441ZM487.343 225.941V215.457H488.734V225.941H487.343Z" fill="black"/>
</g>
<path fill-rule="evenodd" clip-rule="evenodd" d="M425 72.4908H531.488V347.231H425V72.4908Z" fill="white"/>
<path fill-rule="evenodd" clip-rule="evenodd" d="M425 72.4908H531.488V347.231H425V72.4908Z" stroke="#44546A" stroke-miterlimit="10" stroke-linejoin="round"/>
<path d="M449.791 202.269L451.181 202.613C450.89 203.748 450.364 204.618 449.603 205.222C448.853 205.816 447.931 206.113 446.837 206.113C445.712 206.113 444.796 205.884 444.087 205.425C443.379 204.967 442.837 204.3 442.462 203.425C442.098 202.55 441.916 201.613 441.916 200.613C441.916 199.519 442.124 198.566 442.541 197.753C442.957 196.941 443.551 196.326 444.322 195.91C445.093 195.483 445.942 195.269 446.869 195.269C447.91 195.269 448.791 195.54 449.509 196.082C450.228 196.613 450.728 197.363 451.009 198.332L449.634 198.644C449.395 197.884 449.041 197.332 448.572 196.988C448.114 196.634 447.535 196.457 446.837 196.457C446.025 196.457 445.348 196.649 444.806 197.035C444.265 197.42 443.884 197.941 443.666 198.597C443.447 199.243 443.337 199.915 443.337 200.613C443.337 201.498 443.468 202.274 443.728 202.941C443.989 203.608 444.395 204.108 444.947 204.441C445.499 204.764 446.093 204.925 446.728 204.925C447.509 204.925 448.166 204.701 448.697 204.253C449.239 203.805 449.603 203.144 449.791 202.269ZM457.937 203.488L459.266 203.66C459.057 204.441 458.667 205.045 458.094 205.472C457.531 205.899 456.807 206.113 455.922 206.113C454.807 206.113 453.922 205.774 453.266 205.097C452.62 204.41 452.297 203.446 452.297 202.207C452.297 200.925 452.625 199.936 453.281 199.238C453.948 198.529 454.807 198.175 455.859 198.175C456.87 198.175 457.698 198.519 458.344 199.207C458.989 199.894 459.312 200.868 459.312 202.128C459.312 202.201 459.307 202.316 459.297 202.472H453.641C453.682 203.305 453.917 203.946 454.344 204.394C454.771 204.832 455.302 205.05 455.937 205.05C456.406 205.05 456.807 204.93 457.141 204.691C457.474 204.441 457.739 204.04 457.937 203.488ZM453.703 201.41H457.953C457.891 200.774 457.729 200.295 457.469 199.972C457.052 199.472 456.516 199.222 455.859 199.222C455.276 199.222 454.781 199.42 454.375 199.816C453.969 200.212 453.745 200.743 453.703 201.41ZM460.87 205.941V198.347H462.026V199.488C462.328 198.957 462.604 198.608 462.854 198.441C463.104 198.264 463.375 198.175 463.667 198.175C464.104 198.175 464.547 198.311 464.995 198.582L464.557 199.785C464.245 199.597 463.927 199.503 463.604 199.503C463.323 199.503 463.068 199.587 462.839 199.753C462.62 199.92 462.464 200.154 462.37 200.457C462.224 200.915 462.151 201.415 462.151 201.957V205.941H460.87ZM468.578 204.785L468.766 205.925C468.401 205.998 468.073 206.035 467.782 206.035C467.323 206.035 466.964 205.962 466.703 205.816C466.443 205.67 466.261 205.477 466.157 205.238C466.052 204.998 466 204.493 466 203.722V199.347H465.047V198.347H466V196.457L467.282 195.691V198.347H468.578V199.347H467.282V203.785C467.282 204.149 467.302 204.389 467.344 204.503C467.396 204.608 467.469 204.691 467.563 204.753C467.667 204.805 467.818 204.832 468.016 204.832C468.151 204.832 468.339 204.816 468.578 204.785ZM469.838 196.925V195.457H471.135V196.925H469.838ZM469.838 205.941V198.347H471.135V205.941H469.838ZM473.407 205.941V199.347H472.266V198.347H473.407V197.535C473.407 197.024 473.448 196.644 473.532 196.394C473.657 196.061 473.875 195.79 474.188 195.582C474.5 195.373 474.938 195.269 475.5 195.269C475.865 195.269 476.266 195.311 476.703 195.394L476.516 196.519C476.245 196.477 475.99 196.457 475.75 196.457C475.365 196.457 475.089 196.54 474.922 196.707C474.766 196.873 474.688 197.186 474.688 197.644V198.347H476.157V199.347H474.688V205.941H473.407ZM482.119 205.003C481.64 205.41 481.182 205.696 480.744 205.863C480.307 206.029 479.833 206.113 479.322 206.113C478.489 206.113 477.848 205.91 477.401 205.503C476.953 205.097 476.729 204.576 476.729 203.941C476.729 203.566 476.812 203.227 476.979 202.925C477.145 202.613 477.364 202.363 477.635 202.175C477.916 201.988 478.229 201.847 478.572 201.753C478.822 201.691 479.203 201.628 479.713 201.566C480.755 201.441 481.52 201.29 482.01 201.113C482.02 200.936 482.026 200.826 482.026 200.785C482.026 200.253 481.901 199.884 481.651 199.675C481.328 199.384 480.843 199.238 480.197 199.238C479.583 199.238 479.13 199.347 478.838 199.566C478.557 199.774 478.348 200.144 478.213 200.675L476.947 200.503C477.062 199.972 477.249 199.54 477.51 199.207C477.77 198.873 478.151 198.618 478.651 198.441C479.151 198.264 479.723 198.175 480.369 198.175C481.026 198.175 481.557 198.253 481.963 198.41C482.369 198.555 482.666 198.743 482.854 198.972C483.041 199.201 483.177 199.493 483.26 199.847C483.302 200.066 483.322 200.462 483.322 201.035V202.753C483.322 203.951 483.348 204.712 483.401 205.035C483.453 205.347 483.562 205.649 483.729 205.941H482.385C482.249 205.67 482.161 205.358 482.119 205.003ZM482.01 202.128C481.541 202.316 480.843 202.477 479.916 202.613C479.385 202.686 479.01 202.774 478.791 202.878C478.572 202.972 478.401 203.113 478.276 203.3C478.161 203.477 478.104 203.675 478.104 203.894C478.104 204.238 478.234 204.524 478.494 204.753C478.755 204.983 479.135 205.097 479.635 205.097C480.124 205.097 480.562 204.993 480.947 204.785C481.343 204.566 481.63 204.269 481.807 203.894C481.942 203.602 482.01 203.17 482.01 202.597V202.128ZM490.27 203.16L491.536 203.316C491.401 204.191 491.046 204.878 490.473 205.378C489.911 205.868 489.213 206.113 488.38 206.113C487.338 206.113 486.499 205.774 485.864 205.097C485.239 204.41 484.927 203.436 484.927 202.175C484.927 201.352 485.062 200.634 485.333 200.019C485.604 199.404 486.015 198.946 486.567 198.644C487.13 198.332 487.734 198.175 488.38 198.175C489.213 198.175 489.89 198.384 490.411 198.8C490.932 199.217 491.27 199.805 491.427 200.566L490.161 200.769C490.046 200.259 489.838 199.873 489.536 199.613C489.234 199.352 488.869 199.222 488.442 199.222C487.786 199.222 487.255 199.457 486.848 199.925C486.442 200.394 486.239 201.128 486.239 202.128C486.239 203.149 486.432 203.894 486.817 204.363C487.213 204.821 487.729 205.05 488.364 205.05C488.864 205.05 489.286 204.899 489.63 204.597C489.973 204.285 490.187 203.805 490.27 203.16ZM495.458 204.785L495.645 205.925C495.281 205.998 494.953 206.035 494.661 206.035C494.203 206.035 493.843 205.962 493.583 205.816C493.322 205.67 493.14 205.477 493.036 205.238C492.932 204.998 492.88 204.493 492.88 203.722V199.347H491.927V198.347H492.88V196.457L494.161 195.691V198.347H495.458V199.347H494.161V203.785C494.161 204.149 494.182 204.389 494.223 204.503C494.276 204.608 494.348 204.691 494.442 204.753C494.546 204.805 494.697 204.832 494.895 204.832C495.031 204.832 495.218 204.816 495.458 204.785ZM496.717 196.925V195.457H498.014V196.925H496.717ZM496.717 205.941V198.347H498.014V205.941H496.717ZM499.489 202.144C499.489 200.738 499.88 199.696 500.661 199.019C501.317 198.457 502.114 198.175 503.052 198.175C504.104 198.175 504.958 198.519 505.614 199.207C506.281 199.884 506.614 200.826 506.614 202.035C506.614 203.014 506.468 203.785 506.177 204.347C505.885 204.899 505.458 205.332 504.895 205.644C504.333 205.957 503.718 206.113 503.052 206.113C501.989 206.113 501.13 205.774 500.473 205.097C499.817 204.41 499.489 203.425 499.489 202.144ZM500.817 202.144C500.817 203.113 501.026 203.842 501.442 204.332C501.869 204.811 502.406 205.05 503.052 205.05C503.697 205.05 504.229 204.811 504.645 204.332C505.072 203.842 505.286 203.097 505.286 202.097C505.286 201.16 505.072 200.451 504.645 199.972C504.218 199.483 503.687 199.238 503.052 199.238C502.406 199.238 501.869 199.477 501.442 199.957C501.026 200.436 500.817 201.165 500.817 202.144ZM508.125 205.941V198.347H509.281V199.425C509.843 198.592 510.651 198.175 511.703 198.175C512.161 198.175 512.583 198.259 512.968 198.425C513.354 198.582 513.64 198.795 513.828 199.066C514.015 199.337 514.151 199.654 514.234 200.019C514.276 200.259 514.296 200.675 514.296 201.269V205.941H513.015V201.316C513.015 200.795 512.963 200.404 512.859 200.144C512.755 199.884 512.572 199.675 512.312 199.519C512.062 199.363 511.765 199.285 511.421 199.285C510.88 199.285 510.406 199.462 510 199.816C509.604 200.16 509.406 200.816 509.406 201.785V205.941H508.125Z" fill="black"/>
<path d="M466.417 223.941L470.432 213.457H471.932L476.229 223.941H474.651L473.417 220.769H469.042L467.886 223.941H466.417ZM469.432 219.628H472.995L471.901 216.722C471.568 215.847 471.318 215.123 471.151 214.55C471.016 215.227 470.828 215.894 470.589 216.55L469.432 219.628ZM477.333 223.941V213.457H481.302C482 213.457 482.531 213.488 482.896 213.55C483.406 213.634 483.833 213.795 484.177 214.035C484.531 214.274 484.812 214.613 485.021 215.05C485.239 215.488 485.349 215.967 485.349 216.488C485.349 217.373 485.062 218.128 484.489 218.753C483.927 219.368 482.901 219.675 481.411 219.675H478.724V223.941H477.333ZM478.724 218.441H481.442C482.338 218.441 482.974 218.274 483.349 217.941C483.724 217.608 483.911 217.139 483.911 216.535C483.911 216.087 483.802 215.707 483.583 215.394C483.364 215.082 483.073 214.878 482.708 214.785C482.468 214.722 482.036 214.691 481.411 214.691H478.724V218.441ZM487.343 223.941V213.457H488.734V223.941H487.343Z" fill="black"/>
<path d="M351.866 195.241H398.008" stroke="#44546A" stroke-width="2" stroke-miterlimit="10" stroke-linejoin="round"/>
<path fill-rule="evenodd" clip-rule="evenodd" d="M398.008 198.545L407.084 195.241L398.008 191.938V198.545Z" fill="#44546A" stroke="#44546A" stroke-width="2" stroke-miterlimit="10"/>
<path d="M410.008 227.241H363.866" stroke="#44546A" stroke-width="2" stroke-miterlimit="10" stroke-linejoin="round"/>
<path fill-rule="evenodd" clip-rule="evenodd" d="M363.866 223.938L354.79 227.241L363.866 230.545V223.938Z" fill="#44546A" stroke="#44546A" stroke-width="2" stroke-miterlimit="10"/>
</g>
<defs>
<filter id="filter0_f_1_2" x="228.5" y="69.9908" width="115.488" height="283.74" filterUnits="userSpaceOnUse" color-interpolation-filters="sRGB">
<feFlood flood-opacity="0" result="BackgroundImageFix"/>
<feBlend mode="normal" in="SourceGraphic" in2="BackgroundImageFix" result="shape"/>
<feGaussianBlur stdDeviation="2" result="effect1_foregroundBlur_1_2"/>
</filter>
<filter id="filter1_f_1_2" x="28.5" y="69.9908" width="115.488" height="283.74" filterUnits="userSpaceOnUse" color-interpolation-filters="sRGB">
<feFlood flood-opacity="0" result="BackgroundImageFix"/>
<feBlend mode="normal" in="SourceGraphic" in2="BackgroundImageFix" result="shape"/>
<feGaussianBlur stdDeviation="2" result="effect1_foregroundBlur_1_2"/>
</filter>
<filter id="filter2_f_1_2" x="420.5" y="69.9908" width="115.488" height="283.74" filterUnits="userSpaceOnUse" color-interpolation-filters="sRGB">
<feFlood flood-opacity="0" result="BackgroundImageFix"/>
<feBlend mode="normal" in="SourceGraphic" in2="BackgroundImageFix" result="shape"/>
<feGaussianBlur stdDeviation="2" result="effect1_foregroundBlur_1_2"/>
</filter>
<clipPath id="clip0_1_2">
<rect width="565" height="368" fill="white"/>
</clipPath>
</defs>
</svg>
